<svg xmlns="http://www.w3.org/2000/svg" xmlns:xlink="http://www.w3.org/1999/xlink" viewBox="0 0 2100.93 1136.94"><defs><style>.cls-1,.cls-15,.cls-16,.cls-35,.cls-37,.cls-38,.cls-43,.cls-44,.cls-54{fill:none;}.cls-2{isolation:isolate;}.cls-3{fill:#d9f0fb;}.cls-4{clip-path:url(#clip-path);}.cls-5{fill:#8aadbc;opacity:0.43;}.cls-6{fill:#e6bbd6;}.cls-7{fill:#77726f;}.cls-8{fill:#ffd23b;}.cls-9{fill:#daa327;}.cls-10{fill:#fff0e4;}.cls-11{fill:#9d9894;}.cls-12{fill:#ffe783;}.cls-13,.cls-22{fill:#fff;}.cls-14,.cls-33{fill:#3a5769;}.cls-15,.cls-38{stroke:#3a5769;}.cls-15,.cls-16,.cls-35,.cls-37,.cls-38,.cls-43,.cls-44,.cls-54{stroke-miterlimit:10;}.cls-15{stroke-width:5px;}.cls-16{stroke:#d9f0fb;stroke-width:13px;}.cls-17{fill:#ff9ac9;}.cls-18{fill:#ff5fa0;}.cls-19{fill:#429687;}.cls-20{fill:#4d4e6d;}.cls-21{fill:#e5edeb;}.cls-22{font-size:44.19px;font-family:Arial-BoldMT, Arial;font-weight:700;}.cls-23{fill:#2a3e48;}.cls-24{fill:#4ccdbb;}.cls-25{fill:#eedbc7;}.cls-26{fill:#45ab9a;}.cls-27{fill:#89b7bd;}.cls-28{fill:#22c6b0;}.cls-29{fill:#d4eaed;}.cls-30{fill:#00b095;}.cls-31{fill:#9f968c;}.cls-32{fill:#ffab4d;}.cls-33{opacity:0.42;}.cls-34{fill:#d6b454;}.cls-35,.cls-43{stroke:#d6b454;}.cls-35{stroke-width:2px;}.cls-36{fill:#9dd3d7;}.cls-37{stroke:#86a5b2;}.cls-37,.cls-38{stroke-width:7px;}.cls-39{fill:#c9c9c9;}.cls-40{fill:#b0b0b0;}.cls-41{fill:#abe9dd;}.cls-42{fill:#80cdbe;}.cls-43{stroke-width:4px;}.cls-44{stroke:#b0b0b0;}.cls-44,.cls-54{stroke-width:3px;}.cls-45,.cls-52{fill:#231f20;mix-blend-mode:multiply;}.cls-45{opacity:0.1;}.cls-46{fill:#ff7276;}.cls-47{fill:#f9a61a;}.cls-48{fill:#f2f2f2;}.cls-49{fill:#fbbf19;}.cls-50{fill:#d0d2d3;}.cls-51{fill:#3f4157;}.cls-52{opacity:0.2;}.cls-53{fill:#49ab9a;}.cls-54{stroke:#80cdbe;}.cls-55{fill:#ea8696;}.cls-56{fill:#ffabb6;}.cls-57{fill:#86a5b2;}.cls-58{fill:#c2c1c1;}.cls-59{fill:#e9e8e8;}</style><clipPath id="clip-path" transform="translate(0 -30.74)"><rect id="SVGID" class="cls-1" x="535.46" width="1094.82" height="1061.05"/></clipPath></defs><title>Asset 1</title><g class="cls-2"><g id="Layer_2" data-name="Layer 2"><g id="Layer_1-2" data-name="Layer 1"><path class="cls-3" d="M1802.2,803.09A85.06,85.06,0,1,1,1717.14,718,85.06,85.06,0,0,1,1802.2,803.09Z" transform="translate(0 -30.74)"/><path class="cls-3" d="M0,583.85a30.37,30.37,0,0,0,30.37,30.37H707.64A30.37,30.37,0,0,0,738,583.85h0a30.37,30.37,0,0,0-30.37-30.37H30.37A30.37,30.37,0,0,0,0,583.85Z" transform="translate(0 -30.74)"/><path class="cls-3" d="M1319.17,667a30.37,30.37,0,0,0,30.37,30.37h677.27A30.37,30.37,0,0,0,2057.18,667h0a30.37,30.37,0,0,0-30.37-30.37H1349.54A30.37,30.37,0,0,0,1319.17,667Z" transform="translate(0 -30.74)"/><path class="cls-3" d="M411.83,498.38a30.37,30.37,0,0,0,30.37,30.37H951a30.37,30.37,0,0,0,30.37-30.37h0A30.37,30.37,0,0,0,951,468H442.2a30.37,30.37,0,0,0-30.37,30.37Z" transform="translate(0 -30.74)"/><path class="cls-3" d="M169.64,498.38A30.37,30.37,0,0,0,200,528.75h82.18a30.37,30.37,0,0,0,30.37-30.37h0A30.37,30.37,0,0,0,282.19,468H200a30.37,30.37,0,0,0-30.37,30.37Z" transform="translate(0 -30.74)"/><path class="cls-3" d="M228.25,839.21a30.37,30.37,0,0,0,30.37,30.37H340.8a30.37,30.37,0,0,0,30.37-30.37h0a30.37,30.37,0,0,0-30.37-30.37H258.62a30.37,30.37,0,0,0-30.37,30.37Z" transform="translate(0 -30.74)"/><path class="cls-3" d="M1896.64,748.4a30.37,30.37,0,0,1-30.37,30.37H1189a30.37,30.37,0,0,1-30.37-30.37h0A30.37,30.37,0,0,1,1189,718h677.27a30.37,30.37,0,0,1,30.37,30.37Z" transform="translate(0 -30.74)"/><path class="cls-3" d="M2100.93,753.09a30.37,30.37,0,0,1-30.37,30.38h-82.17A30.38,30.38,0,0,1,1958,753.09h0a30.37,30.37,0,0,1,30.37-30.37h82.17a30.37,30.37,0,0,1,30.37,30.37Z" transform="translate(0 -30.74)"/><path class="cls-3" d="M301.9,604.67a51.2,51.2,0,1,1-51.2-51.19A51.2,51.2,0,0,1,301.9,604.67Z" transform="translate(0 -30.74)"/><path class="cls-3" d="M345.12,463.59a68.86,68.86,0,1,1-68.86-68.86A68.86,68.86,0,0,1,345.12,463.59Z" transform="translate(0 -30.74)"/><path class="cls-3" d="M1381.89,337.1a30.37,30.37,0,0,1-30.37,30.37h-82.17A30.37,30.37,0,0,1,1239,337.1h0a30.37,30.37,0,0,1,30.37-30.37h82.17a30.37,30.37,0,0,1,30.37,30.37Z" transform="translate(0 -30.74)"/><g class="cls-4"><path class="cls-3" d="M1078.77,1024A383.76,383.76,0,0,1,921.7,990.63a401.68,401.68,0,0,1-128.26-91,425.26,425.26,0,0,1-86.48-135,446.91,446.91,0,0,1,0-330.68,425.31,425.31,0,0,1,86.48-135,401.65,401.65,0,0,1,128.26-91,386.24,386.24,0,0,1,314.14,0,401.65,401.65,0,0,1,128.26,91,425.13,425.13,0,0,1,86.48,135,446.91,446.91,0,0,1,0,330.68,425.09,425.09,0,0,1-86.48,135,401.68,401.68,0,0,1-128.26,91A383.73,383.73,0,0,1,1078.77,1024Zm0-848.6c-222,0-402.6,190.12-402.6,423.82s180.61,423.82,402.6,423.82,402.61-190.12,402.61-423.82S1300.77,175.41,1078.77,175.41Z" transform="translate(0 -30.74)"/><path class="cls-3" d="M1078.77,1073.47c-1.78,0-3.56,0-5.33,0l0-1.92c3.64,0,7.29,0,10.93,0l0,1.92C1082.53,1073.46,1080.65,1073.47,1078.77,1073.47Zm-16.3-.31c-3.63-.13-7.32-.32-11-.54l.1-1.92c3.63.22,7.3.41,10.92.54Zm32.89,0-.06-1.92c3.62-.13,7.29-.32,10.91-.55l.11,1.92C1102.69,1072.83,1099,1073,1095.36,1073.15Zm-54.78-1.36c-3.64-.32-7.31-.69-10.92-1.11l.19-1.91c3.6.41,7.26.78,10.88,1.1Zm76.68,0-.15-1.91c3.6-.32,7.26-.69,10.87-1.11l.2,1.91C1124.55,1071.06,1120.88,1071.44,1117.26,1071.76Zm-98.49-2.46c-3.61-.51-7.26-1.07-10.86-1.66l.29-1.9c3.58.59,7.22,1.15,10.81,1.65Zm120.29,0-.24-1.91c3.6-.5,7.23-1.06,10.81-1.66l.29,1.9C1146.33,1068.19,1142.67,1068.75,1139.06,1069.26Zm-142-3.56c-3.58-.69-7.2-1.44-10.77-2.22l.38-1.88c3.54.78,7.15,1.52,10.72,2.21Zm163.63-.06-.33-1.89c3.57-.69,7.18-1.44,10.72-2.22l.37,1.88C1167.94,1064.2,1164.32,1065,1160.73,1065.64ZM975.62,1061c-3.54-.87-7.13-1.8-10.64-2.77l.46-1.86c3.5,1,7.07,1.89,10.6,2.76Zm206.58-.07-.41-1.87c3.52-.87,7.09-1.8,10.6-2.77l.46,1.86C1189.33,1059.1,1185.75,1060,1182.2,1060.91Zm-227.81-5.75c-3.49-1.05-7-2.17-10.5-3.32l.54-1.83c3.46,1.14,7,2.26,10.47,3.31Zm249-.08-.5-1.85c3.48-1,7-2.16,10.46-3.31l.55,1.83C1210.46,1052.9,1206.92,1054,1203.43,1055.08Zm-270-6.84c-3.46-1.24-6.95-2.54-10.37-3.87l.63-1.8c3.41,1.32,6.88,2.62,10.33,3.86Zm290.94-.08-.59-1.82c3.43-1.23,6.89-2.52,10.3-3.85l.63,1.8C1231.28,1045.62,1227.8,1046.92,1224.36,1048.16Zm-311.59-7.93c-3.4-1.41-6.82-2.9-10.18-4.4l.72-1.77c3.34,1.5,6.75,3,10.13,4.39Zm332.17-.07-.67-1.78c3.35-1.41,6.74-2.87,10.07-4.36l.71,1.77C1251.71,1037.28,1248.31,1038.75,1244.94,1040.16Zm-352.42-9c-3.32-1.59-6.67-3.24-9.95-4.92l.8-1.73c3.27,1.67,6.6,3.32,9.91,4.9Zm372.54,0-.76-1.75c3.29-1.57,6.61-3.21,9.86-4.87l.8,1.73C1271.69,1027.93,1268.36,1029.57,1265.06,1031.15Zm19.68-10-.83-1.71c3.21-1.74,6.45-3.55,9.62-5.37l.88,1.68C1291.22,1017.55,1288,1019.37,1284.74,1021.11Zm-412,0c-3.24-1.76-6.5-3.58-9.71-5.43l.87-1.68c3.2,1.84,6.45,3.65,9.67,5.4Zm431.21-11-.91-1.67c3.13-1.9,6.28-3.87,9.37-5.86l.95,1.64C1310.26,1006.17,1307.09,1008.16,1304,1010.07Zm-450.5-.09c-3.16-1.92-6.33-3.91-9.44-5.91l1-1.64c3.1,2,6.26,4,9.41,5.89Zm469.18-11.93-1-1.62c3-2.06,6.11-4.2,9.1-6.34l1,1.59C1328.76,993.83,1325.69,996,1322.63,998.05Zm-487.92-.14c-3.06-2.08-6.14-4.23-9.15-6.39l1-1.59c3,2.15,6.07,4.3,9.12,6.37Zm506-12.83-1.06-1.56c2.93-2.21,5.89-4.5,8.79-6.8l1.1,1.54C1346.67,980.57,1343.7,982.86,1340.75,985.08Zm-524.2-.18c-3-2.24-5.93-4.54-8.84-6.85l1.1-1.53c2.9,2.3,5.86,4.59,8.81,6.82Zm541.7-13.7-1.13-1.5c2.83-2.37,5.69-4.81,8.47-7.25l1.17,1.48C1364,966.38,1361.1,968.83,1358.25,971.2ZM799,971c-2.86-2.38-5.72-4.84-8.52-7.29l1.17-1.47c2.78,2.44,5.64,4.88,8.48,7.26Zm576.07-14.54-1.2-1.44c2.73-2.51,5.46-5.09,8.13-7.67l1.23,1.41C1380.59,951.33,1377.84,953.92,1375.1,956.44Zm-592.93-.25c-2.74-2.53-5.49-5.12-8.17-7.71l1.24-1.42c2.66,2.58,5.4,5.17,8.13,7.68Zm609.08-15.35-1.26-1.39c2.61-2.65,5.23-5.36,7.78-8.07l1.29,1.35C1396.5,935.45,1393.88,938.18,1391.25,940.84ZM766,940.56c-2.61-2.66-5.24-5.39-7.8-8.12l1.3-1.35c2.55,2.72,5.17,5.44,7.77,8.08Zm640.67-16.14-1.33-1.32c2.49-2.77,5-5.62,7.4-8.46l1.36,1.28C1411.67,918.78,1409.17,921.64,1406.68,924.42Zm-656.08-.29c-2.49-2.79-5-5.65-7.41-8.5l1.36-1.28c2.42,2.84,4.9,5.69,7.38,8.46Zm670.74-16.9L1420,906c2.36-2.9,4.71-5.87,7-8.83l1.42,1.21C1426.07,901.33,1423.71,904.32,1421.34,907.23ZM736,906.94c-2.35-2.9-4.72-5.89-7-8.87l1.41-1.21c2.29,3,4.64,5.94,7,8.83Zm699.22-17.63-1.44-1.18c2.22-3,4.44-6.1,6.59-9.18l1.47,1.13C1439.65,883.18,1437.42,886.28,1435.19,889.31Zm-713-.28c-2.23-3-4.45-6.12-6.6-9.21l1.47-1.13c2.15,3.06,4.35,6.15,6.57,9.17Zm726.06-18.34-1.5-1.09c2.08-3.14,4.16-6.34,6.16-9.52l1.52,1.06C1452.38,864.34,1450.3,867.55,1448.21,870.69Zm-739-.24c-2.08-3.14-4.16-6.34-6.16-9.54l1.52-1.06c2,3.18,4.06,6.38,6.14,9.5Zm751.19-19-1.55-1c1.93-3.23,3.85-6.54,5.72-9.82l1.56,1C1464.22,844.87,1462.29,848.19,1460.36,851.43Zm-763.29-.2c-1.93-3.23-3.85-6.54-5.71-9.83l1.57-1c1.85,3.28,3.76,6.57,5.69,9.79Zm774.53-19.67-1.59-.95c1.78-3.32,3.55-6.72,5.25-10.1l1.62.9C1475.16,824.81,1473.39,828.22,1471.6,831.56Zm-785.73-.13c-1.78-3.34-3.55-6.74-5.25-10.11l1.62-.9c1.69,3.36,3.45,6.74,5.22,10.06Zm796-20.31-1.63-.86c1.63-3.42,3.24-6.91,4.78-10.37l1.65.82C1485.16,804.18,1483.55,807.68,1481.91,811.12Zm-806.3,0c-1.62-3.42-3.23-6.9-4.77-10.36l1.65-.82c1.54,3.45,3.14,6.92,4.75,10.32Zm-9.3-20.84c-1.46-3.48-2.9-7-4.29-10.58l1.69-.73c1.38,3.53,2.82,7.07,4.27,10.54Zm825-.07-1.67-.77c1.46-3.51,2.91-7.08,4.29-10.61l1.69.73C1494.19,783.07,1492.74,786.65,1491.27,790.17ZM658,768.93c-1.3-3.59-2.58-7.23-3.8-10.84l1.72-.64c1.21,3.59,2.49,7.22,3.79,10.79Zm841.67-.18-1.71-.68c1.31-3.59,2.58-7.23,3.79-10.83l1.72.64C1502.23,761.5,1501,765.16,1499.64,768.75Zm-849-21.59c-1.13-3.63-2.24-7.33-3.29-11l1.75-.55c1,3.66,2.15,7.35,3.28,11Zm856.38-.24-1.74-.6c1.13-3.64,2.24-7.35,3.29-11l1.75.56C1509.24,739.54,1508.13,743.26,1507,746.92ZM644.3,725.05c-1-3.69-1.9-7.45-2.77-11.17l1.77-.46c.87,3.7,1.8,7.45,2.76,11.12Zm869-.29-1.76-.51c1-3.68,1.89-7.43,2.76-11.13l1.77.46C1515.21,717.3,1514.28,721.06,1513.32,724.76ZM639,702.64c-.79-3.74-1.54-7.54-2.25-11.3l1.79-.37c.7,3.74,1.46,7.53,2.24,11.25Zm879.58-.3-1.78-.42c.78-3.72,1.54-7.51,2.24-11.25l1.79.36C1520.14,694.8,1519.38,698.6,1518.59,702.34ZM634.78,680c-.62-3.77-1.2-7.6-1.73-11.4l1.81-.28c.53,3.78,1.1,7.6,1.72,11.36Zm888-.3-1.8-.33c.61-3.75,1.18-7.58,1.71-11.36l1.8.28C1524,672.06,1523.43,675.9,1522.82,679.68ZM631.6,657.13c-.44-3.8-.85-7.66-1.2-11.48l1.82-.18c.35,3.8.75,7.65,1.19,11.43Zm894.39-.31-1.82-.22c.44-3.8.84-7.64,1.18-11.44l1.82.19C1526.82,649.16,1526.42,653,1526,656.82ZM629.47,634.15c-.26-3.81-.48-7.69-.66-11.53l1.82-.09c.18,3.82.4,7.68.66,11.48Zm898.62-.31-1.82-.14c.26-3.8.48-7.66.66-11.48l1.82.09C1528.57,626.15,1528.35,630,1528.09,633.84ZM628.41,611.08c-.09-3.82-.13-7.7-.14-11.55h1.83c0,3.83,0,7.7.14,11.5Zm900.73-.31-1.82,0c.08-3.81.13-7.68.13-11.5v-.65h1.82v.65C1529.27,603.07,1529.23,607,1529.14,610.77ZM630.22,588l-1.82,0c.08-3.84.21-7.72.38-11.54l1.83.09C630.43,580.35,630.31,584.21,630.22,588Zm897.08-.95c-.09-3.82-.23-7.69-.4-11.49l1.82-.09c.18,3.81.31,7.69.41,11.54Zm-896-22-1.82-.14c.26-3.82.57-7.69.92-11.51l1.81.19C631.82,557.39,631.51,561.25,631.25,565.06Zm895-.95c-.27-3.82-.59-7.67-.94-11.46l1.82-.19c.35,3.81.67,7.68.94,11.51ZM633.34,542.17l-1.81-.24c.43-3.81.92-7.66,1.44-11.44l1.81.27C634.26,534.53,633.77,538.36,633.34,542.17Zm890.76-.95c-.44-3.78-.93-7.62-1.46-11.4l1.8-.28c.53,3.8,1,7.65,1.47,11.45ZM636.48,519.4l-1.8-.32c.61-3.79,1.27-7.61,2-11.36l1.79.37C637.75,511.83,637.09,515.63,636.48,519.4Zm884.43-.93c-.61-3.77-1.28-7.58-2-11.31l1.79-.37c.7,3.75,1.37,7.57,2,11.35ZM640.67,496.83l-1.78-.41c.78-3.75,1.62-7.53,2.5-11.25l1.77.46C642.29,489.34,641.45,493.1,640.67,496.83Zm876-.93c-.79-3.72-1.64-7.49-2.51-11.19l1.77-.46c.88,3.71,1.73,7.49,2.52,11.24ZM645.91,474.5l-1.76-.5c1-3.7,2-7.43,3-11.11l1.75.56C647.87,467.1,646.86,470.83,645.91,474.5Zm865.49-.92c-1-3.66-2-7.38-3-11l1.75-.56c1.05,3.68,2.08,7.41,3,11.1ZM652.18,452.47l-1.74-.6c1.14-3.65,2.33-7.35,3.55-11l1.72.64C654.5,445.15,653.31,448.83,652.18,452.47Zm852.91-.9c-1.14-3.63-2.33-7.29-3.54-10.88l1.71-.65c1.23,3.61,2.42,7.29,3.56,10.93Zm-845.6-20.86-1.7-.68c1.3-3.59,2.67-7.21,4.05-10.77l1.69.73C662.15,423.53,660.79,427.14,659.49,430.71Zm838.26-.81c-1.3-3.56-2.66-7.15-4-10.68l1.69-.74c1.39,3.55,2.75,7.16,4.06,10.73ZM667.81,409.37l-1.67-.77c1.47-3.51,3-7.06,4.55-10.54l1.65.82C670.8,402.34,669.28,405.87,667.81,409.37Zm821.62-.7c-1.46-3.48-3-7-4.51-10.42l1.65-.83c1.54,3.46,3.07,7,4.54,10.48ZM677.12,388.5l-1.64-.86c1.63-3.43,3.33-6.89,5-10.28l1.62.9C680.43,381.63,678.74,385.08,677.12,388.5Zm803-.57c-1.63-3.41-3.31-6.84-5-10.19l1.61-.9c1.7,3.36,3.39,6.81,5,10.23ZM687.37,368.14l-1.59-.94c1.79-3.34,3.64-6.71,5.5-10l1.57,1C691,361.46,689.15,364.82,687.37,368.14Zm782.55-.46c-1.77-3.32-3.61-6.66-5.47-9.93l1.57-1c1.86,3.29,3.71,6.64,5.49,10ZM698.56,348.34l-1.55-1c1.94-3.24,3.94-6.51,6-9.71l1.52,1.06C702.48,341.86,700.49,345.11,698.56,348.34Zm760.2-.38c-1.94-3.23-3.93-6.48-5.92-9.64l1.51-1.06c2,3.17,4,6.43,6,9.68ZM710.64,329.15l-1.5-1.1c2.09-3.14,4.24-6.3,6.4-9.4l1.47,1.14C714.86,322.87,712.72,326,710.64,329.15Zm736.05-.32c-2.07-3.13-4.22-6.26-6.36-9.33l1.47-1.14c2.15,3.08,4.3,6.23,6.39,9.37ZM723.59,310.6l-1.44-1.18c2.22-3,4.52-6.07,6.82-9.05l1.41,1.21C728.09,304.55,725.81,307.58,723.59,310.6Zm710.16-.27c-2.21-3-4.5-6.05-6.78-9l1.41-1.21c2.3,3,4.59,6,6.82,9ZM737.38,292.74,736,291.49c2.36-2.91,4.8-5.84,7.23-8.69l1.36,1.28C742.16,286.92,739.73,289.83,737.38,292.74Zm682.6-.24c-2.36-2.9-4.78-5.81-7.2-8.64l1.36-1.29c2.43,2.85,4.86,5.77,7.22,8.68ZM752,275.61l-1.33-1.32c2.49-2.78,5.05-5.58,7.61-8.31l1.3,1.35C757,270.05,754.44,272.84,752,275.61Zm653.42-.22c-2.48-2.76-5-5.55-7.59-8.27l1.3-1.35c2.57,2.73,5.13,5.53,7.62,8.31ZM767.32,259.25l-1.27-1.39c2.62-2.66,5.31-5.32,8-7.91l1.23,1.42C772.6,254,769.93,256.6,767.32,259.25ZM1390,259c-2.61-2.64-5.29-5.29-8-7.87l1.23-1.42c2.69,2.6,5.38,5.26,8,7.91ZM783.4,243.69l-1.2-1.45c2.73-2.52,5.54-5,8.33-7.49l1.17,1.48C788.92,238.67,786.12,241.18,783.4,243.69Zm590.53-.2c-2.73-2.51-5.52-5-8.32-7.47l1.17-1.47c2.8,2.45,5.61,5,8.35,7.49ZM800.17,229l-1.13-1.5c2.86-2.39,5.77-4.76,8.66-7.06l1.1,1.54C805.92,224.23,803,226.6,800.17,229Zm557-.2c-2.85-2.37-5.76-4.74-8.65-7l1.09-1.53c2.91,2.3,5.83,4.68,8.69,7.06ZM817.59,215.14l-1.06-1.56c3-2.23,6-4.45,9-6.61l1,1.59C823.54,210.71,820.53,212.92,817.59,215.14Zm522.07-.22c-3-2.22-6-4.44-9-6.59l1-1.59c3,2.16,6,4.38,9,6.62Zm-504-12.71-1-1.61c3.05-2.08,6.17-4.15,9.26-6.14l1,1.64C841.78,198.08,838.67,200.14,835.63,202.21Zm485.94-.24c-3-2.07-6.16-4.12-9.27-6.12l1-1.64c3.12,2,6.25,4.07,9.31,6.15ZM854.22,190.22l-.91-1.66c3.14-1.91,6.35-3.81,9.54-5.65l.87,1.69C860.55,186.43,857.35,188.32,854.22,190.22ZM1302.9,190c-3.15-1.92-6.36-3.81-9.55-5.64l.88-1.69c3.19,1.84,6.42,3.74,9.58,5.67ZM873.34,179.21l-.83-1.7c3.22-1.75,6.51-3.49,9.78-5.16l.8,1.73C879.83,175.74,876.55,177.47,873.34,179.21Zm410.34-.28c-3.22-1.74-6.52-3.48-9.8-5.14l.8-1.73c3.29,1.67,6.6,3.41,9.84,5.16ZM892.94,169.2l-.75-1.75c3.3-1.58,6.66-3.14,10-4.64l.72,1.76C899.58,166.07,896.23,167.62,892.94,169.2Zm371-.3c-3.31-1.58-6.68-3.14-10-4.64l.71-1.77c3.36,1.5,6.75,3.07,10.07,4.66Zm-351-8.69-.67-1.79c3.37-1.41,6.82-2.8,10.24-4.14l.63,1.8C919.77,157.41,916.34,158.8,913,160.21Zm330.83-.32c-3.38-1.41-6.82-2.79-10.24-4.12l.63-1.8c3.43,1.32,6.89,2.72,10.28,4.13Zm-310.34-7.66-.59-1.82c3.44-1.24,7-2.45,10.43-3.6l.54,1.83C940.38,149.79,936.89,151,933.46,152.23Zm289.77-.31c-3.45-1.23-7-2.43-10.43-3.58l.54-1.83c3.49,1.15,7,2.36,10.47,3.6Zm-268.93-6.6-.5-1.85c3.49-1.06,7.05-2.08,10.57-3.06l.47,1.86C961.33,143.24,957.79,144.27,954.3,145.32Zm248-.27c-3.49-1.05-7-2.07-10.54-3l.46-1.86c3.52,1,7.08,2,10.59,3ZM975.44,139.5l-.42-1.87c3.54-.88,7.14-1.72,10.71-2.51l.37,1.88C982.55,137.78,979,138.62,975.44,139.5Zm205.75-.23c-3.54-.87-7.13-1.7-10.67-2.48l.37-1.88c3.56.78,7.17,1.62,10.71,2.49Zm-184.37-4.5-.33-1.89c3.58-.69,7.21-1.35,10.81-2l.29,1.9C1004,133.42,1000.38,134.08,996.82,134.77Zm163-.18c-3.55-.68-7.18-1.33-10.77-1.92l.29-1.9c3.6.59,7.24,1.25,10.81,1.93Zm-141.39-3.44-.25-1.9c3.6-.51,7.26-1,10.89-1.4l.2,1.91C1025.63,130.17,1022,130.64,1018.4,131.15Zm119.81-.13c-3.59-.5-7.24-1-10.85-1.37l.2-1.91c3.62.41,7.28.87,10.89,1.37Zm-98.1-2.38-.15-1.92c3.62-.32,7.3-.6,10.94-.84l.11,1.92C1047.39,128,1043.72,128.32,1040.11,128.64Zm76.38-.09c-3.62-.31-7.28-.58-10.9-.81l.11-1.92c3.63.23,7.31.5,10.94.82Zm-54.57-1.31-.07-1.92c3.63-.14,7.31-.24,11-.29l0,1.92C1069.2,127,1065.53,127.1,1061.92,127.24Zm32.76,0c-3.62-.13-7.29-.22-10.92-.26l0-1.92c3.65,0,7.34.13,11,.26Z" transform="translate(0 -30.74)"/><path class="cls-3" d="M1073.46,1167.69c-3.64,0-7.32-.12-11-.23l.06-1.92c3.61.11,7.28.19,10.9.22Zm10.94,0,0-1.92c3.62,0,7.29-.12,10.9-.23l0,1.92C1091.71,1167.56,1088,1167.64,1084.4,1167.68Zm-32.82-.68c-3.63-.18-7.3-.41-10.92-.68l.12-1.92c3.61.27,7.28.5,10.89.69Zm54.69,0-.09-1.92c3.61-.19,7.27-.42,10.89-.69l.12,1.92C1113.56,1166.57,1109.89,1166.8,1106.27,1167Zm-76.53-1.59c-3.61-.34-7.28-.72-10.88-1.15l.2-1.9c3.59.41,7.24.8,10.85,1.14Zm98.37,0-.17-1.91c3.6-.34,7.25-.73,10.85-1.15l.2,1.91C1135.38,1164.64,1131.71,1165,1128.11,1165.37Zm-120.12-2.5c-3.61-.49-7.26-1-10.84-1.61l.28-1.9c3.57.57,7.2,1.11,10.8,1.61Zm141.87,0-.24-1.9c3.59-.5,7.22-1,10.8-1.61l.27,1.89C1157.1,1161.79,1153.46,1162.33,1149.86,1162.83Zm-163.51-3.41c-3.59-.65-7.21-1.35-10.77-2.07l.35-1.89c3.55.72,7.16,1.42,10.73,2.07Zm185.15-.05-.31-1.9c3.56-.64,7.17-1.34,10.72-2.07l.35,1.89C1178.7,1158,1175.08,1158.71,1171.5,1159.37ZM964.86,1155c-3.54-.8-7.13-1.65-10.68-2.53l.42-1.87c3.54.88,7.12,1.73,10.64,2.53ZM1193,1155l-.38-1.87c3.54-.81,7.12-1.66,10.64-2.53l.42,1.87C1200.13,1153.31,1196.53,1154.17,1193,1155Zm-249.42-5.22c-3.51-1-7.07-2-10.57-3l.49-1.86c3.49,1,7,2,10.53,3Zm270.72-.08-.45-1.86c3.5-1,7-2,10.53-3l.49,1.85C1221.36,1147.7,1217.8,1148.71,1214.28,1149.67Zm-291.8-6.13c-3.5-1.11-7-2.27-10.49-3.46l.56-1.82c3.45,1.17,7,2.33,10.45,3.44Zm312.88-.09-.53-1.84c3.46-1.1,7-2.26,10.41-3.44l.56,1.83C1242.34,1141.18,1238.83,1142.35,1235.36,1143.45Zm-333.78-7c-3.45-1.26-6.92-2.57-10.34-3.9l.63-1.8c3.41,1.32,6.87,2.63,10.3,3.89Zm354.6-.08-.6-1.81c3.41-1.25,6.87-2.55,10.26-3.88l.64,1.8C1263.07,1133.76,1259.6,1135.07,1256.18,1136.32ZM881,1128.38c-3.4-1.41-6.82-2.87-10.17-4.35l.7-1.77c3.34,1.47,6.75,2.92,10.14,4.33Zm395.72-.06-.67-1.79c3.35-1.39,6.74-2.84,10.07-4.3l.7,1.77C1283.46,1125.47,1280.06,1126.92,1276.7,1128.32Zm-416-8.85c-3.32-1.55-6.68-3.16-10-4.78l.77-1.74c3.3,1.62,6.65,3.22,10,4.76Zm436.1,0-.74-1.76c3.31-1.54,6.64-3.13,9.9-4.73l.77,1.74C1303.48,1116.33,1300.14,1117.93,1296.82,1119.47Zm19.77-9.71-.8-1.72c3.23-1.68,6.5-3.41,9.71-5.16l.84,1.71C1323.12,1106.34,1319.84,1108.08,1316.59,1109.76Zm-475.75-.06c-3.28-1.69-6.57-3.44-9.8-5.2l.84-1.71c3.22,1.76,6.5,3.5,9.76,5.19ZM1336,1099.21l-.87-1.68c3.17-1.82,6.37-3.69,9.51-5.57l.9,1.67C1342.38,1095.52,1339.17,1097.4,1336,1099.21Zm-514.63-.12c-3.19-1.82-6.41-3.71-9.58-5.61l.9-1.67c3.16,1.9,6.38,3.78,9.55,5.59ZM1355,1087.84l-.93-1.65c3.08-1.94,6.21-3.94,9.29-6l1,1.63C1361.19,1083.88,1358.06,1085.9,1355,1087.84Zm-552.66-.18c-3.12-2-6.26-4-9.35-6l1-1.63c3.08,2,6.22,4,9.33,6Zm571.19-12-1-1.61c3-2.09,6.08-4.23,9-6.36l1,1.58C1379.59,1071.43,1376.54,1073.58,1373.49,1075.67Zm-589.78-.24c-3-2.09-6.11-4.25-9.11-6.4l1-1.59c3,2.15,6,4.3,9.08,6.39Zm607.84-12.72-1.06-1.56c3-2.22,5.91-4.48,8.81-6.75l1.09,1.54C1397.48,1058.22,1394.51,1060.49,1391.55,1062.71Zm-625.93-.29c-3-2.22-6-4.51-8.86-6.79l1.09-1.54c2.9,2.28,5.87,4.55,8.82,6.77ZM1409.1,1049l-1.12-1.52c2.86-2.33,5.74-4.72,8.55-7.11l1.15,1.49C1414.85,1044.25,1412,1046.65,1409.1,1049ZM748,1048.66c-2.87-2.34-5.76-4.75-8.58-7.16l1.14-1.49c2.82,2.4,5.7,4.8,8.56,7.13Zm678.08-14.13-1.18-1.47c2.76-2.44,5.55-5,8.27-7.47l1.21,1.45C1431.68,1029.56,1428.89,1032.08,1426.12,1034.53ZM731,1034.16c-2.77-2.46-5.56-5-8.3-7.51l1.2-1.44c2.73,2.51,5.51,5,8.28,7.49Zm711.56-14.8-1.23-1.42c2.67-2.56,5.35-5.19,8-7.82l1.26,1.4C1447.94,1014.16,1445.25,1016.79,1442.57,1019.36Zm-728-.4c-2.67-2.57-5.36-5.22-8-7.86l1.26-1.39c2.63,2.64,5.31,5.27,8,7.83Zm743.89-15.46-1.29-1.36c2.58-2.69,5.16-5.43,7.68-8.16l1.31,1.34C1463.62,998.06,1461,1000.81,1458.44,1003.5Zm-759.74-.42c-2.58-2.69-5.16-5.44-7.7-8.19l1.31-1.34c2.53,2.74,5.11,5.49,7.67,8.16Zm775-16.1-1.34-1.31c2.47-2.79,5-5.64,7.37-8.48l1.35,1.28C1478.65,981.32,1476.17,984.18,1473.69,987Zm-790.22-.44c-2.47-2.79-5-5.66-7.38-8.51l1.36-1.28c2.42,2.85,4.89,5.7,7.35,8.48Zm804.83-16.73-1.38-1.25c2.36-2.9,4.73-5.85,7-8.78l1.41,1.22C1493.05,963.94,1490.67,966.9,1488.3,969.81Zm-819.41-.43c-2.37-2.91-4.74-5.87-7-8.82l1.41-1.22c2.3,2.94,4.66,5.89,7,8.78ZM1502.24,952l-1.43-1.2c2.25-3,4.5-6,6.7-9.07l1.45,1.16C1506.76,946,1504.5,949,1502.24,952ZM655,951.61c-2.24-3-4.5-6.05-6.7-9.1l1.45-1.16c2.2,3,4.45,6.1,6.68,9.07Zm860.52-17.93-1.48-1.13c2.14-3.09,4.27-6.24,6.35-9.36l1.49,1.1C1519.78,927.43,1517.64,930.59,1515.5,933.68Zm-873.74-.41c-2.13-3.09-4.27-6.24-6.34-9.37l1.5-1.1c2.06,3.12,4.19,6.26,6.32,9.34ZM1528,914.77l-1.51-1.07c2-3.18,4-6.42,6-9.62l1.54,1C1532.09,908.33,1530.07,911.58,1528,914.77Zm-898.77-.37c-2-3.18-4-6.42-6-9.63l1.54-1c1.94,3.2,3.94,6.43,5.95,9.6Zm910.58-19.07-1.55-1c1.9-3.28,3.78-6.6,5.6-9.88l1.58,1C1543.65,888.71,1541.76,892,1539.85,895.33ZM617.51,895c-1.89-3.26-3.77-6.58-5.6-9.88l1.58-1c1.82,3.28,3.69,6.59,5.58,9.83Zm933.4-19.62-1.6-.94c1.77-3.34,3.52-6.74,5.22-10.11l1.61.9C1554.44,868.63,1552.68,872.05,1550.91,875.4Zm-944.4-.24c-1.76-3.33-3.51-6.73-5.21-10.1l1.61-.9c1.69,3.36,3.44,6.75,5.19,10.06ZM1561.18,855l-1.62-.87c1.63-3.41,3.26-6.89,4.82-10.33l1.65.84C1564.46,848.08,1562.83,851.57,1561.18,855Zm-964.89-.15c-1.64-3.42-3.26-6.89-4.82-10.31l1.65-.83c1.55,3.41,3.17,6.87,4.8,10.28Zm974.38-20.68-1.66-.8c1.5-3.48,3-7,4.42-10.52l1.68.75C1573.67,827.11,1572.18,830.67,1570.67,834.17Zm-983.81,0c-1.5-3.47-3-7-4.41-10.5l1.68-.76c1.42,3.49,2.9,7,4.39,10.46Zm-8.62-21.09c-1.36-3.55-2.72-7.15-4-10.72l1.7-.69c1.29,3.55,2.64,7.15,4,10.68Zm1001.1-.11-1.69-.72c1.37-3.55,2.72-7.16,4-10.72l1.71.69C1582.07,805.76,1580.71,809.38,1579.34,812.94ZM570.42,791.52c-1.23-3.6-2.44-7.26-3.59-10.88l1.72-.61c1.16,3.61,2.36,7.26,3.59,10.84Zm1016.76-.17-1.72-.65c1.23-3.6,2.44-7.26,3.6-10.89l1.73.62C1589.63,784.06,1588.42,787.73,1587.18,791.35ZM563.44,769.69c-1.09-3.67-2.16-7.38-3.17-11l1.75-.54c1,3.64,2.07,7.34,3.16,11Zm1030.74-.26-1.74-.58c1.08-3.64,2.14-7.34,3.16-11l1.75.53C1596.33,762.06,1595.27,765.78,1594.18,769.43ZM557.31,747.56c-.94-3.68-1.86-7.44-2.74-11.15l1.77-.46c.87,3.7,1.79,7.44,2.74,11.12Zm1043-.26-1.76-.5c.94-3.67,1.85-7.41,2.72-11.12l1.77.46C1602.16,739.86,1601.24,743.62,1600.3,747.3ZM552.05,725.2c-.8-3.72-1.57-7.51-2.31-11.26l1.79-.39c.73,3.75,1.5,7.52,2.3,11.23Zm1053.5-.27-1.78-.42c.8-3.73,1.57-7.5,2.29-11.23l1.79.39C1607.13,717.4,1606.35,721.2,1605.55,724.93ZM547.66,702.63c-.66-3.77-1.29-7.59-1.87-11.36l1.8-.3c.58,3.75,1.21,7.56,1.86,11.31Zm1062.28-.27-1.8-.35c.65-3.75,1.28-7.56,1.86-11.31l1.8.3C1611.22,694.77,1610.59,698.59,1609.94,702.36ZM544.14,679.89c-.51-3.79-1-7.64-1.43-11.43l1.81-.23c.44,3.78.91,7.61,1.43,11.39Zm1069.3-.28-1.81-.27c.51-3.78,1-7.61,1.42-11.38l1.82.23C1614.43,672,1614,675.82,1613.44,679.61ZM541.5,657c-.37-3.8-.7-7.66-1-11.47l1.82-.15c.29,3.79.62,7.64,1,11.43Zm1074.57-.27-1.82-.19c.37-3.79.69-7.64,1-11.44l1.82.15C1616.77,649.08,1616.43,652.94,1616.07,656.74ZM539.74,634.05c-.22-3.81-.4-7.68-.55-11.51l1.82-.08c.15,3.82.33,7.68.55,11.47Zm1078.08-.28-1.82-.11c.21-3.79.4-7.65.54-11.47l1.82.07C1618.22,626.1,1618,630,1617.82,633.77Zm-1079-22.72c-.08-3.83-.11-7.71-.12-11.52h1.83c0,3.8,0,7.66.11,11.48Zm1079.83-.3-1.82,0c.07-3.8.1-7.66.1-11.48v-.59h1.83v.59C1618.8,603.06,1618.76,606.94,1618.69,610.75Zm-1078-22.7-1.82,0c.07-3.83.18-7.7.32-11.52l1.82.08C540.85,580.37,540.74,584.24,540.67,588.05Zm1076.18-.9c-.07-3.79-.18-7.64-.33-11.45l1.82-.08c.15,3.82.26,7.69.34,11.49Zm-1075.32-22-1.82-.12c.21-3.81.47-7.67.76-11.49l1.82.15C542,557.44,541.74,561.3,541.53,565.1ZM1616,564.23c-.22-3.81-.48-7.66-.77-11.45l1.82-.16c.29,3.8.55,7.67.78,11.5Zm-1072.7-22-1.81-.19c.36-3.81.76-7.67,1.19-11.45l1.81.23C544,534.57,543.62,538.41,543.26,542.21Zm1070.94-.87c-.36-3.78-.77-7.62-1.21-11.41l1.81-.23c.44,3.8.85,7.65,1.22,11.45ZM545.87,519.41l-1.81-.27c.51-3.78,1.06-7.61,1.64-11.39l1.8.31C546.92,511.83,546.37,515.65,545.87,519.41Zm1065.69-.86c-.51-3.77-1.07-7.58-1.65-11.35l1.8-.31c.59,3.78,1.14,7.61,1.66,11.39ZM549.35,496.74l-1.79-.34c.65-3.77,1.35-7.57,2.07-11.32l1.79.39C550.7,489.2,550,493,549.35,496.74ZM1608,495.89c-.66-3.76-1.36-7.55-2.08-11.27l1.78-.39c.73,3.74,1.44,7.54,2.1,11.31ZM553.71,474.24l-1.78-.42c.8-3.73,1.64-7.51,2.51-11.22l1.77.46C555.35,466.76,554.5,470.52,553.71,474.24Zm1049.94-.84c-.8-3.73-1.65-7.49-2.52-11.18l1.77-.46c.88,3.7,1.73,7.47,2.53,11.21ZM558.93,452l-1.76-.5c.94-3.69,1.93-7.42,3-11.1l1.75.54C560.86,444.55,559.87,448.27,558.93,452Zm1039.46-.84c-.94-3.69-1.93-7.41-3-11.06l1.75-.53c1,3.66,2,7.39,3,11.09ZM565,429.89l-1.74-.57c1.09-3.66,2.23-7.36,3.39-11l1.73.61C567.24,422.55,566.1,426.24,565,429.89Zm1027.26-.82c-1.09-3.64-2.22-7.31-3.38-10.92l1.73-.62c1.16,3.63,2.3,7.31,3.39,11ZM572,408l-1.71-.65c1.23-3.61,2.51-7.26,3.81-10.84l1.7.68C574.49,400.8,573.21,404.44,572,408Zm1013.33-.74c-1.22-3.58-2.5-7.2-3.8-10.76l1.71-.69c1.29,3.58,2.58,7.21,3.81,10.81ZM579.79,386.51l-1.69-.71c1.36-3.54,2.78-7.13,4.22-10.67l1.68.76C582.56,379.41,581.14,383,579.79,386.51Zm997.71-.65c-1.36-3.52-2.77-7.07-4.19-10.55l1.67-.76c1.43,3.49,2.85,7.05,4.21,10.59ZM588.42,365.35l-1.66-.79c1.5-3.48,3-7,4.63-10.47l1.65.83C591.47,358.38,589.91,361.89,588.42,365.35Zm980.49-.5c-1.5-3.46-3.05-7-4.61-10.37l1.65-.83c1.56,3.43,3.11,6.93,4.61,10.4Zm-971-20.26-1.63-.86c1.64-3.42,3.33-6.87,5-10.26l1.61.9C601.18,337.75,599.49,341.19,597.86,344.59Zm961.64-.38c-1.63-3.4-3.31-6.82-5-10.17l1.61-.9c1.69,3.36,3.38,6.79,5,10.2ZM608.09,324.26l-1.59-.94c1.77-3.35,3.59-6.72,5.42-10l1.58,1C611.68,317.56,609.86,320.92,608.09,324.26ZM1549.3,324c-1.75-3.32-3.56-6.67-5.39-10l1.58-1c1.83,3.3,3.65,6.66,5.41,10Zm-930.2-19.6-1.56-1c1.9-3.26,3.85-6.56,5.81-9.78l1.54,1C622.94,297.85,621,301.13,619.1,304.38Zm919.23-.19c-1.88-3.23-3.82-6.5-5.77-9.72l1.54-1c2,3.22,3.9,6.5,5.79,9.75ZM630.86,285l-1.52-1.07c2-3.19,4.1-6.39,6.18-9.53l1.5,1.1C634.94,278.64,632.87,281.83,630.86,285Zm895.74-.13c-2-3.17-4.07-6.35-6.14-9.47l1.5-1.1c2.07,3.13,4.14,6.32,6.16,9.5ZM643.35,266.15,641.88,265c2.14-3.09,4.34-6.21,6.53-9.25l1.46,1.16C647.68,260,645.48,263.07,643.35,266.15Zm870.79-.07c-2.13-3.08-4.31-6.18-6.5-9.21l1.45-1.16c2.2,3,4.39,6.15,6.52,9.23ZM656.55,247.85l-1.43-1.2c2.26-3,4.57-6,6.89-9l1.4,1.22C661.11,241.85,658.8,244.86,656.55,247.85Zm844.41,0c-2.24-3-4.54-6-6.85-8.92l1.41-1.23c2.31,3,4.62,6,6.87,9ZM670.44,230.12l-1.38-1.25c2.37-2.9,4.8-5.81,7.22-8.66l1.36,1.28C675.22,224.33,672.8,227.23,670.44,230.12Zm816.65,0c-2.36-2.89-4.78-5.79-7.19-8.63l1.36-1.28c2.42,2.85,4.85,5.76,7.21,8.66ZM1472.55,213c-2.48-2.79-5-5.59-7.52-8.32l1.31-1.33c2.52,2.73,5.06,5.54,7.54,8.34ZM685,213l-1.33-1.31c2.47-2.79,5-5.6,7.54-8.35l1.31,1.34C690,207.43,687.46,210.23,685,213Zm772.37-16.47c-2.57-2.68-5.21-5.37-7.83-8l1.26-1.39c2.63,2.63,5.27,5.33,7.85,8Zm-757.17,0-1.29-1.36c2.58-2.69,5.23-5.39,7.86-8l1.25,1.39C705.39,191.16,702.76,193.85,700.19,196.53ZM716,180.71l-1.23-1.41c2.68-2.58,5.42-5.16,8.15-7.68l1.21,1.44C721.4,175.57,718.67,178.15,716,180.71Zm725.56,0c-2.68-2.57-5.42-5.15-8.13-7.65l1.2-1.45c2.72,2.52,5.47,5.1,8.16,7.69ZM732.38,165.59l-1.17-1.47c2.77-2.46,5.61-4.92,8.44-7.33l1.14,1.5C738,160.68,735.15,163.14,732.38,165.59Zm692.76,0c-2.76-2.45-5.6-4.91-8.42-7.31l1.15-1.49c2.83,2.41,5.67,4.87,8.45,7.33Zm-675.8-14.4-1.12-1.52c2.87-2.34,5.8-4.68,8.71-7l1.09,1.54C755.12,146.5,752.2,148.83,749.34,151.17Zm658.82,0c-2.87-2.34-5.79-4.68-8.69-6.94l1.09-1.55c2.9,2.28,5.84,4.63,8.72,7ZM766.82,137.49l-1.06-1.57c3-2.21,6-4.43,9-6.58l1,1.59C772.77,133.07,769.77,135.28,766.82,137.49Zm623.82-.07c-3-2.2-6-4.42-9-6.57l1-1.59c3,2.16,6,4.38,9,6.6ZM784.81,124.56l-1-1.61c3-2.08,6.14-4.17,9.21-6.19l1,1.63C790.92,120.41,787.84,122.48,784.81,124.56Zm587.79-.09c-3-2.08-6.13-4.16-9.21-6.19l1-1.63c3.08,2,6.19,4.12,9.23,6.21Zm-569.33-12-.93-1.65c3.12-2,6.29-3.91,9.43-5.79l.9,1.67C809.55,108.52,806.38,110.46,803.27,112.42Zm550.79-.13c-3.11-2-6.28-3.9-9.44-5.79l.91-1.67c3.16,1.9,6.35,3.85,9.47,5.81ZM822.18,101.08l-.87-1.69c3.19-1.83,6.43-3.64,9.64-5.39l.84,1.71C828.59,97.45,825.36,99.26,822.18,101.08Zm512.89-.17c-3.19-1.82-6.44-3.63-9.66-5.39l.84-1.7c3.23,1.76,6.49,3.57,9.69,5.4ZM841.5,90.55l-.8-1.72c3.25-1.69,6.56-3.36,9.84-5l.77,1.74C848,87.21,844.74,88.87,841.5,90.55Zm474.15-.2c-3.26-1.68-6.58-3.36-9.87-5l.78-1.74c3.3,1.62,6.62,3.29,9.89,5ZM861.2,80.87l-.74-1.76c3.32-1.54,6.69-3.07,10-4.54l.71,1.78C867.87,77.81,864.51,79.33,861.2,80.87Zm434.62-.24c-3.31-1.54-6.7-3.07-10-4.54l.7-1.77c3.37,1.47,6.76,3,10.09,4.55ZM881.25,72l-.67-1.79c3.39-1.41,6.83-2.79,10.22-4.12l.64,1.8C888.06,69.25,884.63,70.64,881.25,72Zm394.38-.28c-3.39-1.4-6.83-2.78-10.22-4.1l.63-1.81c3.41,1.33,6.86,2.72,10.26,4.12ZM901.7,64l-.6-1.81c3.43-1.26,6.92-2.5,10.37-3.68l.57,1.83C908.6,61.56,905.12,62.79,901.7,64Zm353.4-.27c-3.44-1.26-6.94-2.49-10.38-3.66l.56-1.83c3.46,1.18,7,2.42,10.42,3.68ZM922.44,56.94l-.53-1.84c3.49-1.11,7-2.2,10.51-3.23l.5,1.85C929.44,54.75,925.92,55.83,922.44,56.94Zm311.83-.27c-3.47-1.1-7-2.17-10.48-3.2l.49-1.85c3.5,1,7,2.11,10.52,3.21ZM943.44,50.73,943,48.87c3.53-1,7.1-1.9,10.62-2.78L954,48C950.53,48.84,947,49.77,943.44,50.73Zm269.82-.23c-3.51-1-7.08-1.88-10.59-2.75l.41-1.87c3.53.88,7.11,1.8,10.63,2.76ZM964.67,45.42l-.39-1.87c3.55-.81,7.15-1.59,10.73-2.32l.34,1.89C971.79,43.85,968.2,44.62,964.67,45.42ZM1192,45.23c-3.52-.79-7.12-1.56-10.68-2.29l.34-1.89c3.58.73,7.19,1.51,10.73,2.3ZM986.08,41l-.31-1.9c3.57-.65,7.21-1.27,10.8-1.85l.28,1.9C993.26,39.76,989.64,40.39,986.08,41Zm184.53-.16c-3.57-.64-7.19-1.26-10.77-1.83l.27-1.9c3.6.57,7.23,1.19,10.8,1.84Zm-163-3.31-.23-1.9c3.59-.51,7.25-1,10.86-1.4l.2,1.91C1014.87,36.6,1011.23,37.07,1007.64,37.57Zm141.4-.12c-3.59-.49-7.24-1-10.83-1.37l.2-1.91c3.61.42,7.26.88,10.86,1.38ZM1029.32,35l-.16-1.92c3.62-.34,7.29-.66,10.91-.93l.12,1.92C1036.59,34.37,1032.93,34.68,1029.32,35Zm98-.09c-3.62-.34-7.27-.64-10.87-.9l.13-1.92c3.6.26,7.28.57,10.91.91Zm-76.27-1.54-.09-1.92c3.63-.19,7.31-.35,10.94-.46l0,1.92C1058.37,33.05,1054.7,33.21,1051.08,33.4Zm54.51,0c-3.61-.19-7.27-.34-10.9-.45l0-1.92c3.64.11,7.32.26,10.94.45Zm-32.71-.66,0-1.92c3.64,0,7.3-.05,10.94,0v1.92Q1078.33,32.64,1072.88,32.7Z" transform="translate(0 -30.74)"/><path class="cls-3" d="M1078.77,1124.05a474,474,0,0,1-194-41.25c-59.37-26.43-112.69-64.27-158.47-112.47A525.31,525.31,0,0,1,619.41,803.51a552.14,552.14,0,0,1,0-408.56A525.31,525.31,0,0,1,726.25,228.13c45.78-48.2,99.1-86,158.47-112.47a477.18,477.18,0,0,1,388.11,0c59.36,26.43,112.68,64.27,158.47,112.47A525.48,525.48,0,0,1,1538.14,395a552.27,552.27,0,0,1,0,408.56A525.48,525.48,0,0,1,1431.3,970.33c-45.79,48.2-99.11,86-158.47,112.47A474.06,474.06,0,0,1,1078.77,1124.05Zm0-1048.67c-274.39,0-497.63,235-497.63,523.85s223.24,523.85,497.63,523.85,497.63-235,497.63-523.85S1353.17,75.38,1078.77,75.38Z" transform="translate(0 -30.74)"/></g><path class="cls-3" d="M761.5,655.86a77.79,77.79,0,1,1-77.79-77.78A77.79,77.79,0,0,1,761.5,655.86Z" transform="translate(0 -30.74)"/><path class="cls-3" d="M1206.41,302.32a68.87,68.87,0,1,0,68.86-68.87A68.86,68.86,0,0,0,1206.41,302.32Z" transform="translate(0 -30.74)"/><path class="cls-3" d="M1995.92,646.21a51.2,51.2,0,1,1-51.2-51.2A51.2,51.2,0,0,1,1995.92,646.21Z" transform="translate(0 -30.74)"/><circle class="cls-3" cx="1834.16" cy="612.22" r="85.06" transform="translate(673.34 2127.92) rotate(-71.56)"/><path class="cls-3" d="M1779.94,559.15a131.21,131.21,0,1,1-131.21-131.21A131.22,131.22,0,0,1,1779.94,559.15Z" transform="translate(0 -30.74)"/><path class="cls-5" d="M497.56,1072.33c0,15.65,13.3,28.33,29.71,28.33H1652.9c16.41,0,29.71-12.68,29.71-28.33h0c0-15.65-13.3-28.33-29.71-28.33H527.27c-16.41,0-29.71,12.68-29.71,28.33Z" transform="translate(0 -30.74)"/><path class="cls-3" d="M1559,552.81a155.73,155.73,0,1,1-155.73-155.73A155.73,155.73,0,0,1,1559,552.81Z" transform="translate(0 -30.74)"/><circle class="cls-3" cx="355.12" cy="655.87" r="85.06" transform="translate(-52.89 0.78) rotate(-4.73)"/><circle class="cls-3" cx="555.56" cy="744.32" r="155.32" transform="translate(-67.29 24.58) rotate(-5.38)"/><path class="cls-3" d="M721.31,394.73A117.91,117.91,0,1,1,603.4,276.82,117.91,117.91,0,0,1,721.31,394.73Z" transform="translate(0 -30.74)"/><circle class="cls-3" cx="799.67" cy="358.16" r="154.48" transform="translate(425.59 1119.77) rotate(-88.85)"/><path class="cls-3" d="M546.54,457.55a55.1,55.1,0,1,1-55.09-55.09A55.1,55.1,0,0,1,546.54,457.55Z" transform="translate(0 -30.74)"/><path class="cls-3" d="M977.78,457.55a55.1,55.1,0,1,1-55.09-55.09A55.1,55.1,0,0,1,977.78,457.55Z" transform="translate(0 -30.74)"/><polygon class="cls-3" points="450.29 548.26 378.67 573.93 473.98 625.12 450.29 548.26"/><path class="cls-6" d="M1412.52,267.39s0,0,0,0-.17-.11-.22-.15l-.11-.07s-.13,0-.11-.07S1412.49,267.26,1412.52,267.39Z" transform="translate(0 -30.74)"/><path class="cls-7" d="M1410.29,292.31a11.06,11.06,0,1,1-3.7-15.2A11.05,11.05,0,0,1,1410.29,292.31Z" transform="translate(0 -30.74)"/><path class="cls-8" d="M1448.18,262.79a28.33,28.33,0,1,0-48.4-29.47c-5,8.2-2.54,17.22-1.76,26.1.43,4.84-1.21,13.44-1.21,13.44l17.62,10.72s6.88-5.41,11.37-7.25C1434.06,273,1443.19,271,1448.18,262.79Zm-36.11,4.32c.06,0,.16.12.22.15s.21.07.23.13,0,0,0,0-.17-.11-.22-.15-.22-.06-.24-.13A.05.05,0,0,1,1412.07,267.11Z" transform="translate(0 -30.74)"/><path class="cls-9" d="M1448.18,262.79c-5,8.19-14.12,10.16-22.38,13.54-4.49,1.84-11.37,7.25-11.37,7.25l-17.62-10.72s.21-1.08.45-2.69c12.28,8.19,49.34-5.15,54.89-19.07A28.2,28.2,0,0,1,1448.18,262.79Z" transform="translate(0 -30.74)"/><path class="cls-6" d="M1412.5,267.42h0c-.07,0-.17-.11-.22-.15s-.22-.06-.24-.13h0s.09.05.12.07l.11.06.11.08S1412.49,267.39,1412.5,267.42Z" transform="translate(0 -30.74)"/><path class="cls-6" d="M1412.51,267.41s-.09-.05-.12-.06l-.11-.07c-.06,0-.22-.06-.24-.13a.05.05,0,0,1,0,0c.06,0,.16.12.22.15S1412.54,267.35,1412.51,267.41Z" transform="translate(0 -30.74)"/><path class="cls-10" d="M1399.33,282l-1.37-1c8.34-11.22,12-20.45,13.36-26.81a7.25,7.25,0,0,1-2.65-7.21c.48-2.19,1.26-3.39,2.31-3.57a1.71,1.71,0,0,1,1.77,1c.84,1.36,1.25,4.5.44,9.1a13,13,0,0,0,5,2.06,16.24,16.24,0,0,1,2.85-6.19c2.17-3,5.58-5.82,8-4.94,1,.39,2.17,1.57,1.85,5a8.21,8.21,0,0,1-5.22,7.16,13.09,13.09,0,0,1-5.88.83,4.7,4.7,0,0,0,1,2.94,19.53,19.53,0,0,0,2.75,2.86c1.59-1.45,3-2.61,3.89-3.35,2-1.54,3-.5,3.33-.14,1.11,1.4.39,4.39-1.4,5.81-.85.68-2.77,1.63-5.67-.13h0c-5.86,5.47-13.73,13.92-15.74,19.65l-1.61-.56c2.15-6.15,10.1-14.65,15.94-20.12a20.3,20.3,0,0,1-2.82-2.95,6.53,6.53,0,0,1-1.39-4.23,14.7,14.7,0,0,1-5.19-1.94C1411.32,261.85,1407.45,271,1399.33,282Zm30-21.22s-.34,0-.9.45c-.92.73-2.13,1.75-3.49,3a3.44,3.44,0,0,0,2.43.44,3.19,3.19,0,0,0,2.09-2.63A1.59,1.59,0,0,0,1429.34,260.73Zm-18.13-15.65a5,5,0,0,0-.86,2.18,5.33,5.33,0,0,0,1.33,4.81,17.66,17.66,0,0,0,0-5.59A3.52,3.52,0,0,0,1411.21,245.08Zm17.3.92-.11-.05c-1.07-.4-3.73,1.24-6,4.33a14.75,14.75,0,0,0-2.53,5.41A11.28,11.28,0,0,0,1425,255a6.5,6.5,0,0,0,4.17-5.74C1429.3,247.53,1429.07,246.34,1428.51,246Z" transform="translate(0 -30.74)"/><rect class="cls-11" x="1398.54" y="271.4" width="9.61" height="22.11" transform="translate(432.41 1303.58) rotate(-58.67)"/><path class="cls-10" d="M1423.64,233.75a5.13,5.13,0,1,1-1.72-7.06A5.14,5.14,0,0,1,1423.64,233.75Z" transform="translate(0 -30.74)"/><path class="cls-12" d="M1553.77,316.66s6.07,43.74,47.86,47.86c-41.79,4.13-47.86,47.86-47.86,47.86s-6.08-43.73-47.86-47.86C1547.69,360.4,1553.77,316.66,1553.77,316.66Z" transform="translate(0 -30.74)"/><path class="cls-12" d="M1512.11,383.39s3.37,24.26,26.55,26.55c-23.18,2.29-26.55,26.56-26.55,26.56s-3.37-24.27-26.55-26.56C1508.74,407.65,1512.11,383.39,1512.11,383.39Z" transform="translate(0 -30.74)"/><path class="cls-13" d="M1240.21,137.74,1254.92,163a2.75,2.75,0,0,1,.29,2.21,2.9,2.9,0,0,1-1.35,1.79l-11.45,6.68a2.82,2.82,0,0,1-2.22.29,2.77,2.77,0,0,1-1.79-1.33l-14.72-25.22a2.77,2.77,0,0,1-.28-2.22,2.83,2.83,0,0,1,1.35-1.79l11.44-6.68a2.84,2.84,0,0,1,2.23-.29A2.8,2.8,0,0,1,1240.21,137.74Zm5.41,23.89a2.75,2.75,0,0,0-1.78-1.33,2.93,2.93,0,1,0-1.52,5.66,2.87,2.87,0,0,0,2.23-.32,2.92,2.92,0,0,0,1.37-1.78A2.74,2.74,0,0,0,1245.62,161.63Zm41.63-51.35a10,10,0,0,1,1.25,7.15,11.07,11.07,0,0,1,2.34,2.65,9.46,9.46,0,0,1,1.44,6.4,9.29,9.29,0,0,1,2.7,4.61,9,9,0,0,1,0,4.95c2,2.81,2.69,5.56,2.21,8.27-.52,3-2.54,5.54-6,7.64l-1.43.84-3,1.76-.68.4a34.32,34.32,0,0,1-6.07,2.72,56.64,56.64,0,0,1-5.5,1.68c-1.36.32-3.25.73-5.7,1.24q-5.87,1.16-7.28,1.93a3.05,3.05,0,0,1-2.24.27,2.72,2.72,0,0,1-1.78-1.31l-14.74-25.26a2.77,2.77,0,0,1-.29-2.13,3,3,0,0,1,1.24-1.81c.61-.42,1.16-1.78,1.66-4.09s.92-4.67,1.23-7.1a67.52,67.52,0,0,1,1.26-7.08,7.11,7.11,0,0,0,.13-2.61,15.55,15.55,0,0,0-.42-2.31c-.17-.56-.45-1.46-.86-2.7s-.71-2-.9-2.7a12.7,12.7,0,0,1-.43-2.5,7.69,7.69,0,0,1,.21-2.75,2.85,2.85,0,0,1,1.35-1.8,13.88,13.88,0,0,1,3.51-1.5,9.9,9.9,0,0,1,3-.36,6.38,6.38,0,0,1,2.52.66,9.17,9.17,0,0,1,3.62,2.92q.85,1.06,1.23,1.65c.24.39.55.9.91,1.52a13.94,13.94,0,0,1,1.37,3.22,19.17,19.17,0,0,1,.63,2.81c.08.72.15,1.67.19,2.84,0,.21,0,.52,0,.94a7.37,7.37,0,0,0,.07,1.12c0,.33.12.7.23,1.14l11-6.43a8.54,8.54,0,0,1,6.68-.88A8.33,8.33,0,0,1,1287.25,110.28Z" transform="translate(0 -30.74)"/><path class="cls-10" d="M1525.77,805.31a3.63,3.63,0,1,1-3.63-3.63A3.64,3.64,0,0,1,1525.77,805.31Z" transform="translate(0 -30.74)"/><path class="cls-6" d="M1655.51,606.93a.07.07,0,0,1,0,.09c-.08.07-.34,0-.46,0s-.38.1-.47,0a.14.14,0,0,1,0-.09c.09-.08.36,0,.47,0S1655.43,606.86,1655.51,606.93Z" transform="translate(0 -30.74)"/><path class="cls-14" d="M1113.42,103.27s-20.18,22.8-45.07,22.8-45.08-22.8-45.08-22.8,20.18-22.79,45.08-22.79S1113.42,103.27,1113.42,103.27Z" transform="translate(0 -30.74)"/><path class="cls-13" d="M1081.3,103.27a13,13,0,1,1-13-13A13,13,0,0,1,1081.3,103.27Z" transform="translate(0 -30.74)"/><polyline class="cls-15" points="1051.46 61.13 1051.46 39.83 1035.37 39.83 1035.37 19.02"/><circle class="cls-14" cx="1035.37" cy="17.83" r="6.15"/><polyline class="cls-15" points="1088.01 61.13 1088.01 39.83 1104.1 39.83 1104.1 19.02"/><path class="cls-14" d="M1098,48.58a6.15,6.15,0,1,0,6.15-6.15A6.15,6.15,0,0,0,1098,48.58Z" transform="translate(0 -30.74)"/><polyline class="cls-15" points="1088.01 82.53 1088.01 103.82 1104.1 103.82 1104.1 124.64"/><path class="cls-14" d="M1098,156.57a6.15,6.15,0,1,1,6.15,6.15A6.15,6.15,0,0,1,1098,156.57Z" transform="translate(0 -30.74)"/><polyline class="cls-15" points="1051.46 82.53 1051.46 103.82 1035.37 103.82 1035.37 124.64"/><path class="cls-14" d="M1041.52,156.57a6.15,6.15,0,1,0-6.15,6.15A6.15,6.15,0,0,0,1041.52,156.57Z" transform="translate(0 -30.74)"/><line class="cls-16" x1="1654.57" y1="771.99" x2="1995.92" y2="771.99"/><polyline class="cls-16" points="1648.73 729.27 1648.73 811.17 1919.22 811.17 1919.22 971.12"/><path class="cls-17" d="M1345.93,399.48s-60.8-168.14-228.65-154.94S857.76,357.67,866.91,488.9l306.13,8Z" transform="translate(0 -30.74)"/><path class="cls-18" d="M1261.93,431s-12.16-160.24-146.21-169c-144.66-9.41-223.43,97.4-215.56,210.39l263.58,6.84Z" transform="translate(0 -30.74)"/><path class="cls-19" d="M890.2,831.42V841h-4.73v-.8c0-3-.15-5.88-.42-8.76Z" transform="translate(0 -30.74)"/><rect class="cls-13" x="1395.05" y="957.73" width="66.06" height="63.98"/><path class="cls-13" d="M1513.67,1065.52H1342.49a26.13,26.13,0,0,1,26.13-26.13h118.93a26.12,26.12,0,0,1,26.12,26.13Z" transform="translate(0 -30.74)"/><path class="cls-13" d="M1212.13,630.18H1644A16.91,16.91,0,0,1,1661,647.09V948.27A16.92,16.92,0,0,1,1644,965.19H1212.13a16.91,16.91,0,0,1-16.91-16.91V647.09A16.91,16.91,0,0,1,1212.13,630.18Z"/><rect class="cls-20" x="1222.27" y="653.45" width="411.64" height="267.31"/><path class="cls-20" d="M1437.27,976a9.19,9.19,0,1,1-9.19-9.19A9.18,9.18,0,0,1,1437.27,976Z" transform="translate(0 -30.74)"/><rect class="cls-21" x="1395.05" y="965.19" width="66.06" height="5.61"/><rect class="cls-21" x="1395.05" y="1003.04" width="66.06" height="5.61"/><text y="-30.74"/><text class="cls-22" transform="translate(1268.01 717.37)">0 1 0 1 0 1 0 1 0 <tspan x="0" y="53.03">1 0 1 0 1 0 1 0 1 </tspan><tspan x="0" y="106.07">0 1 0 1 0 1 0 1 0 </tspan><tspan x="0" y="159.1">1 0 1 0 1 0 1 0 1 </tspan></text><rect class="cls-14" x="756.85" y="553.51" width="36.75" height="135.46"/><path class="cls-23" d="M793.6,584.25v33.46a52.59,52.59,0,0,1-36.75-2.06v-31.4Z" transform="translate(0 -30.74)"/><rect class="cls-14" x="557.45" y="553.51" width="36.75" height="135.46"/><path class="cls-23" d="M594.2,584.25v45.91a44,44,0,0,1-36.75,0V584.25Z" transform="translate(0 -30.74)"/><rect class="cls-14" x="609.62" y="457.8" width="36.75" height="135.46" transform="translate(555.54 -320.88) rotate(45)"/><path class="cls-23" d="M688.88,490.63l-33.81,33.8-11.72-11.72a52.24,52.24,0,0,1-11.42-17.11l31-31Z" transform="translate(0 -30.74)"/><path class="cls-24" d="M781.62,657.25h0A108.84,108.84,0,0,1,890.46,766.09v254a0,0,0,0,1,0,0H672.79a0,0,0,0,1,0,0v-254A108.84,108.84,0,0,1,781.62,657.25Z"/><path class="cls-14" d="M673.4,1007.68H885.48a21.21,21.21,0,0,1,21.21,21.21v1.35a0,0,0,0,1,0,0H655.57a0,0,0,0,1,0,0v-4.73A17.82,17.82,0,0,1,673.4,1007.68Z"/><path class="cls-19" d="M890.46,796.83v.95H672.79v-.95c0-3.51.17-7,.49-10.41H890C890.29,789.84,890.46,793.32,890.46,796.83Z" transform="translate(0 -30.74)"/><rect class="cls-12" x="670.12" y="744.3" width="225.98" height="11.37" rx="4.49"/><rect class="cls-14" x="753.23" y="797.29" width="132.74" height="185.9"/><path class="cls-12" d="M815.86,830.07v16.78a53.36,53.36,0,0,0-22.32,0V830.07Z" transform="translate(0 -30.74)"/><path class="cls-12" d="M815.86,846.85v1.74a51.65,51.65,0,0,0-22.32,0V842C797.13,841.22,812.26,846.08,815.86,846.85Z" transform="translate(0 -30.74)"/><path class="cls-12" d="M804.7,847.37a51.3,51.3,0,0,1,11.16,1.22v3.8H793.54v-3.8A51.3,51.3,0,0,1,804.7,847.37Z" transform="translate(0 -30.74)"/><path class="cls-12" d="M815.86,943v5.27a51.65,51.65,0,0,1-22.32,0V943Z" transform="translate(0 -30.74)"/><path class="cls-12" d="M804.7,951.24a52.63,52.63,0,0,0,11.16-1.19v15.31H793.54V950.05A52.56,52.56,0,0,0,804.7,951.24Z" transform="translate(0 -30.74)"/><path class="cls-12" d="M815.86,948.31v7.83c-3.6.77-7.33-4.9-11.16-4.9a52.56,52.56,0,0,1-11.16-1.19v-1.74a51.65,51.65,0,0,0,22.32,0Z" transform="translate(0 -30.74)"/><path class="cls-12" d="M849.36,926.59a52.77,52.77,0,0,1-15.62,15.94l-1.23-1.22a51.54,51.54,0,0,0,15.61-15.95Z" transform="translate(0 -30.74)"/><path class="cls-12" d="M832.51,941.31h0l-3.64-3.66,15.78-15.78,3.48,3.49A51.54,51.54,0,0,1,832.51,941.31Z" transform="translate(0 -30.74)"/><path class="cls-12" d="M860.42,937.65l-15.78,15.79-10.9-10.91a52.77,52.77,0,0,0,15.62-15.94Z" transform="translate(0 -30.74)"/><path class="cls-12" d="M776.55,853.79a53,53,0,0,0-15.94,15.62L749,857.78,764.76,842Z" transform="translate(0 -30.74)"/><path class="cls-12" d="M777.79,855a51.22,51.22,0,0,0-15.95,15.61l-5-5c4.14-6.27,13.35-7.84,19.71-11.85Z" transform="translate(0 -30.74)"/><path class="cls-12" d="M780.54,857.78l-15.78,15.78-2.92-2.92A51.22,51.22,0,0,1,777.79,855Z" transform="translate(0 -30.74)"/><path class="cls-25" d="M762.29,938.66C764,935,773,942,771.42,945.74s-6,7.21-9.73,5.66-4.74-4.54-4.39-8.64C757.76,937.38,760.42,942.55,762.29,938.66Z" transform="translate(0 -30.74)"/><path class="cls-12" d="M856.13,886.56l-.09-.4A52.31,52.31,0,0,0,849,869.72a3.28,3.28,0,0,1-.2-.31l11.64-11.63L844.64,842l-11.8,11.8L831.61,855A51.09,51.09,0,0,0,755,886.56h-1.75a18.9,18.9,0,0,1-.43,2.09c.13-.7.27-1.4.43-2.09H737.05v22.31h17.63a50.74,50.74,0,0,0,6.59,16.48h0L760,926.59,749,937.65l15.78,15.79,7.64-7.65,3.26-3.26,1.23-1.22h0a50.71,50.71,0,0,0,16.65,7,51.65,51.65,0,0,0,22.32,0,50.71,50.71,0,0,0,16.65-7,51.32,51.32,0,0,0,15.61-15.95,50.74,50.74,0,0,0,6.59-16.48h17.63V886.56ZM804.7,925.73A27.28,27.28,0,1,1,832,898.45,27.28,27.28,0,0,1,804.7,925.73Z" transform="translate(0 -30.74)"/><circle class="cls-12" cx="804.7" cy="897.71" r="16.09" transform="translate(-351.78 526.38) rotate(-31.72)"/><path class="cls-12" d="M848.56,948.68v7a22.12,22.12,0,0,0-9.26,0v-7Z" transform="translate(0 -30.74)"/><path class="cls-12" d="M848.56,955.64v.72a21.27,21.27,0,0,0-9.26,0v-2.74C840.79,953.3,847.07,955.32,848.56,955.64Z" transform="translate(0 -30.74)"/><path class="cls-12" d="M843.93,955.85a21.4,21.4,0,0,1,4.63.51v1.58H839.3v-1.58A21.4,21.4,0,0,1,843.93,955.85Z" transform="translate(0 -30.74)"/><path class="cls-12" d="M848.56,995.54v2.19a21.27,21.27,0,0,1-9.26,0v-2.19Z" transform="translate(0 -30.74)"/><path class="cls-12" d="M843.93,998.94a22,22,0,0,0,4.63-.49v6.35H839.3v-6.35A22,22,0,0,0,843.93,998.94Z" transform="translate(0 -30.74)"/><path class="cls-12" d="M848.56,997.73V1001c-1.49.32-3-2-4.63-2a22,22,0,0,1-4.63-.49v-.72a21.27,21.27,0,0,0,9.26,0Z" transform="translate(0 -30.74)"/><path class="cls-12" d="M862.46,988.72a22,22,0,0,1-6.48,6.61l-.51-.51a21.4,21.4,0,0,0,6.48-6.61Z" transform="translate(0 -30.74)"/><path class="cls-12" d="M855.47,994.82h0L854,993.31l6.55-6.55,1.45,1.45A21.4,21.4,0,0,1,855.47,994.82Z" transform="translate(0 -30.74)"/><path class="cls-12" d="M867.05,993.31l-6.55,6.55L856,995.33a22,22,0,0,0,6.48-6.61Z" transform="translate(0 -30.74)"/><path class="cls-12" d="M832.26,958.52a22,22,0,0,0-6.62,6.48l-4.83-4.83,6.55-6.55Z" transform="translate(0 -30.74)"/><path class="cls-12" d="M832.77,959a21.22,21.22,0,0,0-6.62,6.48l-2.07-2.08c1.72-2.6,5.54-3.25,8.18-4.91Z" transform="translate(0 -30.74)"/><path class="cls-12" d="M833.91,960.17l-6.55,6.55-1.21-1.21a21.22,21.22,0,0,1,6.62-6.48Z" transform="translate(0 -30.74)"/><path class="cls-12" d="M865.27,972.11c0-.05,0-.11,0-.16a21.74,21.74,0,0,0-2.93-6.82l-.08-.13,4.83-4.83-6.55-6.55-4.89,4.9-.52.51a21,21,0,0,0-6.53-2.67,21.27,21.27,0,0,0-9.26,0,21,21,0,0,0-6.53,2.67,21.22,21.22,0,0,0-6.62,6.48,21,21,0,0,0-2.83,6.6h-.73a6.72,6.72,0,0,1-.18.87l.18-.87h-6.72v9.26h7.31a21.19,21.19,0,0,0,2.73,6.84h0l-.51.51-4.59,4.59,6.55,6.55,3.17-3.17,1.35-1.36.51-.51h0a20.84,20.84,0,0,0,6.9,2.91,21.27,21.27,0,0,0,9.26,0,21,21,0,0,0,6.91-2.91,21.14,21.14,0,0,0,9.21-13.45H872v-9.26Zm-21.34,16.25A11.32,11.32,0,1,1,855.25,977,11.31,11.31,0,0,1,843.93,988.36Z" transform="translate(0 -30.74)"/><path class="cls-12" d="M850.61,976.74a6.68,6.68,0,1,1-6.68-6.68A6.68,6.68,0,0,1,850.61,976.74Z" transform="translate(0 -30.74)"/><polygon class="cls-12" points="828.7 922.87 827.36 922.88 829.47 924.98 828.7 922.87"/><path class="cls-24" d="M822.86,582.11l-15.57,15.57a41.45,41.45,0,0,1-58.61,0L648.91,497.9a41.42,41.42,0,0,1,0-58.6l15.56-15.57a41.45,41.45,0,0,1,58.61,0l99.78,99.77A41.45,41.45,0,0,1,822.86,582.11Z" transform="translate(0 -30.74)"/><path class="cls-26" d="M815.07,590.42a52.45,52.45,0,0,1-74.17,0l-84.21-84.21a52.34,52.34,0,0,1-15.09-42.42,52.28,52.28,0,0,0,15.09,31.74l84.21,84.21A52.45,52.45,0,0,0,830.16,548,52.36,52.36,0,0,1,815.07,590.42Z" transform="translate(0 -30.74)"/><circle class="cls-14" cx="780.62" cy="732.16" r="18.76" transform="translate(-289.08 735.68) rotate(-45)"/><circle class="cls-14" cx="688.88" cy="433.9" r="33.3"/><circle class="cls-24" cx="688.88" cy="464.64" r="18.76" transform="translate(-4.02 892.53) rotate(-67.5)"/><circle class="cls-14" cx="780.62" cy="555.5" r="33.3" transform="translate(-164.16 683.94) rotate(-45)"/><circle class="cls-24" cx="780.62" cy="555.5" r="18.76" transform="translate(-164.16 683.94) rotate(-45)"/><circle class="cls-14" cx="778.29" cy="732.16" r="33.3" transform="translate(-195.98 1140.28) rotate(-67.5)"/><circle class="cls-24" cx="778.29" cy="732.16" r="14.6" transform="translate(-195.98 1140.28) rotate(-67.5)"/><circle class="cls-24" cx="575.82" cy="577.83" r="43.9" transform="translate(-118.85 974.74) rotate(-76.72)"/><circle class="cls-14" cx="575.82" cy="547.09" r="27.92"/><circle class="cls-24" cx="575.82" cy="577.83" r="12.45" transform="translate(-86.79 1022.91) rotate(-80.78)"/><path class="cls-24" d="M520.86,752.65h3.64a13.71,13.71,0,0,1,13.71,13.71v60.79a0,0,0,0,1,0,0H520.86a0,0,0,0,1,0,0v-74.5A0,0,0,0,1,520.86,752.65Z" transform="translate(793.51 1672.77) rotate(-162.28)"/><path class="cls-14" d="M538,763.17h0a8.68,8.68,0,0,0,10.75-5.93l7.41-25.71a1.82,1.82,0,0,0-1.24-2.25l-13.18-3.8a1.82,1.82,0,0,0-2.25,1.24l-7.42,25.71A8.68,8.68,0,0,0,538,763.17Z" transform="translate(0 -30.74)"/><path class="cls-24" d="M542.81,756.39a3.63,3.63,0,1,1-3.63-3.62A3.62,3.62,0,0,1,542.81,756.39Z" transform="translate(0 -30.74)"/><path class="cls-24" d="M613,752.65h17.35a0,0,0,0,1,0,0v60.79a13.71,13.71,0,0,1-13.71,13.71H613a0,0,0,0,1,0,0v-74.5A0,0,0,0,1,613,752.65Z" transform="translate(-210.94 195.96) rotate(-17.72)"/><path class="cls-14" d="M613.19,763.17h0a8.67,8.67,0,0,1-10.74-5.93L595,731.53a1.81,1.81,0,0,1,1.25-2.25l13.17-3.8a1.83,1.83,0,0,1,2.26,1.24l7.41,25.71A8.68,8.68,0,0,1,613.19,763.17Z" transform="translate(0 -30.74)"/><path class="cls-24" d="M608.38,756.39a3.63,3.63,0,1,0,3.63-3.62A3.63,3.63,0,0,0,608.38,756.39Z" transform="translate(0 -30.74)"/><rect class="cls-24" x="529.67" y="680.49" width="92.96" height="19.04" rx="7.52"/><circle class="cls-14" cx="698.25" cy="880.43" r="12.84" transform="translate(-319.06 1326.98) rotate(-76.72)"/><circle class="cls-14" cx="698.25" cy="965.36" r="12.84" transform="translate(-401.71 1392.39) rotate(-76.72)"/><polygon class="cls-27" points="689.43 937.32 708.67 938.31 711.56 969.87 698.74 971.12 694.43 962.67 693.95 971.12 680.44 966.39 689.43 937.32"/><polygon class="cls-28" points="705.34 939.03 675.52 919.19 705.36 872 710.68 872.35 735.34 888.75 705.34 939.03"/><path class="cls-25" d="M725.89,914a4.31,4.31,0,0,1-6,1.2h0a4.31,4.31,0,0,1-1.2-6l2.85-4.29a4.32,4.32,0,0,1,6-1.2h0a4.32,4.32,0,0,1,1.2,6Z" transform="translate(0 -30.74)"/><path class="cls-25" d="M749.34,908.4a15.67,15.67,0,1,1-26.09-17.35c4.79-7.21,14.73-9.47,21.72-4.37C759.7,897.4,740.3,904.53,749.34,908.4Z" transform="translate(0 -30.74)"/><path class="cls-29" d="M735.32,960.38c3.25-1,4.67-4.09,3.44-10.65-1.75-9.28.64-22.22.64-22.22-.45-10.88-11-10.31-15.49-7.16-2.75,1.93-5.3,6.43-4.08,10.39L727.24,955c1.22,4,4.83,6.37,8.08,5.38Z" transform="translate(0 -30.74)"/><polygon class="cls-29" points="758.25 915.92 726.26 921.03 735.32 929.63 759.25 919.34 758.25 915.92"/><rect class="cls-30" x="676.68" y="927.66" width="35.82" height="14.6"/><path class="cls-31" d="M727.45,1066.38H706v-11.71l5.7.31C716.65,1061.84,725.78,1052.33,727.45,1066.38Z" transform="translate(0 -30.74)"/><polygon class="cls-30" points="703.12 976.82 711.71 976.82 712.5 942.27 697.25 942.27 703.12 976.82"/><polygon class="cls-30" points="706.02 1024.24 711.71 1024.24 711.71 976.82 703.12 976.82 706.02 1024.24"/><rect class="cls-31" x="706.01" y="1034.02" width="21.44" height="1.62"/><path class="cls-31" d="M661.75,1066.38h21.44v-11.71l-5.69.31C672.56,1061.84,663.42,1052.33,661.75,1066.38Z" transform="translate(0 -30.74)"/><polygon class="cls-30" points="686.08 976.82 677.5 976.82 676.7 942.27 691.95 942.27 686.08 976.82"/><polygon class="cls-30" points="683.18 1024.24 677.5 1024.24 677.5 976.82 686.08 976.82 683.18 1024.24"/><rect class="cls-31" x="661.75" y="1034.02" width="21.44" height="1.62"/><path class="cls-13" d="M741.82,910.91l-9-6C729.78,908.68,732.88,916.89,741.82,910.91Z" transform="translate(0 -30.74)"/><path class="cls-32" d="M750.42,887.2c-5.59-5.85-14.88-11.86-15.28-10.91A16.61,16.61,0,0,0,722.44,906a14.8,14.8,0,0,1,1.62-3.23,15,15,0,0,1,1.38-1.77,4.51,4.51,0,0,1-3.32-7,4.52,4.52,0,0,1,8.18,3.5,13.58,13.58,0,0,0,4.29-5.67c3.57,3,6.48,5.88,12.9,7.82C753.42,901.22,754.39,891.35,750.42,887.2Z" transform="translate(0 -30.74)"/><polygon class="cls-29" points="726.27 882.72 734.53 888.22 713 927.93 715.78 971.12 704.88 979.53 703.53 923.7 726.27 882.72"/><polygon class="cls-29" points="718.86 877.84 689.51 927.1 680.29 976.87 666.24 974.22 675.52 912.77 707.28 871.12 718.86 877.84"/><path class="cls-33" d="M694,919.27c3.44,13.43,25,28.28,25,28.28l7.23-12.22-20.83-22.88-6.15-.1Z" transform="translate(0 -30.74)"/><path class="cls-29" d="M727.79,937.43c2.34-2.46,2.07-5.85-2.23-11-6.08-7.23-10.36-19.68-10.36-19.68-5.73-9.25-14.65-3.56-17,1.37-1.45,3-1.46,8.2,1.54,11.06l18.37,17.49c3,2.86,7.34,3.18,9.68.72Z" transform="translate(0 -30.74)"/><polygon class="cls-29" points="748.62 903.05 716.76 897.2 722.43 908.34 748.43 906.61 748.62 903.05"/><path class="cls-25" d="M755.1,927.61c2.88-2.87,9,6.69,6.25,9.71s-8,4.81-11.06,2.1-3-5.86-1.26-9.62C751.25,924.89,752.05,930.65,755.1,927.61Z" transform="translate(0 -30.74)"/><path class="cls-8" d="M1259,364a49.66,49.66,0,0,0-7.37-15.33,50.24,50.24,0,0,0-53.93-19.37,49.83,49.83,0,0,0-15.19,7,50.35,50.35,0,0,0-15,16,50.18,50.18,0,0,0,1.74,53.73,50.6,50.6,0,0,0,16,15,50,50,0,0,0,16.63,6.17,50.65,50.65,0,0,0,21.91-.94,50.24,50.24,0,0,0,36.47-40.34,50.61,50.61,0,0,0,.6-10.27A49.76,49.76,0,0,0,1259,364Zm-47.11,40.53a26.79,26.79,0,1,1,25.62-27.92A26.79,26.79,0,0,1,1211.91,404.54Z" transform="translate(0 -30.74)"/><path class="cls-8" d="M1218.84,310.2l1.25,29.24a30.16,30.16,0,0,0-21.9.94l-1.25-29.24Z" transform="translate(0 -30.74)"/><path class="cls-8" d="M1212.67,422.06a34.39,34.39,0,0,0,10.87-2.26l1,23.16-21.9.94-1-23.16A34.42,34.42,0,0,0,1212.67,422.06Z" transform="translate(0 -30.74)"/><path class="cls-8" d="M1263.74,335.51,1244,357.07a30.12,30.12,0,0,0-16.16-14.82l19.8-21.57Z" transform="translate(0 -30.74)"/><path class="cls-8" d="M1180.27,410.24a34.31,34.31,0,0,0,9.29,6.09l-15.68,17.08-16.15-14.82,15.68-17.08A34.43,34.43,0,0,0,1180.27,410.24Z" transform="translate(0 -30.74)"/><path class="cls-8" d="M1277.59,385.15l-29.25,1.26a30.05,30.05,0,0,0-.94-21.91l29.25-1.25Z" transform="translate(0 -30.74)"/><path class="cls-8" d="M1165.72,379a34.39,34.39,0,0,0,2.26,10.87l-23.16,1-.94-21.9,23.16-1A34.7,34.7,0,0,0,1165.72,379Z" transform="translate(0 -30.74)"/><path class="cls-8" d="M1252.28,430.05l-21.57-19.79a30.14,30.14,0,0,0,14.82-16.15l21.57,19.79Z" transform="translate(0 -30.74)"/><path class="cls-8" d="M1177.54,346.58a34.31,34.31,0,0,0-6.09,9.29l-17.08-15.67,14.82-16.15,17.08,15.67A34.43,34.43,0,0,0,1177.54,346.58Z" transform="translate(0 -30.74)"/><path class="cls-34" d="M1219.62,328.38a49.46,49.46,0,0,0-11-.74,50.68,50.68,0,0,0-10.9,1.67l-.18-4.14a53.46,53.46,0,0,1,10.9-1.58,54.84,54.84,0,0,1,11,.63Z" transform="translate(0 -30.74)"/><path class="cls-8" d="M1220.09,339.44a30.13,30.13,0,0,0-21.89.94l-.48-11.07a50.68,50.68,0,0,1,10.9-1.67,49.46,49.46,0,0,1,11,.74Z" transform="translate(0 -30.74)"/><path class="cls-34" d="M1224,430.37a53.66,53.66,0,0,1-10.91,1.58,54.88,54.88,0,0,1-11-.63l-.18-4.16a49.51,49.51,0,0,0,11,.74,50.68,50.68,0,0,0,10.9-1.67Z" transform="translate(0 -30.74)"/><path class="cls-8" d="M1201.91,427.16l-.27-6.42a34.51,34.51,0,0,0,21.9-.93l.28,6.42a50.68,50.68,0,0,1-10.9,1.67A49.51,49.51,0,0,1,1201.91,427.16Z" transform="translate(0 -30.74)"/><path class="cls-34" d="M1254.44,345.63l-2.79,3.05a50.44,50.44,0,0,0-16.3-14.66l2.81-3.06A54.15,54.15,0,0,1,1254.44,345.63Z" transform="translate(0 -30.74)"/><path class="cls-34" d="M1185.28,421l-2.81,3.05a54.32,54.32,0,0,1-16-15l2.81-3.07A50.3,50.3,0,0,0,1185.28,421Z" transform="translate(0 -30.74)"/><path class="cls-8" d="M1189.55,416.33l-4.27,4.67a50.3,50.3,0,0,1-16-15l4.12-4.48a34.54,34.54,0,0,0,16.15,14.81Z" transform="translate(0 -30.74)"/><path class="cls-34" d="M1264.43,385.72l-4.14.18A50.88,50.88,0,0,0,1259,364l4.15-.18a54,54,0,0,1,1.77,11.62A54.66,54.66,0,0,1,1264.43,385.72Z" transform="translate(0 -30.74)"/><path class="cls-8" d="M1260.89,375.62a50,50,0,0,1-.6,10.28l-12,.5a30,30,0,0,0-.94-21.89L1259,364A49.67,49.67,0,0,1,1260.89,375.62Z" transform="translate(0 -30.74)"/><path class="cls-34" d="M1162.12,390.1l-4.14.18a55,55,0,0,1-1.4-10.19,54.09,54.09,0,0,1,.76-11.72l4.17-.18a49.44,49.44,0,0,0-.87,11.73A50.8,50.8,0,0,0,1162.12,390.1Z" transform="translate(0 -30.74)"/><path class="cls-8" d="M1168,389.85l-5.86.25a50.8,50.8,0,0,1-1.48-10.18,49.44,49.44,0,0,1,.87-11.73L1167,368a34.42,34.42,0,0,0,.94,21.9Z" transform="translate(0 -30.74)"/><path class="cls-34" d="M1257.57,405.17a54.2,54.2,0,0,1-14.65,16.28l-3.06-2.79a50.48,50.48,0,0,0,14.66-16.31Z" transform="translate(0 -30.74)"/><path class="cls-8" d="M1239.86,418.66l-9.15-8.4a30.43,30.43,0,0,0,8.93-6.68,30.79,30.79,0,0,0,5.9-9.47l9,8.23h0A50.48,50.48,0,0,1,1239.86,418.66Z" transform="translate(0 -30.74)"/><path class="cls-34" d="M1182.53,336.28a50.59,50.59,0,0,0-15,16l-3-2.8a54.19,54.19,0,0,1,15-16Z" transform="translate(0 -30.74)"/><path class="cls-8" d="M1186.27,339.72a34.41,34.41,0,0,0-14.82,16.14l-3.91-3.58a50.59,50.59,0,0,1,15-16Z" transform="translate(0 -30.74)"/><path class="cls-8" d="M1226.53,376.37a15.81,15.81,0,1,1-16.47-15.12A15.81,15.81,0,0,1,1226.53,376.37Z" transform="translate(0 -30.74)"/><circle class="cls-35" cx="1212.01" cy="379.65" r="36.56" transform="translate(559.96 1438.83) rotate(-76.5)"/><path class="cls-21" d="M1348.06,404.06c20.55,57.66-9.92,159.89,23.49,236s64.89,111.81,26,129.49-48.59,33.32-50.78,69.34S1318.34,995,1293.74,995s-120.33-35.64-152-61.44c0,0-28.65,94.15-12.37,128.56H866.1s9.33-222.82,27.32-315.63-30.36-228-26.51-257.63c0,0,20.81-54.39,224-56.15h0a181.58,181.58,0,0,1,106.45-53.09C1256.28,372.06,1335.52,368.89,1348.06,404.06Z" transform="translate(0 -30.74)"/><path class="cls-13" d="M1049.8,487.89c-30.93,107.12,86.08,170.6,91,248.71,6.27,99.33-15.81,112.65,16.18,132.79s89,79.77,89,79.77L1068.35,817.85s22.6-75.07,16.06-127.49-50.35-119.66-50.35-119.66l-8.19-52.77-3.54-38.67Z" transform="translate(0 -30.74)"/><path class="cls-36" d="M1141.75,933.6c-9.2,47.42-12.38,128.56-12.38,128.56H1033.9s10-97.17-46.56-180.54c-2.84-4.18-6.9-9.44-11.74-15.33-2.12-2.57-4.38-5.26-6.76-8-25.78-30.21-64.39-70.18-65.94-71.79C922.77,804,945.77,821,969.5,837c2.28,1.53,4.57,3.06,6.87,4.57C1056.3,894.26,1141.75,933.6,1141.75,933.6Z" transform="translate(0 -30.74)"/><path class="cls-37" d="M1032.12,566c89.91,134.91,36.23,251.86,36.23,251.86l191.22,143.28s35.62-20.5,59.6.45" transform="translate(0 -30.74)"/><rect class="cls-36" x="1256.75" y="568.97" width="12.16" height="392.05"/><path class="cls-36" d="M961.45,728.09c-51.6,36-77.82,88.73-78,89.15,3-27,2.26-51.62,6-70.71C902,681.46,886,595.58,874.29,539.83h0l19.91-48,142.38,51.43C1044,685.54,1013.25,692,961.45,728.09Z" transform="translate(0 -30.74)"/><path class="cls-38" d="M982.23,653.08C936.5,981.93,822.39,753.22,873.09,498.38" transform="translate(0 -30.74)"/><path class="cls-38" d="M1003.05,641.63C984.87,841,892.27,789.83,886,564.45" transform="translate(0 -30.74)"/><path class="cls-39" d="M881,295.64a58.92,58.92,0,0,0-8.73-18.14,59.46,59.46,0,0,0-63.84-22.92,58.78,58.78,0,0,0-18,8.25,59.72,59.72,0,0,0-17.75,18.94,58.93,58.93,0,0,0-7.14,18.82,59.76,59.76,0,0,0,.73,26,58.78,58.78,0,0,0,8.48,18.82,59.72,59.72,0,0,0,18.94,17.75,59,59,0,0,0,19.69,7.3,59.7,59.7,0,0,0,25.92-1.11,58.84,58.84,0,0,0,19-9A59.51,59.51,0,0,0,881,295.64Zm-55.77,48a31.71,31.71,0,1,1,30.33-33A31.7,31.7,0,0,1,825.2,343.62Z" transform="translate(0 -30.74)"/><path class="cls-39" d="M833.4,232l1.49,34.62A35.63,35.63,0,0,0,809,267.68l-1.48-34.62Z" transform="translate(0 -30.74)"/><path class="cls-39" d="M826.09,364.37A41.09,41.09,0,0,0,839,361.7l1.18,27.41-25.92,1.11L813,362.81A41,41,0,0,0,826.09,364.37Z" transform="translate(0 -30.74)"/><path class="cls-39" d="M886.55,261.91l-23.43,25.53A35.65,35.65,0,0,0,844,269.89l23.43-25.53Z" transform="translate(0 -30.74)"/><path class="cls-39" d="M787.74,350.38a41.1,41.1,0,0,0,11,7.21L780.19,377.8l-19.12-17.54L779.62,340A41,41,0,0,0,787.74,350.38Z" transform="translate(0 -30.74)"/><path class="cls-39" d="M902.94,320.68l-34.61,1.48a35.67,35.67,0,0,0-1.12-25.92l34.62-1.49Z" transform="translate(0 -30.74)"/><path class="cls-39" d="M770.52,313.37a40.88,40.88,0,0,0,2.68,12.87l-27.42,1.18-1.11-25.93,27.41-1.18A41,41,0,0,0,770.52,313.37Z" transform="translate(0 -30.74)"/><path class="cls-39" d="M873,373.82,847.45,350.4A35.65,35.65,0,0,0,865,331.28l25.53,23.43Z" transform="translate(0 -30.74)"/><path class="cls-39" d="M784.51,275a40.89,40.89,0,0,0-7.21,11l-20.21-18.55,17.54-19.12,20.22,18.55A41,41,0,0,0,784.51,275Z" transform="translate(0 -30.74)"/><path class="cls-40" d="M834.32,253.47a59.7,59.7,0,0,0-25.92,1.11l-.22-4.91a63.7,63.7,0,0,1,12.91-1.87,64.5,64.5,0,0,1,13,.75Z" transform="translate(0 -30.74)"/><path class="cls-39" d="M834.88,266.57A35.6,35.6,0,0,0,809,267.68l-.56-13.1a59.7,59.7,0,0,1,25.92-1.11Z" transform="translate(0 -30.74)"/><path class="cls-40" d="M839.5,374.21a63.7,63.7,0,0,1-12.91,1.87,64.5,64.5,0,0,1-13-.75l-.21-4.92a59.74,59.74,0,0,0,25.93-1.11Z" transform="translate(0 -30.74)"/><path class="cls-39" d="M813.36,370.41l-.32-7.6A40.8,40.8,0,0,0,839,361.7l.33,7.6a59.74,59.74,0,0,1-25.93,1.11Z" transform="translate(0 -30.74)"/><path class="cls-40" d="M875.54,273.9l-3.3,3.6a59.87,59.87,0,0,0-19.3-17.35l3.33-3.62A63.92,63.92,0,0,1,875.54,273.9Z" transform="translate(0 -30.74)"/><path class="cls-40" d="M793.67,363.11l-3.32,3.61A64.08,64.08,0,0,1,771.41,349l3.32-3.63A59.61,59.61,0,0,0,793.67,363.11Z" transform="translate(0 -30.74)"/><path class="cls-39" d="M798.73,357.59l-5.06,5.52a59.61,59.61,0,0,1-18.94-17.75l4.88-5.31a40.82,40.82,0,0,0,19.12,17.54Z" transform="translate(0 -30.74)"/><path class="cls-40" d="M887.36,321.35l-4.9.21a59.81,59.81,0,0,0,.72-12.17A59,59,0,0,0,881,295.65l4.92-.21a64.74,64.74,0,0,1,1.47,25.91Z" transform="translate(0 -30.74)"/><path class="cls-39" d="M883.18,309.39a59.81,59.81,0,0,1-.72,12.17l-14.14.6a35.6,35.6,0,0,0-1.11-25.92l13.76-.59A59,59,0,0,1,883.18,309.39Z" transform="translate(0 -30.74)"/><path class="cls-40" d="M766.25,326.54l-4.89.21a64.53,64.53,0,0,1-1.66-12.06,63.74,63.74,0,0,1,.9-13.88l4.93-.21a59,59,0,0,0-1,13.88A60.47,60.47,0,0,0,766.25,326.54Z" transform="translate(0 -30.74)"/><path class="cls-39" d="M773.19,326.24l-6.94.3a60.47,60.47,0,0,1-1.75-12.06,59,59,0,0,1,1-13.88l6.55-.28a40.8,40.8,0,0,0,1.11,25.92Z" transform="translate(0 -30.74)"/><path class="cls-40" d="M879.25,344.37a64.39,64.39,0,0,1-17.35,19.28l-3.62-3.31A59.76,59.76,0,0,0,875.63,341Z" transform="translate(0 -30.74)"/><path class="cls-39" d="M858.28,360.34l-10.83-9.94A35.75,35.75,0,0,0,865,331.28L875.63,341h0A59.76,59.76,0,0,1,858.28,360.34Z" transform="translate(0 -30.74)"/><path class="cls-40" d="M790.41,262.83a59.79,59.79,0,0,0-17.74,18.94l-3.61-3.32a64.34,64.34,0,0,1,17.73-18.94Z" transform="translate(0 -30.74)"/><path class="cls-39" d="M794.84,266.9A40.74,40.74,0,0,0,777.3,286l-4.63-4.24a59.79,59.79,0,0,1,17.74-18.94Z" transform="translate(0 -30.74)"/><path class="cls-39" d="M842.5,310.28A18.71,18.71,0,1,1,823,292.39,18.71,18.71,0,0,1,842.5,310.28Z" transform="translate(0 -30.74)"/><path class="cls-41" d="M1141.09,289.38a49.33,49.33,0,0,0-7.31-15.21,50.13,50.13,0,0,0-16.18-14.55,49.78,49.78,0,0,0-52.41,2.25,50,50,0,0,0-14.88,15.87,49.81,49.81,0,0,0-6.85,27.42,50.11,50.11,0,0,0,1.48,10.11,49.46,49.46,0,0,0,7.1,15.78,50.18,50.18,0,0,0,15.88,14.88,49.8,49.8,0,0,0,73.17-56.55Zm-46.74,40.21a26.58,26.58,0,1,1,25.42-27.7A26.58,26.58,0,0,1,1094.35,329.59Z" transform="translate(0 -30.74)"/><path class="cls-41" d="M1101.22,236l1.24,29a29.91,29.91,0,0,0-21.73.93l-1.24-29Z" transform="translate(0 -30.74)"/><path class="cls-41" d="M1095.09,347a34.18,34.18,0,0,0,10.79-2.25l1,23-21.73.93-1-23A34.18,34.18,0,0,0,1095.09,347Z" transform="translate(0 -30.74)"/><path class="cls-41" d="M1145.77,261.1l-19.64,21.39a29.91,29.91,0,0,0-16-14.7l19.63-21.4Z" transform="translate(0 -30.74)"/><path class="cls-41" d="M1063,335.26a34.36,34.36,0,0,0,9.21,6l-15.55,16.94-16-14.7,15.56-17A34.34,34.34,0,0,0,1063,335.26Z" transform="translate(0 -30.74)"/><path class="cls-41" d="M1159.51,310.36l-29,1.24a29.78,29.78,0,0,0-.93-21.73l29-1.24Z" transform="translate(0 -30.74)"/><path class="cls-41" d="M1048.51,304.23a34.44,34.44,0,0,0,2.24,10.79l-23,1-.93-21.74,23-1A34.14,34.14,0,0,0,1048.51,304.23Z" transform="translate(0 -30.74)"/><path class="cls-41" d="M1134.4,354.91,1113,335.27a30,30,0,0,0,14.71-16l21.39,19.64Z" transform="translate(0 -30.74)"/><path class="cls-41" d="M1060.24,272.08a34.36,34.36,0,0,0-6,9.22l-16.94-15.55,14.71-16,16.94,15.55A34.57,34.57,0,0,0,1060.24,272.08Z" transform="translate(0 -30.74)"/><path class="cls-42" d="M1102,254a49.25,49.25,0,0,0-10.91-.73,49.86,49.86,0,0,0-10.81,1.66l-.19-4.11a52.78,52.78,0,0,1,10.82-1.57,54.09,54.09,0,0,1,10.92.63Z" transform="translate(0 -30.74)"/><path class="cls-41" d="M1102.46,265a29.91,29.91,0,0,0-21.73.93l-.46-11a49.86,49.86,0,0,1,10.81-1.66A49.25,49.25,0,0,1,1102,254Z" transform="translate(0 -30.74)"/><path class="cls-42" d="M1106.33,355.23a53.37,53.37,0,0,1-10.82,1.57,54,54,0,0,1-10.91-.63l-.18-4.12a50.63,50.63,0,0,0,10.93.73,49.86,49.86,0,0,0,10.81-1.66Z" transform="translate(0 -30.74)"/><path class="cls-41" d="M1084.42,352.05l-.27-6.37a34.27,34.27,0,0,0,21.73-.94l.28,6.38a49.86,49.86,0,0,1-10.81,1.66A50.63,50.63,0,0,1,1084.42,352.05Z" transform="translate(0 -30.74)"/><path class="cls-42" d="M1136.55,271.15l-2.77,3a50.21,50.21,0,0,0-16.18-14.54l2.79-3A53.46,53.46,0,0,1,1136.55,271.15Z" transform="translate(0 -30.74)"/><path class="cls-42" d="M1067.92,345.93l-2.79,3a53.57,53.57,0,0,1-15.87-14.86l2.78-3A50,50,0,0,0,1067.92,345.93Z" transform="translate(0 -30.74)"/><path class="cls-41" d="M1072.16,341.3l-4.24,4.63A50,50,0,0,1,1052,331.05l4.09-4.45a34.74,34.74,0,0,0,6.82,8.66A34.36,34.36,0,0,0,1072.16,341.3Z" transform="translate(0 -30.74)"/><path class="cls-42" d="M1146.45,310.92l-4.1.18a50.69,50.69,0,0,0,.6-10.2,50,50,0,0,0-1.85-11.52l4.12-.18a53.22,53.22,0,0,1,1.75,11.53A53.77,53.77,0,0,1,1146.45,310.92Z" transform="translate(0 -30.74)"/><path class="cls-41" d="M1143,300.9a50.69,50.69,0,0,1-.6,10.2l-11.86.5a29.77,29.77,0,0,0-.93-21.73l11.54-.49A50,50,0,0,1,1143,300.9Z" transform="translate(0 -30.74)"/><path class="cls-42" d="M1044.93,315.27l-4.1.18a54.12,54.12,0,0,1-1.39-10.11,53.4,53.4,0,0,1,.76-11.64l4.13-.17a49.12,49.12,0,0,0-.86,11.63A50.82,50.82,0,0,0,1044.93,315.27Z" transform="translate(0 -30.74)"/><path class="cls-41" d="M1050.75,315l-5.82.25a50.82,50.82,0,0,1-1.46-10.11,49.12,49.12,0,0,1,.86-11.63l5.49-.24a34.17,34.17,0,0,0,.93,21.73Z" transform="translate(0 -30.74)"/><path class="cls-42" d="M1139.66,330.22a53.94,53.94,0,0,1-14.55,16.16l-3-2.78a50,50,0,0,0,14.54-16.17Z" transform="translate(0 -30.74)"/><path class="cls-41" d="M1122.08,343.6l-9.08-8.33a30,30,0,0,0,14.71-16l8.91,8.17h0A50,50,0,0,1,1122.08,343.6Z" transform="translate(0 -30.74)"/><path class="cls-42" d="M1065.18,261.87a50.11,50.11,0,0,0-14.87,15.87l-3-2.78a54,54,0,0,1,14.86-15.88Z" transform="translate(0 -30.74)"/><path class="cls-41" d="M1068.9,265.28a34,34,0,0,0-14.7,16l-3.89-3.56a50.11,50.11,0,0,1,14.87-15.87Z" transform="translate(0 -30.74)"/><path class="cls-41" d="M1108.85,301.64a15.68,15.68,0,1,1-16.35-15A15.69,15.69,0,0,1,1108.85,301.64Z" transform="translate(0 -30.74)"/><path class="cls-8" d="M1031.37,377.35a85.69,85.69,0,0,0-12.71-26.44,86.87,86.87,0,0,0-28.12-25.27,85.91,85.91,0,0,0-27.12-9.75,86.55,86.55,0,0,0-89.82,41.24,86.27,86.27,0,0,0-11.91,47.66,86.78,86.78,0,0,0,2.56,17.57,85.79,85.79,0,0,0,12.35,27.42,86.67,86.67,0,0,0,94,34.88,85.82,85.82,0,0,0,27.67-13.06,86.82,86.82,0,0,0,25.28-28.13,86.68,86.68,0,0,0,7.77-66.12Zm-81.24,69.9a46.2,46.2,0,1,1,44.18-48.15A46.22,46.22,0,0,1,950.13,447.25Z" transform="translate(0 -30.74)"/><path class="cls-8" d="M962.07,284.55,964.23,335a51.92,51.92,0,0,0-37.77,1.62l-2.16-50.43Z" transform="translate(0 -30.74)"/><path class="cls-8" d="M951.42,477.48a59.86,59.86,0,0,0,18.76-3.9l1.71,39.93-37.77,1.62-1.71-39.93A59.67,59.67,0,0,0,951.42,477.48Z" transform="translate(0 -30.74)"/><path class="cls-8" d="M1039.5,328.2l-34.13,37.19a51.9,51.9,0,0,0-27.85-25.56l34.13-37.19Z" transform="translate(0 -30.74)"/><path class="cls-8" d="M895.55,457.09a59.67,59.67,0,0,0,16,10.51l-27,29.45-27.85-25.57,27-29.45A59.62,59.62,0,0,0,895.55,457.09Z" transform="translate(0 -30.74)"/><path class="cls-8" d="M1063.39,413.82,1013,416a51.92,51.92,0,0,0-1.62-37.77l50.44-2.16Z" transform="translate(0 -30.74)"/><path class="cls-8" d="M870.46,403.17a59.52,59.52,0,0,0,3.9,18.75l-39.94,1.71-1.62-37.77,39.94-1.71A59.41,59.41,0,0,0,870.46,403.17Z" transform="translate(0 -30.74)"/><path class="cls-8" d="M1019.74,491.25l-37.19-34.13a52,52,0,0,0,25.56-27.86l37.19,34.14Z" transform="translate(0 -30.74)"/><path class="cls-8" d="M890.84,347.3a59.5,59.5,0,0,0-10.5,16l-29.45-27,25.56-27.86,29.45,27A59.8,59.8,0,0,0,890.84,347.3Z" transform="translate(0 -30.74)"/><path class="cls-34" d="M963.42,315.9a86.86,86.86,0,0,0-37.77,1.62l-.32-7.16a94.7,94.7,0,0,1,37.78-1.63Z" transform="translate(0 -30.74)"/><path class="cls-8" d="M964.23,335a51.82,51.82,0,0,0-37.76,1.61l-.82-19.08a86.86,86.86,0,0,1,37.77-1.62Z" transform="translate(0 -30.74)"/><path class="cls-34" d="M971,491.81a94.7,94.7,0,0,1-37.78,1.63l-.3-7.17a85.7,85.7,0,0,0,19,1.27,87.26,87.26,0,0,0,18.8-2.88Z" transform="translate(0 -30.74)"/><path class="cls-8" d="M932.88,486.27l-.47-11.07a59.49,59.49,0,0,0,37.77-1.62l.48,11.08a87.26,87.26,0,0,1-18.8,2.88A85.7,85.7,0,0,1,932.88,486.27Z" transform="translate(0 -30.74)"/><path class="cls-34" d="M1023.47,345.67l-4.81,5.24a87.23,87.23,0,0,0-28.12-25.28l4.86-5.27A93.09,93.09,0,0,1,1023.47,345.67Z" transform="translate(0 -30.74)"/><path class="cls-34" d="M904.19,475.64l-4.84,5.26a93.4,93.4,0,0,1-27.59-25.83l4.84-5.29A86.86,86.86,0,0,0,904.19,475.64Z" transform="translate(0 -30.74)"/><path class="cls-8" d="M911.56,467.6l-7.37,8a86.86,86.86,0,0,1-27.59-25.86l7.11-7.74a59.49,59.49,0,0,0,27.85,25.56Z" transform="translate(0 -30.74)"/><path class="cls-34" d="M1040.69,414.8l-7.14.3a87.43,87.43,0,0,0,1-17.73,86.06,86.06,0,0,0-3.22-20l7.17-.3a94.52,94.52,0,0,1,2.14,37.75Z" transform="translate(0 -30.74)"/><path class="cls-8" d="M1034.6,397.37a87.43,87.43,0,0,1-1,17.73L1013,416a51.91,51.91,0,0,0-1.62-37.77l20.05-.86A86.06,86.06,0,0,1,1034.6,397.37Z" transform="translate(0 -30.74)"/><path class="cls-34" d="M864.24,422.36l-7.12.3a93.79,93.79,0,0,1-2.42-17.57A92.64,92.64,0,0,1,856,384.87l7.18-.3a86.6,86.6,0,0,0-1.5,20.22A89,89,0,0,0,864.24,422.36Z" transform="translate(0 -30.74)"/><path class="cls-8" d="M874.35,421.92l-10.11.44a89,89,0,0,1-2.55-17.57,86.6,86.6,0,0,1,1.5-20.22l9.55-.41a59,59,0,0,0-2.28,19A59.78,59.78,0,0,0,874.35,421.92Z" transform="translate(0 -30.74)"/><path class="cls-34" d="M1028.88,448.33a93.71,93.71,0,0,1-25.28,28.09l-5.28-4.82a86.9,86.9,0,0,0,25.28-28.12Z" transform="translate(0 -30.74)"/><path class="cls-8" d="M998.32,471.6l-15.77-14.48a52.08,52.08,0,0,0,25.56-27.86l15.49,14.21h0A86.9,86.9,0,0,1,998.32,471.6Z" transform="translate(0 -30.74)"/><path class="cls-34" d="M899.44,329.54a87,87,0,0,0-25.84,27.59l-5.26-4.84a93.66,93.66,0,0,1,25.83-27.59Z" transform="translate(0 -30.74)"/><path class="cls-8" d="M905.9,335.47a59.41,59.41,0,0,0-25.56,27.84l-6.74-6.18a87,87,0,0,1,25.84-27.59Z" transform="translate(0 -30.74)"/><path class="cls-8" d="M975.33,398.67a27.26,27.26,0,1,1-28.41-26.07A27.27,27.27,0,0,1,975.33,398.67Z" transform="translate(0 -30.74)"/><circle class="cls-43" cx="948.15" cy="370.34" r="59.75"/><circle class="cls-44" cx="823.81" cy="311.1" r="37.93" transform="translate(216.26 917.79) rotate(-67.06)"/><path class="cls-14" d="M1090.93,432.75s-30.49,24.64-57,77.36c0,0,34.1,127.25-39.74,148.75C905.08,684.8,884.9,595,884.9,595s-21.84-73.76-18-106.05c0,0,12.41-32.73,90.14-53C1060.44,408.88,1090.93,432.75,1090.93,432.75Z" transform="translate(0 -30.74)"/><path class="cls-23" d="M1039,603.36c-5,25.11-17.51,47.54-44.82,55.5-89.08,25.93-109.27-63.92-109.27-63.92s-21.83-73.76-18-106c0,0,1.38-3.62,6.09-9.22,1.06,35.6,18.39,94.17,18.39,94.17s20.19,89.85,109.27,63.92C1020,632.14,1031.9,619.28,1039,603.36Z" transform="translate(0 -30.74)"/><path class="cls-36" d="M1225.33,540.6c25,77.87,65,111,84.43,111.35s10-86.17,10-86.17l-66.83-10.94Z" transform="translate(0 -30.74)"/><path class="cls-14" d="M1315.79,562.87l-90.46-22.27s40.74,58.68,84.43,59.12C1324.19,599.86,1315.79,562.87,1315.79,562.87Z" transform="translate(0 -30.74)"/><circle class="cls-24" cx="954.4" cy="570.16" r="48.65" transform="translate(293.25 1433.19) rotate(-84.36)"/><circle class="cls-14" cx="954.4" cy="570.16" r="25.75" transform="translate(-146.58 385.14) rotate(-22.88)"/><path class="cls-36" d="M1399.72,768.47c-.7.35-1.42.7-2.17,1-38.89,17.68-48.59,33.32-50.79,69.34-.23,3.94-.76,8.89-1.54,14.57,2.2-19.44-14.78-47.41-12.19-73.2C1335.55,755.09,1370.07,772.08,1399.72,768.47Z" transform="translate(0 -30.74)"/><path class="cls-29" d="M1489.48,597.86l-24.19,1.36s-3-9.59-2.52-8.87-1.76,7.52-1.76,7.52l-20.68-11.21,14.34-26.34,28.69,4.09Z" transform="translate(0 -30.74)"/><path class="cls-45" d="M1489.48,597.86l-24.19,1.36s-3-9.59-2.52-8.87-1.76,7.52-1.76,7.52l-20.68-11.21,14.34-26.34,28.69,4.09Z" transform="translate(0 -30.74)"/><path class="cls-46" d="M1464,522.26c2.56-3.15,5.39-6.65,2.79-10.68-2.15-3.13-5.43-5.13-7.5-8.37a7.07,7.07,0,0,1-.56-7.85c.74-1.6,1.78-2.61,1.85-4.33.14-2.06-.92-2.77-2-4.33-5-6.48,1.15-13.23,8.21-13.26L1469,468c3.39-.48,8.75,3.38,10.33,6.27,1.42,2.47,5.62,6.81,5,9.57-.54,3.08-1.67,3.77,1.72,5.76,2,1.32,4.24,1.22,3.74,4.51-.42,2.31-4.68,6.33-2.11,8.65,2.1,2,7.39-.07,7.57,4.29.12,1.59-1.69,2.49-1.24,4.14.48,1.86,2.93,1.84,4.33,2.61,3.71,2.05,4.44,6.44,1,9-1.56,1.07-3,1.7-2.77,3.92.16,1.91,2,2.62,2.74,4.22,1.28,3-2.37,6-4.79,7.1-3,1.18-5.94,1.91-8.85,3.39-3.4,1.65-8,.26-11.47-.85-3.93-1.27-9.4-2.86-11.55-6.74C1460.44,529.72,1461.17,525.76,1464,522.26Z" transform="translate(0 -30.74)"/><polygon class="cls-28" points="1444.68 530.68 1479.31 525.82 1475.96 505.64 1479.65 474.8 1452 472.94 1452.24 502.98 1444.68 530.68"/><path class="cls-25" d="M1461.64,505a4.2,4.2,0,0,0,3.91,4.48h0a4.21,4.21,0,0,0,4.48-3.92l.34-5a4.21,4.21,0,0,0-3.92-4.48h0A4.21,4.21,0,0,0,1462,500Z" transform="translate(0 -30.74)"/><path class="cls-25" d="M1446.81,486.71a15.29,15.29,0,1,0,30.52,2.05c.57-8.43-5.79-16.08-14.24-16.29C1445.32,472,1456.11,489.08,1446.81,486.71Z" transform="translate(0 -30.74)"/><rect class="cls-28" x="1445.37" y="558.93" width="34.96" height="12.3" transform="matrix(0.99, -0.14, 0.14, 0.99, -64.35, 178.11)"/><polygon class="cls-30" points="1481.22 571.93 1473.42 574.84 1463.88 539.81 1480.21 538.27 1481.22 571.93"/><polygon class="cls-30" points="1490.75 615.98 1485.41 617.48 1472.88 572.93 1480.95 570.66 1490.75 615.98"/><path class="cls-13" d="M1450.06,493.88l6.55.44C1456.71,497.27,1452.16,500.09,1450.06,493.88Z" transform="translate(0 -30.74)"/><path class="cls-32" d="M1485.41,648.23c-2.84,7.75-13.6,8.43-11.79,14.87l14.8-4.16a.25.25,0,0,1,0-.07s-.45-4.69.49-5a1.76,1.76,0,0,1,2.18,1.22l.75,2.84,2-.55-3.1-11Z" transform="translate(0 -30.74)"/><polygon class="cls-30" points="1444.02 569.84 1436.1 567.12 1446.33 534.97 1460.4 539.81 1444.02 569.84"/><polygon class="cls-30" points="1426.3 612.69 1421.05 610.89 1436.1 567.12 1444.02 569.84 1426.3 612.69"/><path class="cls-32" d="M1421.05,641.63c-6.74,4.76-16-.8-18.16,5.53l14.54,5,0-.08s2.29-4.1,3.22-3.79a1.77,1.77,0,0,1,1.09,2.25l-1,2.77,1.91.65,3.72-10.81Z" transform="translate(0 -30.74)"/><path class="cls-29" d="M1438.14,542c-2.93-1.55-4.73-2.39-2.15-8.49,3.64-8.59,9.5-19.89,11.67-24.35s4-6.94,10-3.44c3.53,2.06,2.65,7.14.76,10.71l-12.78,21.93c-1.89,3.58-4.58,5.19-7.52,3.64Z" transform="translate(0 -30.74)"/><polygon class="cls-29" points="1407.26 525.04 1435 504.67 1445.66 507.66 1441.65 513.33 1408.5 528.3 1407.26 525.04"/><path class="cls-25" d="M1399.12,554.14c-3.46-.91-3.84,9.06-.44,10.16s8.24.08,9.33-3.33-.35-5.76-3.31-7.86C1400.83,550.37,1402.79,555.09,1399.12,554.14Z" transform="translate(0 -30.74)"/><path class="cls-29" d="M1495,541.62c-2.9,1.61-4.6,2.66-8.29-2.84-5.21-7.73-11.48-18.81-14-23.07s-1.12-7.56,2.6-10.27c3.3-2.41,7.42,1.67,9.38,5.21l11.4,22.69c2,3.53,1.84,6.66-1,8.28Z" transform="translate(0 -30.74)"/><path class="cls-46" d="M1445.21,475.4a1.36,1.36,0,0,1-.57-1c-.17-2.76,1.59-4.72,3.81-2.57,1.13,1.13,1.53,1.18,3.24.08,7.22-4.65,16.25-4.58,17.31-3.93,6.57-.7,14.13,7,15,13.54a16.21,16.21,0,0,1-12.92,18.17,14.33,14.33,0,0,0-.06-3.52,15.06,15.06,0,0,0-.46-2.14,4.41,4.41,0,1,0-2.8-5.13c-.64-1.35-3.43-2.11-4.72-7.81a2.79,2.79,0,0,1-1.32-.74c.36,3.38-6.36,3.57-7.57,1.07.88,1.69-1.08,2.19-2.37,2.15a3.51,3.51,0,0,1-3.73-2.15c-1,2.92-4.24,1.13-5.16-.89C1441.94,478.11,1443.67,476.69,1445.21,475.4Z" transform="translate(0 -30.74)"/><polygon class="cls-29" points="1478.06 474.02 1470.08 474.15 1475.87 564.98 1489.48 567.12 1478.06 474.02"/><polygon class="cls-29" points="1461.45 473.57 1454.53 570.66 1435.79 559.89 1451.38 502.18 1453.4 472.92 1461.45 473.57"/><path class="cls-47" d="M1485.44,569.94l-.21-.87a.67.67,0,0,0-.31-1.31l-.21-.87,3.06-2,.65,2.71.65,2.7Z" transform="translate(0 -30.74)"/><path class="cls-11" d="M1529.49,571.89l-6.45-26.8a1.34,1.34,0,0,0-1.61-1L1486,552.65a1.33,1.33,0,0,0-1,1.6l6.46,26.8a1.33,1.33,0,0,0,1.6,1l35.44-8.54A1.32,1.32,0,0,0,1529.49,571.89Z" transform="translate(0 -30.74)"/><rect class="cls-48" x="1489.15" y="549.43" width="36.2" height="27.29" transform="translate(-89.97 338.05) rotate(-13.55)"/><path class="cls-49" d="M1485.49,570.12a1.75,1.75,0,1,0-2.12-1.3A1.76,1.76,0,0,0,1485.49,570.12Zm-.26-1a.67.67,0,1,1-.31-1.31.67.67,0,0,1,.31,1.31Z" transform="translate(0 -30.74)"/><rect class="cls-49" x="1487.58" y="561.47" width="3.79" height="11.76" transform="translate(-91.44 333.83) rotate(-13.54)"/><rect class="cls-50" x="1494.35" y="554.87" width="6.69" height="6.69" transform="translate(1689.75 -1059.29) rotate(76.46)"/><rect class="cls-50" x="1502.89" y="552.81" width="6.69" height="6.69" transform="translate(1693.94 -1069.21) rotate(76.45)"/><rect class="cls-50" x="1511.44" y="550.75" width="6.69" height="6.69" transform="translate(-87.58 338.94) rotate(-13.53)"/><rect class="cls-50" x="1491.94" y="568.42" width="11.35" height="1.43" transform="translate(1699.95 -1050.9) rotate(76.45)"/><rect class="cls-50" x="1494.3" y="567.85" width="11.35" height="1.43" transform="translate(1701.42 -1053.6) rotate(76.45)"/><rect class="cls-50" x="1500.49" y="566.36" width="11.35" height="1.43" transform="translate(1704.65 -1060.76) rotate(76.45)"/><rect class="cls-50" x="1502.85" y="565.79" width="11.35" height="1.43" transform="translate(1705.94 -1063.48) rotate(76.45)"/><rect class="cls-50" x="1509.05" y="564.3" width="11.35" height="1.43" transform="translate(1709.08 -1070.68) rotate(76.45)"/><rect class="cls-50" x="1511.41" y="563.73" width="11.35" height="1.43" transform="translate(1710.42 -1073.4) rotate(76.45)"/><polygon class="cls-29" points="1511.58 540.26 1485.87 506.21 1494.66 499.9 1514.43 538.27 1511.58 540.26"/><path class="cls-25" d="M1507.68,575.73c-.52,3.53,9.43,2.84,10.15-.66s-.8-8.2-4.3-8.92-5.69,1-7.46,4.14C1503.75,574.43,1508.24,572,1507.68,575.73Z" transform="translate(0 -30.74)"/><polygon class="cls-27" points="1282.04 945.08 1263.93 946.02 1261.2 975.72 1273.27 976.89 1277.33 968.94 1277.78 976.89 1290.5 972.45 1282.04 945.08"/><polygon class="cls-28" points="1260.32 935.99 1294.03 935.99 1295.24 883.46 1290.89 880.96 1263.02 880.96 1260.32 935.99"/><rect class="cls-30" x="1260.32" y="935.99" width="33.72" height="13.74"/><path class="cls-20" d="M1246.25,1068.37h20.17v-11l-5.35.29C1256.42,1064.09,1247.82,1055.14,1246.25,1068.37Z" transform="translate(0 -30.74)"/><polygon class="cls-30" points="1269.15 982.26 1261.07 982.26 1260.32 949.74 1274.67 949.74 1269.15 982.26"/><polygon class="cls-30" points="1266.42 1026.89 1261.07 1026.89 1261.07 982.26 1269.15 982.26 1266.42 1026.89"/><rect class="cls-51" x="1246.25" y="1036.1" width="20.18" height="1.52"/><path class="cls-20" d="M1273.9,1068.22h20.18v-11l-5.36.29C1284.07,1063.94,1275.47,1055,1273.9,1068.22Z" transform="translate(0 -30.74)"/><polygon class="cls-30" points="1285.19 982.26 1293.26 982.26 1294.01 949.74 1279.66 949.74 1285.19 982.26"/><polygon class="cls-30" points="1287.91 1026.89 1293.26 1026.89 1293.26 1005.09 1293.26 982.26 1285.19 982.26 1286.6 1005.34 1287.91 1026.89"/><rect class="cls-51" x="1273.9" y="1035.95" width="20.18" height="1.52"/><polygon class="cls-29" points="1261.57 916.93 1248.49 932.67 1242.08 931.53 1250.91 909.69 1261.57 916.93"/><path class="cls-29" d="M1252.71,948.51c2.59,1.49,6.1.32,8.13-2.6a5.47,5.47,0,0,0,.41-.65l10.84-18.89.82-10.18a9.22,9.22,0,0,0-1.36-2,10.65,10.65,0,0,0-3.47-2.46c-4.28-1.94-10.21-1.66-12.23,5.79,0,0-.52,12.38-4.07,20.53C1249.28,943.79,1249.94,946.92,1252.71,948.51Z" transform="translate(0 -30.74)"/><path class="cls-52" d="M1259.57,918.69s-1,31.28-6.54,37.7l4.13-3.41,3.31-3-.12-27.9Z" transform="translate(0 -30.74)"/><polygon class="cls-29" points="1254.58 984.38 1265.11 982.26 1272.09 895.62 1272.91 885.45 1273.27 880.96 1263.93 880.96 1260.84 915.16 1254.58 984.38"/><polygon class="cls-29" points="1281.39 880.98 1281.39 982.26 1299.6 979.78 1290.94 880.98 1281.39 880.98"/><polygon class="cls-52" points="1258.53 940.74 1295.24 931.76 1294.64 909.69 1258.53 937.64 1258.53 940.74"/><path class="cls-29" d="M1291.31,949.91c3-.44,4.72-3,4.52-9-.29-8.52,3.6-19.74,3.6-19.74,1.09-9.76-8.41-10.69-12.83-8.5-2.72,1.35-5.6,5-5.06,8.71l3.3,22.65c.54,3.7,3.43,6.34,6.47,5.9Z" transform="translate(0 -30.74)"/><path class="cls-25" d="M1272.76,914.46a4.07,4.07,0,0,0,5.19,2.46h0a4.06,4.06,0,0,0,2.45-5.19l-1.64-4.57a4.05,4.05,0,0,0-5.19-2.45h0a4.06,4.06,0,0,0-2.45,5.19Z" transform="translate(0 -30.74)"/><path class="cls-25" d="M1252.61,904a14.75,14.75,0,0,0,27.77-10c-2.75-7.66-11.32-12-18.86-8.91C1245.64,891.61,1261.75,902.53,1252.61,904Z" transform="translate(0 -30.74)"/><path class="cls-13" d="M1258.91,908l9.55-3.43C1270.41,908.7,1265.72,915.5,1258.91,908Z" transform="translate(0 -30.74)"/><path class="cls-14" d="M1256.42,884.4c5.19-5.58,16.28-7.47,16.43-6.51a15.64,15.64,0,0,1,4.88,30,13.86,13.86,0,0,0-.74-3.31,13.5,13.5,0,0,0-.87-1.93,4.26,4.26,0,1,0-3.64-4.3,12.76,12.76,0,0,1-2.64-6.16c-3.93,1.93-16.2,5.09-16.2,5.09S1251.08,890.14,1256.42,884.4Z" transform="translate(0 -30.74)"/><path class="cls-25" d="M1243.75,969.41c6.23-.33,9.25-3.09,8.26-7.52s-6.92-1.87-6.92-1.87,1.4-1.94,0-2.57-5.33,3.29-5.39,5.15S1241.77,969.52,1243.75,969.41Z" transform="translate(0 -30.74)"/><rect class="cls-14" x="1120.35" y="836.06" width="9.47" height="65.16" rx="3.74"/><rect class="cls-14" x="1143.23" y="836.06" width="9.47" height="65.16" rx="3.74"/><rect class="cls-14" x="1166.1" y="836.06" width="9.47" height="65.16" rx="3.74"/><rect class="cls-14" x="1188.98" y="836.06" width="9.47" height="65.16" rx="3.74"/><rect class="cls-14" x="1120.35" y="958.92" width="9.47" height="73.68" rx="3.74"/><rect class="cls-14" x="1143.23" y="958.92" width="9.47" height="73.68" rx="3.74"/><rect class="cls-14" x="1166.1" y="958.92" width="9.47" height="73.68" rx="3.74"/><rect class="cls-14" x="1188.98" y="958.92" width="9.47" height="73.68" rx="3.74"/><rect class="cls-14" x="1067.42" y="884.22" width="65.16" height="9.47" rx="3.74"/><rect class="cls-14" x="1067.42" y="907.1" width="65.16" height="9.47" rx="3.74"/><rect class="cls-14" x="1067.42" y="929.97" width="65.16" height="9.47" rx="3.74"/><rect class="cls-14" x="1067.42" y="952.85" width="65.16" height="9.47" rx="3.74"/><rect class="cls-14" x="1218.46" y="886.96" width="9.47" height="65.16" rx="3.74" transform="translate(2142.74 -334.39) rotate(90)"/><rect class="cls-14" x="1190.61" y="906.94" width="65.16" height="9.47" rx="4.73"/><path class="cls-14" d="M1190.61,965.29h0a4.73,4.73,0,0,1,4.73-4.73H1251a4.73,4.73,0,0,1,4.73,4.73h0A4.74,4.74,0,0,1,1251,970h-55.7A4.74,4.74,0,0,1,1190.61,965.29Z" transform="translate(0 -30.74)"/><path class="cls-25" d="M1258.43,969.41c-7.27-1.23-9.25-3.09-8.26-7.52s6.92-1.87,6.92-1.87-1.4-1.94,0-2.57,3.26,6.11,3.26,6.11Z" transform="translate(0 -30.74)"/><polygon class="cls-29" points="1294.84 916.64 1258.12 939.21 1259.57 930.39 1287.3 905.25 1294.84 916.64"/><rect class="cls-14" x="1314.44" y="973.26" width="9.47" height="65.16" rx="3.74"/><rect class="cls-24" x="1100.16" y="868.48" width="123.03" height="123.03" rx="24.47"/><rect class="cls-14" x="1119.09" y="887.4" width="85.18" height="85.18" rx="21.79"/><rect class="cls-53" x="1128.42" y="896.73" width="66.51" height="66.51" rx="17.01"/><polygon class="cls-27" points="699.03 287.8 718.27 288.8 721.17 320.36 708.35 321.6 704.03 313.15 703.55 321.6 690.05 316.88 699.03 287.8"/><polygon class="cls-28" points="714.95 289.51 685.12 269.67 714.96 222.48 720.28 222.84 744.94 239.23 714.95 289.51"/><path class="cls-25" d="M735.5,264.51a4.31,4.31,0,0,1-6,1.2h0a4.31,4.31,0,0,1-1.21-6l2.86-4.29a4.31,4.31,0,0,1,6-1.21h0a4.32,4.32,0,0,1,1.2,6Z" transform="translate(0 -30.74)"/><path class="cls-25" d="M759,258.89a15.67,15.67,0,0,1-26.1-17.36c4.8-7.21,14.73-9.46,21.73-4.37C769.3,247.88,749.9,255,759,258.89Z" transform="translate(0 -30.74)"/><path class="cls-29" d="M749,321.56c3.25-1-1.4-14.68-2.63-21.25C744.62,291,749,278,749,278c-.45-10.88-11-10.3-15.48-7.16-2.76,1.94-5.3,6.43-4.09,10.39l7.42,24.26c1.21,4,8.9,17.07,12.15,16.08Z" transform="translate(0 -30.74)"/><rect class="cls-30" x="686.29" y="278.15" width="35.82" height="14.6"/><path class="cls-31" d="M737.06,416.86H715.62v-11.7l5.69.3C726.25,412.32,735.39,402.81,737.06,416.86Z" transform="translate(0 -30.74)"/><polygon class="cls-30" points="712.73 327.3 721.31 327.3 722.11 292.75 706.86 292.75 712.73 327.3"/><polygon class="cls-30" points="715.63 374.72 721.31 374.72 721.31 327.3 712.73 327.3 715.63 374.72"/><rect class="cls-31" x="715.62" y="384.5" width="21.44" height="1.62"/><path class="cls-31" d="M671.36,416.86H692.8v-11.7l-5.69.3C682.16,412.32,673,402.81,671.36,416.86Z" transform="translate(0 -30.74)"/><polygon class="cls-30" points="695.69 327.3 687.11 327.3 686.31 292.75 701.56 292.75 695.69 327.3"/><polygon class="cls-30" points="692.79 374.72 687.11 374.72 687.11 327.3 695.69 327.3 692.79 374.72"/><rect class="cls-31" x="671.36" y="384.5" width="21.44" height="1.62"/><path class="cls-13" d="M751.43,261.39l-9-6C739.39,259.17,742.49,267.37,751.43,261.39Z" transform="translate(0 -30.74)"/><path class="cls-14" d="M767.94,241.66c-3-.37-4,.17-7.92-4-5.59-5.84-14.87-11.86-15.27-10.91a16.61,16.61,0,0,0-12.7,29.69,14.74,14.74,0,0,1,3-5,4.44,4.44,0,0,1-2-.74A4.52,4.52,0,1,1,739.9,248a13.53,13.53,0,0,0,4.29-5.68c3.57,3,6.48,5.89,12.91,7.82C763,251.7,768,249.22,767.94,241.66Z" transform="translate(0 -30.74)"/><polygon class="cls-29" points="735.87 233.2 744.14 238.7 722.61 278.41 725.38 321.6 714.48 330.02 713.14 274.18 735.87 233.2"/><polygon class="cls-29" points="728.46 228.33 699.11 277.59 689.89 327.36 675.85 324.71 685.12 263.25 716.89 221.6 728.46 228.33"/><path class="cls-33" d="M703.61,269.76c3.43,13.42,25,28.27,25,28.27l7.22-12.22L715,262.93l-6.14-.1Z" transform="translate(0 -30.74)"/><path class="cls-29" d="M737.4,287.91c2.34-2.46,2.06-5.85-2.24-11-6.07-7.23-10.35-19.67-10.35-19.67-5.73-9.26-14.65-3.57-17,1.36-1.45,3-1.47,8.21,1.54,11.06l18.37,17.49c3,2.86,7.34,3.18,9.68.72Z" transform="translate(0 -30.74)"/><polygon class="cls-29" points="766.25 252.92 726.36 247.69 732.04 258.82 765.96 257.6 766.25 252.92"/><path class="cls-23" d="M1090.93,432.74l0,0c-.93.77-30.88,25.46-57,77.34C1022.32,479.26,1042,438.22,1090.93,432.74Z" transform="translate(0 -30.74)"/><circle class="cls-54" cx="1093.18" cy="271.57" r="36.56"/><path class="cls-25" d="M771.57,277.35c2.88-2.87,9,6.69,6.25,9.72s-8,4.81-11.06,2.09-3-5.86-1.26-9.61C767.72,274.64,768.51,280.39,771.57,277.35Z" transform="translate(0 -30.74)"/><rect class="cls-55" x="510.99" y="877.38" width="88.58" height="83.85"/><rect class="cls-56" x="529.69" y="877.38" width="88.58" height="83.85"/><rect class="cls-21" x="569.04" y="877.38" width="12" height="23.52"/><rect class="cls-21" x="569.04" y="891.13" width="12" height="69.85"/><rect class="cls-55" x="1549.64" y="547.41" width="88.58" height="83.85"/><rect class="cls-56" x="1568.34" y="547.41" width="88.58" height="83.85"/><rect class="cls-21" x="1607.68" y="547.41" width="12" height="23.52"/><rect class="cls-21" x="1607.68" y="561.16" width="12" height="69.85"/><rect class="cls-55" x="532.05" y="961.03" width="88.58" height="83.85"/><rect class="cls-56" x="552.73" y="961.03" width="88.58" height="83.85"/><rect class="cls-21" x="592.07" y="961.03" width="12" height="68.76"/><rect class="cls-21" x="592.07" y="1020.33" width="12" height="24.29"/><rect class="cls-55" x="544.16" y="961.03" width="74.11" height="5.96"/><path class="cls-57" d="M976.37,841.55l-.77,24.74-6.06,196-7-.22,6.3-203.8L969.5,837C971.78,838.51,974.07,840,976.37,841.55Z" transform="translate(0 -30.74)"/><rect class="cls-20" x="1515.98" y="772.42" width="7.62" height="22.88"/><rect class="cls-20" x="1550.18" y="749.11" width="7.62" height="22.88"/><rect class="cls-20" x="1578.95" y="771.21" width="7.62" height="22.88"/><rect class="cls-20" x="1608.36" y="782.65" width="7.62" height="22.88"/><path class="cls-46" d="M1612.17,873.53h0a8.9,8.9,0,0,1-8.89-8.9V833.86a8.89,8.89,0,0,1,8.89-8.9h0a8.89,8.89,0,0,1,8.9,8.9v30.77A8.9,8.9,0,0,1,1612.17,873.53Z" transform="translate(0 -30.74)"/><path class="cls-46" d="M1612.17,820.61h0a8.89,8.89,0,0,1-8.89-8.9V780.94a8.89,8.89,0,0,1,8.89-8.9h0a8.89,8.89,0,0,1,8.9,8.9v30.77A8.89,8.89,0,0,1,1612.17,820.61Z" transform="translate(0 -30.74)"/><path class="cls-46" d="M1582.77,862h0a8.9,8.9,0,0,1-8.9-8.9V822.29a8.89,8.89,0,0,1,8.9-8.9h0a8.89,8.89,0,0,1,8.89,8.9v30.77A8.9,8.9,0,0,1,1582.77,862Z" transform="translate(0 -30.74)"/><path class="cls-46" d="M1583.28,809h0a8.89,8.89,0,0,1-8.89-8.9V769.37a8.9,8.9,0,0,1,8.89-8.9h0a8.9,8.9,0,0,1,8.9,8.9v30.77A8.89,8.89,0,0,1,1583.28,809Z" transform="translate(0 -30.74)"/><path class="cls-46" d="M1554.51,862h0a8.91,8.91,0,0,1-8.9-8.9V802.74a8.91,8.91,0,0,1,8.9-8.9h0a8.91,8.91,0,0,1,8.9,8.9v50.32A8.91,8.91,0,0,1,1554.51,862Z" transform="translate(0 -30.74)"/><path class="cls-46" d="M1554.51,788.82h0a8.91,8.91,0,0,1-8.9-8.9V741.59a8.9,8.9,0,0,1,8.9-8.89h0a8.9,8.9,0,0,1,8.9,8.89v38.33A8.91,8.91,0,0,1,1554.51,788.82Z" transform="translate(0 -30.74)"/><path class="cls-46" d="M1520.33,864.13h0a8.9,8.9,0,0,1-8.9-8.89V824.46a8.9,8.9,0,0,1,8.9-8.89h0a8.9,8.9,0,0,1,8.9,8.89v30.78A8.9,8.9,0,0,1,1520.33,864.13Z" transform="translate(0 -30.74)"/><path class="cls-46" d="M1520.33,811.22h0a8.91,8.91,0,0,1-8.9-8.9V771.54a8.9,8.9,0,0,1,8.9-8.89h0a8.9,8.9,0,0,1,8.9,8.89v30.78A8.91,8.91,0,0,1,1520.33,811.22Z" transform="translate(0 -30.74)"/><rect class="cls-20" x="1481.08" y="883.01" width="7.63" height="22.88" transform="translate(-197.56 1281.21) rotate(-45)"/><path class="cls-46" d="M1520.45,929.46h0a8.88,8.88,0,0,1-12.58,0l-21.76-21.76a8.88,8.88,0,0,1,0-12.58h0a8.9,8.9,0,0,1,12.58,0l21.76,21.76A8.9,8.9,0,0,1,1520.45,929.46Z" transform="translate(0 -30.74)"/><path class="cls-46" d="M1483,892.05h0a8.9,8.9,0,0,1-12.58,0l-21.76-21.76a8.91,8.91,0,0,1,0-12.59h0a8.9,8.9,0,0,1,12.58,0L1483,879.46A8.9,8.9,0,0,1,1483,892.05Z" transform="translate(0 -30.74)"/><rect class="cls-13" x="1550.99" y="946.45" width="30.46" height="54.9"/><path class="cls-58" d="M1581.45,977.2v23.87a51.44,51.44,0,0,1-7.71.57h-15a51.41,51.41,0,0,1-7.7-.57V977.2Z" transform="translate(0 -30.74)"/><rect class="cls-59" x="1506.9" y="801.76" width="118.63" height="160.06" rx="47.38"/><path class="cls-13" d="M1625.53,879.88v19.54A47.38,47.38,0,0,0,1578.15,852h-23.87a47.38,47.38,0,0,0-47.38,47.38V879.88a47.39,47.39,0,0,1,47.38-47.38h23.87A47.38,47.38,0,0,1,1625.53,879.88Z" transform="translate(0 -30.74)"/><path class="cls-20" d="M1542.48,873.53a8.23,8.23,0,1,1-8.22-8.23A8.22,8.22,0,0,1,1542.48,873.53Z" transform="translate(0 -30.74)"/><circle class="cls-20" cx="1596.86" cy="873.53" r="8.23" transform="translate(-213.14 650.62) rotate(-22.62)"/><path class="cls-20" d="M1542.48,953.15a8.23,8.23,0,1,1-8.22-8.23A8.23,8.23,0,0,1,1542.48,953.15Z" transform="translate(0 -30.74)"/><circle class="cls-20" cx="1596.86" cy="922.4" r="8.23"/><path class="cls-20" d="M1608.36,1058.82h-84.28a39.44,39.44,0,0,1,39.44-39.44h5.4a39.44,39.44,0,0,1,39.44,39.44Z" transform="translate(0 -30.74)"/><path class="cls-13" d="M1611.77,1068.18h-91a4.67,4.67,0,0,1-4.68-4.68h0a4.68,4.68,0,0,1,4.68-4.68h91a4.69,4.69,0,0,1,4.68,4.68h0A4.68,4.68,0,0,1,1611.77,1068.18Z" transform="translate(0 -30.74)"/><path class="cls-13" d="M1090.93,432.74c3.56-.07-3.68,0,0,0a181.62,181.62,0,0,1,106.44-53.09c58.9-7.59,138.14-10.75,150.68,24.41,20.56,57.66-9.91,159.89,23.5,236,23.89,54.41,46.81,88.2,43.68,109.49-22.25.47-55-38.06-58.36-97.56-3.63-65-28.89-196.74-55.48-227.37-41.62-47.95-161.7-27.34-217,14.15" transform="translate(0 -30.74)"/><polyline class="cls-16" points="612.01 364.77 426.32 364.77 426.32 292.75"/><circle class="cls-16" cx="426.32" cy="285.56" r="12.5"/><circle class="cls-16" cx="1779.94" cy="306.74" r="12.5"/><circle class="cls-16" cx="1939.87" cy="455.08" r="12.5"/><circle class="cls-16" cx="2004.37" cy="774.57" r="12.5"/><circle class="cls-16" cx="1919.23" cy="979.53" r="12.5"/><circle class="cls-16" cx="1709.66" cy="908.48" r="12.5"/><circle class="cls-16" cx="131.37" cy="387.75" r="12.5"/><circle class="cls-16" cx="67.37" cy="744.3" r="12.5"/><circle class="cls-16" cx="457.06" cy="874.19" r="12.5"/><line class="cls-16" x1="504.87" y1="386.12" x2="138.87" y2="386.12"/><polyline class="cls-16" points="504.87 712.2 228.25 712.2 228.25 748.02 79.87 748.02"/><polyline class="cls-16" points="394.19 702.91 394.19 875.41 451.51 875.41"/><polyline class="cls-16" points="1680.63 410.14 1779.94 410.14 1779.94 324.55"/><line class="cls-16" x1="1705.87" y1="455.08" x2="1931.87" y2="455.08"/><polyline class="cls-16" points="1850.12 811.17 1850.12 911.67 1717.14 911.67"/></g></g></g></svg>