<svg xmlns="http://www.w3.org/2000/svg" xmlns:xlink="http://www.w3.org/1999/xlink" id="Layer_1" x="0px" y="0px" viewBox="0 0 636 300" style="enable-background:new 0 0 636 300;" xml:space="preserve">
<style type="text/css">
	.st0{fill:#C8C8C8;}
	.st1{fill:#E6E6E6;}
	.st2{fill:url(#SVGID_1_);}
	.st3{fill:#B2B2B2;}
	.st4{fill:#BFBFBF;}
	.st5{fill:url(#SVGID_2_);}
	.st6{fill:#4DA1DB;}
	.st7{fill:#D69521;}
	.st8{fill:#7F7F7F;}
	.st9{fill:#505050;}
	.st10{fill:#D2D2D2;}
	.st11{fill:#939393;}
	.st12{fill:#FFFFFF;}
	.st13{fill:#444444;}
	.st14{fill:#737373;}
	.st15{fill:#E6E6E6;stroke:#939393;stroke-width:1.5;stroke-miterlimit:10;}
	.st16{fill:#8FC3EC;}
	.st17{fill:#FFB900;}
	.st18{fill:#EDAC28;}
	.st19{fill:#FFFFFF;stroke:#939393;stroke-width:1.5;stroke-miterlimit:10;}
</style>
<g>
	<path class="st0" d="M37.49,272.32l537.23,0c1.76,0,3.42,1.15,3.75,2.87c0.43,2.21-1.48,4.13-3.89,4.13H37.76   c-1.76,0-3.42-1.15-3.76-2.87c-0.43-2.21,1.48-4.13,3.89-4.13"></path>
	<path class="st1" d="M370.51,265.73H60.97c-1.03,0-1.87-0.84-1.87-1.87V32.61c0-1.03,0.84-1.87,1.87-1.87h309.54   c1.03,0,1.87,0.84,1.87,1.87v231.24C372.38,264.89,371.54,265.73,370.51,265.73z"></path>
	<linearGradient id="SVGID_1_" gradientUnits="userSpaceOnUse" x1="295.3626" y1="178.3501" x2="295.3626" y2="33.403">
		<stop offset="0.0994" style="stop-color:#E6E6E6"></stop>
		<stop offset="0.9511" style="stop-color:#FFFFFF"></stop>
	</linearGradient>
	<path class="st2" d="M359.86,33.4H222.68l145.37,144.95V41.59C368.05,37.07,364.38,33.4,359.86,33.4z"></path>
	<path class="st3" d="M367.62,39c-1.08-3.25-4.15-5.6-7.76-5.6H62.94c-4.52,0-8.19,3.66-8.19,8.19v20.8h312.87V39z"></path>
	<path class="st4" d="M368.05,62.39c0,0,4.8-28.99,0.28-28.99H222.68l28.99,28.99H368.05z"></path>
	<path class="st1" d="M484.55,93.29h-68.56c-4.78,0-8.66,3.81-8.66,8.52v161.87c0,3.42,2.82,6.2,6.3,6.2h72.41   c3.48,0,6.3-2.77,6.3-6.2V100.95C492.33,96.72,488.85,93.29,484.55,93.29z"></path>
	<linearGradient id="SVGID_2_" gradientUnits="userSpaceOnUse" x1="460.6418" y1="151.2925" x2="460.6418" y2="93.2935">
		<stop offset="0.0994" style="stop-color:#E6E6E6"></stop>
		<stop offset="0.9511" style="stop-color:#FFFFFF"></stop>
	</linearGradient>
	<path class="st5" d="M488.58,93.29h-59.63l63.38,58V97.04C492.33,94.97,490.65,93.29,488.58,93.29z"></path>
	<path class="st6" d="M488.58,93.29h-76.13c-2.07,0-3.75,1.68-3.75,3.75v10.7h83.63v-10.7C492.33,94.97,490.65,93.29,488.58,93.29z"></path>
	<g>
		<g>
			<g>
				<path class="st7" d="M520.67,237.64h39.43c2.69,0,4.89,2.19,4.89,4.89v6.66c0,2.69-2.19,4.89-4.89,4.89h-39.43      c-2.69,0-4.89-2.19-4.89-4.89v-6.66C515.79,239.83,517.98,237.64,520.67,237.64z M560.11,250.97c0.99,0,1.79-0.8,1.79-1.79      v-6.66c0-0.99-0.8-1.79-1.79-1.79h-39.43c-0.99,0-1.79,0.8-1.79,1.79v6.66c0,0.99,0.8,1.79,1.79,1.79H560.11z"></path>
			</g>
			<path class="st8" d="M560.14,248.45l-2.26,22.12c-0.21,2.07-1.82,3.63-3.73,3.63h-27.34c-1.91,0-3.52-1.56-3.73-3.63l-2.26-22.12     c-0.25-2.42,1.49-4.53,3.73-4.53h31.87C558.65,243.92,560.39,246.03,560.14,248.45z"></path>
			<path class="st9" d="M521.66,256.78h37.63l0.85-8.33c0.25-2.42-1.49-4.53-3.73-4.53h-31.87c-2.24,0-3.98,2.11-3.73,4.53     L521.66,256.78z"></path>
		</g>
		<g>
			<g>
				<path class="st7" d="M560.11,189.52h-39.43c-2.69,0-4.89-2.19-4.89-4.89v-6.66c0-2.69,2.19-4.89,4.89-4.89h39.43      c2.69,0,4.89,2.19,4.89,4.89v6.66C564.99,187.33,562.8,189.52,560.11,189.52z M520.67,176.19c-0.99,0-1.79,0.8-1.79,1.79v6.66      c0,0.99,0.8,1.79,1.79,1.79h39.43c0.99,0,1.79-0.8,1.79-1.79v-6.66c0-0.99-0.8-1.79-1.79-1.79H520.67z"></path>
			</g>
			<path class="st8" d="M520.64,178.71l2.26-22.12c0.21-2.07,1.82-3.63,3.73-3.63h27.34c1.91,0,3.52,1.56,3.73,3.63l2.26,22.12     c0.25,2.42-1.49,4.53-3.73,4.53h-31.87C522.13,183.24,520.39,181.13,520.64,178.71z"></path>
			<path class="st9" d="M559.19,171.07h-37.77l-0.78,7.64c-0.25,2.42,1.49,4.53,3.73,4.53h31.87c2.24,0,3.98-2.11,3.73-4.53     L559.19,171.07z"></path>
		</g>
		<g>
			<path class="st10" d="M569.31,206.16h3.06c0.91,0,1.65-0.74,1.65-1.65v-8.31c0-0.91-0.74-1.65-1.65-1.65h-3.06     c-0.91,0-1.65,0.74-1.65,1.65v8.31C567.66,205.42,568.4,206.16,569.31,206.16z"></path>
			<g>
				<rect x="572.05" y="196.52" class="st11" width="1.98" height="1.03"></rect>
			</g>
			<g>
				<rect x="572.05" y="198.59" class="st11" width="1.98" height="1.03"></rect>
			</g>
			<g>
				<rect x="572.05" y="200.65" class="st11" width="1.98" height="1.03"></rect>
			</g>
			<g>
				<rect x="572.05" y="202.71" class="st11" width="1.98" height="1.03"></rect>
			</g>
		</g>
		<path class="st12" d="M561.46,247.27h-42.32c-4.56,0-8.26-3.7-8.26-8.26v-50.58c0-4.56,3.7-8.26,8.26-8.26h42.32    c4.56,0,8.26,3.7,8.26,8.26v50.58C569.72,243.57,566.03,247.27,561.46,247.27z"></path>
		<path class="st10" d="M569.72,194.54v-6.1c0-4.56-3.7-8.26-8.26-8.26h-42.32c-4.56,0-8.26,3.7-8.26,8.26v6.1H569.72z"></path>
		<g>
			<path class="st9" d="M561.46,248.82h-42.32c-5.41,0-9.81-4.4-9.81-9.81v-50.57c0-5.41,4.4-9.81,9.81-9.81h42.32     c5.41,0,9.81,4.4,9.81,9.81v50.57C571.27,244.42,566.87,248.82,561.46,248.82z M519.15,181.73c-3.7,0-6.71,3.01-6.71,6.71v50.57     c0,3.7,3.01,6.71,6.71,6.71h42.32c3.7,0,6.71-3.01,6.71-6.71v-50.57c0-3.7-3.01-6.71-6.71-6.71H519.15z"></path>
		</g>
	</g>
	<g>
		<path class="st13" d="M483.43,88.87h-66.51c-7.31,0-13.23,5.93-13.23,13.23v158.91c0,7.31,5.93,13.23,13.23,13.23h66.51    c7.31,0,13.23-5.93,13.23-13.23V102.1C496.66,94.79,490.74,88.87,483.43,88.87z M491.16,260.25c0,4.55-3.69,8.24-8.24,8.24h-65.49    c-4.55,0-8.24-3.69-8.24-8.24V102.87c0-4.55,3.69-8.24,8.24-8.24h65.49c4.55,0,8.24,3.69,8.24,8.24V260.25z"></path>
		<path class="st13" d="M427.83,94.39v1.21c0,2.94,2.39,5.33,5.33,5.33h34.65c2.94,0,5.33-2.38,5.33-5.33v-1.21H427.83z"></path>
		<circle class="st14" cx="460.35" cy="96.93" r="1.45"></circle>
		<path class="st14" d="M445.74,98.16h9.23c0.6,0,1.09-0.49,1.09-1.09l0,0c0-0.6-0.49-1.09-1.09-1.09h-9.23    c-0.6,0-1.09,0.49-1.09,1.09l0,0C444.65,97.68,445.14,98.16,445.74,98.16z"></path>
		<g>
			<path class="st1" d="M464.99,266.4h-29.35c-0.48,0-0.87-0.39-0.87-0.87s0.39-0.87,0.87-0.87h29.35c0.48,0,0.87,0.39,0.87,0.87     S465.48,266.4,464.99,266.4z"></path>
		</g>
	</g>
	<g>
		<path class="st9" d="M375.04,22.21H55.72c-8.48,0-15.35,6.87-15.35,15.35v221.31c0,8.48,6.87,15.35,15.35,15.35h319.32    c8.48,0,15.35-6.87,15.35-15.35V37.56C390.4,29.08,383.52,22.21,375.04,22.21z M367.48,258.61c0,1.5-1.21,2.71-2.71,2.71H66.66    c-1.5,0-2.71-1.21-2.71-2.71V37.4c0-1.5,1.21-2.71,2.71-2.71h298.11c1.5,0,2.71,1.21,2.71,2.71V258.61z"></path>
		<circle class="st14" cx="52.67" cy="147.95" r="5.76"></circle>
	</g>
	<path class="st3" d="M367.61,219.39l-43.05,9.94l-51.79-96.66c-0.21-0.39-0.58-0.67-1.02-0.76c-0.43-0.09-0.89,0.02-1.24,0.29   L141.3,234.05l-35.41-11.1c-0.79-0.25-1.63,0.19-1.88,0.98c-0.25,0.79,0.19,1.63,0.98,1.88l36.17,11.33   c0.15,0.05,0.3,0.07,0.45,0.07c0.33,0,0.66-0.11,0.93-0.32l128.43-101.23l51.49,96.09c0.32,0.59,1,0.9,1.66,0.75l43.5-10.05V219.39   z"></path>
	<circle class="st15" cx="271.44" cy="133.71" r="3.72"></circle>
	<circle class="st15" cx="324.44" cy="231.38" r="3.72"></circle>
	<circle class="st15" cx="141.44" cy="235.88" r="3.72"></circle>
	<circle class="st15" cx="105.44" cy="224.38" r="3.72"></circle>
	<g>
		<rect x="93.11" y="93.17" class="st6" width="139" height="107.28"></rect>
		<g>
			<rect x="102.61" y="103.21" class="st16" width="11.5" height="11.5"></rect>
			<rect x="102.61" y="128.53" class="st16" width="11.5" height="11.5"></rect>
			<rect x="102.61" y="153.85" class="st16" width="11.5" height="11.5"></rect>
			<rect x="102.61" y="179.17" class="st16" width="11.5" height="11.5"></rect>
		</g>
		<g>
			<rect x="211.61" y="103.21" class="st16" width="11.5" height="11.5"></rect>
			<rect x="211.61" y="128.53" class="st16" width="11.5" height="11.5"></rect>
			<rect x="211.61" y="153.85" class="st16" width="11.5" height="11.5"></rect>
			<rect x="211.61" y="179.17" class="st16" width="11.5" height="11.5"></rect>
		</g>
		<path class="st12" d="M177.34,183.27h-28.96c-12.58,0-22.77-10.19-22.77-22.77v-28.51c0-12.58,10.19-22.77,22.77-22.77h28.96    c12.58,0,22.77,10.19,22.77,22.77v28.51C200.11,173.08,189.92,183.27,177.34,183.27z"></path>
		<path class="st17" d="M153,159.42v-27.54c0-0.39,0.1-0.76,0.29-1.1c0.19-0.33,0.46-0.61,0.79-0.81c0.33-0.19,0.7-0.29,1.08-0.29    c0.38,0,0.75,0.1,1.08,0.29l23.68,13.77c0.33,0.19,0.6,0.47,0.79,0.8c0.19,0.34,0.29,0.72,0.29,1.1c0,0.39-0.1,0.77-0.29,1.1    c-0.19,0.33-0.46,0.61-0.79,0.8l-23.68,13.77c-0.33,0.19-0.7,0.29-1.08,0.29c-0.38,0-0.75-0.1-1.08-0.3    c-0.33-0.19-0.6-0.47-0.79-0.8C153.1,160.18,153,159.8,153,159.42L153,159.42z"></path>
	</g>
	<g>
		<path class="st18" d="M461.1,156.74c0-11.87-9.83-21.44-21.8-21.02c-10.46,0.37-19.21,8.66-20.17,19.08    c-0.27,2.97,0.09,5.81,0.94,8.43c0.01,0.02,0.01,0.04,0.02,0.06c3.23,9.85,14.88,27.57,18.73,33.28c0.6,0.89,1.9,0.89,2.5,0    c3.88-5.71,15.62-23.44,18.85-33.29c0.46-1.4,0.68-2.65,0.72-3.79C461.01,158.6,461.1,157.68,461.1,156.74z"></path>
		<circle class="st12" cx="440.07" cy="156.74" r="8.07"></circle>
	</g>
	<path class="st3" d="M473.11,229.21l-31.85-27.14c-0.36-0.31-0.85-0.44-1.31-0.33l-30.58,6.76v3.08l30.51-6.74l31.26,27   C471.53,232.19,474.23,230.96,473.11,229.21z"></path>
	<circle class="st15" cx="440.28" cy="203.38" r="3.72"></circle>
	<path class="st3" d="M473.35,231.5l48.4-26.99c0,0,0.49-3.71,0.1-3.49l-49.79,27.77C472.47,229.64,472.91,230.57,473.35,231.5z"></path>
	<circle class="st19" cx="522.28" cy="202.71" r="3.72"></circle>
	<circle class="st15" cx="472.28" cy="230.38" r="3.72"></circle>
	<g>
		<path class="st6" d="M594.49,205.13h-61.62c-4.09,0-7.44,3.35-7.44,7.44v11.66c0,4.09,3.35,7.44,7.44,7.44h7.64v7.26l7.26-7.26    h46.72c4.09,0,7.44-3.35,7.44-7.44v-11.66C601.93,208.48,598.58,205.13,594.49,205.13"></path>
		<path class="st12" d="M592.52,216.66h-58.33c-0.65,0-1.17-0.52-1.17-1.17v0c0-0.65,0.52-1.17,1.17-1.17h58.33    c0.65,0,1.17,0.52,1.17,1.17v0C593.69,216.14,593.16,216.66,592.52,216.66z"></path>
		<path class="st12" d="M592.52,222.15h-58.33c-0.65,0-1.17-0.52-1.17-1.17l0,0c0-0.65,0.52-1.17,1.17-1.17h58.33    c0.65,0,1.17,0.52,1.17,1.17l0,0C593.69,221.63,593.16,222.15,592.52,222.15z"></path>
	</g>
</g>
</svg>