<svg xmlns="http://www.w3.org/2000/svg" height="512pt" viewBox="0 0 512 512" width="512pt"><g fill-rule="evenodd"><path d="m481.101562 512h-450.203124c-17.066407 0-30.898438-13.832031-30.898438-30.898438v-392.824218h512v392.824218c0 17.066407-13.832031 30.898438-30.898438 30.898438zm0 0" fill="#e7eced"></path><path d="m512 105.929688h-512v-75.03125c0-17.066407 13.832031-30.898438 30.898438-30.898438h450.203124c17.066407 0 30.898438 13.832031 30.898438 30.898438zm0 0" fill="#28384c"></path><path d="m35.308594 35.308594h35.3125v35.3125h-35.3125zm0 0" fill="#dd352e"></path><path d="m105.929688 35.308594h35.3125v35.3125h-35.3125zm0 0" fill="#ebba16"></path><path d="m176.550781 35.308594h35.3125v35.3125h-35.3125zm0 0" fill="#23a24d"></path></g><path d="m35.308594 141.242188h441.382812v335.449218h-441.382812zm0 0" fill="#ebba16"></path><path d="m97.101562 203.035156h317.796876v211.863282h-317.796876zm0 0" fill="#25ae88"></path><path d="m194.214844 388.414062h-35.316406c-14.613282 0-26.484376-11.875-26.484376-26.472656v-105.949218c0-14.601563 11.871094-26.476563 26.472657-26.476563h35.320312c14.609375 0 26.484375 11.875 26.484375 26.476563v26.492187c0 4.871094-3.957031 8.824219-8.828125 8.824219-4.875 0-8.828125-3.953125-8.828125-8.824219v-26.492187c0-4.863282-3.957031-8.820313-8.820312-8.820313h-35.316406c-4.875 0-8.828126 3.957031-8.828126 8.820313v105.949218c0 4.863282 3.953126 8.816406 8.816407 8.816406h35.320312c4.871094 0 8.828125-3.953124 8.828125-8.816406v-26.492187c0-4.875 3.953125-8.828125 8.828125-8.828125 4.871094 0 8.828125 3.953125 8.828125 8.828125v26.492187c0 14.597656-11.875 26.472656-26.476562 26.472656zm0 0" fill="#fff"></path><path d="m291.308594 388.414062c-4.871094 0-8.824219-3.953124-8.824219-8.828124v-141.242188c0-4.871094 3.953125-8.828125 8.824219-8.828125 4.875 0 8.828125 3.957031 8.828125 8.828125v141.242188c0 4.875-3.953125 8.828124-8.828125 8.828124zm0 0" fill="#fff"></path><path d="m344.277344 388.414062c-4.875 0-8.828125-3.953124-8.828125-8.828124v-141.242188c0-4.871094 3.953125-8.828125 8.828125-8.828125 4.871094 0 8.824218 3.957031 8.824218 8.828125v141.242188c0 4.875-3.953124 8.828124-8.824218 8.828124zm0 0" fill="#fff"></path><path d="m370.757812 344.277344h-105.929687c-4.875 0-8.828125-3.957032-8.828125-8.828125 0-4.875 3.953125-8.828125 8.828125-8.828125h105.929687c4.875 0 8.828126 3.953125 8.828126 8.828125 0 4.871093-3.953126 8.828125-8.828126 8.828125zm0 0" fill="#fff"></path><path d="m370.757812 291.308594h-105.929687c-4.875 0-8.828125-3.953125-8.828125-8.824219 0-4.875 3.953125-8.828125 8.828125-8.828125h105.929687c4.875 0 8.828126 3.953125 8.828126 8.828125 0 4.871094-3.953126 8.824219-8.828126 8.824219zm0 0" fill="#fff"></path></svg>