<svg xmlns="http://www.w3.org/2000/svg" xmlns:xlink="http://www.w3.org/1999/xlink" viewBox="0 0 907.39 480.28"><defs><style>.cls-1{fill:url(#linear-gradient);}.cls-2{fill:url(#linear-gradient-2);}.cls-3{fill:url(#linear-gradient-3);}.cls-4{fill:url(#linear-gradient-4);}.cls-5{fill:#edf4fc;}.cls-6{fill:#d9e1e4;}.cls-7{fill:#bac2c6;}.cls-13,.cls-8{fill:#fff;}.cls-8{opacity:0.34;}.cls-9{fill:#acd5f4;}.cls-10{fill:#b0bfde;}.cls-11{fill:#d1dbea;}.cls-12{fill:#e4efff;}.cls-14{fill:#0c1153;}.cls-15{fill:#e1eefe;}.cls-16{fill:#316091;}.cls-17{fill:#86bbd8;}.cls-18{fill:#194866;}.cls-19{fill:#596273;}.cls-20{fill:#86c0f0;}.cls-21{fill:#3dc7c9;}.cls-22{fill:#2c7eea;}.cls-23{fill:#f1fafc;}.cls-24{fill:#e9d6b8;}.cls-25{fill:#7ec8ef;}.cls-26{fill:#effaff;}.cls-27{fill:#74b2e8;}.cls-28{fill:#d0dee6;}.cls-29{fill:#e8502e;}.cls-30{fill:#ff6440;}.cls-31{fill:#e2c59c;}.cls-32{fill:#163f59;}.cls-33{fill:#161711;}.cls-34{fill:#1f6cd1;}.cls-35{fill:#b6c2c9;}.cls-36{fill:#879ba6;}.cls-37{fill:#e4eef3;}.cls-38{isolation:isolate;}.cls-39{clip-path:url(#clip-path);}.cls-40{fill:url(#linear-gradient-6);}.cls-41{fill:url(#linear-gradient-7);}.cls-42{clip-path:url(#clip-path-2);}.cls-43{fill:url(#linear-gradient-9);}.cls-44{fill:url(#linear-gradient-10);}.cls-45{fill:url(#linear-gradient-11);}.cls-46{fill:url(#linear-gradient-12);}.cls-47{fill:url(#linear-gradient-13);}.cls-48{fill:url(#linear-gradient-14);}.cls-49{fill:url(#linear-gradient-15);}.cls-50{fill:url(#linear-gradient-16);}.cls-51{fill:url(#linear-gradient-17);}.cls-52{fill:url(#linear-gradient-18);}.cls-53{fill:url(#linear-gradient-19);}.cls-54{fill:url(#linear-gradient-20);}.cls-55{fill:url(#linear-gradient-21);}.cls-56{fill:url(#linear-gradient-22);}.cls-57{fill:url(#linear-gradient-23);}.cls-58{fill:url(#linear-gradient-24);}.cls-59{fill:url(#linear-gradient-25);}.cls-60{fill:url(#linear-gradient-26);}.cls-61{clip-path:url(#clip-path-3);}.cls-62{fill:url(#linear-gradient-28);}.cls-63{fill:url(#linear-gradient-29);}.cls-64{fill:url(#linear-gradient-30);}.cls-65{fill:url(#linear-gradient-31);}.cls-66{fill:url(#linear-gradient-32);}.cls-67{fill:url(#linear-gradient-33);}.cls-68{fill:url(#linear-gradient-34);}.cls-69{fill:url(#linear-gradient-35);}.cls-70{fill:url(#linear-gradient-36);}.cls-71{fill:url(#linear-gradient-37);}.cls-72{fill:url(#linear-gradient-38);}.cls-73{fill:url(#linear-gradient-39);}.cls-74{fill:url(#linear-gradient-40);}.cls-75{fill:url(#linear-gradient-41);}.cls-76{fill:url(#linear-gradient-42);}.cls-77{fill:url(#linear-gradient-43);}.cls-78{fill:url(#linear-gradient-44);}.cls-79{fill:url(#linear-gradient-45);}.cls-80{fill:url(#linear-gradient-46);}.cls-81{fill:url(#linear-gradient-47);}.cls-82{fill:url(#linear-gradient-48);}.cls-83{fill:url(#linear-gradient-49);}.cls-84{fill:url(#linear-gradient-50);}.cls-85{clip-path:url(#clip-path-4);}.cls-86{fill:url(#linear-gradient-52);}.cls-87{fill:url(#linear-gradient-53);}.cls-88{fill:url(#linear-gradient-54);}.cls-89{fill:url(#linear-gradient-55);}.cls-90{fill:url(#linear-gradient-56);}.cls-91{fill:url(#linear-gradient-57);}.cls-92{fill:url(#linear-gradient-58);}.cls-93{fill:url(#linear-gradient-59);}.cls-94{fill:url(#linear-gradient-60);}.cls-95{fill:url(#linear-gradient-61);}.cls-96{fill:url(#linear-gradient-62);}.cls-97{fill:url(#linear-gradient-63);}.cls-98{fill:url(#linear-gradient-64);}.cls-99{fill:url(#linear-gradient-65);}.cls-100{fill:url(#linear-gradient-66);}.cls-101{fill:url(#linear-gradient-67);}.cls-102{fill:url(#linear-gradient-68);}.cls-103{fill:url(#linear-gradient-69);}.cls-104{fill:url(#linear-gradient-70);}.cls-105{fill:url(#linear-gradient-71);}.cls-106{fill:url(#linear-gradient-72);}.cls-107{fill:url(#linear-gradient-73);}.cls-108{fill:url(#linear-gradient-74);}.cls-109{fill:url(#linear-gradient-75);}.cls-110{fill:url(#linear-gradient-76);}.cls-111{fill:url(#linear-gradient-77);}.cls-112{fill:url(#linear-gradient-78);}.cls-113{fill:url(#linear-gradient-79);}.cls-114{fill:url(#linear-gradient-80);}.cls-115{fill:url(#linear-gradient-81);}.cls-116{fill:url(#linear-gradient-82);}.cls-117{fill:url(#linear-gradient-83);}.cls-118{fill:url(#linear-gradient-84);}.cls-119{fill:url(#linear-gradient-85);}.cls-120{fill:url(#linear-gradient-86);}.cls-121{fill:url(#linear-gradient-87);}.cls-122{fill:#bcd0e2;}.cls-123{fill:#dbdac6;}.cls-124{fill:#c4d1e1;}.cls-125{fill:#081832;}.cls-126{fill:#d8e5ed;}.cls-127{fill:#0095ef;}.cls-128{fill:#15100c;}.cls-129{fill:#cdd5d7;}.cls-130{fill:#b7bec0;}.cls-131{fill:#007fcf;}.cls-132{fill:url(#New_Gradient_Swatch_81);}.cls-133{fill:url(#New_Gradient_Swatch_81-2);}.cls-134{fill:url(#New_Gradient_Swatch_81-3);}.cls-135{fill:url(#New_Gradient_Swatch_81-4);}.cls-136{fill:#2162a3;}.cls-137{fill:#c3d80e;}.cls-138{fill:#474ec9;}.cls-139{fill:#9fc400;}.cls-140{fill:#6e57da;}.cls-141{fill:#4db544;}.cls-142{fill:#cc5073;}.cls-143{fill:#17d0b4;}.cls-144{fill:url(#New_Gradient_Swatch_68);}.cls-145{fill:url(#New_Gradient_Swatch_68-2);}.cls-146{fill:#ffcf33;}.cls-147{fill:#4777e6;}.cls-148{fill:#4eb3d7;}.cls-149{fill:#f58620;}.cls-150{fill:#4e99ff;}.cls-151{fill:#ffa813;}.cls-152{fill:#181863;}.cls-153{fill:#d1320b;}.cls-154{fill:#ff3d0d;}</style><linearGradient id="linear-gradient" x1="788.77" y1="31.76" x2="788.77" y2="-11.11" gradientTransform="translate(-36.18 21.44) rotate(-0.5)" gradientUnits="userSpaceOnUse"><stop offset="0" stop-color="#b0bfde"/><stop offset="1" stop-color="#c4d1e1"/></linearGradient><linearGradient id="linear-gradient-2" x1="810.14" y1="31.79" x2="810.14" y2="-11.11" xlink:href="#linear-gradient"/><linearGradient id="linear-gradient-3" x1="850.66" y1="66.7" x2="850.66" y2="32.05" xlink:href="#linear-gradient"/><linearGradient id="linear-gradient-4" x1="871.34" y1="90.86" x2="871.34" y2="69.61" xlink:href="#linear-gradient"/><clipPath id="clip-path"><path class="cls-1" d="M743.81,1.15,758.6.08c.83,0,1.67-.08,2.52-.08L746.34,1.07C745.49,1.06,744.65,1.09,743.81,1.15Z"/></clipPath><linearGradient id="linear-gradient-6" x1="788.45" y1="31.73" x2="788.45" y2="-11.11" xlink:href="#linear-gradient"/><linearGradient id="linear-gradient-7" x1="789.71" y1="31.79" x2="789.71" y2="-11.11" xlink:href="#linear-gradient"/><clipPath id="clip-path-2"><path class="cls-2" d="M746.34,1.07,761.12,0c20.26.09,37.4,18.66,40.59,42.66l-14.78,1.07C783.73,19.73,766.6,1.16,746.34,1.07Z"/></clipPath><linearGradient id="linear-gradient-9" x1="791.06" y1="31.77" x2="791.06" y2="-11.11" xlink:href="#linear-gradient"/><linearGradient id="linear-gradient-10" x1="793.31" y1="31.78" x2="793.31" y2="-11.11" xlink:href="#linear-gradient"/><linearGradient id="linear-gradient-11" x1="795.65" y1="31.78" x2="795.65" y2="-11.11" xlink:href="#linear-gradient"/><linearGradient id="linear-gradient-12" x1="797.84" y1="31.76" x2="797.84" y2="-11.11" xlink:href="#linear-gradient"/><linearGradient id="linear-gradient-13" x1="799.9" y1="31.8" x2="799.9" y2="-11.11" xlink:href="#linear-gradient"/><linearGradient id="linear-gradient-14" x1="801.88" y1="31.78" x2="801.88" y2="-11.11" xlink:href="#linear-gradient"/><linearGradient id="linear-gradient-15" x1="803.8" y1="31.76" x2="803.8" y2="-11.11" xlink:href="#linear-gradient"/><linearGradient id="linear-gradient-16" x1="805.68" y1="31.8" x2="805.68" y2="-11.11" xlink:href="#linear-gradient"/><linearGradient id="linear-gradient-17" x1="807.54" y1="31.8" x2="807.54" y2="-11.11" xlink:href="#linear-gradient"/><linearGradient id="linear-gradient-18" x1="809.39" y1="31.77" x2="809.39" y2="-11.11" xlink:href="#linear-gradient"/><linearGradient id="linear-gradient-19" x1="811.24" y1="31.76" x2="811.24" y2="-11.11" xlink:href="#linear-gradient"/><linearGradient id="linear-gradient-20" x1="813.12" y1="31.79" x2="813.12" y2="-11.11" xlink:href="#linear-gradient"/><linearGradient id="linear-gradient-21" x1="815.05" y1="31.77" x2="815.05" y2="-11.11" xlink:href="#linear-gradient"/><linearGradient id="linear-gradient-22" x1="817.06" y1="31.77" x2="817.06" y2="-11.1" xlink:href="#linear-gradient"/><linearGradient id="linear-gradient-23" x1="819.2" y1="31.78" x2="819.2" y2="-11.11" xlink:href="#linear-gradient"/><linearGradient id="linear-gradient-24" x1="821.64" y1="31.79" x2="821.64" y2="-11.11" xlink:href="#linear-gradient"/><linearGradient id="linear-gradient-25" x1="826.33" y1="31.79" x2="826.33" y2="-11.11" xlink:href="#linear-gradient"/><linearGradient id="linear-gradient-26" x1="829.98" y1="31.79" x2="829.98" y2="-11.11" xlink:href="#linear-gradient"/><clipPath id="clip-path-3"><path class="cls-3" d="M792.65,42.54l14.78-1.07c.54,0,1.08,0,1.63,0,15.08.06,27.62,15.14,28,33.67,0,1.34,0,2.66-.12,4l-14.78,1.07c.1-1.31.15-2.63.12-4-.4-18.52-12.94-33.6-28-33.66C793.73,42.49,793.19,42.5,792.65,42.54Z"/></clipPath><linearGradient id="linear-gradient-28" x1="836.6" y1="66.67" x2="836.6" y2="32.04" xlink:href="#linear-gradient"/><linearGradient id="linear-gradient-29" x1="838.11" y1="66.66" x2="838.11" y2="32.04" xlink:href="#linear-gradient"/><linearGradient id="linear-gradient-30" x1="839.84" y1="66.65" x2="839.84" y2="32.04" xlink:href="#linear-gradient"/><linearGradient id="linear-gradient-31" x1="841.44" y1="66.67" x2="841.44" y2="32.04" xlink:href="#linear-gradient"/><linearGradient id="linear-gradient-32" x1="842.93" y1="66.66" x2="842.93" y2="32.04" xlink:href="#linear-gradient"/><linearGradient id="linear-gradient-33" x1="844.33" y1="66.67" x2="844.33" y2="32.04" xlink:href="#linear-gradient"/><linearGradient id="linear-gradient-34" x1="845.68" y1="66.7" x2="845.68" y2="32.05" xlink:href="#linear-gradient"/><linearGradient id="linear-gradient-35" x1="847" y1="66.67" x2="847" y2="32.04" xlink:href="#linear-gradient"/><linearGradient id="linear-gradient-36" x1="848.28" y1="66.7" x2="848.28" y2="32.05" xlink:href="#linear-gradient"/><linearGradient id="linear-gradient-37" x1="849.55" y1="66.72" x2="849.55" y2="32.05" xlink:href="#linear-gradient"/><linearGradient id="linear-gradient-38" x1="850.81" y1="66.7" x2="850.81" y2="32.05" xlink:href="#linear-gradient"/><linearGradient id="linear-gradient-39" x1="852.08" y1="66.69" x2="852.08" y2="32.05" xlink:href="#linear-gradient"/><linearGradient id="linear-gradient-40" x1="853.35" y1="66.71" x2="853.35" y2="32.05" xlink:href="#linear-gradient"/><linearGradient id="linear-gradient-41" x1="854.66" y1="66.71" x2="854.66" y2="32.05" xlink:href="#linear-gradient"/><linearGradient id="linear-gradient-42" x1="856.03" y1="66.71" x2="856.03" y2="32.05" xlink:href="#linear-gradient"/><linearGradient id="linear-gradient-43" x1="857.49" y1="66.71" x2="857.49" y2="32.05" xlink:href="#linear-gradient"/><linearGradient id="linear-gradient-44" x1="859.15" y1="66.7" x2="859.15" y2="32.05" xlink:href="#linear-gradient"/><linearGradient id="linear-gradient-45" x1="862.34" y1="66.7" x2="862.34" y2="32.05" xlink:href="#linear-gradient"/><linearGradient id="linear-gradient-46" x1="864.88" y1="66.7" x2="864.88" y2="32.05" xlink:href="#linear-gradient"/><linearGradient id="linear-gradient-47" x1="865.22" y1="66.71" x2="865.22" y2="32.03" xlink:href="#linear-gradient"/><linearGradient id="linear-gradient-48" x1="865.32" y1="66.7" x2="865.32" y2="32.05" xlink:href="#linear-gradient"/><linearGradient id="linear-gradient-49" x1="865.28" y1="66.7" x2="865.28" y2="32.06" xlink:href="#linear-gradient"/><linearGradient id="linear-gradient-50" x1="865.2" y1="66.7" x2="865.2" y2="32.07" xlink:href="#linear-gradient"/><clipPath id="clip-path-4"><path class="cls-4" d="M838,109.73l-14.78,1.06c6.52-.47,11.55-7.12,11.38-15.28-.18-8.32-5.72-15.11-12.45-15.38L837,79.06c6.74.27,12.27,7.06,12.45,15.39C849.59,102.61,844.56,109.26,838,109.73Z"/></clipPath><linearGradient id="linear-gradient-52" x1="865.31" y1="90.87" x2="865.31" y2="69.62" xlink:href="#linear-gradient"/><linearGradient id="linear-gradient-53" x1="865.83" y1="90.87" x2="865.83" y2="69.62" xlink:href="#linear-gradient"/><linearGradient id="linear-gradient-54" x1="866.56" y1="90.82" x2="866.56" y2="69.61" xlink:href="#linear-gradient"/><linearGradient id="linear-gradient-55" x1="867.24" y1="90.87" x2="867.24" y2="69.62" xlink:href="#linear-gradient"/><linearGradient id="linear-gradient-56" x1="867.89" y1="90.85" x2="867.89" y2="69.61" xlink:href="#linear-gradient"/><linearGradient id="linear-gradient-57" x1="868.51" y1="90.83" x2="868.51" y2="69.61" xlink:href="#linear-gradient"/><linearGradient id="linear-gradient-58" x1="869.11" y1="90.83" x2="869.11" y2="69.61" xlink:href="#linear-gradient"/><linearGradient id="linear-gradient-59" x1="869.69" y1="90.85" x2="869.69" y2="69.61" xlink:href="#linear-gradient"/><linearGradient id="linear-gradient-60" x1="870.27" y1="90.89" x2="870.27" y2="69.62" xlink:href="#linear-gradient"/><linearGradient id="linear-gradient-61" x1="870.85" y1="90.87" x2="870.85" y2="69.62" xlink:href="#linear-gradient"/><linearGradient id="linear-gradient-62" x1="871.43" y1="90.87" x2="871.43" y2="69.62" xlink:href="#linear-gradient"/><linearGradient id="linear-gradient-63" x1="872.01" y1="90.87" x2="872.01" y2="69.61" xlink:href="#linear-gradient"/><linearGradient id="linear-gradient-64" x1="872.61" y1="90.87" x2="872.61" y2="69.61" xlink:href="#linear-gradient"/><linearGradient id="linear-gradient-65" x1="873.24" y1="90.86" x2="873.24" y2="69.61" xlink:href="#linear-gradient"/><linearGradient id="linear-gradient-66" x1="873.91" y1="90.86" x2="873.91" y2="69.61" xlink:href="#linear-gradient"/><linearGradient id="linear-gradient-67" x1="874.66" y1="90.84" x2="874.66" y2="69.62" xlink:href="#linear-gradient"/><linearGradient id="linear-gradient-68" x1="876.12" y1="90.86" x2="876.12" y2="69.61" xlink:href="#linear-gradient"/><linearGradient id="linear-gradient-69" x1="877.28" y1="90.85" x2="877.28" y2="69.62" xlink:href="#linear-gradient"/><linearGradient id="linear-gradient-70" x1="877.44" y1="90.86" x2="877.44" y2="69.61" xlink:href="#linear-gradient"/><linearGradient id="linear-gradient-71" x1="877.48" y1="90.86" x2="877.48" y2="69.61" xlink:href="#linear-gradient"/><linearGradient id="linear-gradient-72" x1="877.47" y1="90.86" x2="877.47" y2="69.61" xlink:href="#linear-gradient"/><linearGradient id="linear-gradient-73" x1="877.4" y1="90.85" x2="877.4" y2="69.62" xlink:href="#linear-gradient"/><linearGradient id="linear-gradient-74" x1="877.31" y1="90.86" x2="877.31" y2="69.61" xlink:href="#linear-gradient"/><linearGradient id="linear-gradient-75" x1="877.18" y1="90.85" x2="877.18" y2="69.62" xlink:href="#linear-gradient"/><linearGradient id="linear-gradient-76" x1="877.02" y1="90.85" x2="877.02" y2="69.62" xlink:href="#linear-gradient"/><linearGradient id="linear-gradient-77" x1="876.83" y1="90.85" x2="876.83" y2="69.62" xlink:href="#linear-gradient"/><linearGradient id="linear-gradient-78" x1="876.62" y1="90.85" x2="876.62" y2="69.63" xlink:href="#linear-gradient"/><linearGradient id="linear-gradient-79" x1="876.37" y1="90.86" x2="876.37" y2="69.61" xlink:href="#linear-gradient"/><linearGradient id="linear-gradient-80" x1="876.09" y1="90.86" x2="876.09" y2="69.62" xlink:href="#linear-gradient"/><linearGradient id="linear-gradient-81" x1="875.77" y1="90.86" x2="875.77" y2="69.63" xlink:href="#linear-gradient"/><linearGradient id="linear-gradient-82" x1="875.4" y1="90.86" x2="875.4" y2="69.63" xlink:href="#linear-gradient"/><linearGradient id="linear-gradient-83" x1="874.98" y1="90.86" x2="874.98" y2="69.63" xlink:href="#linear-gradient"/><linearGradient id="linear-gradient-84" x1="874.48" y1="90.86" x2="874.48" y2="69.62" xlink:href="#linear-gradient"/><linearGradient id="linear-gradient-85" x1="873.86" y1="90.86" x2="873.86" y2="69.6" xlink:href="#linear-gradient"/><linearGradient id="linear-gradient-86" x1="873.06" y1="90.86" x2="873.06" y2="69.64" xlink:href="#linear-gradient"/><linearGradient id="linear-gradient-87" x1="869.29" y1="90.86" x2="869.29" y2="69.62" xlink:href="#linear-gradient"/><linearGradient id="New_Gradient_Swatch_81" x1="88.82" y1="270.47" x2="127.47" y2="270.47" gradientUnits="userSpaceOnUse"><stop offset="0" stop-color="#12c0ae"/><stop offset="1" stop-color="#28acbd"/></linearGradient><linearGradient id="New_Gradient_Swatch_81-2" x1="119.78" y1="267.46" x2="125.45" y2="267.46" xlink:href="#New_Gradient_Swatch_81"/><linearGradient id="New_Gradient_Swatch_81-3" x1="72.49" y1="263.84" x2="82.29" y2="263.84" xlink:href="#New_Gradient_Swatch_81"/><linearGradient id="New_Gradient_Swatch_81-4" x1="82.85" y1="262.79" x2="86.44" y2="262.79" xlink:href="#New_Gradient_Swatch_81"/><linearGradient id="New_Gradient_Swatch_68" x1="563.5" y1="378.37" x2="622.62" y2="378.37" gradientUnits="userSpaceOnUse"><stop offset="0" stop-color="#f95830"/><stop offset="1" stop-color="#e04037"/></linearGradient><linearGradient id="New_Gradient_Swatch_68-2" x1="563.5" y1="388.28" x2="622.62" y2="388.28" xlink:href="#New_Gradient_Swatch_68"/></defs><title>Asset 1</title><g id="Layer_2" data-name="Layer 2"><g id="Layer_3" data-name="Layer 3"><rect class="cls-5" x="35.39" y="66" width="166.51" height="190.5"/><rect class="cls-6" x="59.8" y="86.5" width="76.25" height="3.14"/><rect class="cls-6" x="59.8" y="79.81" width="24.7" height="3.14"/><path class="cls-7" d="M181.92,231.25H62.71V96.12H181.92ZM62.85,231.1H181.77V96.26H62.85Z"/><rect class="cls-7" x="62.78" y="211.82" width="119.07" height="0.14"/><rect class="cls-7" x="62.78" y="192.54" width="119.07" height="0.14"/><rect class="cls-7" x="62.78" y="173.25" width="119.07" height="0.14"/><rect class="cls-7" x="62.78" y="153.97" width="119.07" height="0.14"/><rect class="cls-7" x="62.78" y="134.69" width="119.07" height="0.14"/><rect class="cls-7" x="62.78" y="115.4" width="119.07" height="0.14"/><rect class="cls-7" x="142.09" y="96.19" width="0.14" height="134.98"/><rect class="cls-7" x="102.4" y="96.19" width="0.14" height="134.98"/><rect class="cls-7" x="55.34" y="99.2" width="8.71" height="0.14" transform="translate(-52.71 71.29) rotate(-45)"/><rect class="cls-7" x="55.35" y="118.48" width="8.71" height="0.14" transform="translate(-66.32 76.88) rotate(-44.97)"/><rect class="cls-7" x="55.35" y="137.77" width="8.71" height="0.14" transform="translate(-79.95 82.52) rotate(-44.97)"/><rect class="cls-7" x="55.34" y="157.05" width="8.71" height="0.14" transform="translate(-93.58 88.16) rotate(-44.97)"/><rect class="cls-7" x="55.34" y="176.33" width="8.71" height="0.14" transform="translate(-107.21 93.8) rotate(-44.97)"/><rect class="cls-7" x="55.34" y="195.62" width="8.71" height="0.14" transform="translate(-120.84 99.44) rotate(-44.97)"/><rect class="cls-7" x="55.35" y="214.9" width="8.71" height="0.14" transform="translate(-134.47 105.08) rotate(-44.97)"/><path class="cls-7" d="M51.15,218.59h0l-.61.32-.09-.36.76-.41h.41v3.51h-.46Z"/><path class="cls-7" d="M55.21,219.86c0,1.19-.44,1.84-1.22,1.84s-1.15-.64-1.16-1.79.51-1.83,1.22-1.83S55.21,218.74,55.21,219.86Zm-1.9,0c0,.91.28,1.43.71,1.43s.71-.57.71-1.46-.22-1.43-.71-1.43S53.31,219,53.31,219.91Z"/><path class="cls-7" d="M50.12,202.5v-.29l.37-.36c.89-.85,1.3-1.31,1.3-1.83a.62.62,0,0,0-.69-.69,1.15,1.15,0,0,0-.74.3l-.15-.34a1.54,1.54,0,0,1,1-.35,1,1,0,0,1,1.07,1c0,.64-.47,1.17-1.21,1.88l-.28.26h1.57v.39Z"/><path class="cls-7" d="M55.21,200.71c0,1.19-.44,1.85-1.22,1.85s-1.15-.64-1.16-1.8.51-1.82,1.22-1.82S55.21,199.6,55.21,200.71Zm-1.9,0c0,.91.28,1.43.71,1.43s.71-.56.71-1.46-.22-1.43-.71-1.43S53.31,199.81,53.31,200.76Z"/><path class="cls-7" d="M50.23,182.81A1.69,1.69,0,0,0,51,183a.69.69,0,0,0,.79-.68c0-.49-.45-.7-.91-.7h-.26v-.36h.26c.35,0,.79-.17.79-.59s-.18-.53-.62-.53a1.27,1.27,0,0,0-.7.24l-.12-.35a1.69,1.69,0,0,1,.91-.27c.69,0,1,.41,1,.84a.86.86,0,0,1-.64.82h0a.92.92,0,0,1,.78.9c0,.56-.44,1-1.28,1a1.74,1.74,0,0,1-.91-.24Z"/><path class="cls-7" d="M55.21,181.56c0,1.19-.44,1.85-1.22,1.85s-1.15-.64-1.16-1.8.51-1.82,1.22-1.82S55.21,180.45,55.21,181.56Zm-1.9.06c0,.91.28,1.43.71,1.43s.71-.57.71-1.46-.22-1.43-.71-1.43S53.31,180.66,53.31,181.62Z"/><path class="cls-7" d="M51.58,164.21v-1H50v-.31l1.56-2.23H52v2.17h.49v.37H52v1Zm0-1.33v-1.17c0-.18,0-.36,0-.55h0a4.84,4.84,0,0,1-.29.52l-.85,1.19h1.14Z"/><path class="cls-7" d="M55.21,162.42c0,1.19-.44,1.85-1.22,1.85s-1.15-.64-1.16-1.8.51-1.82,1.22-1.82S55.21,161.3,55.21,162.42Zm-1.9.05c0,.91.28,1.43.71,1.43s.71-.57.71-1.46S54.51,161,54,161,53.31,161.52,53.31,162.47Z"/><path class="cls-7" d="M52.21,142H50.87l-.13.9.28,0a1.61,1.61,0,0,1,.76.18,1,1,0,0,1,.5.9,1.22,1.22,0,0,1-1.31,1.2,1.69,1.69,0,0,1-.87-.22l.12-.36a1.53,1.53,0,0,0,.75.2.77.77,0,0,0,.83-.76c0-.45-.31-.78-1-.78a3,3,0,0,0-.48,0l.22-1.68h1.68Z"/><path class="cls-7" d="M55.21,143.27c0,1.19-.44,1.85-1.22,1.85s-1.15-.64-1.16-1.8.51-1.82,1.22-1.82S55.21,142.16,55.21,143.27Zm-1.9.06c0,.91.28,1.42.71,1.42s.71-.56.71-1.46-.22-1.42-.71-1.42S53.31,142.37,53.31,143.33Z"/><path class="cls-7" d="M52.12,122.75a1.56,1.56,0,0,0-.36,0A1.41,1.41,0,0,0,50.55,124h0a1.05,1.05,0,0,1,.85-.4,1,1,0,0,1,1.05,1.13A1.16,1.16,0,0,1,51.3,126c-.75,0-1.24-.58-1.24-1.49a2.23,2.23,0,0,1,.59-1.58,1.91,1.91,0,0,1,1.12-.51,1.59,1.59,0,0,1,.35,0Zm-.14,2a.71.71,0,0,0-.72-.81.78.78,0,0,0-.68.43.46.46,0,0,0,0,.21c0,.58.27,1,.77,1S52,125.27,52,124.77Z"/><path class="cls-7" d="M55.21,124.13c0,1.19-.44,1.84-1.22,1.84s-1.15-.64-1.16-1.8.51-1.82,1.22-1.82S55.21,123,55.21,124.13Zm-1.9.05c0,.91.28,1.43.71,1.43s.71-.57.71-1.46-.22-1.43-.71-1.43S53.31,123.23,53.31,124.18Z"/><path class="cls-7" d="M52.39,103.27v.31l-1.52,3.19h-.49l1.52-3.1H50.18v-.39Z"/><path class="cls-7" d="M55.21,105c0,1.19-.44,1.85-1.22,1.85s-1.15-.64-1.16-1.8.51-1.82,1.22-1.82S55.21,103.86,55.21,105Zm-1.9,0c0,.91.28,1.43.71,1.43s.71-.56.71-1.46-.22-1.43-.71-1.43S53.31,104.08,53.31,105Z"/><rect class="cls-8" x="62.78" y="115.48" width="119.07" height="19.28"/><rect class="cls-8" x="62.78" y="154.04" width="119.07" height="19.28"/><rect class="cls-8" x="62.78" y="192.61" width="119.07" height="19.28"/><rect class="cls-9" x="62.78" y="115.48" width="53.5" height="3.08"/><rect class="cls-10" x="62.78" y="123.58" width="91.91" height="3.08"/><rect class="cls-11" x="62.78" y="131.68" width="32.76" height="3.08"/><rect class="cls-9" x="62.78" y="154.04" width="96.58" height="3.08"/><rect class="cls-10" x="62.78" y="162.14" width="39.69" height="3.08"/><rect class="cls-11" x="62.78" y="170.25" width="79.38" height="3.08"/><rect class="cls-9" x="62.78" y="192.86" width="39.69" height="3.08"/><rect class="cls-10" x="62.78" y="200.96" width="79.38" height="3.08"/><rect class="cls-11" x="62.78" y="209.06" width="65.52" height="3.08"/><path class="cls-12" d="M247.85,358.45c59.84,2.91,245.28,11.26,358.13,10.83,209.27-.81,378.35,30.31,265.06,48.13-31.65,5,56.15,50.88-165.11,47.31C511.7,461.59,315.19,432.9,220,420S81.51,391.32,61.37,384.2C43.66,377.94,38.71,348.28,247.85,358.45Z"/><path class="cls-12" d="M808.07,249.85a15.64,15.64,0,0,0-3.33,10.08c0,6.09,2.91,11.2,6.82,12.56a15.63,15.63,0,0,0,3.33-10.07C814.89,256.32,812,251.21,808.07,249.85Z"/><path class="cls-12" d="M806.21,274.07c-3.07-3.78-7.19-5.91-10.71-5.89a16.12,16.12,0,0,0,3.75,9c3.07,3.79,7.19,5.91,10.71,5.89A16.12,16.12,0,0,0,806.21,274.07Z"/><path class="cls-12" d="M811,286.81a14.85,14.85,0,0,0-7.61-4.6c-5.11-1.29-10.13.06-13,3.11a14.75,14.75,0,0,0,7.6,4.6C803.14,291.22,808.17,289.86,811,286.81Z"/><path class="cls-12" d="M822.15,280.18c-4.74,1.43-8.2,4.82-9.33,8.61a14.15,14.15,0,0,0,11.1,1c4.74-1.43,8.2-4.82,9.33-8.61A14.15,14.15,0,0,0,822.15,280.18Z"/><path class="cls-12" d="M820.37,266.48a12.53,12.53,0,0,0-6.39,9A12.79,12.79,0,0,0,822.9,274a12.38,12.38,0,0,0,6.34-9.06A12.91,12.91,0,0,0,820.37,266.48Z"/><rect class="cls-12" x="811.09" y="271.22" width="0.58" height="47.71"/><rect class="cls-12" x="810.79" y="276.34" width="4.42" height="0.58" transform="matrix(0.77, -0.64, 0.64, 0.77, 12.19, 586.79)"/><path class="cls-12" d="M796.82,300.35a12.54,12.54,0,0,0,10.88,1.89,12.75,12.75,0,0,0-5.18-7.42,12.38,12.38,0,0,0-10.9-1.81A12.87,12.87,0,0,0,796.82,300.35Z"/><polygon class="cls-12" points="811.05 303.81 811.29 303.28 807.27 301.45 807.02 301.98 811.05 303.81"/><polygon class="cls-12" points="811.08 291.41 811.58 291.71 813.87 287.93 813.37 287.63 811.08 291.41"/><rect class="cls-12" x="810.19" y="282.28" width="0.58" height="2.65" transform="translate(73.7 724.59) rotate(-50.19)"/><rect class="cls-12" x="810.7" y="286.74" width="0.58" height="0.8" transform="translate(255.56 944.14) rotate(-69.29)"/><path class="cls-12" d="M816.56,293.3c3.07-3.79,7.19-5.91,10.71-5.89a16.19,16.19,0,0,1-3.75,9c-3.08,3.78-7.19,5.91-10.71,5.89A16,16,0,0,1,816.56,293.3Z"/><path class="cls-12" d="M811.75,306a14.81,14.81,0,0,1,7.61-4.6c5.11-1.3,10.13.06,13,3.11a14.7,14.7,0,0,1-7.61,4.6C819.62,310.45,814.6,309.09,811.75,306Z"/><polygon class="cls-12" points="811.46 303.9 811.09 303.45 813.12 301.76 813.5 302.21 811.46 303.9"/><rect class="cls-12" x="811.38" y="306.08" width="0.8" height="0.59" transform="translate(-55.89 303.83) rotate(-20.51)"/><path class="cls-12" d="M808.65,312a10.54,10.54,0,0,0-4.67-4.27c-3.39-1.62-7.08-1.37-9.49.36a10.54,10.54,0,0,0,4.67,4.27C802.54,314,806.24,313.71,808.65,312Z"/><path class="cls-11" d="M838.17,333.79a39,39,0,0,1-36,5.22,38.89,38.89,0,0,1,51.93-37.9A39,39,0,0,1,838.17,333.79Z"/><rect class="cls-13" x="798.81" y="320.68" width="56.78" height="0.63" transform="translate(-30.28 549.1) rotate(-36.11)"/><rect class="cls-13" x="836.21" y="306" width="9.64" height="0.63" transform="translate(465.43 1118.77) rotate(-85.2)"/><rect class="cls-13" x="827.37" y="310.59" width="11.88" height="0.63" transform="translate(453.78 1115.28) rotate(-85.2)"/><rect class="cls-13" x="815.89" y="312.32" width="19.86" height="0.63" transform="translate(445.2 1109.4) rotate(-85.2)"/><rect class="cls-13" x="808.31" y="318.3" width="19.32" height="0.63" transform="translate(432.05 1107.06) rotate(-85.2)"/><rect class="cls-13" x="804.42" y="328.27" width="10.76" height="0.63" transform="translate(414.74 1108.11) rotate(-85.21)"/><polygon class="cls-13" points="851 313.03 841.61 310.87 841.75 310.25 851.14 312.42 851 313.03"/><polygon class="cls-13" points="848.42 319.95 833.78 316.58 833.93 315.96 848.57 319.34 848.42 319.95"/><rect class="cls-13" x="834.88" y="314.69" width="0.63" height="18.81" transform="translate(331.7 1065.09) rotate(-77.01)"/><polygon class="cls-13" points="836.97 332.33 818.14 327.99 818.28 327.38 837.11 331.72 836.97 332.33"/><polygon class="cls-13" points="826.49 337.43 810.32 333.7 810.46 333.08 826.63 336.81 826.49 337.43"/><path class="cls-10" d="M806.5,351.21l-.9-.2c16.25-74.91,47.24-106.55,47.55-106.86l.66.65C853.5,245.11,822.69,276.59,806.5,351.21Z"/><path class="cls-10" d="M801.17,343.37h-.92c.19-44.25,19.47-83.75,19.67-84.15l.83.41C820.55,260,801.37,299.35,801.17,343.37Z"/><path class="cls-10" d="M818.08,346.24h-.93c.18-21.27,8.11-35.34,14.72-43.41a51.85,51.85,0,0,1,14.51-12.54l.42.82C846.52,291.25,818.42,306.1,818.08,346.24Z"/><path class="cls-10" d="M857.15,238.31c6.38,3.8,10.3,9,8.76,11.55s-7.95,1.61-14.33-2.19-10.31-9-8.77-11.55S850.77,234.51,857.15,238.31Z"/><path class="cls-14" d="M855.25,241.5c2,1.21,3.27,2.85,2.78,3.67s-2.53.51-4.55-.7-3.27-2.84-2.79-3.66S853.22,240.3,855.25,241.5Z"/><path class="cls-10" d="M821.86,256.86c2.66,1.58,4.29,3.73,3.65,4.81s-3.31.67-6-.91-4.29-3.74-3.65-4.81S819.21,255.28,821.86,256.86Z"/><path class="cls-14" d="M821.07,258.19c.84.5,1.36,1.18,1.16,1.52s-1.05.22-1.9-.28-1.36-1.19-1.16-1.53S820.23,257.69,821.07,258.19Z"/><path class="cls-10" d="M848.69,288.65c2.77,2.86,4.08,6.09,2.92,7.22s-4.35-.29-7.12-3.15-4.08-6.09-2.92-7.21S845.91,285.79,848.69,288.65Z"/><path class="cls-14" d="M847.26,290c.88.91,1.29,1.94.92,2.29s-1.38-.09-2.26-1-1.29-1.93-.92-2.29S846.38,289.13,847.26,290Z"/><path class="cls-12" d="M762.78,350.53c16,2.37,14,12.9,15.17,15.28,8.22,17,10,21.6,29,17.28,9.45-2.14,7.48,13.3,29.87,10.17,16.56-2.32,24.41,8.9,32.33,8.16,12.94-1.21,25-20.88,19.69-26.54-3-3.23-28.23-5.58-13.65-11.59,18.2-7.5,11-13,.75-11-4.08.79-42,5.1-35,.08,25.61-18.35,8.09-17.22-8.39-10-9.09,4-16.91.37-17.92-2.38-2.66-7.2-20.84-8.4-29.48-10.52C747.45,320.27,728.43,345.44,762.78,350.53Z"/><path class="cls-10" d="M872,364.75a49.4,49.4,0,0,0-27-.35c19.31-11.71,42.1-28.54,23-32.39-6-1.2-15.61,2.41-26.52,8.39,12.73-13.14,20.07-24.21,13.29-27-6.29-2.57-20.48,7.79-35.84,21.83,9.11-12.1,14.72-22.86,11.58-28.44-2.55-4.56-9.24-.17-17.23,8.35,1-8-.79-13.07-6-12.54-4.87.5-9.57,9.47-13.32,20.39-2.87-16.46-12.77-27.68-24.35-25.83l-5.69,65.17c.25,1.12.49,2.19.73,3.21,0,0,81,30.5,115.91,10.12C884.73,373.26,880.83,367.52,872,364.75Z"/><path class="cls-13" d="M806.25,318.1l.25-.18-.13-.05c-1.13-.44-1.87-1.28-1.63-1.88s1.34-.71,2.47-.27l.28.13a.68.68,0,0,0,0-.14c-.18-1.2.18-2.26.81-2.35s1.28.8,1.47,2l0,.3.11-.09c1-.76,2-1,2.44-.47s-.05,1.51-1,2.27l-.25.19.13,0c1.13.45,1.87,1.29,1.63,1.88s-1.34.71-2.47.27l-.28-.12s0,.09,0,.13c.19,1.21-.18,2.26-.81,2.36s-1.29-.81-1.47-2l0-.31-.11.09c-1,.76-2,1-2.44.48S805.3,318.86,806.25,318.1Zm2.72.82a1.19,1.19,0,1,0-1.36-1A1.2,1.2,0,0,0,809,318.92Z"/><path class="cls-12" d="M98.86,438.23c27.52-1.21,51.8.49,67.84,3.21s24.11,6.57,22.05,10.87-13.5,8.71-28.92,13.11a455,455,0,0,1-55.92,11.78c-40.65,6.28-79.31,2.9-89.52-9.7S42.59,440.31,98.86,438.23Z"/><path class="cls-11" d="M173.88,222.61a78.34,78.34,0,1,0,67.3,88A78.43,78.43,0,0,0,173.88,222.61Z"/><path class="cls-10" d="M240.8,288.3l-8.1,11.17-14.27,21.36-5.31-15.17-11.6,5.76L196,297.63l-7.11,6.94-3-1.18-9.35-5.14.56,10.53,7.16,4L166.89,343.4l-6.29,3-3.73-12.71L156,313l-9.87-1.73-3.28-8,7.6-14.67,8.55-.84,4.71,4.07,12.59-1.37-12.44-9.15-11-3.4-.14-3.45,11.64-4.83L160.78,262l12.29-8.5,11.15,5.66,20.24-3.49s8.51-3.18,18-6.66A78.5,78.5,0,0,1,240.8,288.3Z"/><path class="cls-10" d="M122.79,233.46l-5.44,7-9.53,13a1.22,1.22,0,0,0-.12,1.21l4.24,9.33a1.32,1.32,0,0,0,1,.69,1.24,1.24,0,0,0,1.08-.44l5.52-6.86,7.68,12.34-19.83,13.5-10.16-.38a1.22,1.22,0,0,0-1.13.65l-3,5.86a1.25,1.25,0,0,0,0,1.16L98.7,300l-10.16-6.41L86,289.44A78.16,78.16,0,0,1,122.79,233.46Z"/><path class="cls-10" d="M108,328.08l-5.1-14.29,9.3-15.19,18.55,21.87-22.59,34.15-2.54-8.76L108,328.65A1.11,1.11,0,0,0,108,328.08Z"/><path class="cls-10" d="M135.53,257.2l-6.33-19.47c13.51-4.76,22.2-5.08,25.52-5l-6,16.38Z"/><path class="cls-15" d="M531.55,154.85l3.62-14.36-7.29-3.59a45.53,45.53,0,0,0-.39-6.36l7.15-3.8-4-14.24-9,.59a45.18,45.18,0,0,0-3.07-4.7l4.71-7.54-10.64-10.3-7.95,5.32a47.68,47.68,0,0,0-4.54-2.37l.33-9.38-14.36-3.61-4.29,8.73a47,47,0,0,0-5,.12L472.36,81l-14.24,4.06.62,9.41a47.68,47.68,0,0,0-4.59,2.71l-7.68-4.8-10.3,10.64,4.88,7.29a49.06,49.06,0,0,0-3,5.16l-8.32-.29-3.61,14.36,7.09,3.49a46.48,46.48,0,0,0,0,6.78l-6.55,3.48,4.06,14.24,7-.46a48.8,48.8,0,0,0,3.78,6.52L438,169.2l10.63,10.31,5.36-3.59a47.34,47.34,0,0,0,7,3.91l-.22,6.1,14.36,3.62L478,184a47.3,47.3,0,0,0,8.14-.28l2.85,5.36L503.18,185l-.43-6.52a47.46,47.46,0,0,0,6.59-4.24l5.49,3.43L525.13,167l-4-6a47.42,47.42,0,0,0,3.22-6.41Zm-45.5,1.29a20.31,20.31,0,1,1,14-25.09A20.3,20.3,0,0,1,486.05,156.14Z"/><path class="cls-11" d="M471.89,106.42A31.39,31.39,0,1,0,510.68,128,31.39,31.39,0,0,0,471.89,106.42Zm15.41,54.13a24.88,24.88,0,1,1,17.12-30.75A24.88,24.88,0,0,1,487.3,160.55Z"/><path class="cls-11" d="M636.64,95.61l3.64-14.46-7.34-3.61a46,46,0,0,0-.39-6.4l7.2-3.83L635.67,53l-9,.6a47.09,47.09,0,0,0-3.1-4.74l4.74-7.58-10.7-10.38-8,5.36A46.29,46.29,0,0,0,605,33.83l.33-9.44-14.46-3.64-4.32,8.79a45.3,45.3,0,0,0-5.07.13L577,21.27l-14.35,4.09.63,9.48a48.48,48.48,0,0,0-4.63,2.73L551,32.73,540.58,43.44l4.91,7.35a48.79,48.79,0,0,0-3,5.2l-8.37-.3-3.64,14.47,7.14,3.51a47.16,47.16,0,0,0,0,6.83L531,84l4.08,14.34,7.09-.47a47.23,47.23,0,0,0,3.8,6.57l-3.52,5.63,10.71,10.38,5.4-3.61a47.86,47.86,0,0,0,7.07,3.93l-.22,6.15,14.47,3.64,2.77-5.64a47.15,47.15,0,0,0,8.21-.28l2.86,5.39L608.06,126l-.43-6.56a47.57,47.57,0,0,0,6.64-4.27l5.52,3.45,10.38-10.7-4-6.05a48.79,48.79,0,0,0,3.25-6.46Zm-44.57,5.74a25.06,25.06,0,1,1,17.24-31A25.06,25.06,0,0,1,592.07,101.35Z"/><path class="cls-10" d="M575.36,42.64A36,36,0,1,0,619.82,67.4,36,36,0,0,0,575.36,42.64Zm17.66,62a28.52,28.52,0,1,1,19.62-35.24A28.52,28.52,0,0,1,593,104.68Z"/><rect class="cls-16" x="176.65" y="145.56" width="439.39" height="247.42"/><rect class="cls-9" x="176.82" y="145.5" width="439.39" height="6.41"/><rect class="cls-17" x="184.6" y="148.45" width="10.57" height="0.61"/><rect class="cls-17" x="198.18" y="148.45" width="10.57" height="0.61"/><rect class="cls-17" x="211.76" y="148.45" width="10.58" height="0.61"/><rect class="cls-17" x="225.34" y="148.45" width="10.58" height="0.61"/><rect class="cls-17" x="238.92" y="148.45" width="10.58" height="0.61"/><rect class="cls-17" x="252.5" y="148.45" width="10.58" height="0.61"/><rect class="cls-17" x="266.08" y="148.45" width="10.58" height="0.61"/><rect class="cls-17" x="279.67" y="148.45" width="10.58" height="0.61"/><rect class="cls-17" x="179.9" y="147.67" width="1.99" height="2.17"/><rect class="cls-16" x="176.82" y="151.21" width="439.39" height="7.66"/><rect class="cls-18" x="586.73" y="152.88" width="27.88" height="4.83"/><rect class="cls-19" x="582.04" y="154.8" width="1.09" height="0.99"/><rect class="cls-18" x="565.09" y="154.79" width="14.68" height="1"/><rect class="cls-20" x="186.58" y="154.02" width="1.99" height="2.17"/><rect class="cls-20" x="179.9" y="154.02" width="1.99" height="2.17"/><rect class="cls-20" x="190.95" y="154.02" width="1.99" height="2.17"/><rect class="cls-21" x="232.72" y="163.89" width="91.85" height="2.94"/><rect class="cls-22" x="240.31" y="174.71" width="15.19" height="2.94"/><rect class="cls-22" x="240.31" y="185.53" width="15.19" height="2.94"/><rect class="cls-22" x="240.31" y="196.35" width="15.19" height="2.94"/><rect class="cls-21" x="285.2" y="174.71" width="46.61" height="2.94"/><rect class="cls-21" x="285.2" y="185.53" width="46.61" height="2.94"/><rect class="cls-21" x="285.2" y="196.35" width="46.61" height="2.94"/><rect class="cls-23" x="262.07" y="174.71" width="10.7" height="2.94"/><rect class="cls-23" x="262.07" y="185.53" width="10.7" height="2.94"/><rect class="cls-23" x="262.07" y="196.35" width="10.7" height="2.94"/><rect class="cls-24" x="277.39" y="174.71" width="2.85" height="2.94"/><rect class="cls-24" x="277.39" y="185.53" width="2.85" height="2.94"/><rect class="cls-24" x="277.39" y="196.35" width="2.85" height="2.94"/><rect class="cls-24" x="233.06" y="174.71" width="2.85" height="2.94"/><rect class="cls-24" x="233.06" y="185.53" width="2.85" height="2.94"/><rect class="cls-24" x="233.06" y="196.35" width="2.85" height="2.94"/><rect class="cls-22" x="240.31" y="217.99" width="23.48" height="2.94"/><rect class="cls-21" x="296.25" y="217.99" width="35.56" height="2.94"/><rect class="cls-23" x="270.35" y="217.99" width="13.46" height="2.94"/><rect class="cls-24" x="288.44" y="217.99" width="2.85" height="2.94"/><rect class="cls-21" x="333.2" y="239.63" width="110.15" height="2.94"/><rect class="cls-23" x="271.73" y="239.63" width="52.83" height="2.94"/><rect class="cls-21" x="373.25" y="217.99" width="35.57" height="2.94"/><rect class="cls-23" x="341.83" y="217.99" width="18.99" height="2.94"/><rect class="cls-24" x="365.44" y="217.99" width="2.85" height="2.94"/><rect class="cls-24" x="412.4" y="217.99" width="2.85" height="2.94"/><rect class="cls-24" x="233.06" y="217.99" width="2.85" height="2.94"/><rect class="cls-22" x="240.31" y="261.27" width="23.48" height="2.94"/><rect class="cls-23" x="233.06" y="261.27" width="2.85" height="2.94"/><rect class="cls-23" x="268.28" y="261.27" width="2.85" height="2.94"/><rect class="cls-22" x="222.36" y="304.55" width="23.48" height="2.94"/><rect class="cls-23" x="215.11" y="304.55" width="2.85" height="2.94"/><rect class="cls-23" x="250.33" y="304.55" width="2.85" height="2.94"/><rect class="cls-24" x="252.74" y="250.45" width="2.85" height="2.94"/><rect class="cls-22" x="252.74" y="228.81" width="13.81" height="2.94"/><rect class="cls-24" x="271.73" y="228.81" width="53.85" height="2.94"/><rect class="cls-21" x="364.62" y="174.71" width="46.61" height="2.94"/><rect class="cls-21" x="364.62" y="185.53" width="46.61" height="2.94"/><rect class="cls-21" x="364.62" y="196.35" width="46.61" height="2.94"/><rect class="cls-21" x="413.65" y="174.71" width="81.49" height="2.94"/><rect class="cls-21" x="413.65" y="185.53" width="111.53" height="2.94"/><rect class="cls-21" x="413.65" y="196.35" width="131.55" height="2.94"/><rect class="cls-23" x="341.48" y="174.71" width="10.7" height="2.94"/><rect class="cls-23" x="341.48" y="185.53" width="10.7" height="2.94"/><rect class="cls-23" x="341.48" y="196.35" width="10.7" height="2.94"/><rect class="cls-24" x="356.81" y="174.71" width="2.85" height="2.94"/><rect class="cls-24" x="356.81" y="185.53" width="2.85" height="2.94"/><rect class="cls-24" x="356.81" y="196.35" width="2.85" height="2.94"/><rect class="cls-24" x="505.84" y="174.71" width="2.85" height="2.94"/><rect class="cls-24" x="533.25" y="185.53" width="2.85" height="2.94"/><rect class="cls-24" x="551.89" y="196.35" width="2.85" height="2.94"/><rect class="cls-25" x="232.72" y="207.17" width="91.85" height="2.94"/><rect class="cls-22" x="221.67" y="327.56" width="15.19" height="2.94"/><rect class="cls-22" x="257.23" y="349.2" width="15.19" height="2.94"/><rect class="cls-21" x="302.12" y="349.2" width="100.82" height="2.94"/><rect class="cls-23" x="233.75" y="338.38" width="147.78" height="2.94"/><rect class="cls-23" x="278.99" y="349.2" width="10.7" height="2.94"/><rect class="cls-24" x="294.31" y="349.2" width="2.85" height="2.94"/><rect class="cls-24" x="214.41" y="327.56" width="2.85" height="2.94"/><rect class="cls-24" x="240.31" y="327.56" width="2.85" height="2.94"/><rect class="cls-22" x="277.6" y="360.02" width="6.91" height="2.94"/><rect class="cls-24" x="270.35" y="360.02" width="2.85" height="2.94"/><rect class="cls-24" x="287.96" y="360.02" width="2.85" height="2.94"/><rect class="cls-22" x="296.94" y="381.66" width="6.91" height="2.94"/><rect class="cls-24" x="289.69" y="381.66" width="2.85" height="2.94"/><rect class="cls-24" x="307.3" y="381.66" width="2.85" height="2.94"/><rect class="cls-24" x="249.98" y="349.2" width="2.85" height="2.94"/><rect class="cls-23" x="290.04" y="370.84" width="228.58" height="2.94"/><rect class="cls-24" x="406.4" y="349.2" width="2.85" height="2.94"/><rect class="cls-25" x="232.72" y="272.09" width="126.37" height="2.94"/><rect class="cls-25" x="232.72" y="282.91" width="187.15" height="2.94"/><rect class="cls-25" x="232.72" y="293.73" width="63.53" height="2.94"/><rect class="cls-22" x="182.3" y="163.89" width="6.91" height="2.94"/><rect class="cls-22" x="182.3" y="174.71" width="6.91" height="2.94"/><rect class="cls-22" x="182.3" y="185.53" width="6.91" height="2.94"/><rect class="cls-22" x="182.3" y="196.35" width="6.91" height="2.94"/><rect class="cls-22" x="182.3" y="207.17" width="6.91" height="2.94"/><rect class="cls-22" x="182.3" y="217.99" width="6.91" height="2.94"/><rect class="cls-22" x="182.3" y="228.81" width="6.91" height="2.94"/><rect class="cls-22" x="182.3" y="239.63" width="6.91" height="2.94"/><rect class="cls-22" x="182.3" y="250.45" width="6.91" height="2.94"/><rect class="cls-22" x="182.3" y="261.27" width="6.91" height="2.94"/><rect class="cls-22" x="182.3" y="272.09" width="6.91" height="2.94"/><rect class="cls-22" x="182.3" y="282.91" width="6.91" height="2.94"/><rect class="cls-22" x="182.3" y="293.73" width="6.91" height="2.94"/><rect class="cls-22" x="182.3" y="304.55" width="6.91" height="2.94"/><rect class="cls-22" x="182.3" y="315.37" width="6.91" height="2.94"/><rect class="cls-22" x="182.3" y="326.19" width="6.91" height="2.94"/><rect class="cls-22" x="182.3" y="337.01" width="6.91" height="2.94"/><rect class="cls-13" x="381.6" y="186.92" width="418.35" height="206.85"/><rect class="cls-9" x="390.82" y="216.65" width="202.48" height="113.55"/><rect class="cls-26" x="390.81" y="330.97" width="202.49" height="55.47"/><rect class="cls-27" x="597.42" y="216.65" width="194.64" height="53.37"/><path class="cls-9" d="M795.72,158.64H385.77a4.06,4.06,0,0,0-4.17,3.92v24.5H799.9v-24.5A4.06,4.06,0,0,0,795.72,158.64Z"/><path class="cls-17" d="M390.47,166.29a2.53,2.53,0,1,1-2.53-2.53A2.54,2.54,0,0,1,390.47,166.29Z"/><path class="cls-17" d="M397.92,166.29a2.54,2.54,0,1,1-2.54-2.53A2.54,2.54,0,0,1,397.92,166.29Z"/><path class="cls-17" d="M405.35,166.29a2.53,2.53,0,1,1-2.53-2.53A2.54,2.54,0,0,1,405.35,166.29Z"/><rect class="cls-13" x="416.06" y="172.38" width="326.94" height="11"/><polygon class="cls-17" points="388.86 181.39 384.88 177.4 388.86 173.42 390.34 174.9 387.84 177.4 390.34 179.91 388.86 181.39"/><rect class="cls-17" x="387.24" y="176.35" width="7.36" height="2.09"/><polygon class="cls-17" points="405.74 181.39 404.26 179.91 406.77 177.4 404.26 174.9 405.74 173.42 409.73 177.4 405.74 181.39"/><rect class="cls-17" x="400" y="176.35" width="7.36" height="2.09"/><rect class="cls-27" x="747.28" y="172.38" width="32.12" height="9.81"/><rect class="cls-9" x="432.86" y="199.87" width="32.49" height="3.52"/><rect class="cls-9" x="470.13" y="199.87" width="32.48" height="3.52"/><rect class="cls-9" x="507.4" y="199.87" width="32.49" height="3.52"/><rect class="cls-9" x="544.67" y="199.87" width="32.48" height="3.52"/><rect class="cls-9" x="581.93" y="199.87" width="32.48" height="3.52"/><rect class="cls-9" x="737.94" y="193.99" width="52.45" height="2.64"/><rect class="cls-9" x="749.05" y="200.31" width="41.33" height="2.64"/><rect class="cls-27" x="390.82" y="196.93" width="34.34" height="9.39"/><rect class="cls-27" x="400.33" y="338.73" width="73.26" height="3.65"/><rect class="cls-9" x="400.33" y="346.55" width="177.76" height="2.74"/><rect class="cls-9" x="399.57" y="352.94" width="155.22" height="2.74"/><rect class="cls-27" x="398.95" y="363.73" width="35.63" height="9.74"/><rect class="cls-13" x="407.02" y="367.23" width="19.52" height="2.74"/><rect class="cls-13" x="605.37" y="227.46" width="74.64" height="3.65"/><rect class="cls-9" x="605.37" y="235.28" width="179.14" height="2.74"/><rect class="cls-9" x="605.37" y="241.67" width="155.84" height="2.74"/><rect class="cls-13" x="605.37" y="252.46" width="35.63" height="9.74"/><rect class="cls-28" x="613.44" y="255.96" width="19.51" height="2.74"/><rect class="cls-26" x="597.23" y="330.97" width="95.28" height="55.47"/><rect class="cls-27" x="606.26" y="338.73" width="54.65" height="3.65"/><rect class="cls-9" x="606.26" y="346.55" width="62.34" height="2.74"/><rect class="cls-9" x="606" y="352.94" width="54.44" height="2.74"/><rect class="cls-27" x="605.37" y="363.73" width="35.64" height="9.74"/><rect class="cls-13" x="613.44" y="367.23" width="19.51" height="2.74"/><rect class="cls-27" x="597.23" y="274.64" width="95.28" height="55.56"/><rect class="cls-26" x="696.98" y="330.97" width="95.27" height="55.47"/><rect class="cls-27" x="706.01" y="338.73" width="54.65" height="3.65"/><rect class="cls-9" x="706.01" y="346.55" width="62.35" height="2.74"/><rect class="cls-9" x="705.75" y="352.94" width="54.44" height="2.74"/><rect class="cls-27" x="705.12" y="363.73" width="35.64" height="9.74"/><rect class="cls-13" x="713.19" y="367.23" width="19.51" height="2.74"/><rect class="cls-27" x="696.98" y="274.64" width="95.27" height="55.56"/><path class="cls-9" d="M631.47,290.64v25.72h32.36V290.64Zm30.09,23.45H633.73V292.91h27.83Z"/><path class="cls-9" d="M644.93,298.13a2.65,2.65,0,1,1-2.65-2.65A2.65,2.65,0,0,1,644.93,298.13Z"/><polygon class="cls-9" points="660.2 304.22 653.85 299.26 645.38 306.22 639.33 303.8 635.1 305.72 635.1 312.73 660.2 312.73 660.2 304.22"/><path class="cls-9" d="M730.92,290.64v25.72h32.37V290.64ZM761,314.09H733.19V292.91H761Z"/><path class="cls-9" d="M744.38,298.13a2.65,2.65,0,1,1-2.65-2.65A2.65,2.65,0,0,1,744.38,298.13Z"/><polygon class="cls-9" points="759.66 304.22 753.3 299.26 744.83 306.22 738.78 303.8 734.55 305.72 734.55 312.73 759.66 312.73 759.66 304.22"/><path class="cls-13" d="M505.55,277.05v-2.83a1.6,1.6,0,0,0-1.59-1.6H481.21a1.6,1.6,0,0,0-1.59,1.6v14.53a1.59,1.59,0,0,0,1.59,1.59H504a1.59,1.59,0,0,0,1.59-1.59v-2.84l8.6,4.27V272.79Z"/><path class="cls-13" d="M485.85,272a5.46,5.46,0,1,0-5.46-5.45A5.45,5.45,0,0,0,485.85,272Z"/><path class="cls-13" d="M497.55,272a5.46,5.46,0,1,0-5.45-5.45A5.45,5.45,0,0,0,497.55,272Z"/><path class="cls-22" d="M245.27,144.1s29.28.07,40.58.24c7.82.11,8.53-11,5.44-12.71-9.36-5.1-38.57-7.71-38.57-7.71l-19.87,18.24S234,142.13,245.27,144.1Z"/><path class="cls-29" d="M272.88,84.37s7.52-2.11,10.8,7.72c5,15.08,4.58,28.91,3.88,31.86-.32,1.36-1.29,6-9.7,6.23-3.41.07-2-7.24-2-7.24a158.09,158.09,0,0,1-4.52-16.71C269,95.74,272.88,84.37,272.88,84.37Z"/><path class="cls-30" d="M278.83,85.21,259.53,79l-14.62-1-16,4.84s-5.24,3.61-.38,15.22,3,29.79,3,29.79l41.31,1.32a337.11,337.11,0,0,1,3.51-33.62C277,91.79,277,87.37,278.83,85.21Z"/><path class="cls-29" d="M250.5,128.35h2.1a175.16,175.16,0,0,0-.32-49.15l-1.91,1.13C250.9,96.87,250,113.41,250.5,128.35Z"/><path class="cls-31" d="M258.7,83.52c-.28,2.23-2.11,4.17-4,4.26h-5.46c-1.92-.09-3.74-2-4-4.26q-.67-5.52-1.34-11c-.3-2.21,1-6.64,3.91-8a10.48,10.48,0,0,1,8.36,0c2.9,1.31,4.21,5.74,3.92,8Z"/><polygon class="cls-29" points="251.73 88.05 248.27 93.74 241.92 85.79 242.92 81.62 244.98 79.93 245.01 83.07 251.73 88.05"/><polygon class="cls-29" points="252.15 88.05 255.62 93.74 261.52 86.34 260.56 81.81 259.07 79.9 258.47 83.61 252.15 88.05"/><path class="cls-32" d="M251.12,57.52a4.36,4.36,0,0,0-3.65,2H246a3.38,3.38,0,0,0-3.38,3.38v8.36H245v-3.4a2.39,2.39,0,0,1,2.38-2.38H248a4.36,4.36,0,0,0,4.37-4.36V57.52Z"/><path class="cls-31" d="M246.91,74.35a2.07,2.07,0,0,1-2.08,2.07h-.17a2.07,2.07,0,0,1-2.07-2.07V71.84a2.08,2.08,0,0,1,2.07-2.08h.17a2.07,2.07,0,0,1,1.9,1.24Z"/><path class="cls-32" d="M249.27,60.85V57.52h7.17a4.37,4.37,0,0,1,4.36,4.37v3.32h-7.17A4.36,4.36,0,0,1,249.27,60.85Z"/><path class="cls-24" d="M260.19,77.53c0,1.73-1.33,4.67-3.53,5.6a12.67,12.67,0,0,1-9.51,0c-2.21-.93-3.53-3.86-3.54-5.6V62.75c0-1.75,1.73-3.22,3.89-3.26h8.81c2.15,0,3.89,1.51,3.88,3.26Z"/><path class="cls-32" d="M253.6,57.52a4.36,4.36,0,0,1,3.65,2h1.5a3.38,3.38,0,0,1,3.38,3.38v8.36h-2.38v-3.4a2.39,2.39,0,0,0-2.38-2.38h-3A4.37,4.37,0,0,1,250,61.1V57.52Z"/><path class="cls-24" d="M257.85,71.83a2.07,2.07,0,0,1,2.07-2.07h.17a2.07,2.07,0,0,1,2.07,2.07v2.52a2.07,2.07,0,0,1-2.07,2.07h-.17a2.09,2.09,0,0,1-1.9-1.23Z"/><path class="cls-32" d="M250,61.7a4,4,0,0,0,.09-.85V57.52H247a4.37,4.37,0,0,0-4.37,4.37v3.32h3.09a4.43,4.43,0,0,0,.9-.09A4.38,4.38,0,0,1,250,61.7Z"/><path class="cls-33" d="M211.63,200.08c-.45.54-.12,2-.12,2s7.88.88,10.42.28a13.16,13.16,0,0,0,2.82-1.32c.17-.1.49-.71.66-.81.32-.18.48.13.75,0a9,9,0,0,0,1.21-.83c.69-3.62-.23-5.07-.23-5.07s-6.71-2.23-8-.68C216.21,197.25,212.62,198.88,211.63,200.08Z"/><path class="cls-33" d="M285.29,196.15l.54,5.95,6,.58s.41-.79.92-.74.89.92,1.47,1l3.2.31,12,1.17s.39-1.2.1-1.66a6,6,0,0,0-1.75-1c-3-1.17-11.54-4.73-12.79-7.82C293.39,190.2,285.29,196.15,285.29,196.15Z"/><path class="cls-24" d="M276.27,120.78,256.12,129s14.3,2,23.23.22C285.4,128,276.55,120.52,276.27,120.78Z"/><path class="cls-22" d="M230.53,133.32s-1.94,18.4-1.66,28.13c.21,7.34.23,21.4-1.52,33.39-.1.73-9.48.18-9.48.18s-3.36-45.62-4.36-53.13S215.42,129,230.53,133.32Z"/><path class="cls-34" d="M289.48,137.76s-3,4.77-11.3,5.89c-3,.41,4.83,53.4,4.83,53.4l12.24-3.91-2.37-58.61Z"/><path class="cls-34" d="M255.71,143.65s-16,2.29-26.68,3.41c-3.91.41-7.31-10.55-7.76-11a8.09,8.09,0,0,0-5.58-2.72c2.31-2.51,14.3-4.83,26.82-7.76s14.43-1.09,14.43-1.09Z"/><path class="cls-22" d="M242.51,125.55c-12.52,2.93-24.51,5.25-26.82,7.76a8.09,8.09,0,0,1,5.58,2.72c.12.13.85,3.64,1.36,4.9-2-3.67,27.39-14.05,33.75-16.73C255.19,123.82,251.73,123.38,242.51,125.55Z"/><polygon class="cls-34" points="228.76 143.52 227.53 179.33 226.31 187.63 226.17 179.33 226.44 174.15 223.59 166.12 222.09 147.47 224.27 148.28 223.99 140.12 228.76 143.52"/><path class="cls-22" d="M289.07,133.31l3,.82,1.09,43-6.27,15.38,3-10.48-1.23-21.65s-4.36,10.48-4.36,9.94S288,147.6,288,147.6s-4.08,3.41-3.68,3.27S286.76,135.35,289.07,133.31Z"/><path class="cls-30" d="M237.75,83s-6.43-5-12.72,4.31c-9.23,13.71-13.23,28.29-14.7,32.51-1.12,3.24-.5,12.38,3.27,16.16.91.9,6.36.18,6.36.18l3.57-2.48-1.5-2.87-.08-2.28s4.57-11,10.19-21.45S237.75,83,237.75,83Z"/><path class="cls-24" d="M222,124.92,242.91,126s-20.11,9.23-20.78,7.64C218.36,124.63,222,124.92,222,124.92Z"/><path class="cls-24" d="M233.52,124.28c1.22-.59,1.11-.6,1.11-.6a4.93,4.93,0,0,0,2.73,1.57c.8.13,3.39.16,3.39.16l3.85.09,1.78-.1a3.33,3.33,0,0,1,1.28,0c.77.5.11.9.11.9l-6.89,1,6.62.82s.83.24.87.69-.24.41-.24.41l-7.7.82,3.38.81s.81.26.87.7a4,4,0,0,0,.1.6l-7.08-.69S232.3,124.86,233.52,124.28Z"/><path class="cls-24" d="M241.16,128.54l4.63.84a3.86,3.86,0,0,1,1.52.42.62.62,0,0,1,.23.86l-7.11-.6Z"/><path class="cls-35" d="M270.19,132.18s0,0,0,0l0-1.32H229.05v1.32a0,0,0,0,0,0,0l.13.24c.71,1.15,2,1.35,3.4,1.35h34.07c1.44,0,2.7-.2,3.4-1.35Z"/><rect class="cls-36" x="236.01" y="131.13" width="27.24" height="0.93"/><path class="cls-37" d="M270.17,131l.11-27A1.29,1.29,0,0,0,269,102.7H230.48a1.29,1.29,0,0,0-1.29,1.29l-.11,27Z"/><path class="cls-35" d="M252.17,116.83a2.5,2.5,0,0,1-2.5,2.49,2.49,2.49,0,1,1,2.5-2.49Z"/><polygon class="cls-29" points="219.32 135.35 217.88 126.19 220.26 123.75 225.54 124.59 224.46 134.73 219.32 135.35"/><polygon class="cls-30" points="283.35 128.78 283.9 125.41 277.23 119.42 273.62 121.05 278.34 130.08 283.35 128.78"/><path class="cls-10" d="M522.09,59.35l-.11-5-4.45-.27a13.79,13.79,0,0,0-1.84-4.51L518.58,46,515,42.54l-3.34,3a13.62,13.62,0,0,0-4.49-1.87l-.48-4.57-5,.1-.27,4.46a13.45,13.45,0,0,0-4.51,1.84l-3.57-2.89-3.46,3.61,3,3.34A13.43,13.43,0,0,0,490.93,54l-4.57.48.11,5,4.44.27a13.54,13.54,0,0,0,1.85,4.5l-2.89,3.57,3.61,3.46,3.34-3a13.63,13.63,0,0,0,4.49,1.88l.48,4.57,5-.11.28-4.45a13.58,13.58,0,0,0,4.49-1.85l3.57,2.9,3.47-3.61-3-3.34a13.63,13.63,0,0,0,1.88-4.49Zm-17.72,4.16a6.6,6.6,0,1,1,6.46-6.74A6.6,6.6,0,0,1,504.37,63.51Z"/><path class="cls-22" d="M147.81,60.29v40.27a5.39,5.39,0,0,0,5.4,5.39h50.94a5.39,5.39,0,0,0,5.4-5.39v-12l2.7-2.7,5.39-5.39L212.25,75l-2.7-2.7v-12a5.39,5.39,0,0,0-5.4-5.39H153.21A5.39,5.39,0,0,0,147.81,60.29Z"/><path class="cls-13" d="M164.53,79.59v.1L172.38,83v4.41l-12-6V77.72l12-5.93v4.4Z"/><path class="cls-13" d="M177.31,90.5H174l7-25.75h3.36Z"/><path class="cls-13" d="M194.36,79.62v-.09l-7.93-3.36V71.79l12.13,5.93v3.74l-12.13,6V83Z"/><path class="cls-21" d="M369.21,87.6H326.49a4.75,4.75,0,0,0-4.74,4.75v33.22a4.75,4.75,0,0,0,4.74,4.75h14.25l2.37,2.37,4.74,4.75,4.75-4.75,2.37-2.37h14.24a4.75,4.75,0,0,0,4.74-4.75V92.35A4.75,4.75,0,0,0,369.21,87.6Z"/><path class="cls-13" d="M339.67,121.79a5.93,5.93,0,0,1-3.41-2.51,8,8,0,0,1-1-4.15v-2.95a4.24,4.24,0,0,0-.49-2.2,1.62,1.62,0,0,0-1.48-.79v-2.9a1.63,1.63,0,0,0,1.48-.78,4.26,4.26,0,0,0,.49-2.21v-3a8,8,0,0,1,1-4.16,5.91,5.91,0,0,1,3.41-2.5l.76,2.25a2.44,2.44,0,0,0-1.23,1.56,9.88,9.88,0,0,0-.35,2.85v3a5.73,5.73,0,0,1-.58,2.64,4.18,4.18,0,0,1-1.78,1.8,4.35,4.35,0,0,1,1.77,1.81,5.63,5.63,0,0,1,.59,2.63v2.95a10.21,10.21,0,0,0,.34,2.84,2.45,2.45,0,0,0,1.24,1.56Z"/><path class="cls-13" d="M354.51,119.53a2.51,2.51,0,0,0,1.24-1.56,9.44,9.44,0,0,0,.36-2.84v-2.95a5.76,5.76,0,0,1,.59-2.64,4.12,4.12,0,0,1,1.8-1.8,4,4,0,0,1-1.8-1.78,5.82,5.82,0,0,1-.59-2.66v-3a9.51,9.51,0,0,0-.36-2.85,2.49,2.49,0,0,0-1.24-1.56l.75-2.25a6,6,0,0,1,3.41,2.5,8,8,0,0,1,1,4.16v3a4.22,4.22,0,0,0,.48,2.21,1.64,1.64,0,0,0,1.51.78v2.9a1.64,1.64,0,0,0-1.51.78,4.26,4.26,0,0,0-.48,2.21v2.95a8,8,0,0,1-1,4.15,6,6,0,0,1-3.41,2.51Z"/><g class="cls-38"><g class="cls-38"><path class="cls-1" d="M743.81,1.15,758.6.08c.83,0,1.67-.08,2.52-.08L746.34,1.07C745.49,1.06,744.65,1.09,743.81,1.15Z"/><g class="cls-39"><g class="cls-38"><path class="cls-40" d="M743.81,1.15,758.6.08c.62,0,1.24-.07,1.87-.08L745.69,1.07c-.63,0-1.26,0-1.88.08Z"/><path class="cls-41" d="M745.69,1.07,760.47,0h.65L746.34,1.07Z"/></g></g></g><g class="cls-38"><path class="cls-2" d="M746.34,1.07,761.12,0c20.26.09,37.4,18.66,40.59,42.66l-14.78,1.07C783.73,19.73,766.6,1.16,746.34,1.07Z"/><g class="cls-42"><g class="cls-38"><path class="cls-43" d="M746.34,1.07,761.12,0c.69,0,1.38,0,2.06.07L748.4,1.14c-.69,0-1.37-.07-2.06-.07Z"/><path class="cls-44" d="M748.4,1.14,763.18.07c.82.06,1.62.14,2.43.26L750.83,1.39c-.81-.11-1.62-.2-2.43-.25Z"/><path class="cls-45" d="M750.83,1.39,765.61.33c.76.1,1.51.24,2.26.39L753.08,1.79c-.74-.16-1.49-.29-2.25-.4Z"/><path class="cls-46" d="M753.08,1.79,767.87.72c.71.15,1.42.33,2.12.52L755.21,2.31c-.7-.19-1.41-.37-2.13-.52Z"/><path class="cls-47" d="M755.21,2.31,770,1.24c.68.19,1.35.41,2,.63L757.22,2.94q-1-.35-2-.63Z"/><path class="cls-48" d="M757.22,2.94,772,1.87c.66.23,1.31.48,2,.75L759.18,3.69c-.65-.27-1.3-.52-2-.75Z"/><path class="cls-49" d="M759.18,3.69,774,2.62c.64.26,1.28.55,1.9.85L761.08,4.54c-.63-.3-1.26-.59-1.9-.85Z"/><path class="cls-50" d="M761.08,4.54l14.78-1.07c.64.31,1.26.63,1.88,1L763,5.52c-.62-.35-1.24-.67-1.88-1Z"/><path class="cls-51" d="M763,5.52l14.78-1.07c.63.35,1.25.72,1.86,1.1L764.82,6.62c-.61-.39-1.23-.76-1.86-1.1Z"/><path class="cls-52" d="M764.82,6.62,779.6,5.55c.63.4,1.25.82,1.86,1.25L766.68,7.87c-.61-.43-1.23-.85-1.86-1.25Z"/><path class="cls-53" d="M766.68,7.87,781.46,6.8q.94.67,1.86,1.41L768.54,9.28q-.91-.74-1.86-1.41Z"/><path class="cls-54" d="M768.54,9.28l14.78-1.07c.66.52,1.29,1.07,1.92,1.63l-14.78,1.07c-.63-.57-1.27-1.11-1.92-1.63Z"/><path class="cls-55" d="M770.46,10.91l14.78-1.07c.67.61,1.34,1.24,2,1.9l-14.78,1.07c-.65-.66-1.31-1.29-2-1.9Z"/><path class="cls-56" d="M772.44,12.81l14.78-1.07c.71.73,1.4,1.49,2.07,2.27l-14.78,1.07c-.67-.79-1.36-1.54-2.07-2.27Z"/><path class="cls-57" d="M774.51,15.08,789.29,14c.78.91,1.53,1.85,2.25,2.83l-14.78,1.07c-.72-1-1.47-1.92-2.25-2.83Z"/><path class="cls-58" d="M776.76,17.91l14.78-1.07c1,1.29,1.85,2.65,2.69,4.05L779.45,22q-1.26-2.12-2.69-4.05Z"/><path class="cls-59" d="M779.45,22l14.78-1.07a56.58,56.58,0,0,1,6.91,18.26l-14.79,1.07A56.34,56.34,0,0,0,779.45,22Z"/><path class="cls-60" d="M786.35,40.22l14.79-1.07q.33,1.74.57,3.51l-14.78,1.07c-.16-1.19-.35-2.36-.58-3.51Z"/></g></g></g><g class="cls-38"><path class="cls-3" d="M792.65,42.54l14.78-1.07c.54,0,1.08,0,1.63,0,15.08.06,27.62,15.14,28,33.67,0,1.34,0,2.66-.12,4l-14.78,1.07c.1-1.31.15-2.63.12-4-.4-18.52-12.94-33.6-28-33.66C793.73,42.49,793.19,42.5,792.65,42.54Z"/><g class="cls-61"><g class="cls-38"><path class="cls-62" d="M792.65,42.54l14.78-1.07,1.24,0-14.78,1.07c-.42,0-.83,0-1.24,0Z"/><path class="cls-63" d="M793.89,42.49l14.78-1.07h.39c.47,0,.93,0,1.4,0l-14.79,1.07c-.46,0-.92,0-1.39,0Z"/><path class="cls-64" d="M795.67,42.54l14.79-1.07c.56,0,1.11.09,1.66.17l-14.78,1.07c-.55-.08-1.11-.14-1.67-.17Z"/><path class="cls-65" d="M797.34,42.71l14.78-1.07c.52.07,1,.16,1.55.27L798.88,43c-.51-.11-1-.2-1.54-.27Z"/><path class="cls-66" d="M798.88,43l14.79-1.07c.48.11,1,.22,1.43.36l-14.78,1.06c-.47-.13-1-.25-1.44-.35Z"/><path class="cls-67" d="M800.32,43.33l14.78-1.06c.47.13.93.27,1.38.43L801.7,43.77c-.45-.16-.92-.31-1.38-.44Z"/><path class="cls-68" d="M801.7,43.77l14.78-1.07c.45.16.9.32,1.34.51L803,44.27c-.44-.18-.89-.35-1.34-.5Z"/><path class="cls-69" d="M803,44.27l14.78-1.06c.43.18.87.37,1.3.58l-14.78,1.07c-.43-.21-.87-.4-1.3-.59Z"/><path class="cls-70" d="M804.34,44.86l14.78-1.07c.43.21.86.43,1.28.66l-14.78,1.07c-.43-.23-.85-.45-1.28-.66Z"/><path class="cls-71" d="M805.62,45.52l14.78-1.07q.63.36,1.26.75l-14.78,1.07q-.63-.39-1.26-.75Z"/><path class="cls-72" d="M806.88,46.27l14.78-1.07c.43.27.86.56,1.28.86l-14.79,1.07c-.42-.3-.84-.59-1.27-.86Z"/><path class="cls-73" d="M808.15,47.13l14.79-1.07c.43.31.86.63,1.28,1L809.43,48.1c-.42-.34-.84-.66-1.28-1Z"/><path class="cls-74" d="M809.43,48.1,824.22,47c.43.35.87.72,1.29,1.1L810.72,49.2c-.42-.38-.85-.75-1.29-1.1Z"/><path class="cls-75" d="M810.72,49.2l14.79-1.07c.45.41.9.84,1.34,1.29l-14.78,1.06c-.44-.44-.89-.87-1.35-1.28Z"/><path class="cls-76" d="M812.07,50.48l14.78-1.06c.49.49,1,1,1.42,1.55L813.49,52c-.47-.54-.94-1.06-1.42-1.56Z"/><path class="cls-77" d="M813.49,52,828.27,51c.53.62,1,1.26,1.53,1.93L815,54c-.49-.67-1-1.31-1.53-1.93Z"/><path class="cls-78" d="M815,54,829.8,52.9c.65.88,1.26,1.8,1.83,2.75l-14.78,1.07A32.81,32.81,0,0,0,815,54Z"/><path class="cls-79" d="M816.85,56.72l14.78-1.07A38.31,38.31,0,0,1,836.31,68l-14.78,1.07a38.54,38.54,0,0,0-4.68-12.33Z"/><path class="cls-80" d="M821.53,69.05,836.31,68c.23,1.13.4,2.28.53,3.44l-14.78,1.07c-.13-1.16-.31-2.31-.53-3.44Z"/><path class="cls-81" d="M822.06,72.49l14.78-1.07c.1.89.17,1.78.21,2.68l-14.78,1.07c0-.9-.11-1.79-.21-2.68Z"/><path class="cls-82" d="M822.27,75.17l14.78-1.07,0,1c0,.39,0,.79,0,1.18L822.3,77.34c0-.4,0-.79,0-1.19l0-1Z"/><path class="cls-83" d="M822.3,77.34l14.79-1.07c0,.73,0,1.46-.09,2.18l-14.78,1.07c0-.72.08-1.45.08-2.18Z"/><path class="cls-84" d="M822.22,79.52,837,78.45c0,.2,0,.41,0,.61l-14.78,1.07c0-.2,0-.41,0-.61Z"/></g></g></g><g class="cls-38"><path class="cls-4" d="M838,109.73l-14.78,1.06c6.52-.47,11.55-7.12,11.38-15.28-.18-8.32-5.72-15.11-12.45-15.38L837,79.06c6.74.27,12.27,7.06,12.45,15.39C849.59,102.61,844.56,109.26,838,109.73Z"/><g class="cls-85"><g class="cls-38"><path class="cls-86" d="M822.18,80.13,837,79.06h.27l-14.78,1.07Z"/><path class="cls-87" d="M822.45,80.14l14.78-1.07c.26,0,.52.05.77.09l-14.78,1.06-.77-.08Z"/><path class="cls-88" d="M823.22,80.22,838,79.16c.24,0,.47.07.7.12l-14.78,1.06-.7-.12Z"/><path class="cls-89" d="M823.92,80.34l14.78-1.06.66.16-14.78,1.07-.66-.17Z"/><path class="cls-90" d="M824.58,80.51l14.78-1.07.63.2-14.78,1.07c-.21-.08-.42-.14-.63-.2Z"/><path class="cls-91" d="M825.21,80.71,840,79.64l.61.23-14.78,1.07a6.37,6.37,0,0,0-.61-.23Z"/><path class="cls-92" d="M825.82,80.94l14.78-1.07.6.27L826.42,81.2l-.6-.26Z"/><path class="cls-93" d="M826.42,81.2l14.78-1.06c.19.09.39.19.58.3L827,81.51l-.58-.31Z"/><path class="cls-94" d="M827,81.51l14.78-1.07c.2.11.39.23.58.35l-14.78,1.06-.58-.34Z"/><path class="cls-95" d="M827.58,81.85l14.78-1.06c.2.12.39.25.59.39l-14.79,1.06-.58-.39Z"/><path class="cls-96" d="M828.16,82.24,843,81.18c.19.14.39.28.58.44l-14.78,1.07c-.2-.16-.39-.31-.59-.45Z"/><path class="cls-97" d="M828.75,82.69l14.78-1.07.59.5-14.78,1.07c-.2-.18-.39-.34-.59-.5Z"/><path class="cls-98" d="M829.34,83.19l14.78-1.07c.21.19.42.39.62.6L830,83.78l-.62-.59Z"/><path class="cls-99" d="M830,83.78l14.78-1.06c.22.22.44.46.65.7L830.6,84.49c-.21-.24-.42-.48-.64-.71Z"/><path class="cls-100" d="M830.6,84.49l14.79-1.07c.24.29.48.59.7.89l-14.78,1.07c-.23-.31-.46-.6-.71-.89Z"/><path class="cls-101" d="M831.31,85.38l14.78-1.07c.29.39.56.8.82,1.23l-14.79,1.07a13.06,13.06,0,0,0-.81-1.23Z"/><path class="cls-102" d="M832.12,86.61l14.79-1.07a17.74,17.74,0,0,1,2.15,5.66l-14.78,1.07a17.52,17.52,0,0,0-2.16-5.66Z"/><path class="cls-103" d="M834.28,92.27l14.78-1.07c.1.51.18,1,.24,1.57l-14.78,1.07c-.06-.53-.14-1.06-.24-1.57Z"/><path class="cls-104" d="M834.52,93.84l14.78-1.07c0,.41.08.81.1,1.23l-14.79,1.07q0-.63-.09-1.23Z"/><path class="cls-105" d="M834.61,95.07,849.4,94c0,.15,0,.3,0,.45s0,.41,0,.61l-14.78,1.07v-.62c0-.15,0-.3,0-.44Z"/><path class="cls-106" d="M834.63,96.13l14.78-1.07c0,.32,0,.64,0,1L834.6,97.08c0-.31,0-.63,0-1Z"/><path class="cls-107" d="M834.6,97.08,849.38,96c0,.3,0,.59-.07.88L834.52,98c0-.29.06-.58.08-.88Z"/><path class="cls-108" d="M834.52,98l14.79-1.07c0,.27-.07.54-.11.81l-14.78,1.07c0-.27.08-.54.1-.81Z"/><path class="cls-109" d="M834.42,98.77,849.2,97.7c0,.26-.09.52-.14.78l-14.78,1.06c.05-.25.1-.51.14-.77Z"/><path class="cls-110" d="M834.28,99.54l14.78-1.06c0,.25-.1.5-.16.74l-14.79,1.07c.06-.24.12-.49.17-.75Z"/><path class="cls-111" d="M834.11,100.29l14.79-1.07c-.06.25-.13.49-.2.73L833.92,101c.07-.24.13-.48.19-.73Z"/><path class="cls-112" d="M833.92,101,848.7,100c-.07.24-.14.48-.22.71l-14.78,1.07c.08-.23.15-.47.22-.71Z"/><path class="cls-113" d="M833.7,101.73l14.78-1.07c-.08.24-.17.48-.26.71l-14.78,1.06c.09-.23.18-.46.26-.7Z"/><path class="cls-114" d="M833.44,102.43l14.78-1.06c-.09.24-.19.47-.29.7l-14.78,1.07c.1-.23.19-.47.29-.71Z"/><path class="cls-115" d="M833.15,103.14l14.78-1.07c-.11.24-.22.48-.34.71l-14.78,1.06c.12-.23.23-.46.34-.7Z"/><path class="cls-116" d="M832.81,103.84l14.78-1.06-.38.7-14.78,1.07c.13-.23.26-.47.38-.71Z"/><path class="cls-117" d="M832.43,104.55l14.78-1.07c-.14.26-.3.5-.45.74L832,105.29c.16-.24.31-.49.46-.74Z"/><path class="cls-118" d="M832,105.29l14.79-1.07c-.18.27-.36.52-.54.77l-14.79,1.07c.19-.25.37-.5.54-.77Z"/><path class="cls-119" d="M831.43,106.06,846.22,105c-.22.29-.44.57-.67.83l-14.79,1.07c.23-.27.46-.54.67-.83Z"/><path class="cls-120" d="M830.76,106.89l14.79-1.07c-.3.33-.6.64-.92.94l-14.78,1.06a11.43,11.43,0,0,0,.91-.93Z"/><path class="cls-121" d="M829.85,107.82l14.78-1.06a10.82,10.82,0,0,1-6.6,3l-14.78,1.06a10.79,10.79,0,0,0,6.6-3Z"/></g></g></g><path class="cls-12" d="M746.34,1.07c20.26.09,37.39,18.66,40.59,42.66a22.28,22.28,0,0,1,7.35-1.24c15.08.06,27.62,15.14,28,33.66,0,1.35,0,2.67-.12,4,6.73.27,12.27,7.06,12.45,15.38.18,8.49-5.27,15.34-12.17,15.31-.36,0-.7,0-1.05-.07l-22,0-24-.11-10.78,0-12-.06-41.14-.18c-13.5-.06-24.74-13.55-25.09-30.14-.34-15.43,8.85-28.09,21-29.75C706.75,22.94,724.21,1,746.34,1.07Z"/></g><path class="cls-122" d="M304.83,321c-4.65,1.17-13.23,5.35-15,12.48-2.69,10.71,2.7,26.44-5.84,41.82-2.72,4.91,47.18,11.5,47.18,11.5l9.63-54.13s-12-11.75-14.49-12.54C321.19,318.53,314.13,318.7,304.83,321Z"/><path class="cls-10" d="M340.85,332.74c1.73,4.33,6.11,30.06,1.23,36.12-.56.7,2.53,1.8,2,5-.09.53-1,3.09-1,3.09l-4,1L327,371.12l2.31-2.81,1.09,0a2.46,2.46,0,0,0,.74-2.15c-.28-1.18,2.77-3.1,7.37-23.07C339.86,337.25,340.47,331.79,340.85,332.74Z"/><path class="cls-123" d="M336.19,367.64l-3.57-.78-1.44-.23a2.67,2.67,0,0,1-.79,1.71l2.76.08,3.24.7,3.91,2.23Z"/><path class="cls-124" d="M331.09,371a10.69,10.69,0,0,1,5.1,1.41c1.79,1.1,3.43,3.49,1.79,4.79a26.09,26.09,0,0,1-4.17,2.5S327.53,379.84,331.09,371Z"/><path class="cls-37" d="M338,377.26l-1.68-.36s-5.78-.52-6.6-.07-3.47,2.24-3.47,2.24l-.55.5a2.78,2.78,0,0,0,3-.41c1.74-1.22,1.89-.28,1.89-.28l-.29,1.54,0,2-.27.83s-.25.45-.05.61a1.08,1.08,0,0,0,1.09.25l1.76-3.07.48,3.34a1.21,1.21,0,0,0,.79.57c.52.11.52,0,.52,0l.4-.84a1,1,0,0,0,.35.58,1.68,1.68,0,0,0,1.05.29l-.17-3.51.72,1.78a1.32,1.32,0,0,0,.79.57c.59.14.74.19.74.19Z"/><path class="cls-24" d="M308,363.5s4.2,10.63,14.28,13.47c1.75.5,2.82,2.38,2,3-1.08.78-2.56.94-5.09.94-5.27,0-12.44-1.66-17.41-6.46-7.35-7.11-9.66-10.34-8.91-13.92S308,363.5,308,363.5Z"/><path class="cls-10" d="M291.23,329.94c-2.13,3.51-3.36,9.14-3.35,17.21,0,6.24,5.4,16.46,6.23,19.6.14.53.46,2.78.46,2.78l6,5.85,12-8.11-3.64-5.59-1.09.12a18.18,18.18,0,0,1-.5-4.29c.18-1.19-3.32-17.29-5.05-27.61C301.24,324,293.35,326.46,291.23,329.94Z"/><path class="cls-122" d="M302,361.6l3.49-1.09,1.42-.35a2.65,2.65,0,0,0,.93,1.64l-2.75.31-3.17,1-3.71,2.55Z"/><path class="cls-24" d="M321.54,376.94l6.1-1.67s1.73,2.32,1.4,2.89,0,4,0,4l-3,2.51-2.4-.8s-.17-1,.65-1.15-.55-.7-1-.94S319.39,379.72,321.54,376.94Z"/><path class="cls-31" d="M312.46,312.41h13.06a1.86,1.86,0,0,1,1.86,1.86v7.41a1.86,1.86,0,0,1-1.86,1.86H312.46a1.85,1.85,0,0,1-1.85-1.85v-7.41a1.86,1.86,0,0,1,1.86-1.86Z" transform="translate(-86.62 513.78) rotate(-70.68)"/><path class="cls-24" d="M327.3,328.25a2.41,2.41,0,0,1-3,1.68l-10.44-2.88a2.4,2.4,0,0,1-1.68-3l4.26-15.46a2.41,2.41,0,0,1,3-1.68l10.44,2.88a2.4,2.4,0,0,1,1.68,3Z"/><path class="cls-32" d="M330.7,316a9.15,9.15,0,0,0,2.32-2,3.6,3.6,0,0,0-.68-3.31c-1-1-2.29,0-2.29,0s1.57,1.54,1.56,2S330.7,316,330.7,316Z"/><path class="cls-18" d="M313.5,315.29s.06-6.38.83-8,1.3-2.82,3.48-2.42c3.26.58,3.11,1.27,4.92.73s5.24-2.1,6.26-2.07c1.7.05,4.05,1.27,3.32,4.3A3.42,3.42,0,0,0,333,311c-.2.24-.85.33-2,.56-3.29.65-5.11.46-7.18-.73s-5.85-3.59-6.79-2.08-2.13,6.59-2.42,6.92S313.81,315.69,313.5,315.29Z"/><path class="cls-24" d="M315.51,320.84a.8.8,0,0,1-1,.56l-2.25-.62a.8.8,0,0,1-.56-1l1.13-4.12a.8.8,0,0,1,1-.56l2.26.62a.82.82,0,0,1,.56,1Z"/><path class="cls-24" d="M329,324.55a.81.81,0,0,1-1,.56l-2.25-.62a.8.8,0,0,1-.56-1l1.14-4.13a.79.79,0,0,1,1-.55l2.26.62a.81.81,0,0,1,.56,1Z"/><path class="cls-18" d="M314.13,316.93,311.89,325c-.5,1.84-.88,6.07,9.48,8.92,6.14,1.69,7.16-2.88,7.57-4.36a13.61,13.61,0,0,0-.51-5.68s-.69,2.51-.69,2.51a5.09,5.09,0,0,0-3.52-3.61c-4.71-1.29-6.53,1.17-8.6.55C314,322.89,313.56,320,314.13,316.93Z"/><path class="cls-24" d="M321.18,326.29l3.23.88a.8.8,0,0,0,1-.56l.12-.45-4.76-1.31-.13.45A.81.81,0,0,0,321.18,326.29Z"/><path class="cls-125" d="M372.1,388c-1.48,4.11-27.52,19.23-36.25,18.34l-26.3,1.25c-22.37-2.73-32.95-37.48-32.95-37.48.89-8.73,22.92,3.92,30.78,7.84,12.44,6.21,20.3,6.52,20.3,6.52,8.32.85,18-5.57,28.47-5.79C367.69,378.47,374.45,381.57,372.1,388Z"/><path class="cls-35" d="M314.88,383.87l0,0v-1.1l45.27-.82,0,1.09v0l-.12.21c-.56,1-1.6,1.15-2.8,1.17l-39.39.72c-1.2,0-2.25-.13-2.84-1.07Z"/><path class="cls-126" d="M325.8,383.85v0l-.11.17a2,2,0,0,1-.65.57l-6.89.13a3.14,3.14,0,0,1-2.73-.86l-.11-.16,0,0v-.53l10.49-.2Z"/><rect class="cls-36" x="331.89" y="382.48" width="22.63" height="0.77" transform="translate(-6.9 6.3) rotate(-1.04)"/><path class="cls-6" d="M326,382.5l5.47-22.36a1.48,1.48,0,0,1,1.32-1.08l31.76-.58a.79.79,0,0,1,.81,1l-5.47,22.35Z"/><path class="cls-35" d="M343.78,370.52a1.52,1.52,0,0,0,1.55,2,2.85,2.85,0,0,0,2.56-2.1,1.53,1.53,0,0,0-1.55-2A2.84,2.84,0,0,0,343.78,370.52Z"/><path class="cls-24" d="M305.53,413.42c3.13.54,5.52-3.1,5.52-3.1l8.09-6.37-1.71-4.31-15.76,7.08S302.39,412.89,305.53,413.42Z"/><path class="cls-18" d="M311.06,410.07a8,8,0,0,1-.59,2c-.61,1.66-1.35,2.24-2.13,2.47-3,.89-5.2.44-12.47,1.84s-9.44.35-11.57-3,.08-6,3.63-6.25c5.12-.39,8,.19,10.65-.21s3-1,4.62-2.06,2.95,4.68,1.49,6C303.41,412,310,412.21,311.06,410.07Z"/><path class="cls-13" d="M309.51,413.31c-3,.89-5.21.44-12.47,1.84s-9.45.34-11.58-3a3.86,3.86,0,0,1-.45-4c-1.6,1.1-2.15,3-.71,5.29,2.13,3.35,4.31,4.4,11.57,3s9.45-.95,12.47-1.84a2.78,2.78,0,0,0,1.69-1.5A3,3,0,0,1,309.51,413.31Z"/><path class="cls-24" d="M311.05,410.17a.82.82,0,0,0,0-.1l-.07.11Z"/><path class="cls-13" d="M295.35,412.69c-.23.09-.44-.35-.51-1A17.78,17.78,0,0,0,294,408c-.22-.61-.21-1.15.05-1.22s.66.37.86,1a17.24,17.24,0,0,1,.8,3.7C295.77,412,295.58,412.6,295.35,412.69Z"/><path class="cls-13" d="M297.6,412.28c-.24.05-.47-.38-.53-1a16.08,16.08,0,0,0-.84-3.52c-.2-.58-.19-1.08.08-1.11s.69.4.89,1a15.65,15.65,0,0,1,.78,3.49C298,411.72,297.85,412.23,297.6,412.28Z"/><path class="cls-13" d="M300,412.18c-.25,0-.5-.42-.6-1a17.65,17.65,0,0,0-1-3.63c-.23-.6-.23-1.1.05-1.11s.73.45.95,1a17.88,17.88,0,0,1,.94,3.6C300.4,411.64,300.22,412.15,300,412.18Z"/><path class="cls-32" d="M306.08,403s55.63-22.87,58.81-22.91c10.75-.1,8.28,10.78,2.84,15.89-6.43,6-55.27,17.08-55.27,17.08Z"/><polygon class="cls-24" points="328.15 406.99 312.96 392.59 319.43 386.18 336.02 403.61 328.15 406.99"/><path class="cls-18" d="M331.3,395.67S292.65,360.24,290,359.18c-8.82-3.58-14.29,6.17-14,9.53.4,4.37,39.67,39.85,39.67,39.85Z"/><path class="cls-18" d="M354.2,408.12c.9.83,1.06,3.29,1.06,3.29s-12.9,4.88-17.43,5a22.8,22.8,0,0,1-5.32-1c-.35-.09-1.13-1-1.46-1.07-.62-.19-.76.42-1.29.24a15.73,15.73,0,0,1-2.39-.87c-2.73-5.8-1.81-8.65-1.81-8.65s5.93,1.7,4.92.37c-2.18-2.84,4-5.74,5.42-4.23C341.42,407.2,351.58,405.7,354.2,408.12Z"/><path class="cls-13" d="M354.92,409.32c-4,1.57-12.3,4.83-14,4.94-6.79.49-11.53-1.93-14.7-3.34a27.72,27.72,0,0,0,1.11,2.74,15.73,15.73,0,0,0,2.39.87c.53.18.67-.43,1.29-.24.33.09,1.11,1,1.46,1.07a22.8,22.8,0,0,0,5.32,1c4.53-.08,17.43-5,17.43-5A9.33,9.33,0,0,0,354.92,409.32Z"/><path class="cls-13" d="M345.8,405.57c.12.22-.39.48-1.11.63a24.44,24.44,0,0,0-4.35,1.32c-.71.29-1.35.36-1.45.11s.39-.72,1.09-1a24.24,24.24,0,0,1,4.3-1.27C345,405.23,345.68,405.34,345.8,405.57Z"/><path class="cls-13" d="M342.91,404.54c.1.23-.39.55-1.09.76a24.17,24.17,0,0,0-4.21,1.65c-.68.34-1.3.45-1.39.19s.38-.77,1-1.1a24.16,24.16,0,0,1,4.17-1.6C342.14,404.24,342.79,404.31,342.91,404.54Z"/><path class="cls-13" d="M340.12,403.64c.1.24-.38.61-1.06.87a25.77,25.77,0,0,0-4.06,2c-.65.39-1.25.53-1.33.26s.36-.83,1-1.21a24.17,24.17,0,0,1,4-1.92C339.38,403.37,340,403.4,340.12,403.64Z"/><path class="cls-29" d="M676.56,77a9.34,9.34,0,0,0,9.34,9.34l2.34-4.43c5.15,0,9.33-7.77,9.33-12.93v-3.5a9.34,9.34,0,0,0-9.33-9.34H685.9a9.34,9.34,0,0,0-9.34,9.34Z"/><path class="cls-29" d="M695.71,65.15a14.06,14.06,0,0,1,1.93-.15,15.17,15.17,0,0,0,.13,2.42,15.7,15.7,0,0,0,16,13.32,15.89,15.89,0,1,1-18.1-15.59Z"/><path class="cls-24" d="M680.3,59.64a18.42,18.42,0,0,0,.22,2.63c.94,6,4.59,10.54,8.57,11.1.12,2.72,1.08,5.08,1.32,7.24.52,4.7,5.73,5.2,5.73,5.2.68,4.19-15.79,10-15.45,9.32s3.85-5.61,5-10.13a9.17,9.17,0,0,0-1.43-7.55,7.61,7.61,0,0,0-5.45-2.58,1.1,1.1,0,0,1-.79-.35,6.57,6.57,0,0,1-.29-2v-7.7A6.58,6.58,0,0,1,680.3,59.64Z"/><path class="cls-18" d="M670.16,145.49l0-.13.08-.1a69.47,69.47,0,0,1,6.25-18.84c2.12-4.11,6.41-8,8.29-10,4.87,2.66,9.68,1.43,14.23,4.87a42.37,42.37,0,0,1,1.42,6.12c.69,4,1.28,7.67,1.8,11.13,7.06.66,24.48,2,31,3.29,3.89.89,4.11,2.4,4.72,2.89-.35,6.34-5.49,9.92-8.6,15-.56.9-42.48.48-49.41.48C676.23,160.21,666.82,158.08,670.16,145.49Z"/><path class="cls-31" d="M735.26,153.75a27.09,27.09,0,0,0,2.63-4.45c.67-2.84.66-4.74-.16-5.41-3.08-2.55-13.59,2.75-40,42.39-5.75,8.63-18.51,26.86-15.57,23.83C725.92,164.81,729.5,160.43,735.26,153.75Z"/><path class="cls-32" d="M682.12,208.11l4.69-7.5a2.15,2.15,0,0,1,1.89-1.08l-3.61,5.78a2.63,2.63,0,0,0,.38,3.36,1.75,1.75,0,0,0,1,.39l-1.07,1.72a2,2,0,0,1-2.92.69A2.62,2.62,0,0,1,682.12,208.11Z"/><path class="cls-24" d="M698.77,109.75l8.56-13.25c2.54-3.93,1-7.91-3.34-8.84l-24.78-5.22c-2.75-.35-7.16,3.59-6.17,8.27L678.29,106Z"/><path class="cls-32" d="M702.52,89.6c-.66,11.8,11,30.86,11,30.86s4.45.07,4.87-2c.54-2.59-3.33-8-8.25-23.54C707.06,85.33,702.63,87.63,702.52,89.6Z"/><path class="cls-32" d="M673.18,82.86c-8.77,6.29-14.78,24.4-14.78,24.4s2,4.33,3.7,3.46c2.19-1.1,4.88-6.3,12.49-18.69C679.29,84.35,674.65,81.8,673.18,82.86Z"/><path class="cls-127" d="M680.41,115.42c0,1.77,1.87,4.63,3.21,4.61l13.06.42c1.35,0,4.59-2.21,4.56-4l-.13-6c0-1.77-1.15-3.19-2.5-3.16l-16.88-4c-1.35,0-2.42,1.48-2.38,3.26Z"/><path class="cls-128" d="M698.75,121.07c0,.19-1,.29-2.1.22l-12.94-.8c-1.15-.07-2.07-.29-2.05-.49l0-.73c0-.2.95-.3,2.09-.23l13,.81c1.14.07,2.06.28,2,.48Z"/><path class="cls-127" d="M675.83,89.16a10.57,10.57,0,0,1,.92-2.34c12,8.53,20.54,4.91,26.68,3.46.06.36.1.74.13,1.13.22,4.24-.08,8.49.1,12.72.16,3.38-4.59,6.33-6.87,6.42-8.49.37-10.42-.14-18.6-2.34-2.19-.6-6.26-4.17-5.41-7.27Q674.34,95.06,675.83,89.16Z"/><path class="cls-18" d="M697.05,85.88s8.89-.28,10.45,4-2.23,10.46-2.23,10.46-2.25,7.89-2.88,12.18,2.11,8.34,1.27,7.51a17.63,17.63,0,0,1-5.39-1.48c-3.21-1.5-1.43-7.34-1.12-9.22s1.89-11.14,1.54-12.68S697.05,85.88,697.05,85.88Z"/><path class="cls-18" d="M671.24,88.57s-.68-3.56.78-5c2.16-2.08,7.36-1.8,9.05-1.3a21,21,0,0,1,2.82,1s-5.89,2.38-5.66,14.56a61.47,61.47,0,0,0,1.28,9.57,74.59,74.59,0,0,1,1,9.57s-3.51.72-3.67,1.24-.38-3.76-2.78-7.84S671.24,88.57,671.24,88.57Z"/><path class="cls-32" d="M679,82c-3.27,2.72-5.26,5.05-4.76,19.22.08,2.3,0,6.51.42,10.44-.2-.4-.41-.81-.65-1.22-2.39-4.08-2.77-21.86-2.77-21.86s-.41-3.2,1-4.62S676.74,81.83,679,82Z"/><path class="cls-24" d="M727.92,156.68a22.86,22.86,0,0,0,1.75-4.74c.13-2.85-.36-4.51-1.15-5.22-3.54-3.23-11.35,2.75-24,28.76-6.37,13.11-11.16,24.45-19.78,31.46a6.74,6.74,0,0,0-2.29,3.22c-1.26,3.69-.7,8.29-.55,8.14C687.93,212.78,711.08,183.31,727.92,156.68Z"/><path class="cls-18" d="M679.43,215.59l4.07-7.86a2.12,2.12,0,0,1,1.8-1.23l-3.13,6.05a2.62,2.62,0,0,0,.65,3.32,1.77,1.77,0,0,0,1,.3l-.93,1.81a2,2,0,0,1-2.85.92A2.62,2.62,0,0,1,679.43,215.59Z"/><path class="cls-32" d="M658,109.82c-3.16-6.14,3.11-13.79,3.11-13.79s2.13.19,3,1.32c1,1.43.76,4.44-.34,11.33C663.08,113,658.55,110.85,658,109.82Z"/><path class="cls-24" d="M660.61,104.5s1.42.1,2.68-5.81a39.46,39.46,0,0,0,.09-12.81l-3,11.55S658.94,102.64,660.61,104.5Z"/><path class="cls-24" d="M663.38,85.88a10.52,10.52,0,0,0-.79-2,32.72,32.72,0,0,0-2.14-4.22,24.53,24.53,0,0,1-1.38-2.82c-.29,1.59.58,2.38.74,3.1s.18.45-.87-.31c-.59-.43-.82-2.15-1.12-3.25a3,3,0,0,0-.61-1.3,14.56,14.56,0,0,0,.26,3,18.73,18.73,0,0,0,1.33,4.07,30.67,30.67,0,0,0,2.43,3.26,6,6,0,0,1,1,4.57C661.93,91.27,663.56,88.38,663.38,85.88Z"/><path class="cls-24" d="M659,82.25a20.83,20.83,0,0,1-1.88-2.83c-.11-.39-.33-2.33-.33-2.33a3.78,3.78,0,0,1,.83,1.56A31.45,31.45,0,0,0,659,82.25Z"/><rect class="cls-129" x="699.99" y="141.56" width="36.61" height="0.75"/><path class="cls-129" d="M716.15,141.52a1,1,0,0,0,.92,1.06h18.78c.5,0,1.2-.37,1.82-1.86L747,123.78a1,1,0,0,0-1.08-1.06l-19.26.58a1.8,1.8,0,0,0-1.22,1.28Z"/><path class="cls-130" d="M718.42,142.32H699.9a6.78,6.78,0,0,0,3,.58h30.85a6.84,6.84,0,0,0,3-.58Z"/><path class="cls-10" d="M718.94,86.43h-1.38v-1h-9.15v8.1a1.89,1.89,0,0,0,1.74,2h5.67a1.89,1.89,0,0,0,1.74-2V93h1.38a1.32,1.32,0,0,0,1.22-1.4V87.84A1.33,1.33,0,0,0,718.94,86.43Zm.19,5.12a.21.21,0,0,1-.19.22h-1.38V87.62h1.38a.21.21,0,0,1,.19.22Z"/><path class="cls-24" d="M718.42,105.4c.81-3.1,2.19-6.3,1.94-8.14-.36-2.63-1.7-3.82-1.24-5.6,0-.2,0-.4.08-.6.07-.53.24-1.12.24-1.35s-.09-1,.06-.7c1.34,2.43,2.58,5.26,2.57,5.93,0,1.37-.44,9-1.18,11.74C720.06,109.83,717.32,109.58,718.42,105.4Z"/><path class="cls-24" d="M720.86,96.72s.61.27.84-.19a9.42,9.42,0,0,0,.48-3.06c0-.68-.5-3.87-.5-3.87a3.76,3.76,0,0,0-.42,2.31A16.11,16.11,0,0,1,720.86,96.72Z"/><path class="cls-24" d="M720.45,111.68a28.79,28.79,0,0,1-3.1-1.44c2.21-8.11,4.44-14.87,4.44-14.87Z"/><path class="cls-24" d="M721.46,92.77l-.79-4.51-1.76-.43-.61.31-.08.48s.23.3.19.3c-.25,0-.18.77,0,.77a6.41,6.41,0,0,0-.15,1.06c.15.37.85.3,1.15,1.09s-.12,1.7.31,1.76S721.46,92.77,721.46,92.77Z"/><path class="cls-32" d="M720.85,109.64c-.11-.67-3.89-.9-4.33.29l-.44.88s-3.47,7.69.66,9.1C716.74,119.91,721.2,119.59,720.85,109.64Z"/><path class="cls-33" d="M402.44,460.52c.39-.52,0-1.83,0-1.83s-7.3-.45-9.6.2a12.87,12.87,0,0,0-2.54,1.35c-.16.1-.42.67-.57.77s-.46-.09-.7.08a8.28,8.28,0,0,0-1.07.82c-.48,3.36.44,4.66.44,4.66s6.06,1.56,7.37.26C399.1,463.54,401.58,461.67,402.44,460.52Z"/><path class="cls-33" d="M425.54,462.16l1.3,5.36,5.51-.27s.27-.78.74-.8.94.72,1.47.69l3-.14,11.06-.54s.2-1.15-.13-1.53a5.52,5.52,0,0,0-1.73-.64c-2.89-.66-11.16-2.76-12.71-5.42C432.14,455.64,425.54,462.16,425.54,462.16Z"/><path class="cls-24" d="M424.67,280l1.32-6.56s4.66.35,5.57-2.15c1.82-5,.29-13.08-.81-15.33-3.14-6.42-4.47-17.66-19.17-8.73-5.59,3.4,3,19.89,3.68,23.45s-1.26,7.68-1.26,7.68l3.44,2.58Z"/><path class="cls-24" d="M398.53,342.13l-.48,20.69s-7.8-8.6-8.55-18.38S398.05,341.36,398.53,342.13Z"/><path class="cls-32" d="M408.81,385.09s2.19.83-2.69,31.18c-3.51,21.86-6.64,37.87-8.12,45.13-.57,2.82-1.39,2.35-1.39,2.35l-6,1-3-2.34,6.25-49.45Z"/><path class="cls-24" d="M446.82,328.65l-12.37,23.71s23.6-17.07,22.11-26.46S446.82,328.65,446.82,328.65Z"/><path class="cls-131" d="M398.39,286.42s-5,3.06-8.61,28-1.32,23.95-1.32,23.95l.66,5.67,9.37,1,5.06-21.49Z"/><path class="cls-32" d="M421.29,350.75s-11,57.88-20.65,84.05c-5.63,15.33-7.08-13.5-7.08-13.5l5.85-83.56L428.18,335S425,336.12,421.29,350.75Z"/><path class="cls-32" d="M410.49,336s14,73.56,15.29,76.85c4.26,11.13,9.27-4,10.39-7.81s2-31.83.54-52.17l-1.42-20.34Z"/><path class="cls-32" d="M423.83,394.35s-1.15,8.91-1.91,20.26c-.56,8.33.55,32,2.88,48.37.14,1,10.44-2.57,10.44-2.57s1.59-46.2,2-56.55S430,386.67,423.83,394.35Z"/><path class="cls-127" d="M398.09,286.47l12.34-5.61,3.41-3.22,13.12-.31,2.3,3.78,10.17,4.41s2.51,4,.32,18.59c-2.41,16.23-2.92,40.77-2.92,40.77l-38.47,1.85S401.7,294.35,398.09,286.47Z"/><path class="cls-127" d="M436.15,285.56s2.29-2.56,7.87,4.37c9.51,11.82,14.11,26.47,15.09,29.31s2.25,6.85-1.64,11.57c-3,3.6-3.94,4.81-3.94,4.81L445,330.31l1.34-2.56,1-1.26s-4.59-10.09-9.51-19.22S436.15,285.56,436.15,285.56Z"/><path class="cls-18" d="M426.6,257.86s-1.66-1-1.91.25.64,4.1,1.4,4.35,1,3.7,1,3.7l-2,3.84H414.72s-3.2-1.41-3.45-3.71-2.81-18.52-2.81-18.52l7.28-3.84a48,48,0,0,1,6.52-2.68c4.12-1.18,5,1,4.85,2.17s1.15,1.28,2.81,1.28,3.71,1.27,2.82,2c-.37.32,1.28,1.33.62,2.55-.93,1.74-4.07,2.31-4.33,5.12C428.92,255.69,428.39,259.91,426.6,257.86Z"/><path class="cls-24" d="M138.12,234.34l-1.62-4.18a15.11,15.11,0,0,0-2.26-4.07c-1.59-2.05-3.85-2-6.09-.83a6.59,6.59,0,0,0-2.87,2.38s.26,3.22,2.87,3.72,7.22,4.93,7.95,4.12A4.56,4.56,0,0,1,138.12,234.34Z"/><polygon class="cls-24" points="125.35 229.01 123.01 224.59 121.02 220.38 122.06 220.3 123.89 223.09 128.75 225.93 127.62 226.95 125.35 229.01"/><polygon class="cls-24" points="125.56 222.42 124.95 218.35 125.93 217.99 127.25 221.9 129.99 225.36 127.62 226.95 125.56 222.42"/><polygon class="cls-24" points="127.72 217.88 127.99 221.16 127.88 223.36 129.24 225.38 131.51 224.73 129.98 222.6 128.88 218.34 127.72 217.88"/><polygon class="cls-24" points="130.99 218.31 130.49 224.23 131.55 225.59 133.14 225.24 132.38 222.51 131.76 219.01 130.99 218.31"/><path class="cls-24" d="M136.92,237.57a6.05,6.05,0,0,0-4-2.92s-6.91-1.51-7.67-2.87-3.38-2.95-3.38-2.95-.77-1.2,2-.62a11.75,11.75,0,0,1,3.29,1.26s4.24-.53,5.37,0c2.33,1.12,5.06,7,5.06,7S137.07,237.88,136.92,237.57Z"/><path class="cls-21" d="M88.82,271.92s-.56,8.17,23.93,10.05,24-3.72,24-3.72l2-5.86-8.57-16.27-8,3.65,0,1.37a3.37,3.37,0,0,1-2.88.82c-1.56-.43-8.95-.21-22.46-3.25C90.53,257.31,88.92,270.34,88.82,271.92Z"/><path class="cls-132" d="M96.75,258.71l.8.18a31.09,31.09,0,0,0-3.37,8.68s-1.62,8,22.49,12.85a105.67,105.67,0,0,0,10.8,1.66,86.32,86.32,0,0,1-14.72-.11c-24.49-1.88-23.93-10.05-23.93-10.05C88.92,270.34,90.53,257.31,96.75,258.71Z"/><path class="cls-24" d="M129.68,257.77s13.89-10.95,3.33-25.67c-3.14-4.38,1.34-1.24,5.43,2.11s10.86,16.41,7.08,26.59-6.07,13.72-10.51,14.1S129.68,257.77,129.68,257.77Z"/><path class="cls-133" d="M120.8,268.4l-.81-4.53-.21-1.83a3.66,3.66,0,0,0,2.32-.9l-.07,3.48.71,4.11,2.71,5Z"/><path class="cls-21" d="M98.65,323.77,70,323.15,58.12,283.3s-7.71-24.09,7.08-24.4S97,258.59,97,258.59,107,267.24,98.65,323.77Z"/><path class="cls-24" d="M72.6,228.69s15.05,14,13.18,18.84c-.08.21-2.45,2.49-2.71,4.79s.78,3.44.78,4.31c0,.28.76,2.14.84,2.69.35,2.49-.92,4.55-2,4.3a71,71,0,0,1-7.68-3c-.66-.36-1.27-.41-1.44-1.45-.34-2.2-1.5-6-2.61-7-3.24-3.12-12.36-6.13-9.82-15.08C61.9,234.47,71.31,228.07,72.6,228.69Z"/><polygon class="cls-134" points="82.29 263.6 81.58 268.54 72.49 260.98 73.55 259.14 82.29 263.6"/><polygon class="cls-135" points="84.95 260.41 84.69 258.75 86.36 261.6 86.44 266.83 82.85 263.7 84.95 260.41"/><path class="cls-31" d="M85.61,247.27s-.7.17-2.07.35a11.41,11.41,0,0,0-2.37.53c-2.65,1.2-2.41,1.35-4.16,1.76a46.47,46.47,0,0,1-6.38.61s2.21.84,3.09,1.19a5.8,5.8,0,0,0,4.17,0c4.86-1.64,4.86-1.17,5.35-1.58A29.76,29.76,0,0,1,85.61,247.27Z"/><path class="cls-24" d="M78,235.13a37.75,37.75,0,0,0,4,2.17c.58.29,1.34.64,1.4.88a6.19,6.19,0,0,1-.06,1.46c-.06.35-.23,1.75-1.4.7A45.26,45.26,0,0,1,78,235.13Z"/><path class="cls-32" d="M60.34,236.66c.87-4.74,7.13-9.19,14.33-8.9a3.61,3.61,0,0,1-.06,3,9.42,9.42,0,0,0-8.19,2.76c-3.5,3.86.83,3.38.76,5.13-.06,1.46-.18,2.76-.18,2.76l1.32,2.68-.92,1s-2.59-1.84-2.5-.7c.11,1.38,1.92,2.88,2.15,3.12s.63.61.57.79a35.06,35.06,0,0,1,3.1,3.74c-.47.42-1.64.28-3.19-.89C64.05,248.49,59.26,242.44,60.34,236.66Z"/><path class="cls-24" d="M65,244.05a2.12,2.12,0,0,0-.32,3,2.1,2.1,0,0,0,3,.31Z"/><path class="cls-31" d="M80.48,240.6a23.13,23.13,0,0,1,1.68-2.19c.24-.12.76-.47.94-.29s.31.9-.16,2.22C82.82,240.66,82.54,240.08,80.48,240.6Z"/><rect class="cls-136" x="90.53" y="446.79" width="7.37" height="11.23"/><rect class="cls-136" x="38.21" y="446.79" width="5.97" height="11.23"/><path class="cls-125" d="M90.88,461.3h5.38v-1.63l2.34,1.63h13.58s-.23-2.22-9.36-2.57c-2.34-.09-4-3.28-4-3.28s-1.17-1.05-2.93,1.41c-.45.64-5.38-.59-5.38-.59S90.06,459.55,90.88,461.3Z"/><path class="cls-32" d="M97.68,322.85l.65,60.85L85,393.13S79.36,373.58,78.4,355,97.68,322.85,97.68,322.85Z"/><path class="cls-18" d="M97.68,322.85l-28.3,66.72-5.14,7.11L44.4,455.5,37,452.43s1.79-31.18,6.39-45.24a159,159,0,0,1,9.45-23.26L71,321Z"/><path class="cls-32" d="M87.6,455.75c-2.33-11.94-3.92-35-4.09-42.68a227.4,227.4,0,0,1,.67-24.43l14.15-4.94V454Z"/><path class="cls-125" d="M45,463.35H41.34l-1.15-1.15-.5-2.81-1.16,1.16-3.8-3.81c.66-1.82,3.31-3.81,3.31-3.81s2.61,4.35,3.39,4.22c3-.49,3.06,1.08,3.06,1.08S43.4,461.63,45,463.35Z"/><path class="cls-125" d="M41.2,459.23A4.26,4.26,0,0,0,44,460.84c9.13.35,9.36,2.57,9.36,2.57H41.2Z"/><path class="cls-37" d="M0,347.43l28.42-56.72s23.86,0,32-.82c22.87-2.29,50.91-16.49,50.91-16.49L88.89,334.58s-44.76,10.26-55.66,10.19A201.92,201.92,0,0,0,0,347.43Z"/><path class="cls-21" d="M60.05,282.07,43.33,307.71l-2.25.31.64,2.16-12.11-.93-2.69-10.5,23.49-34.6s7.31-6.65,19.29-4.94C78.39,260.44,61.34,279.91,60.05,282.07Z"/><path class="cls-24" d="M41.08,309.25,53.5,343.76s-2.7.83-4.28-.57C45,339.41,37.55,329.11,35,323.46A96,96,0,0,1,29.5,307.4Z"/><polygon class="cls-24" points="49.84 343.65 59.26 347.14 60.16 340.29 58.2 341.04 55.85 339.15 52.27 342.4 49.84 343.65"/><polygon class="cls-22" points="663.49 72.08 663.49 57.09 648.5 57.09 663.49 72.08"/><rect class="cls-22" x="620.29" y="14.06" width="53.83" height="46.42" rx="5.8"/><path class="cls-13" d="M638,41.34a4.29,4.29,0,1,1,4.3-4.29A4.3,4.3,0,0,1,638,41.34Zm0-6.43a2.15,2.15,0,1,0,2.15,2.14A2.14,2.14,0,0,0,638,34.91Z"/><path class="cls-13" d="M652.32,33.48a4.3,4.3,0,1,1,4.29-4.3A4.3,4.3,0,0,1,652.32,33.48Zm0-6.44a2.15,2.15,0,1,0,2.15,2.14A2.15,2.15,0,0,0,652.32,27Z"/><path class="cls-13" d="M652.32,49.22a4.3,4.3,0,1,1,4.29-4.3A4.3,4.3,0,0,1,652.32,49.22Zm0-6.44a2.15,2.15,0,1,0,2.15,2.14A2.15,2.15,0,0,0,652.32,42.78Z"/><rect class="cls-13" x="640.11" y="31.69" width="10.12" height="2.15" transform="translate(80.85 347.19) rotate(-32.03)"/><rect class="cls-13" x="644.09" y="36.28" width="2.15" height="10.12" transform="translate(268.14 566.51) rotate(-57.99)"/><path class="cls-137" d="M557.81,362.24l-5-21.78a47.37,47.37,0,0,0-18.67,8.86L547.87,367A25.4,25.4,0,0,1,557.81,362.24Z"/><path class="cls-138" d="M569.19,411.89l5,21.78a47.67,47.67,0,0,0,18.66-8.86l-13.72-17.64A25.36,25.36,0,0,1,569.19,411.89Z"/><path class="cls-139" d="M547.87,367l-13.71-17.64A47.93,47.93,0,0,0,521,365.25l19.89,10.2A25.57,25.57,0,0,1,547.87,367Z"/><path class="cls-140" d="M586.16,398.68a25.72,25.72,0,0,1-7,8.49l13.72,17.64a48.05,48.05,0,0,0,13.21-15.93Z"/><path class="cls-141" d="M540.84,375.45,521,365.25a47.54,47.54,0,0,0-5.23,20l22.33.83A25.35,25.35,0,0,1,540.84,375.45Z"/><path class="cls-142" d="M586.16,398.68l19.89,10.2a47.53,47.53,0,0,0,5.22-20L588.94,388A25.35,25.35,0,0,1,586.16,398.68Z"/><path class="cls-143" d="M538,387.06c0-.31,0-.63,0-.95l-22.33-.83c0,.59,0,1.19,0,1.78a47.67,47.67,0,0,0,3.74,18.58L540,397A25.47,25.47,0,0,1,538,387.06Z"/><path class="cls-144" d="M589,387.06c0,.22,0,.43,0,.64l22.34.56c0-.4,0-.8,0-1.2a47.67,47.67,0,0,0-3.75-18.57L587,377.17A25.46,25.46,0,0,1,589,387.06Z"/><path class="cls-142" d="M588.94,388l22.33.83c0-.2,0-.39,0-.59L589,387.7C589,387.81,589,387.91,588.94,388Z"/><path class="cls-145" d="M588.94,388l22.33.83c0-.2,0-.39,0-.59L589,387.7C589,387.81,589,387.91,588.94,388Z"/><path class="cls-146" d="M563.5,361.6a25.17,25.17,0,0,1,7.2,1L577,341.2a47.76,47.76,0,0,0-24.19-.74l5,21.78A25.38,25.38,0,0,1,563.5,361.6Z"/><path class="cls-147" d="M563.5,412.53a25.17,25.17,0,0,1-7.2-1L550,432.93a47.84,47.84,0,0,0,24.21.74l-5-21.78A26,26,0,0,1,563.5,412.53Z"/><path class="cls-148" d="M540,397l-20.6,8.68a48.07,48.07,0,0,0,12,16.88l15-16.57A25.69,25.69,0,0,1,540,397Z"/><path class="cls-149" d="M587,377.17l20.6-8.68a47.81,47.81,0,0,0-12-16.88l-15,16.57A25.54,25.54,0,0,1,587,377.17Z"/><path class="cls-150" d="M546.41,406l-15,16.57A47.7,47.7,0,0,0,550,432.93l6.33-21.44A25.43,25.43,0,0,1,546.41,406Z"/><path class="cls-151" d="M580.59,368.18l15-16.57A47.63,47.63,0,0,0,577,341.2l-6.32,21.44A25.43,25.43,0,0,1,580.59,368.18Z"/><rect class="cls-27" x="494.27" y="311.14" width="50.85" height="50.85"/><rect class="cls-9" x="499.3" y="316.17" width="40.8" height="40.79"/><path class="cls-27" d="M514.39,328.74a3.64,3.64,0,1,1-3.63-3.63A3.64,3.64,0,0,1,514.39,328.74Z"/><polygon class="cls-27" points="524.06 336.31 530.58 344.54 537.09 352.77 524.06 352.77 511.04 352.77 517.55 344.54 524.06 336.31"/><polygon class="cls-27" points="511.83 341.21 516.4 346.99 520.98 352.77 511.83 352.77 502.69 352.77 507.26 346.99 511.83 341.21"/><path class="cls-152" d="M673.3,410a14.23,14.23,0,1,0,.05-19.91A14.08,14.08,0,0,0,673.3,410Z"/><path class="cls-152" d="M693.5,410.34a14.23,14.23,0,1,0,0-19.91A14.08,14.08,0,0,0,693.5,410.34Z"/><path class="cls-152" d="M677,386.55a18,18,0,1,0,.07-25.15A17.78,17.78,0,0,0,677,386.55Z"/><path class="cls-31" d="M677.14,431.26s-.29,2.37-11.83,1.28S637.1,427,637.1,427L664,427S674.22,427.52,677.14,431.26Z"/><path class="cls-31" d="M646.1,428.69c-5.5-.35-8,2.25-10.28,3a39.44,39.44,0,0,0-4.49,1.85c1.37-2.26,3.16-2.22,4.09-2.92s.69-.34-1.26-.61c-1.11-.16-3.2,1.68-4.67,2.68a4.52,4.52,0,0,1-2.06.89,25.17,25.17,0,0,1,3.48-3.38,28.11,28.11,0,0,1,5.79-3.44c1.2-.38,4.89-.28,7.49.24C647.12,427.55,650.06,428.94,646.1,428.69Z"/><path class="cls-31" d="M637,426.86s-4.28.8-5.05,1.31c-.54.35-2.84,2.48-2.84,2.48a5.55,5.55,0,0,0,2.56-1A48,48,0,0,1,637,426.86Z"/><path class="cls-131" d="M672.38,425.92s10.61,1.33,9.49,7.6c-.63,3.56-3.14,4.66-6.34,4.2-5.95-.85-12.67-2.13-12.67-2.13l-2.43-10Z"/><path class="cls-131" d="M672.66,430.4l4.84-34.76s.44-7.45,3.1-7.06c3.84.55,9.78,11.85,9.92,14.19.27,4.76-6.61,29.25-7.5,34.12-.61,3.36-3.58-.69-7-1.31C669.66,434.43,672.66,430.4,672.66,430.4Z"/><polygon class="cls-24" points="816.41 386.86 826.75 368.73 838.86 369.5 844.85 371.27 831.45 373.25 822.9 390.18 816.41 386.86"/><path class="cls-127" d="M828.35,365.85l1.57.52.73,2,9.78.41,7.72,2.13a1.49,1.49,0,0,1-.59.76c-1.46.61-7.58.45-7.58.45s.78-1.64.13-2.05-8.23-.61-10.05-.51c-3.15.18-4.82.82-4.65.41C825.67,369.43,828.35,365.85,828.35,365.85Z"/><path class="cls-153" d="M764.86,421.1l28.41,3.22,25.23-44.61,8.49,4.22L801.46,438s-2,3.39-10.55,2.65c-8.37-.72-42.24-2.72-46-4.12C736,433.24,765.76,429,764.86,421.1Z"/><path class="cls-152" d="M679.78,388.49a14.23,14.23,0,1,0,.05-19.91A14.08,14.08,0,0,0,679.78,388.49Z"/><path class="cls-152" d="M664.59,389.12a10.7,10.7,0,0,0,15.13-.13L678,383.52a10.7,10.7,0,0,0-.13-15.13L675,365.57a10.7,10.7,0,0,0-15.13.13L658,367.6a10.7,10.7,0,0,0,.11,15.13Z"/><path class="cls-24" d="M656.37,375A22.11,22.11,0,0,0,658.7,377c5.66,4.05,12.3,4.73,16,1.92a31.91,31.91,0,0,0,7,4.74c2.53,1.3,6.79,1,6.79,1,4,2.82,6.29,14.13-2.75,18.58-5.43,2.67-6.38-3.71-5.72-8.14.31-2.08.49-4.4-.06-5.31-1.94-3.19-3.36-3.21-5.79-3.67a8.7,8.7,0,0,0-6.49,2.38,1.27,1.27,0,0,1-.93.36,7.41,7.41,0,0,1-1.82-1.32l-6.29-6.2A7.6,7.6,0,0,1,656.37,375Z"/><path class="cls-152" d="M691.54,392a14.87,14.87,0,1,0,3.21-20.55A14.73,14.73,0,0,0,691.54,392Z"/><polygon class="cls-24" points="793.67 377.28 794.02 362.8 796.95 359.31 804.76 354.72 810.6 355.73 800.39 363.46 799.75 378.65 793.67 377.28"/><path class="cls-127" d="M794.45,359.63l2.63-1.91.81.64,7.25-4.68s6.62-1.78,7.91-.28c.42.48-.64,1.3-2.11,2.41a13.78,13.78,0,0,1-1.88,1.22s-.31-1.13-2.94-1.54c-.83-.14-6,3.34-7.79,4.24-3.19,1.63-4.45,3.88-4.61,3.67C793.29,362.86,794.45,359.63,794.45,359.63Z"/><path class="cls-154" d="M736.29,444.55l6.42-.26,52.11-3.71s4.68,1.41,7.59-6c4.15-10.52-1.77-63-1.77-63l-7.71.17-3.81,49.55s-36.57-11.69-44.87-8.8c-9.69,3.37-15.26,8-27.49,20.67-5.38,5.6,1.75,10.44,1.75,10.44Z"/><path class="cls-127" d="M677.61,391.31s8.81-11,16.14-4.4,33,27.19,40.76,29.57l1.78,28.91c-21.18,1.39-38.57-9.43-40-11.59C691.61,426.8,674.68,400.11,677.61,391.31Z"/><path class="cls-131" d="M703.12,427c-2.06-2.84-6.33-8.9-10.47-15.7-5.22-8.58-13.19-7.15-8.92,1.27a229.5,229.5,0,0,0,12.55,21.28c1.44,2.16,15.51,13,36.69,11.59l-2.06-2.93C715.76,441,704.46,428.78,703.12,427Z"/><path class="cls-24" d="M690.17,438.42s3.19,3.41-11.23,2c-10.24-1.05-10-.33-35.25-6.85l33.54.54S686.5,434.1,690.17,438.42Z"/><path class="cls-24" d="M654.94,435.64c-6.88-.51-10,2.41-12.82,3.18a50.43,50.43,0,0,0-5.61,2c1.71-2.56,3.93-2.47,5.11-3.26s.84-.37-1.59-.72c-1.38-.19-4,1.87-5.83,3a5.81,5.81,0,0,1-2.55,1A28.71,28.71,0,0,1,636,437a35.26,35.26,0,0,1,7.21-3.81c1.5-.41,6.11-.22,9.36.42C656.2,434.37,659.88,436,654.94,435.64Z"/><path class="cls-31" d="M643.53,433.38s-5.33.83-6.3,1.4c-.67.39-3.53,2.76-3.53,2.76a7.23,7.23,0,0,0,3.19-1A61.36,61.36,0,0,1,643.53,433.38Z"/><path class="cls-127" d="M682.65,432.69l-4.77-39.29s3.07-3.88,5.78-2.52c2.88,1.44,8.65,5.41,8.65,5.41s4.83,13.64,6.14,25.6c2.16,19.84,1.11,20.28-6.14,22-7.57,1.8-21.31,0-21.31,0l-3-11.23Z"/><path class="cls-11" d="M659.12,442.12s0,0,0-.05l0-1.52H596.28v1.52a.08.08,0,0,0,0,.05l.16.28c.81,1.32,2.26,1.56,3.92,1.56H655c1.66,0,3.11-.24,3.92-1.56Z"/><path class="cls-35" d="M644,442.38a0,0,0,0,0,0,0l.16.23a2.52,2.52,0,0,0,.92.77h9.55c1.6,0,3-.19,3.77-1.25l.15-.24,0,0,0-.75H644Z"/><rect class="cls-35" x="604.1" y="440.9" width="31.4" height="1.07"/><path class="cls-129" d="M643.62,440.5l-8.14-30.88a2.06,2.06,0,0,0-1.86-1.47H589.53a1.09,1.09,0,0,0-1.08,1.47l8.14,30.88Z"/><path class="cls-35" d="M618.7,424.32a2.13,2.13,0,0,1-2.11,2.86,4,4,0,0,1-3.6-2.86,2.12,2.12,0,0,1,2.1-2.85A4,4,0,0,1,618.7,424.32Z"/></g></g></svg>