<svg xmlns="http://www.w3.org/2000/svg" xmlns:xlink="http://www.w3.org/1999/xlink" viewBox="0 0 2038.02 1500.27"><defs><style>.cls-1{fill:#dee4f3;}.cls-1,.cls-10{opacity:0.3;}.cls-2,.cls-30{fill:#e6e7e8;}.cls-2{opacity:0.8;}.cls-16,.cls-3{fill:#8d8bc3;}.cls-19,.cls-26,.cls-3,.cls-4,.cls-6,.cls-7,.cls-8{opacity:0.5;}.cls-15,.cls-4{fill:#fec14e;}.cls-12,.cls-24,.cls-5,.cls-6,.cls-7,.cls-8{fill:none;}.cls-12,.cls-5{stroke:#f2a528;stroke-dasharray:5;}.cls-12,.cls-5,.cls-6,.cls-7,.cls-8{stroke-miterlimit:10;}.cls-5{stroke-width:3px;}.cls-6,.cls-7{stroke:#fec14e;}.cls-6,.cls-8{stroke-width:10px;}.cls-12,.cls-7{stroke-width:5px;}.cls-8{stroke:#8d8bc3;}.cls-9{fill:#d6deec;}.cls-10{fill:#b8c4d7;}.cls-11{fill:#9fb1cc;}.cls-13{fill:#fff;}.cls-14{fill:#e1e8f4;}.cls-17,.cls-26{fill:#f7941d;}.cls-18{fill:#58595b;}.cls-19{fill:#bf6628;}.cls-20{fill:url(#linear-gradient);}.cls-21{fill:#bcbec0;}.cls-22{fill:#414042;}.cls-23{fill:url(#linear-gradient-2);}.cls-25{fill:#f8b673;}.cls-27{fill:#fecc89;}.cls-28{fill:#1a1a1a;}.cls-29{fill:url(#linear-gradient-3);}.cls-31{fill:#9b9b9b;}.cls-32{fill:url(#linear-gradient-4);}.cls-33{fill:url(#linear-gradient-5);}.cls-34{fill:url(#linear-gradient-6);}.cls-35{fill:url(#linear-gradient-7);}.cls-36{fill:url(#linear-gradient-8);}.cls-37{fill:url(#linear-gradient-9);}.cls-38{fill:url(#linear-gradient-10);}.cls-39{fill:#7d7db3;}.cls-40{fill:#0e1338;}.cls-41{fill:url(#linear-gradient-11);}.cls-42{fill:#c8d5e9;}</style><linearGradient id="linear-gradient" x1="1094.2" y1="1248.43" x2="1094.2" y2="653.42" gradientUnits="userSpaceOnUse"><stop offset="0" stop-color="#67686b"/><stop offset="0.37" stop-color="#57585a"/><stop offset="0.99" stop-color="#414042"/></linearGradient><linearGradient id="linear-gradient-2" x1="1057.29" y1="1182.77" x2="1057.29" y2="739.77" gradientUnits="userSpaceOnUse"><stop offset="0" stop-color="#616264"/><stop offset="1" stop-color="#231f20"/></linearGradient><linearGradient id="linear-gradient-3" x1="1079.92" y1="479.23" x2="1079.92" y2="664.25" gradientUnits="userSpaceOnUse"><stop offset="0" stop-color="#d8d9da"/><stop offset="1" stop-color="#999097"/></linearGradient><linearGradient id="linear-gradient-4" x1="1080.88" y1="445.99" x2="1080.88" y2="445.76" gradientUnits="userSpaceOnUse"><stop offset="0" stop-color="#9b83bd"/><stop offset="1" stop-color="#ceb4d7"/></linearGradient><linearGradient id="linear-gradient-5" x1="1122.96" y1="638.02" x2="1122.96" y2="634.62" xlink:href="#linear-gradient-4"/><linearGradient id="linear-gradient-6" x1="1080.62" y1="673.8" x2="1080.62" y2="421.87" xlink:href="#linear-gradient-4"/><linearGradient id="linear-gradient-7" x1="1164.5" y1="631.11" x2="1164.5" y2="631.11" xlink:href="#linear-gradient-4"/><linearGradient id="linear-gradient-8" x1="1139.68" y1="634.51" x2="1139.68" y2="634.47" xlink:href="#linear-gradient-4"/><linearGradient id="linear-gradient-9" x1="1079.12" y1="591.01" x2="1079.12" y2="590.73" xlink:href="#linear-gradient-4"/><linearGradient id="linear-gradient-10" x1="1075.91" y1="591.7" x2="1075.91" y2="589.95" xlink:href="#linear-gradient-4"/><linearGradient id="linear-gradient-11" x1="1000.52" y1="85.58" x2="1116.04" y2="85.58" gradientTransform="translate(16.91 277.12) rotate(-3.42)" xlink:href="#linear-gradient-4"/></defs><title>Asset 1</title><g id="Layer_2" data-name="Layer 2"><g id="Layer_1-2" data-name="Layer 1"><path class="cls-1" d="M916.05,109.37C752,198.1,721.93,451.08,236.07,416.56c-94.64-6.73-367-56.86-160.7,343.84s127.5,432.81,57.45,501.05-117,327.7,284.39,207.46,847.59-100.81,957.38-37.71,643.63,151.49,652.49-238.69c7.28-321.2-100.27-306.87-192.65-355.54-69.76-36.76-81.64-115.46,17.85-314.89S1550.78-233.9,916.05,109.37Z"/><ellipse class="cls-2" cx="1094.2" cy="1282.22" rx="238.73" ry="30.85"/><ellipse class="cls-2" cx="600.23" cy="1265.69" rx="380.77" ry="23.69"/><ellipse class="cls-2" cx="1610.67" cy="1265.69" rx="394.78" ry="23.69"/><polygon class="cls-3" points="925.64 101.42 932.92 66.65 925.35 70.91 921.24 93.59 899.72 85.33 892.15 89.59 925.64 101.42"/><polygon class="cls-3" points="909.05 1350.43 876.19 1336.95 879 1345.17 900.55 1353.34 888.52 1372.99 891.33 1381.22 909.05 1350.43"/><polygon class="cls-4" points="1919.88 714.07 1919.94 778.54 1931.8 768.14 1930.63 726.33 1971.93 732.96 1983.78 722.56 1919.88 714.07"/><path class="cls-5" d="M1442.73,120.09S1411,590,782.38,439.59s-584,333.53-584,333.53"/><circle class="cls-6" cx="1174.85" cy="94.98" r="21.02"/><circle class="cls-7" cx="2014.5" cy="1359.08" r="21.02"/><circle class="cls-8" cx="499.95" cy="1428.16" r="21.02"/><rect class="cls-4" x="119.62" y="389.17" width="56.97" height="14.71" rx="3.94" transform="translate(382.79 44.26) rotate(54.15)"/><rect class="cls-4" x="92.71" y="1258.33" width="56.97" height="14.71" rx="3.94" transform="translate(859 2301.2) rotate(150)"/><rect class="cls-4" x="1878.13" y="419.25" width="56.97" height="14.71" rx="3.94" transform="translate(3771.1 -157.25) rotate(150)"/><rect class="cls-9" x="961.06" y="900.05" width="254.83" height="357.92" rx="3.91"/><rect class="cls-10" x="971.17" y="1146.11" width="236.65" height="98.86" rx="2.21"/><rect class="cls-10" x="971.17" y="1027.61" width="236.65" height="98.86" rx="4.14"/><rect class="cls-10" x="971.17" y="909.12" width="236.65" height="98.86" rx="4.95"/><rect class="cls-11" x="1054.75" y="980" width="73.23" height="8.62" rx="1.03"/><rect class="cls-11" x="1054.75" y="1102.43" width="73.23" height="8.62" rx="1.03"/><rect class="cls-11" x="1054.75" y="1226.67" width="73.23" height="8.62" rx="1.03"/><path class="cls-12" d="M686,1294.85s159.52,225.48,470.18,54.6,388.42,69.2,532,64,307.43-120.24,193.15-569.61"/><rect class="cls-9" x="344.61" y="285.67" width="600.06" height="972.3" rx="35.38"/><rect class="cls-13" x="364.58" y="310.65" width="560.12" height="158.7" rx="33.13"/><rect class="cls-13" x="364.58" y="501.88" width="560.12" height="158.7" rx="33.13"/><rect class="cls-13" x="364.58" y="693.11" width="560.12" height="158.7" rx="33.13"/><rect class="cls-13" x="364.58" y="884.34" width="560.12" height="158.7" rx="33.13"/><rect class="cls-13" x="364.58" y="1075.56" width="560.12" height="158.7" rx="33.13"/><rect class="cls-9" x="794.94" y="329.58" width="87.75" height="125.51"/><polygon class="cls-14" points="794.95 329.58 882.7 455.09 882.7 329.58 794.95 329.58"/><rect class="cls-15" x="406.59" y="329.58" width="15.87" height="27.65" rx="3.43"/><rect class="cls-9" x="406.59" y="366.08" width="15.87" height="89" rx="3.43"/><rect class="cls-9" x="499.95" y="366.08" width="15.87" height="89" rx="3.43"/><rect class="cls-9" x="560.31" y="366.08" width="15.87" height="89" rx="3.43"/><rect class="cls-9" x="620.68" y="366.08" width="15.87" height="89" rx="3.43"/><rect class="cls-9" x="681.05" y="366.08" width="15.87" height="89" rx="3.43"/><rect class="cls-9" x="741.42" y="366.08" width="15.87" height="89" rx="3.43"/><rect class="cls-16" x="499.95" y="329.58" width="15.87" height="27.65" rx="3.43"/><rect class="cls-16" x="560.31" y="329.58" width="15.87" height="27.65" rx="3.43"/><rect class="cls-16" x="620.68" y="329.58" width="15.87" height="27.65" rx="3.43"/><rect class="cls-16" x="681.05" y="329.58" width="15.87" height="27.65" rx="3.43"/><rect class="cls-16" x="741.42" y="329.58" width="15.87" height="27.65" rx="3.43"/><rect class="cls-9" x="794.94" y="518.47" width="87.75" height="125.51"/><polygon class="cls-14" points="794.95 518.48 882.7 643.98 882.7 518.48 794.95 518.48"/><rect class="cls-15" x="406.59" y="518.47" width="15.87" height="27.65" rx="3.43"/><rect class="cls-9" x="406.59" y="554.98" width="15.87" height="89" rx="3.43"/><rect class="cls-9" x="499.95" y="554.98" width="15.87" height="89" rx="3.43"/><rect class="cls-9" x="560.31" y="554.98" width="15.87" height="89" rx="3.43"/><rect class="cls-9" x="620.68" y="554.98" width="15.87" height="89" rx="3.43"/><rect class="cls-9" x="681.05" y="554.98" width="15.87" height="89" rx="3.43"/><rect class="cls-9" x="741.42" y="554.98" width="15.87" height="89" rx="3.43"/><rect class="cls-16" x="499.95" y="518.47" width="15.87" height="27.65" rx="3.43"/><rect class="cls-16" x="560.31" y="518.47" width="15.87" height="27.65" rx="3.43"/><rect class="cls-16" x="620.68" y="518.47" width="15.87" height="27.65" rx="3.43"/><rect class="cls-16" x="681.05" y="518.47" width="15.87" height="27.65" rx="3.43"/><rect class="cls-16" x="741.42" y="518.47" width="15.87" height="27.65" rx="3.43"/><rect class="cls-9" x="794.94" y="709.7" width="87.75" height="125.51"/><polygon class="cls-14" points="794.95 709.7 882.7 835.21 882.7 709.7 794.95 709.7"/><rect class="cls-15" x="406.59" y="709.7" width="15.87" height="27.65" rx="3.43"/><rect class="cls-9" x="406.59" y="746.21" width="15.87" height="89" rx="3.43"/><rect class="cls-9" x="499.95" y="746.21" width="15.87" height="89" rx="3.43"/><rect class="cls-9" x="560.31" y="746.21" width="15.87" height="89" rx="3.43"/><rect class="cls-9" x="620.68" y="746.21" width="15.87" height="89" rx="3.43"/><rect class="cls-9" x="681.05" y="746.21" width="15.87" height="89" rx="3.43"/><rect class="cls-9" x="741.42" y="746.21" width="15.87" height="89" rx="3.43"/><rect class="cls-16" x="499.95" y="709.7" width="15.87" height="27.65" rx="3.43"/><rect class="cls-16" x="560.31" y="709.7" width="15.87" height="27.65" rx="3.43"/><rect class="cls-16" x="620.68" y="709.7" width="15.87" height="27.65" rx="3.43"/><rect class="cls-16" x="681.05" y="709.7" width="15.87" height="27.65" rx="3.43"/><rect class="cls-16" x="741.42" y="709.7" width="15.87" height="27.65" rx="3.43"/><rect class="cls-9" x="794.94" y="900.93" width="87.75" height="125.51"/><polygon class="cls-14" points="794.95 900.93 882.7 1026.44 882.7 900.93 794.95 900.93"/><rect class="cls-15" x="406.59" y="900.93" width="15.87" height="27.65" rx="3.43"/><rect class="cls-9" x="406.59" y="937.44" width="15.87" height="89" rx="3.43"/><rect class="cls-9" x="499.95" y="937.44" width="15.87" height="89" rx="3.43"/><rect class="cls-9" x="560.31" y="937.44" width="15.87" height="89" rx="3.43"/><rect class="cls-9" x="620.68" y="937.44" width="15.87" height="89" rx="3.43"/><rect class="cls-9" x="681.05" y="937.44" width="15.87" height="89" rx="3.43"/><rect class="cls-9" x="741.42" y="937.44" width="15.87" height="89" rx="3.43"/><rect class="cls-16" x="499.95" y="900.93" width="15.87" height="27.65" rx="3.43"/><rect class="cls-16" x="560.31" y="900.93" width="15.87" height="27.65" rx="3.43"/><rect class="cls-16" x="620.68" y="900.93" width="15.87" height="27.65" rx="3.43"/><rect class="cls-16" x="681.05" y="900.93" width="15.87" height="27.65" rx="3.43"/><rect class="cls-16" x="741.42" y="900.93" width="15.87" height="27.65" rx="3.43"/><rect class="cls-9" x="794.94" y="1092.16" width="87.75" height="125.51"/><polygon class="cls-14" points="794.95 1092.16 882.7 1217.67 882.7 1092.16 794.95 1092.16"/><rect class="cls-15" x="406.59" y="1092.16" width="15.87" height="27.65" rx="3.43"/><rect class="cls-9" x="406.59" y="1128.67" width="15.87" height="89" rx="3.43"/><rect class="cls-9" x="499.95" y="1128.67" width="15.87" height="89" rx="3.43"/><rect class="cls-9" x="560.31" y="1128.67" width="15.87" height="89" rx="3.43"/><rect class="cls-9" x="620.68" y="1128.67" width="15.87" height="89" rx="3.43"/><rect class="cls-9" x="681.05" y="1128.67" width="15.87" height="89" rx="3.43"/><rect class="cls-9" x="741.42" y="1128.67" width="15.87" height="89" rx="3.43"/><rect class="cls-16" x="499.95" y="1092.16" width="15.87" height="27.65" rx="3.43"/><rect class="cls-16" x="560.31" y="1092.16" width="15.87" height="27.65" rx="3.43"/><rect class="cls-16" x="620.68" y="1092.16" width="15.87" height="27.65" rx="3.43"/><rect class="cls-16" x="681.05" y="1092.16" width="15.87" height="27.65" rx="3.43"/><rect class="cls-16" x="741.42" y="1092.16" width="15.87" height="27.65" rx="3.43"/><rect class="cls-9" x="1232.97" y="285.67" width="600.06" height="972.3" rx="35.38"/><rect class="cls-13" x="1252.94" y="310.65" width="560.12" height="158.7" rx="33.13"/><rect class="cls-13" x="1252.94" y="501.88" width="560.12" height="158.7" rx="33.13"/><rect class="cls-13" x="1252.94" y="693.11" width="560.12" height="158.7" rx="33.13"/><rect class="cls-13" x="1252.94" y="884.34" width="560.12" height="158.7" rx="33.13"/><rect class="cls-13" x="1252.94" y="1075.56" width="560.12" height="158.7" rx="33.13"/><rect class="cls-9" x="1683.3" y="329.58" width="87.75" height="125.51"/><polygon class="cls-14" points="1683.31 329.58 1771.06 455.09 1771.06 329.58 1683.31 329.58"/><rect class="cls-15" x="1294.95" y="329.58" width="15.87" height="27.65" rx="3.43"/><rect class="cls-9" x="1294.95" y="366.08" width="15.87" height="89" rx="3.43"/><rect class="cls-9" x="1388.31" y="366.08" width="15.87" height="89" rx="3.43"/><rect class="cls-9" x="1448.67" y="366.08" width="15.87" height="89" rx="3.43"/><rect class="cls-9" x="1509.04" y="366.08" width="15.87" height="89" rx="3.43"/><rect class="cls-9" x="1569.41" y="366.08" width="15.87" height="89" rx="3.43"/><rect class="cls-9" x="1629.78" y="366.08" width="15.87" height="89" rx="3.43"/><rect class="cls-16" x="1388.31" y="329.58" width="15.87" height="27.65" rx="3.43"/><rect class="cls-16" x="1448.67" y="329.58" width="15.87" height="27.65" rx="3.43"/><rect class="cls-16" x="1509.04" y="329.58" width="15.87" height="27.65" rx="3.43"/><rect class="cls-16" x="1569.41" y="329.58" width="15.87" height="27.65" rx="3.43"/><rect class="cls-16" x="1629.78" y="329.58" width="15.87" height="27.65" rx="3.43"/><rect class="cls-9" x="1683.3" y="518.47" width="87.75" height="125.51"/><polygon class="cls-14" points="1683.31 518.48 1771.06 643.98 1771.06 518.48 1683.31 518.48"/><rect class="cls-15" x="1294.95" y="518.47" width="15.87" height="27.65" rx="3.43"/><rect class="cls-9" x="1294.95" y="554.98" width="15.87" height="89" rx="3.43"/><rect class="cls-9" x="1388.31" y="554.98" width="15.87" height="89" rx="3.43"/><rect class="cls-9" x="1448.67" y="554.98" width="15.87" height="89" rx="3.43"/><rect class="cls-9" x="1509.04" y="554.98" width="15.87" height="89" rx="3.43"/><rect class="cls-9" x="1569.41" y="554.98" width="15.87" height="89" rx="3.43"/><rect class="cls-9" x="1629.78" y="554.98" width="15.87" height="89" rx="3.43"/><rect class="cls-16" x="1388.31" y="518.47" width="15.87" height="27.65" rx="3.43"/><rect class="cls-16" x="1448.67" y="518.47" width="15.87" height="27.65" rx="3.43"/><rect class="cls-16" x="1509.04" y="518.47" width="15.87" height="27.65" rx="3.43"/><rect class="cls-16" x="1569.41" y="518.47" width="15.87" height="27.65" rx="3.43"/><rect class="cls-16" x="1629.78" y="518.47" width="15.87" height="27.65" rx="3.43"/><rect class="cls-9" x="1683.3" y="709.7" width="87.75" height="125.51"/><polygon class="cls-14" points="1683.31 709.7 1771.06 835.21 1771.06 709.7 1683.31 709.7"/><rect class="cls-15" x="1294.95" y="709.7" width="15.87" height="27.65" rx="3.43"/><rect class="cls-9" x="1294.95" y="746.21" width="15.87" height="89" rx="3.43"/><rect class="cls-9" x="1388.31" y="746.21" width="15.87" height="89" rx="3.43"/><rect class="cls-9" x="1448.67" y="746.21" width="15.87" height="89" rx="3.43"/><rect class="cls-9" x="1509.04" y="746.21" width="15.87" height="89" rx="3.43"/><rect class="cls-9" x="1569.41" y="746.21" width="15.87" height="89" rx="3.43"/><rect class="cls-9" x="1629.78" y="746.21" width="15.87" height="89" rx="3.43"/><rect class="cls-16" x="1388.31" y="709.7" width="15.87" height="27.65" rx="3.43"/><rect class="cls-16" x="1448.67" y="709.7" width="15.87" height="27.65" rx="3.43"/><rect class="cls-16" x="1509.04" y="709.7" width="15.87" height="27.65" rx="3.43"/><rect class="cls-16" x="1569.41" y="709.7" width="15.87" height="27.65" rx="3.43"/><rect class="cls-16" x="1629.78" y="709.7" width="15.87" height="27.65" rx="3.43"/><rect class="cls-9" x="1683.3" y="900.93" width="87.75" height="125.51"/><polygon class="cls-14" points="1683.31 900.93 1771.06 1026.44 1771.06 900.93 1683.31 900.93"/><rect class="cls-15" x="1294.95" y="900.93" width="15.87" height="27.65" rx="3.43"/><rect class="cls-9" x="1294.95" y="937.44" width="15.87" height="89" rx="3.43"/><rect class="cls-9" x="1388.31" y="937.44" width="15.87" height="89" rx="3.43"/><rect class="cls-9" x="1448.67" y="937.44" width="15.87" height="89" rx="3.43"/><rect class="cls-9" x="1509.04" y="937.44" width="15.87" height="89" rx="3.43"/><rect class="cls-9" x="1569.41" y="937.44" width="15.87" height="89" rx="3.43"/><rect class="cls-9" x="1629.78" y="937.44" width="15.87" height="89" rx="3.43"/><rect class="cls-16" x="1388.31" y="900.93" width="15.87" height="27.65" rx="3.43"/><rect class="cls-16" x="1448.67" y="900.93" width="15.87" height="27.65" rx="3.43"/><rect class="cls-16" x="1509.04" y="900.93" width="15.87" height="27.65" rx="3.43"/><rect class="cls-16" x="1569.41" y="900.93" width="15.87" height="27.65" rx="3.43"/><rect class="cls-16" x="1629.78" y="900.93" width="15.87" height="27.65" rx="3.43"/><rect class="cls-9" x="1683.3" y="1092.16" width="87.75" height="125.51"/><polygon class="cls-14" points="1683.31 1092.16 1771.06 1217.67 1771.06 1092.16 1683.31 1092.16"/><rect class="cls-15" x="1294.95" y="1092.16" width="15.87" height="27.65" rx="3.43"/><rect class="cls-9" x="1294.95" y="1128.67" width="15.87" height="89" rx="3.43"/><rect class="cls-9" x="1388.31" y="1128.67" width="15.87" height="89" rx="3.43"/><rect class="cls-9" x="1448.67" y="1128.67" width="15.87" height="89" rx="3.43"/><rect class="cls-9" x="1509.04" y="1128.67" width="15.87" height="89" rx="3.43"/><rect class="cls-9" x="1569.41" y="1128.67" width="15.87" height="89" rx="3.43"/><rect class="cls-9" x="1629.78" y="1128.67" width="15.87" height="89" rx="3.43"/><rect class="cls-16" x="1388.31" y="1092.16" width="15.87" height="27.65" rx="3.43"/><rect class="cls-16" x="1448.67" y="1092.16" width="15.87" height="27.65" rx="3.43"/><rect class="cls-16" x="1509.04" y="1092.16" width="15.87" height="27.65" rx="3.43"/><rect class="cls-16" x="1569.41" y="1092.16" width="15.87" height="27.65" rx="3.43"/><rect class="cls-16" x="1629.78" y="1092.16" width="15.87" height="27.65" rx="3.43"/><circle class="cls-9" cx="649.6" cy="189.45" r="73.44"/><path class="cls-11" d="M694.43,157.32l-.49-4-4.06-.07c-27.1-.48-37.12-8.71-37.17-8.75l-3.08-2.68-3.1,2.63c-.09.09-10.12,8.32-37.22,8.8l-4.06.07-.49,4c-.06.51-5.56,50.49,42.49,78.41l2.35,1.37,2.34-1.37C700,207.81,694.49,157.83,694.43,157.32ZM649.6,226.25c-33.36-20.74-36-52.67-35.79-63.84,19.78-1,30.87-5.9,35.79-8.83,4.92,2.92,16,7.86,35.75,8.83A74,74,0,0,1,649.6,226.25Z"/><path class="cls-11" d="M637.7,176.29v4.33a7.84,7.84,0,0,0-3.82,6.7v9.41a7.89,7.89,0,0,0,7.86,7.86h15.72a7.88,7.88,0,0,0,7.85-7.86v-9.41a7.85,7.85,0,0,0-3.81-6.7v-4.33a11.9,11.9,0,1,0-23.8,0Zm13.88,13.52v8.1a1,1,0,0,1-1,1h-2a1,1,0,0,1-1-1v-8.1a2.92,2.92,0,0,1-1-2.18,3,3,0,1,1,4.94,2.18Zm6.19-13.52v3.2c-.11,0-.21,0-.31,0H641.74c-.11,0-.2,0-.31,0v-3.2a8.17,8.17,0,1,1,16.34,0Z"/><circle class="cls-9" cx="1537.98" cy="189.45" r="73.44"/><path class="cls-11" d="M1582.82,157.32l-.49-4-4.06-.07c-27.1-.48-37.12-8.71-37.17-8.75l-3.08-2.68-3.1,2.63c-.1.09-10.12,8.32-37.22,8.8l-4.06.07-.49,4c-.06.51-5.56,50.49,42.49,78.41l2.34,1.37,2.35-1.37C1588.38,207.81,1582.88,157.83,1582.82,157.32ZM1538,226.25c-33.35-20.74-36-52.67-35.79-63.84,19.78-1,30.87-5.9,35.79-8.83,4.92,2.92,16,7.86,35.76,8.83A74,74,0,0,1,1538,226.25Z"/><path class="cls-11" d="M1526.08,176.29v4.33a7.85,7.85,0,0,0-3.81,6.7v9.41a7.89,7.89,0,0,0,7.86,7.86h15.71a7.89,7.89,0,0,0,7.86-7.86v-9.41a7.85,7.85,0,0,0-3.81-6.7v-4.33a11.91,11.91,0,1,0-23.81,0ZM1540,189.81v8.1a1,1,0,0,1-1,1h-2a1,1,0,0,1-1-1v-8.1a3,3,0,1,1,4,0Zm6.18-13.52v3.2c-.1,0-.2,0-.31,0h-15.71c-.11,0-.21,0-.31,0v-3.2a8.17,8.17,0,1,1,16.33,0Z"/><path class="cls-17" d="M1109.85,418.93h0a31.12,31.12,0,0,1-6.91-6.31,45.54,45.54,0,0,1-6.7-11.29,64.26,64.26,0,0,1-3.55-11,52.78,52.78,0,0,1-1.06-5.72h-19a71,71,0,0,1-4.89,15.38c-.55,1.23-1.15,2.5-1.82,3.74v0c-.59,1.1-1.23,2.21-2,3.29v0a34.12,34.12,0,0,1-11,11.24,4.66,4.66,0,0,0,.27.47h0l-.27-.47a34.52,34.52,0,0,1-4.66,3l32.16,24.49.33,0h.39l32.24-24.56C1112.22,420.43,1111,419.67,1109.85,418.93Zm-.27.47h0l.13-.23Z"/><path class="cls-18" d="M1048,662.46c-1.72-.21-3.42-.43-5.06-.65C1044.6,662,1046.28,662.26,1048,662.46Z"/><path class="cls-19" d="M1102.94,412.62h0c-27.53,1.76-35.16-12.62-35.16-12.62l12.15-7.12,12.77-2.56C1094,396.18,1097,405.39,1102.94,412.62Z"/><path class="cls-20" d="M1162,655.7h0l-18.94-.44a1.77,1.77,0,0,0-.06.17,14.46,14.46,0,0,1-4.06,5.51,14.15,14.15,0,0,1-9.13,3.31h-63.41q-2.92-.21-5.77-.46a3.4,3.4,0,0,1-.07.46h-30.44c-2.78-.87-5.59-1.79-8.44-2.81a14.24,14.24,0,0,1-3.68-4,13.36,13.36,0,0,1-.88-1.68c-.12-.26-.23-.52-.32-.78s-.14-.38-.2-.58a4.12,4.12,0,0,1-.21-.73s0,0,0,0l-14.6-.21S973,868.57,965.45,942c-3.83,75.14,8.61,277.44,12.62,303.26l24.61,3.18s9.29-27,20.53-65.66c18-61.69,40.89-153.1,39-211.92,0,0,10.54-56.36,29.14-112.21l0,0c1.79,5.48,2.89,8.57,2.89,8.57,35.22,122.64,73.93,380.09,73.93,380.09H1193C1276.93,835.68,1162,655.7,1162,655.7Z"/><path class="cls-21" d="M1081.46,629.7l-10.3-1c-13.82-1.37-30.79-3-48-3.91l26.94-2.87,20.79-1.27L1081,620l9.28-.58c4.7,3.93,8.9,7.14,11.48,8.92C1106.55,631.66,1097.5,631.22,1081.46,629.7Z"/><path class="cls-21" d="M1139.86,634.47h0c-.13,0-.23,0-.35,0Z"/><path class="cls-21" d="M1138.55,634.62l-4.24.53c-4.14.5-8.25,1-12.26,1.4-4.78.53-9.44,1-14,1.41l-.65.06,1.33-.14,6.25-.66.92-.11c2.65-.27,5.46-.59,8.2-.88l2.84-.32,3.8-.43,1.79-.19,1.67-.19,1.11-.12,1.28-.15.55-.06Z"/><path class="cls-22" d="M1168.23,1247.27s-10.25,28.85-4.56,34.17,57.72,16.33,71,13.67-36.37-33-36.37-33l-5.26-14.8Z"/><path class="cls-22" d="M1002.68,1248.43s7.63,32.37.13,34.47c-8.26,2.32-58.63,6.27-72.17,4.46-2.15-12.5,40.3-28.1,40.3-28.1l7.12-14Z"/><path class="cls-23" d="M1091.37,858.64c-18.6,55.85-29.14,112.21-29.14,112.21,1.86,58.82-21.07,150.23-39,211.92,0,0,6-210.58,27.22-251.09s12-66.31,12-66.31c-10.88-56,0-125.6,0-125.6,3.78,55.6,28.93,118.81,28.93,118.81Z"/><polygon class="cls-22" points="1149.59 746.3 1191.09 768.57 1186.88 777.4 1145.36 754.62 1149.59 746.3"/><path class="cls-17" d="M1137.32,342.6a11.74,11.74,0,0,0-8.8-11.42,128.76,128.76,0,0,0-1.82-18.32c-6.48-37-77.25-34.86-83.72,0-4.27,23-11.22,81.76,33.66,89.5,30.45,5.26,45.89-19.15,50.45-48.07A11.71,11.71,0,0,0,1137.32,342.6Z"/><path class="cls-24" d="M990.89,565.83Z"/><path class="cls-24" d="M991,565.77l-.08.06h0l.08-.06Z"/><path class="cls-24" d="M991,565.77h0l.16-.12Z"/><polygon class="cls-24" points="990.89 565.83 990.89 565.83 990.89 565.83 990.89 565.83"/><path class="cls-24" d="M1167.41,571.73v-.26h0c.11-3.12.18-5.61.23-7.25,0-.26,0-.48,0-.7v-.13c0-.28,0-.53,0-.73s0-.31,0-.46c.63.79.46,1.14,1.1,2C1170.53,570.6,1170.49,572.48,1167.41,571.73Z"/><path class="cls-24" d="M997.73,553.65c-.1,2.64-.16,5.27-.22,7.87-1.17.68-2.29,1.38-3.38,2.09l0,0-.27.18-.93.64a6,6,0,0,0-.74.5,1.94,1.94,0,0,0-.34.21c-.1.08-.23.15-.33.24l-.34.23-.15.12h-.13a3.36,3.36,0,0,1-.35-3.07h0a.29.29,0,0,0,.06-.11c2.93-3.67,5.93-7.55,6.44-8.05l0,0v0Z"/><path class="cls-25" d="M1127.57,429.06l1.4.7Z"/><path class="cls-25" d="M1146.84,437.9c1.58.67,3.21,1.34,4.93,2h0c-2.9-1.19-6.36-2.64-10.11-4.28l1.42.64Z"/><path class="cls-25" d="M1001.25,648.29c-.24-2.87-.5-6.08-.79-9.57h0C1000.76,642.14,1001,645.34,1001.25,648.29Z"/><path class="cls-25" d="M1027.56,431.07c3.91-1.64,7.26-3.12,10.15-4.46-2.92,1.32-6.34,2.82-10.31,4.49h0l0,0Z"/><path class="cls-25" d="M1132.87,431.64l-.84-.4c.23.11.45.23.68.33Z"/><path class="cls-25" d="M1161.94,655.7h0s0-.1,0-.28c0,.17,0,.28,0,.28Z"/><path class="cls-26" d="M1074.51,673.09c1.54.13,3.07.24,4.57.33,2,.12,3.91.2,5.81.26-.27-2.67-.55-5.57-.83-8.65-3.55-.06-7-.18-10.44-.34C1073.9,667.51,1074.19,670.31,1074.51,673.09Z"/><path class="cls-27" d="M1084.07,665c-3.55-.06-7-.18-10.45-.35,0-.15,0-.29,0-.44H1084C1084,664.51,1084,664.78,1084.07,665Z"/><path class="cls-27" d="M1047.3,421.9l0,0-.31.17,0,.05Z"/><path class="cls-27" d="M1114.62,421.89l.14.09,0-.12h0Z"/><path class="cls-27" d="M1047.3,421.9l1.06-.6-2.23-1.7L1047,422l.31-.17Z"/><path class="cls-27" d="M1113.48,421.2l1.13.69.17,0h0l.78-2.26Z"/><path class="cls-27" d="M1048.36,421.3l-1.06.6-.32.17,10,29.36,2,6,5.37-2.8,15.64-8.16.69-.46-.25-.2Z"/><path class="cls-27" d="M1113.48,421.2l-32.24,24.56-.25.19,1.14.76L1098,455l4.63,2.42,1.8-5.27L1114.76,422l-.15-.09Z"/><path class="cls-28" d="M1076.22,467.79c-.29,3.25-.63,7.08-1,11.44h-6.11c.9-4.47,1.77-8.63,2.57-12.32Z"/><path class="cls-28" d="M1086.67,479.23h-2.6c.33-3.23.7-6.47,1.08-9.72l1.32.26C1086.53,472.71,1086.59,475.87,1086.67,479.23Z"/><path class="cls-28" d="M1085.15,469.51c-.38,3.25-.75,6.49-1.08,9.72h-8.84c.36-4.36.7-8.19,1-11.44Z"/><polygon class="cls-28" points="1080.99 445.95 1080.91 445.89 1080.77 445.99 1080.85 446.05 1080.99 445.95"/><path class="cls-28" d="M1080.57,459.3l1.49-.32.32-.08c1-.22,2.3-.56,3.9-1-.07-5.31-.1-8.45-.1-8.45l-4.06-2.73-1.27-.66-.77.4-4.39,3s-.82,3.31-2.08,8.86l3.39,1.31c0-.28,0-.56.08-.81C1078.25,459,1079.4,459.16,1080.57,459.3Z"/><path class="cls-28" d="M1077,459.61l-3.39-1.31c-.56,2.46-1.21,5.36-1.92,8.61l4.53.88C1076.53,464.39,1076.8,461.64,1077,459.61Z"/><path class="cls-28" d="M1085.14,469.52l1.33.25c-.06-3.63-.12-6.9-.16-9.7Q1085.7,464.8,1085.14,469.52Z"/><path class="cls-28" d="M1082.17,461.38l4.14-1.6q0-1,0-1.89c-1.6.45-2.93.79-3.9,1l-.32.08-1.49.32c-1.17-.14-2.32-.29-3.49-.5,0,.25,0,.53-.08.81l4.44,1.68S1081.71,461.34,1082.17,461.38Z"/><path class="cls-28" d="M1086.31,460.07v-.29l-4.14,1.6c-.46,0-.73-.09-.73-.09l-4.44-1.68c-.2,2-.47,4.78-.78,8.18l8.92,1.73Q1085.7,464.8,1086.31,460.07Z"/><polygon class="cls-28" points="1080.77 445.99 1080.08 446.45 1080.85 446.05 1080.77 445.99"/><polygon class="cls-28" points="1082.13 446.71 1080.99 445.95 1080.85 446.05 1082.13 446.71"/><path class="cls-29" d="M1122.05,636.55c-4.78.53-9.44,1-14,1.41l-.65.06-1.92.18-1.65.15q-11.25,1-21.7,1.61-5.26.33-10.35.55a494.18,494.18,0,0,1-55.92-.38V650a16.62,16.62,0,0,0,.12,1.87c0,.24.08.5.12.74s.15.7.25,1c0,0,0,0,0,0a4.12,4.12,0,0,0,.21.73c.06.2.13.4.2.58s.2.52.32.78a13.36,13.36,0,0,0,.88,1.68,14.32,14.32,0,0,0,12.12,6.82h99.69a14.21,14.21,0,0,0,9.13-3.31,14.46,14.46,0,0,0,4.06-5.51,1.77,1.77,0,0,1,.06-.17,14.17,14.17,0,0,0,1-5.27V638c-3.42-.87-6.66-1.79-9.71-2.81C1130.17,635.65,1126.06,636.12,1122.05,636.55Zm7.7-157.32h-99.66a14.27,14.27,0,0,0-14.26,14.28V549.2c5.89-4.39,18.8-10.42,44.17-8.7,3.55.24,7.35.62,11.42,1.2l3,.44c1.93.3,3.81.62,5.66.94,3.29.56,6.43,1.14,9.45,1.73,30,5.93,47.57,13.23,54.53,16.56V493.51A14.28,14.28,0,0,0,1129.75,479.23Zm-40.93,55.53a14,14,0,0,1-7.39,2.12c-.4,0-.81,0-1.2-.06a14,14,0,0,1,1.2-27.91h.16a14,14,0,0,1,7.23,25.84Z"/><path class="cls-30" d="M1095.42,522.9a14,14,0,0,1-14,14c-.4,0-.81,0-1.2-.06a14,14,0,0,1,1.2-27.91h.16a14,14,0,0,1,13.83,14Z"/><path class="cls-31" d="M1144,561.37V562c-12.35-4.62-29.89-9.8-54.21-13.11-3.17-.42-6.47-.83-9.87-1.2h0c-3-.32-5.86-.54-8.7-.73-4-.25-7.84-.36-11.56-.38-17.57,0-32,2.6-43.83,6.64v-4c5.89-4.39,18.8-10.42,44.17-8.7,3.55.24,7.35.62,11.42,1.2l3,.44c1.93.3,3.81.62,5.66.94,3.29.56,6.43,1.14,9.45,1.73C1119.52,550.74,1137.06,558,1144,561.37Z"/><polygon class="cls-32" points="1080.91 445.89 1080.99 445.95 1081.24 445.76 1080.85 445.77 1080.52 445.79 1080.77 445.99 1080.91 445.89"/><path class="cls-33" d="M1138.55,634.62l-4.24.53c-4.14.5-8.25,1-12.26,1.4-4.78.53-9.44,1-14,1.41l-.65.06,1.33-.14,6.25-.66.92-.11c2.65-.27,5.46-.59,8.2-.88l2.84-.32,3.8-.43,1.79-.19,1.67-.19,1.11-.12,1.28-.15.55-.06Z"/><path class="cls-34" d="M1159.51,641c-1.7-.26-3.36-.53-5-.82-3.7-.67-7.2-1.41-10.52-2.25v12a14.17,14.17,0,0,1-1,5.27,1.77,1.77,0,0,0-.06.17,14.46,14.46,0,0,1-4.06,5.51,14.21,14.21,0,0,1-9.13,3.31h-99.66a210.11,210.11,0,0,0,29.47,7c41.63,6.84,72.31-1.7,88.72-8.59a0,0,0,0,0,0,0,1.88,1.88,0,0,0,.32-.14c.19-.06.41-.16.7-.28s.67-.31,1-.44a5.44,5.44,0,0,1,.5-.22c.2-.07.4-.18.61-.27l.12-.05c.32-.15.64-.28.93-.44h0c.32-.13.64-.3,1-.47l.94-.45.14-.06,1.35-.69c.41-.21.79-.42,1.17-.6a3.13,3.13,0,0,0,.35-.19c.83-.45,1.56-.86,2.17-1.21.2-.12.38-.25.58-.35.59-.37,1.18-.73,1.74-1.1h0s0-.12,0-.27c0-.32,0-.88,0-1.72.31-1.32.6-3,.88-5.09.08-.51.14-1,.2-1.59s.15-1.13.21-1.72.14-1.17.2-1.79v0c.06-.62.14-1.24.2-1.9h0l-1.69-.21Zm-141.57,16.4a13.36,13.36,0,0,1-.88-1.68c-.12-.26-.23-.52-.32-.78s-.14-.38-.2-.58a4.12,4.12,0,0,1-.21-.73s0,0,0,0c-.1-.33-.17-.68-.25-1s-.09-.5-.12-.74a16.62,16.62,0,0,1-.12-1.87v-9.86q-8-.57-15.32-1.41c.07,1.08.16,2.14.24,3.17s.16,2,.23,3c.1,1.15.18,2.27.27,3.37.08.94.15,1.85.21,2.75,0,.06,0,.1,0,.16s0,.14,0,.2c0,.27,0,.56.06.84v.07c0,.25.05.47.06.72a1.56,1.56,0,0,0,0,.16c0,.16,0,.19.06.23s0,0,0,0,0,0,.08,0h0c6.78,3,13.37,5.69,19.78,8A14.24,14.24,0,0,1,1017.94,657.43Zm220.24-142.22h0c-21.69-56-83.52-74.48-86.32-75.29h0s0,0-.06,0h0c-1.65-.62-3.22-1.27-4.74-1.91l-.18-.08-3.77-1.65-1.41-.64c-3.19-1.46-6.09-2.82-8.79-4l-.17-.08-.67-.32c-1-.48-2-1-3-1.49l-1.41-.71c-4.44-2.26-8.6-4.68-12.76-7.18l0,.12-10.31,30.16-1.81,5.26L1098,455l-15.88-8.28,4,2.74s0,3.13.11,8.44c0,.59,0,1.23,0,1.9a1.52,1.52,0,0,0,0,.29c0,2.79.09,6.06.15,9.69.06,2.94.12,6.1.2,9.46h43.08A14.28,14.28,0,0,1,1144,493.51v28.58c11.92,15.83,23.63,40,23.67,40.1h0c.63.79.46,1.14,1.1,1.95h0c1.74,6.44,1.7,8.32-1.38,7.57v-.26h0c.11-3.12.18-5.61.23-7.25,0-.26,0-.48,0-.7,0,.43,0,.85,0,1.28s0,.58,0,.86c-.06,2-.14,3.88-.21,5.79-3.53-1.12-9.82-4.4-19.85-8.29l-3.47-16.37c0-.06,0-.11,0-.17V562c-12.35-4.62-29.89-9.8-54.21-13.11-3.17-.42-6.47-.83-9.87-1.2h0c-3-.32-5.86-.54-8.7-.73-4-.25-7.84-.36-11.56-.38-17.57,0-32,2.6-43.83,6.64v-59.7a14.27,14.27,0,0,1,14.26-14.28h39c.9-4.47,1.77-8.63,2.57-12.32.72-3.25,1.35-6.15,1.92-8.61,1.26-5.54,2.08-8.85,2.08-8.85l4.39-3-15.65,8.16-5.36,2.8-2-6-10-29.36V422c-2.3,1.24-5.35,2.78-9.27,4.58-.36.17-.73.34-1.11.5s-.77.35-1.17.54l-.86.39c-2.11,1-4.42,2-7,3l-.19.08s0,0,0,0c-5.36,2.25-11.74,4.8-19.28,7.67h0c0,.05-.08.09-.11.15l-.13-.15s-64,17.57-86.21,74.92h0s-19.56,29.56-16.55,60.19c20.15,43.29,66,51.53,81.79,50.7,4.07-.23,8.26-.33,12.51-.36h0c5.39-.05,10.91.06,16.42.25,2.43.09,4.88.2,7.31.32,17.23.87,34.2,2.54,48,3.91l10.3,1c16,1.52,25.09,2,20.26-1.32-2.58-1.78-6.78-5-11.48-8.92-3.1-2.55-6.41-5.41-9.68-8.37-3.58-3.25-7.06-6.59-10.1-9.78-.77-.82-1.53-1.62-2.25-2.41,0,0,0,0,0,0-.93-1-1.79-2.06-2.58-3-4.7-4.33-13.2-9-13.73-9.26l0,0,2-.27-6.5-1.31h0l-2-.42c-.33-.08-.65-.14-1-.2l-2-.42c-.34-.06-.67-.14-1-.22l-3.59-.77c-.29-.08-.59-.14-.89-.2l-1.66-.38-1.28-.29-1.58-.36c-.47-.11-.94-.21-1.41-.34l-1.4-.31q-1.27-.33-2.55-.63l-1.09-.27-1.7-.43-1.09-.28c-.61-.16-1.2-.31-1.78-.48l-.87-.22-2.55-.69-.42-.12-1.66-.47-.47-.14-.67-.19-2-.6-.46-.13c-1.62-.5-3.17-1-4.65-1.49l-.38-.14c-.63-.21-1.26-.44-1.86-.65a1.63,1.63,0,0,0-.31-.11c-1.4-.51-2.72-1-3.95-1.55l-.21-.09c-.55-.22-1.08-.45-1.58-.68a1.2,1.2,0,0,0-.23-.11l-.85-.39-.8-.41h0c-.5-.26-1-.5-1.41-.76l-.17-.09c-.39-.23-.76-.44-1.12-.67l-.23-.15-1.06-.72,0,0c-.33-.26-.65-.52-1-.78a1.3,1.3,0,0,1-.14-.12c-.21-.21-.43-.41-.62-.62a1,1,0,0,1-.17-.2,4.85,4.85,0,0,1-.47-.59c0-.06-.08-.11-.11-.17s0,0,0-.06h0c1.56.14,3.79.29,6.54.47h0c4.77.31,11.13.75,18.36,1.54,15.92,1.74,36,5.21,52.85,12.82.6.25,1.19.53,1.77.8a81.18,81.18,0,0,1,8,4.34c.49.29,1,.6,1.43.9,1.73,1.12,3.39,2.31,5,3.55.83.67,1.7,1.34,2.58,2-1.23-.19-2.47-.41-3.72-.6l3.72.62a166.12,166.12,0,0,0,27,16.3,234,234,0,0,0,29.6,11.9c6.41,2.1,12.78,3.91,19,5.41l.41.09,1.44.35a194.16,194.16,0,0,0,32.49,5c17.75.73,34.73-.93,47.12-6.84h0C1274.74,588.83,1238.27,515.39,1238.18,515.21ZM990.4,565.76s0,0,0,0l0,0Zm7.49-16.33c0,.36,0,.7,0,1s0,.5,0,.73c-.08,1.58-.09,2.47-.09,2.47-.1,2.64-.16,5.27-.22,7.87-1.17.68-2.29,1.38-3.38,2.09l0,0c-.23.15-.44.28-.67.45l-.53.37c-.36.21-.73.47-1.08.71l-.45.32c-.08.06-.16.1-.23.16l-.14.11h-.13a3.36,3.36,0,0,1-.35-3.07h0a.29.29,0,0,0,.06-.11v0l-.09-.09a2.35,2.35,0,0,0-.1-1.15A62.08,62.08,0,0,0,985,549.69a43.79,43.79,0,0,0,6-11.88,31.58,31.58,0,0,0,1.49-6.7c0-.07,0-.15,0-.21a72.74,72.74,0,0,1,7.56-24.77c6-11.59,13.23-17.39,13.69-17.74C1001.29,507.22,998.5,538.24,997.89,549.43Zm90.22,42.94h.15c.29.06.56.11.85.15Zm83.76-35.57a56.57,56.57,0,0,1,3-5.59A58.76,58.76,0,0,0,1171.87,556.8Z"/><polygon class="cls-35" points="1164.5 631.11 1164.5 631.11 1164.5 631.11 1164.5 631.11"/><path class="cls-36" d="M1139.51,634.51c.12,0,.22,0,.35,0h0Z"/><path class="cls-37" d="M1079.94,591h0l-1.65-.28Z"/><path class="cls-38" d="M1073.76,590c.64,1.11,1,1.75,1,1.75l.91-1.41,2.4.41-2.4-.43Z"/><path class="cls-39" d="M990.47,562.46l.09.09v0c2.93-3.67,5.93-7.55,6.44-8.05l0,0v0l.67-.82s0-.89.09-2.47c0-.23,0-.48,0-.73s0-.69,0-1c.61-11.19,3.4-42.21,15.89-61-.46.35-7.67,6.15-13.69,17.74a72.74,72.74,0,0,0-7.56,24.77c0,.06,0,.14,0,.21a31.58,31.58,0,0,1-1.49,6.7,43.79,43.79,0,0,1-6,11.88,62.08,62.08,0,0,1,5.37,11.62A2.35,2.35,0,0,1,990.47,562.46Z"/><path class="cls-39" d="M1197.33,631.31a194.16,194.16,0,0,1-32.49-5l-1.44-.35-.41-.09c-6.19-1.5-12.56-3.31-19-5.41a234,234,0,0,1-29.6-11.9,166.12,166.12,0,0,1-27-16.3l-3.72-.62c1.25.19,2.49.41,3.72.6-.88-.65-1.75-1.32-2.58-2-1.58-1.24-3.24-2.43-5-3.55-.47-.3-.94-.61-1.43-.9a81.18,81.18,0,0,0-8-4.34c-.58-.27-1.17-.55-1.77-.8-16.81-7.61-36.93-11.08-52.85-12.82-7.23-.79-13.59-1.23-18.36-1.54h0c-2.75-.18-5-.33-6.54-.47h0s0,0,0,.06.08.11.11.17a4.85,4.85,0,0,0,.47.59,1,1,0,0,0,.17.2c.19.21.41.41.62.62a1.3,1.3,0,0,0,.14.12c.3.26.62.52,1,.78l0,0,1.06.72.23.15c.36.23.73.44,1.12.67l.17.09c.44.26.91.5,1.41.76h0l.8.41.85.39a1.2,1.2,0,0,1,.23.11c.5.23,1,.46,1.58.68l.21.09c1.23.52,2.55,1,3.95,1.55a1.63,1.63,0,0,1,.31.11c.6.21,1.23.44,1.86.65l.38.14c1.48.5,3,1,4.65,1.49l.46.14,2,.59.67.19.47.14,1.66.47.42.12,2.55.69.87.22c.58.17,1.17.32,1.78.48l1.09.28,1.7.43,1.09.27q1.27.3,2.55.63l1.4.31c.47.13.94.23,1.41.34l1.58.36,1.28.29,1.66.38c.3.06.6.12.89.2l3.59.77c.33.08.66.16,1,.22l2,.42c.32.06.64.12,1,.2l2,.42h0l6.5,1.31-2,.27,0,0c.53.29,9,4.93,13.73,9.26.79,1,1.65,2,2.58,3,0,0,0,0,0,0,.72.79,1.48,1.59,2.25,2.41,3,3.19,6.52,6.53,10.1,9.78,3.27,3,6.58,5.82,9.68,8.37,4.7,3.93,8.9,7.14,11.48,8.92,4.83,3.28-4.22,2.84-20.26,1.32l-10.3-1c-13.82-1.37-30.79-3-48-3.91-2.43-.12-4.88-.23-7.31-.32-5.51-.19-11-.3-16.42-.25h0c-4.25,0-8.44.13-12.51.36-15.78.83-61.64-7.41-81.79-50.7v0c.11,1,.23,2.06.38,3.11,4,26.78,26.33,53.66,95,61.68h0q7.29.84,15.32,1.41a494.18,494.18,0,0,0,55.92.38q5.09-.22,10.35-.55,10.45-.63,21.7-1.61l1.65-.15,1.92-.18.65-.06.68-.08,6.25-.66.92-.11c2.65-.27,5.46-.59,8.2-.88l2.84-.32,3.8-.43,1.79-.19,1.67-.19,1.11-.12,1.28-.15.55-.06,1.44-.15-4.24.53c3,1,6.29,1.94,9.71,2.81s6.82,1.58,10.52,2.25c1.61.29,3.27.56,5,.82l2.41.35,1.69.21a237,237,0,0,0,24.13,1.78c29,.71,46.58-7,56.71-18.9C1232.06,630.38,1215.08,632,1197.33,631.31Zm-121.66-41-.91,1.41s-.36-.64-1-1.75l1.91.32,2.4.43Zm64.19,44.19c-.13,0-.23,0-.35,0l.35,0Z"/><path class="cls-39" d="M1167.69,562.19h0c0,.12,0,.28,0,.46s0,.45,0,.73v.13c0,.43,0,.85,0,1.28s0,.58,0,.86c-.06,2-.14,3.88-.21,5.79-3.53-1.12-9.82-4.4-19.85-8.29l-3.47-16.37c0-.06,0-.11,0-.17V522.09C1155.94,537.92,1167.65,562.08,1167.69,562.19Z"/><path class="cls-40" d="M1126.69,312.86c-6.19-35.41-71.23-35-82.52-4.34h0v0c-.22.59-.41,1.18-.58,1.79l-.15.53c-.18.65-.33,1.31-.46,2s-.22,1.26-.35,1.93c-.5,2.87-1,6.18-1.47,9.83,9.43,4.68,21.93,6.85,22.4,6.93,10.29,2.65,25.18,1.83,46.36-7.93,0,0-1.8,8,2.38,14.74a16.51,16.51,0,0,0,5.54,5.49c2-8.33,5.26-14.34,10.68-12.67A127.46,127.46,0,0,0,1126.69,312.86Z"/><path class="cls-40" d="M1104.14,384.56C1088.58,366.9,1075.4,368,1075.4,368a25.56,25.56,0,0,0-11.71,1.92l-.09,0-.21.11-.69.34-.17.09a16.35,16.35,0,0,0-3.94,3,72,72,0,0,0-9.41,11.12,39.29,39.29,0,0,0,4.14,5.47h0c.64.72,1.33,1.41,2,2.07l.51.46c.55.5,1.11,1,1.69,1.45l.71.56c.55.41,1.1.81,1.68,1.2l.83.56.53.36v0a42.58,42.58,0,0,0,15.32,5.66c.59.1,1.16.16,1.74.24v0l.9.1.94.1q1,.11,2,.15l.86.05c.85,0,1.69,0,2.51,0h.2c.88,0,1.74-.09,2.58-.16l.86-.1,1.64-.22,1-.19c.46-.08.91-.18,1.35-.28l1.13-.28,1-.29a34.7,34.7,0,0,0,3.43-1.2,36.68,36.68,0,0,0,13.9-10.5,58.64,58.64,0,0,0,9.69-17.24c.49-1.32,1-2.66,1.38-4l.17-.53C1112.75,390.7,1106.53,387.09,1104.14,384.56Z"/><path class="cls-11" d="M1090.63,518.2l-.1-.83h-.83c-5.56-.1-7.62-1.79-7.63-1.8l-.63-.54-.63.53s-2.08,1.71-7.64,1.81h-.83l-.1.83a17.21,17.21,0,0,0,8.71,16.08l.48.28.49-.28A17.21,17.21,0,0,0,1090.63,518.2Zm-9.2,14.14a15,15,0,0,1-7.34-13.1,15.73,15.73,0,0,0,7.34-1.81,15.9,15.9,0,0,0,7.34,1.81A15.2,15.2,0,0,1,1081.43,532.34Z"/><path class="cls-11" d="M1079,522.09V523a1.61,1.61,0,0,0-.78,1.37v1.93a1.62,1.62,0,0,0,1.61,1.61h3.23a1.62,1.62,0,0,0,1.61-1.61v-1.93a1.61,1.61,0,0,0-.78-1.37v-.89a2.45,2.45,0,0,0-4.89,0Zm2.85,2.77v1.66a.2.2,0,0,1-.2.2h-.41a.2.2,0,0,1-.2-.2v-1.66a.61.61,0,1,1,.81,0Zm1.27-2.77v.66h-3.35v-.66a1.68,1.68,0,1,1,3.35,0Z"/><path class="cls-41" d="M1066.72,265.48s-32.27,11.5-37.5,35.06a44.41,44.41,0,0,0,10.8,14.73l.15,2.56s-17.49,8.13-17.56,8.4-1.13,3.34.91,3.49c0,0,40.64-21.12,80.63-2.7,0,0,3.41.77,3.38-2.68,0,0,11.12,6.69,20.43,6.84l1.82-8.08-.48-.5s12.48-9.08,5.24-22S1076.47,262.6,1066.72,265.48Z"/><path class="cls-39" d="M1039.47,314.9s7.63-19.06,52.68-9.92,37.72,18.16,37.72,18.16l-2.11,7.65a63.54,63.54,0,0,1-29.8-12.48c-26.65-13-57.79-.53-57.79-.53Z"/><path class="cls-13" d="M1081.28,276.87l-.13-1.13-1.15,0c-7.62-.14-10.44-2.46-10.46-2.47l-.86-.75-.87.74s-2.85,2.34-10.48,2.47l-1.14,0-.14,1.14a23.57,23.57,0,0,0,12,22.06l.66.39.66-.39A23.57,23.57,0,0,0,1081.28,276.87Zm-12.61,19.39a20.58,20.58,0,0,1-10.07-18c5.56-.27,8.68-1.66,10.07-2.48,1.38.82,4.5,2.21,10.06,2.48A20.83,20.83,0,0,1,1068.67,296.26Z"/><path class="cls-13" d="M1065.32,282.2v1.22a2.21,2.21,0,0,0-1.07,1.89V288a2.23,2.23,0,0,0,2.22,2.21h4.42a2.22,2.22,0,0,0,2.21-2.21v-2.65a2.18,2.18,0,0,0-1.07-1.88v-1.22a3.35,3.35,0,0,0-6.7,0Zm3.91,3.81v2.28a.27.27,0,0,1-.27.27h-.57a.27.27,0,0,1-.27-.27V286a.81.81,0,0,1-.27-.61.83.83,0,1,1,1.66,0A.85.85,0,0,1,1069.23,286Zm1.74-3.8v.9h-4.6v-.91a2.3,2.3,0,0,1,4.6,0Z"/><path class="cls-42" d="M1907.79,1173.53s-26.6-35.46,8.82-67.15,19.78-56.12,12.81-67.59c-18.4-30.29,11.71-21.09,16.07-51.58,2.66-18.61,35.49-47.93,52.93-10.75,10.2,21.75,10.4,44.84-6.69,57.5-7.63,5.65-28.33,41.48-15.72,58.32s26.65,55.83-37.19,93.29c0,0-12.42,2.55-31-12Z"/><path class="cls-11" d="M1931,1168.49s-3.44-37.34,14.91-65,3.14-48.13,2.55-66.91,23.53-44.2,23.53-44.2-23,27.72-12.87,69.47c0,0,8.5,27.09-8.5,46.68S1948,1165,1948,1165Z"/><path class="cls-9" d="M1925.47,1163.47s15.09-31.79-17.47-50.85-24.27-40.55-20.66-50.57c9.54-26.48-12.44-14.57-20.65-37.6-5-14.07-35.19-31.7-42.89,0-4.5,18.53-1,36.54,14.3,43.69,6.82,3.18,28.59,27.8,21.44,42.89s-11.91,47.66,43.69,66.72c0,0,10.06,0,22.24-14.28Z"/><path class="cls-11" d="M1906.62,1163.22s-3.23-29.6-21.89-48.25-10-37-12.56-51.67-25.29-30.67-25.29-30.67,22.24,17.94,21,52c0,0-2.33,22.42,14,35s10.94,43.59,10.94,43.59Z"/><polygon class="cls-9" points="1847.24 1161.28 1847.24 1161.28 1847.24 1161.28 1851.14 1180.4 1868.44 1265.69 1975.6 1265.69 1990.2 1180.4 1993.48 1161.28 1993.48 1161.28 1993.48 1161.28 1847.24 1161.28"/><polygon class="cls-11" points="1847.24 1161.28 1851.14 1180.4 1990.2 1180.4 1993.48 1161.28 1847.24 1161.28"/><path class="cls-42" d="M295.19,1173.53s-26.6-35.46,8.82-67.15,19.78-56.12,12.81-67.59c-18.4-30.29,11.71-21.09,16.07-51.58,2.66-18.61,35.49-47.93,52.93-10.75,10.21,21.75,10.4,44.84-6.69,57.5-7.63,5.65-28.32,41.48-15.72,58.32s26.65,55.83-37.19,93.29c0,0-12.42,2.55-31-12Z"/><path class="cls-11" d="M318.4,1168.49s-3.44-37.34,14.91-65,3.14-48.13,2.55-66.91,23.53-44.2,23.53-44.2-23,27.72-12.86,69.47c0,0,8.49,27.09-8.51,46.68s-2.57,56.54-2.57,56.54Z"/><path class="cls-9" d="M312.87,1163.47s15.1-31.79-17.47-50.85-24.26-40.55-20.65-50.57c9.53-26.48-12.45-14.57-20.66-37.6-5-14.07-35.19-31.7-42.89,0-4.5,18.53-1,36.54,14.3,43.69,6.83,3.18,28.59,27.8,21.44,42.89s-11.91,47.66,43.69,66.72c0,0,10.06,0,22.24-14.28Z"/><path class="cls-11" d="M294,1163.22s-3.23-29.6-21.89-48.25-10-37-12.56-51.67-25.29-30.67-25.29-30.67,22.25,17.94,21,52c0,0-2.33,22.42,14,35s10.94,43.59,10.94,43.59Z"/><polygon class="cls-9" points="234.65 1161.28 234.65 1161.28 234.65 1161.28 238.54 1180.4 255.84 1265.69 363 1265.69 377.6 1180.4 380.88 1161.28 380.88 1161.28 380.88 1161.28 234.65 1161.28"/><polygon class="cls-11" points="234.65 1161.28 238.54 1180.4 377.6 1180.4 380.88 1161.28 234.65 1161.28"/></g></g></svg>