<svg xmlns="http://www.w3.org/2000/svg" height="60" viewBox="0 0 60 60" width="60"><g id="Page-1" fill="none" fill-rule="evenodd"><g id="025---Fabric-Elasticity" fill-rule="nonzero"><path id="Shape" d="m59 22.99c.0026588.530435-.2055092 1.0402002-.578708 1.4171498-.3731988.3769495-.880857.5902047-1.411292.5928502-4.67.03-14.66 1.64-17.72 5.38-8.77 10.72-21.66 16.62-36.29 16.62-1.1045695 0-2-.8954305-2-2s.8954305-2 2-2c1.18 0 2.35-.04 3.51-.13 11.5600067-.6384507 22.3241897-6.0894504 29.68-15.03 3.74-4.56 12.85-6.25 18.11-6.7 1.09-.1 2.01-.14 2.69-.14h.01c1.100676-.0000138 1.9944966.8893377 2 1.99z" fill="#02a9f4"></path><path id="Shape" d="m57 21h-.01c-.607 0-1.415.035-2.355.113.9289074.3074598 1.497482 1.2434948 1.3421469 2.2095546-.1553351.9660599-.9886787 1.6766771-1.9671469 1.6774454-4.67.03-14.66 1.64-17.72 5.38-8.262 10.099-20.181 15.92-33.765 16.556.15511301.0407148.31464247.0622093.475.064 14.63 0 27.52-5.9 36.29-16.62 3.06-3.74 13.05-5.35 17.72-5.38 1.1045695-.0027614 1.9977614-.9004305 1.995-2.005s-.9004305-1.9977614-2.005-1.995z" fill="#0377bc"></path><path id="Shape" d="m59 13c0 1.1045695-.8954305 2-2 2-.06 0-1.79.01-4.37.29-5.83.61-16.02 2.57-21.08 8.75-8.13 9.94-18.71 12.59-26.73 12.92-.62.03-1.23.04-1.82.04-1.1045695 0-2-.8954305-2-2s.8954305-2 2-2c7.32 0 17.68-1.99 25.45-11.49 8.5-10.39 27.74-10.51 28.55-10.51 1.1045695 0 2 .8954305 2 2z" fill="#02a9f4"></path><path id="Shape" d="m57 11c-.16 0-1.049.006-2.425.094.9487181.2843668 1.5451736 1.2216935 1.4009291 2.2015527-.1442445.9798591-.9855104 1.7055397-1.9759291 1.7044473-.06 0-1.79.01-4.37.29-5.83.61-16.02 2.57-21.08 8.75-7.912 9.674-18.138 12.436-26.073 12.881.16998683.0497357.34590705.0763087.523.079.59 0 1.2-.01 1.82-.04 8.02-.33 18.6-2.98 26.73-12.92 5.06-6.18 15.25-8.14 21.08-8.75 2.58-.28 4.31-.29 4.37-.29 1.1045695 0 2-.8954305 2-2s-.8954305-2-2-2z" fill="#0377bc"></path><path id="Shape" d="m54.3 21.14c-5.26.45-14.37 2.14-18.11 6.7-7.3558103 8.9405496-18.1199933 14.3915493-29.68 15.03l-1.69-5.91c8.02-.33 18.6-2.98 26.73-12.92 5.06-6.18 15.25-8.14 21.08-8.75z" fill="#3f51b5"></path><path id="Shape" d="m52.63 15.29c-.874.091-1.854.218-2.892.38l1.562 5.47c-5.26.45-14.37 2.14-18.11 6.7-6.6978223 8.1667701-16.284961 13.4386399-26.769 14.72l.089.31c11.5600067-.6384507 22.3241897-6.0894504 29.68-15.03 3.74-4.56 12.85-6.25 18.11-6.7z" fill="#283593"></path><path id="Shape" d="m15 18.15v-16.15c0-.55228475-.4477153-1-1-1h-4c-.55228475 0-1 .44771525-1 1v16.15c-.00055104.4692136-.3807864.849449-.85.85h-2.3c-.32470823-.0000641-.62108362.1848693-.76374071.4765616s-.10666835.639174.09274071.8954384l6.148 7.3c.1612602.2067313.4088117.3275881.671.3275881s.5097398-.1208568.671-.3275881l6.148-7.3c.1991888-.2559798.2353372-.6030049.0931813-.8945414-.1421559-.2915364-.4378338-.47676-.7621813-.4774586h-2.3c-.4684324-.001651-.8474525-.381565-.848-.85z" fill="#e91e63"></path><path id="Shape" d="m18.148 19h-2.3c-.4692136-.000551-.849449-.3807864-.85-.85v-16.15c0-.55228475-.4477153-1-1-1h-2.998c.5522847 0 1 .44771525 1 1v16.15c.000551.4692136.3807864.849449.85.85h2.3c.3247082-.0000641.6210836.1848693.7637407.4765616s.1066684.639174-.0927407.8954384l-5.321 6.316.829.984c.1612602.2067313.4088117.3275881.671.3275881s.5097398-.1208568.671-.3275881l6.148-7.3c.1994091-.2562644.2353978-.6037461.0927407-.8954384s-.4390325-.4766257-.7637407-.4765616z" fill="#ad1457"></path><path id="Shape" d="m51 41.85v16.15c0 .5522847-.4477153 1-1 1h-4c-.5522847 0-1-.4477153-1-1v-16.15c-.000551-.4692136-.3807864-.849449-.85-.85h-2.3c-.3247082.0000641-.6210836-.1848693-.7637407-.4765616s-.1066684-.639174.0927407-.8954384l6.148-7.3c.1612602-.2067313.4088117-.3275881.671-.3275881s.5097398.1208568.671.3275881l6.148 7.3c.1991888.2559798.2353372.6030049.0931813.8945414-.1421559.2915364-.4378338.47676-.7621813.4774586h-2.3c-.4684324.001651-.8474525.381565-.848.85z" fill="#e91e63"></path><path id="Shape" d="m54.819 39.628-6.148-7.3c-.1612602-.2067313-.4088117-.3275881-.671-.3275881s-.5097398.1208568-.671.3275881l-.829.984 5.319 6.316c.1994091.2562644.2353978.6037461.0927407.8954384s-.4390325.4766257-.7637407.4765616h-2.3c-.4692136.000551-.849449.3807864-.85.85v16.15c0 .5522847-.4477153 1-1 1h3c.5522847 0 1-.4477153 1-1v-16.15c.000551-.4692136.3807864-.849449.85-.85h2.3c.3247082.0000641.6210836-.1848693.7637407-.4765616s.1066684-.639174-.0927407-.8954384z" fill="#ad1457"></path><g fill="#000"><path id="Shape" d="m60 13c-.0049422-1.6548028-1.3451972-2.9950578-3-3-.83 0-20.52.12-29.32 10.88-7.52 9.19-17.57 11.12-24.68 11.12-1.65685425 0-3 1.3431458-3 3s1.34314575 3 3 3c.35 0 .71-.01 1.07-.02l1.14 3.96c-.74.04-1.47.06-2.21.06-1.65685425 0-3 1.3431458-3 3s1.34314575 3 3 3c14.94 0 28.1-6.03 37.06-16.99 2.6-3.17 11.68-4.98 16.96-5.01 1.6568542-.0110457 2.9910457-1.3631458 2.98-3.02s-1.3631458-2.9910457-3.02-2.98c-.54 0-1.19.03-1.94.08l-1.12-3.91c1.85-.16 3.04-.17 3.08-.17 1.6568542 0 3-1.3431458 3-3zm-3 9c.5522847-.0027614 1.0022385.4427153 1.0049999.995.0027615.5522847-.4427152 1.0022385-.9949999 1.005-4.35.03-15.03 1.51-18.5 5.74-8.57 10.49-21.19 16.26-35.51 16.26-.55228475 0-1-.4477153-1-1s.44771525-1 1-1c8.229693.0549306 16.3203276-2.1222937 23.411-6.3 4.0147862-2.4553976 7.5848994-5.5727803 10.559-9.22 3.94-4.83 15.19-6.45 20.03-6.48zm-50.87 15.89c1.22-.09 2.49-.22 3.79-.44l1.1 3.85c-1.24.22-2.5.39-3.78.5zm5.77-.81c1.19-.25 2.41-.56 3.64-.95l1.09 3.8c-1.19.38-2.4.71-3.64.98zm5.53-1.61c1.1870347-.4536975 2.3487235-.9711163 3.48-1.55l1.1 3.86c-1.13.55-2.3 1.05-3.49 1.49zm5.27-2.53c1.142132-.668079 2.2440301-1.4026778 3.3-2.2l1.16 4.07c-1.07.73-2.19 1.41-3.33 2.04zm5-3.55c1.0746521-.9249678 2.0994283-1.9063496 3.07-2.94l1.26 4.4c-.9992165.9568956-2.0472848 1.8614386-3.14 2.71zm4.64-4.73c.9032513-1.0860429 1.9494254-2.0447555 3.11-2.85l1.19 4.16c-.4388517.3803847-.8468009.7950216-1.22 1.24-.57.7-1.17 1.36-1.77 2.01zm4.87-3.97c1.112831-.6254512 2.2691379-1.1701854 3.46-1.63l1.1 3.85c-1.1904669.486908-2.3350223 1.0792656-3.42 1.77zm5.34-2.31c1.22-.4 2.44-.74 3.64-1.02l1.09 3.85c-1.21.28-2.43.61-3.63 1.01zm5.6-1.43c1.34-.25 2.61-.44 3.75-.58l1.11 3.89c-1.16.12-2.43.3-3.76.54zm-17.38 6.46c-8.51 10.41-19.8 12.59-27.77 12.59-.55228475 0-1-.4477153-1-1s.44771525-1 1-1c7.54 0 18.21-2.06 26.23-11.86 8.2-10.02 26.98-10.14 27.77-10.14.5522847 0 1 .4477153 1 1s-.4477153 1-1 1c-8.67 0-20.836 2.811-26.23 9.41z"></path><path id="Shape" d="m14 0h-4c-1.10320187.0032948-1.9967052.89679813-2 2v16h-2.15c-.7139242.0011719-1.36346126.4130311-1.66899102 1.0582758-.30552977.6452447-.21251937 1.4087075.23899102 1.9617242l6.12 7.27c.3484765.4431165.8791123.7042817 1.4428092.710113.5636968.0058314 1.099622-.2443004 1.4571908-.680113l6.17-7.33c.432992-.5584637.5108639-1.314505.2007979-1.9495033-.3100661-.6349983-.9541439-1.0385157-1.6607979-1.0404967h-2.15v-16c-.0032948-1.10320187-.8967981-1.9967052-2-2zm3.83 20-5.83 6.92-5.83-6.92h1.98c1.02126986-.0011023 1.84889771-.8287301 1.85-1.85v-16.15h4v16.15c.0011023 1.0212699.8287301 1.8488977 1.85 1.85z"></path><path id="Shape" d="m49.46 31.71c-.3635012-.4186076-.888877-.6614934-1.4432528-.6672283-.5543758-.005735-1.0846639.2262302-1.4567472.6372283l-6.17 7.33c-.432992.5584637-.5108639 1.314505-.2007979 1.9495033.3100661.6349983.9541439 1.0385157 1.6607979 1.0404967h2.15v16c.0032948 1.1032019.8967981 1.9967052 2 2h4c1.1032019-.0032948 1.9967052-.8967981 2-2v-16h2.15c.7139242-.0011719 1.3634613-.4130311 1.668991-1.0582758.3055298-.6452447.2125194-1.4087075-.238991-1.9617242zm2.39 8.29c-1.0212699.0011023-1.8488977.8287301-1.85 1.85v16.15h-4v-16.15c-.0011023-1.0212699-.8287301-1.8488977-1.85-1.85h-1.98l5.83-6.92 5.83 6.92z"></path></g></g></g></svg>