<svg xmlns="http://www.w3.org/2000/svg" xmlns:xlink="http://www.w3.org/1999/xlink" viewBox="0 0 1516.41 1037.39"><defs><style>.cls-1{isolation:isolate;}.cls-2{fill:url(#linear-gradient);}.cls-3{fill:url(#linear-gradient-2);}.cls-4{fill:url(#linear-gradient-3);}.cls-5,.cls-6{opacity:0.61;}.cls-5{fill:url(#linear-gradient-4);}.cls-6{fill:url(#linear-gradient-5);}.cls-7{fill:url(#linear-gradient-6);}.cls-8{fill:url(#linear-gradient-7);}.cls-9{fill:url(#linear-gradient-8);}.cls-10{fill:url(#linear-gradient-9);}.cls-11{fill:url(#linear-gradient-10);}.cls-12{fill:url(#linear-gradient-11);}.cls-13{fill:url(#linear-gradient-12);}.cls-14{fill:url(#linear-gradient-13);}.cls-15{fill:url(#linear-gradient-14);}.cls-16{fill:url(#linear-gradient-15);}.cls-17{fill:url(#linear-gradient-16);}.cls-18{fill:url(#linear-gradient-17);}.cls-19{fill:url(#linear-gradient-18);}.cls-20{fill:url(#linear-gradient-19);}.cls-21{fill:url(#linear-gradient-20);}.cls-22{fill:url(#linear-gradient-21);}.cls-23{fill:url(#linear-gradient-22);}.cls-24{fill:url(#linear-gradient-23);}.cls-25{fill:url(#linear-gradient-24);}.cls-26{fill:url(#linear-gradient-25);}.cls-27{fill:url(#linear-gradient-26);}.cls-28{fill:url(#linear-gradient-27);}.cls-29{fill:url(#linear-gradient-28);}.cls-30{fill:url(#linear-gradient-29);}.cls-31{fill:url(#linear-gradient-30);}.cls-32{fill:#fff;}.cls-33{fill:url(#linear-gradient-31);}.cls-34{fill:url(#linear-gradient-32);}.cls-35{fill:url(#linear-gradient-33);}.cls-36{fill:url(#linear-gradient-34);}.cls-37{fill:url(#linear-gradient-35);}.cls-38{fill:url(#linear-gradient-36);}.cls-39{fill:url(#linear-gradient-37);}.cls-40{fill:url(#linear-gradient-38);}.cls-41{fill:url(#linear-gradient-39);}.cls-42{fill:url(#linear-gradient-40);}.cls-43{fill:url(#linear-gradient-41);}.cls-44{fill:url(#linear-gradient-42);}.cls-45{fill:url(#linear-gradient-43);}.cls-46{fill:url(#linear-gradient-44);}.cls-47,.cls-51{opacity:0.15;}.cls-47,.cls-51,.cls-54,.cls-59{mix-blend-mode:multiply;}.cls-48{fill:#ffd4d4;}.cls-49{fill:url(#linear-gradient-45);}.cls-50{fill:url(#linear-gradient-46);}.cls-52,.cls-57{mix-blend-mode:overlay;}.cls-53{fill:url(#linear-gradient-47);}.cls-54,.cls-59{opacity:0.1;}.cls-54{fill:url(#linear-gradient-48);}.cls-55{fill:url(#linear-gradient-49);}.cls-56{fill:url(#linear-gradient-50);}.cls-58{fill:url(#linear-gradient-51);}.cls-59{fill:#231f20;}.cls-60{fill:url(#linear-gradient-52);}.cls-61{fill:url(#linear-gradient-53);}.cls-62{fill:url(#linear-gradient-54);}.cls-63{fill:url(#linear-gradient-55);}.cls-64{fill:url(#linear-gradient-56);}.cls-65,.cls-66{mix-blend-mode:screen;}.cls-65{fill:url(#linear-gradient-57);}.cls-67{fill:#25a9e0;opacity:0.2;}.cls-68{fill:#01ffff;}.cls-69{fill:#02eaf0;}.cls-70{fill:none;stroke:#01ffff;stroke-miterlimit:10;stroke-width:4px;}.cls-71{fill:url(#linear-gradient-58);}.cls-72,.cls-73{fill:#f1f1f2;}.cls-73{opacity:0.5;}.cls-74{fill:#e99bb4;}</style><linearGradient id="linear-gradient" x1="1324.62" y1="-481.68" x2="496.87" y2="1109.96" gradientUnits="userSpaceOnUse"><stop offset="0" stop-color="#d16dc3"/><stop offset="1" stop-color="#2200a6"/></linearGradient><linearGradient id="linear-gradient-2" x1="826.56" y1="-128.07" x2="535.31" y2="738" xlink:href="#linear-gradient"/><linearGradient id="linear-gradient-3" x1="7704.97" y1="-2668.08" x2="7823.76" y2="-2468.81" gradientTransform="matrix(-0.69, 0.73, 0.73, 0.69, 7828.81, -3373.93)" gradientUnits="userSpaceOnUse"><stop offset="0" stop-color="#d16dc3"/><stop offset="0.18" stop-color="#9e4dbb"/><stop offset="0.37" stop-color="#7232b3"/><stop offset="0.55" stop-color="#4f1cad"/><stop offset="0.72" stop-color="#360da9"/><stop offset="0.87" stop-color="#2703a7"/><stop offset="1" stop-color="#2200a6"/></linearGradient><linearGradient id="linear-gradient-4" x1="1277.55" y1="584.72" x2="1567.65" y2="584.72" gradientTransform="translate(-110.39 -551.27) rotate(3.74)" gradientUnits="userSpaceOnUse"><stop offset="0" stop-color="#c7f7ff"/><stop offset="1" stop-color="#bdfffc"/></linearGradient><linearGradient id="linear-gradient-5" x1="360.43" y1="774.5" x2="650.52" y2="774.5" xlink:href="#linear-gradient-4"/><linearGradient id="linear-gradient-6" x1="225.66" y1="967.14" x2="151.69" y2="913.84" gradientTransform="translate(1569.89 -322.45) rotate(24.92)" gradientUnits="userSpaceOnUse"><stop offset="0" stop-color="#00b5d1"/><stop offset="1" stop-color="#00d1c8"/></linearGradient><linearGradient id="linear-gradient-7" x1="275.74" y1="1035.67" x2="153.92" y2="1000.86" xlink:href="#linear-gradient-6"/><linearGradient id="linear-gradient-8" x1="213.63" y1="1054.48" x2="275.63" y2="1012.06" xlink:href="#linear-gradient-6"/><linearGradient id="linear-gradient-9" x1="205.4" y1="914.55" x2="272.84" y2="868.87" xlink:href="#linear-gradient-6"/><linearGradient id="linear-gradient-10" x1="218.13" y1="954.19" x2="270.88" y2="954.19" xlink:href="#linear-gradient-6"/><linearGradient id="linear-gradient-11" x1="239.05" y1="871.3" x2="184.66" y2="816.92" xlink:href="#linear-gradient-6"/><linearGradient id="linear-gradient-12" x1="203.23" y1="860.74" x2="280.46" y2="779.16" xlink:href="#linear-gradient-6"/><linearGradient id="linear-gradient-13" x1="1628.73" y1="1078.35" x2="1737.41" y2="1078.35" gradientTransform="matrix(0.99, 0.13, -0.13, 0.99, -131.52, -680.42)" xlink:href="#linear-gradient-6"/><linearGradient id="linear-gradient-14" x1="218.81" y1="808.37" x2="252.53" y2="739.84" xlink:href="#linear-gradient-6"/><linearGradient id="linear-gradient-15" x1="-820.66" y1="2197.92" x2="-863.71" y2="2166.9" gradientTransform="matrix(-0.94, 0.33, 0.33, 0.94, -906.21, -937.56)" xlink:href="#linear-gradient-6"/><linearGradient id="linear-gradient-16" x1="-791.5" y1="2237.81" x2="-862.41" y2="2217.55" gradientTransform="matrix(-0.94, 0.33, 0.33, 0.94, -906.21, -937.56)" xlink:href="#linear-gradient-6"/><linearGradient id="linear-gradient-17" x1="-827.66" y1="2248.75" x2="-791.57" y2="2224.06" gradientTransform="matrix(-0.94, 0.33, 0.33, 0.94, -906.21, -937.56)" xlink:href="#linear-gradient-6"/><linearGradient id="linear-gradient-18" x1="-832.44" y1="2167.31" x2="-793.19" y2="2140.72" gradientTransform="matrix(-0.94, 0.33, 0.33, 0.94, -906.21, -937.56)" xlink:href="#linear-gradient-6"/><linearGradient id="linear-gradient-19" x1="-825.03" y1="2190.38" x2="-794.33" y2="2190.38" gradientTransform="matrix(-0.94, 0.33, 0.33, 0.94, -906.21, -937.56)" xlink:href="#linear-gradient-6"/><linearGradient id="linear-gradient-20" x1="-812.86" y1="2142.14" x2="-844.52" y2="2110.49" gradientTransform="matrix(-0.94, 0.33, 0.33, 0.94, -906.21, -937.56)" xlink:href="#linear-gradient-6"/><linearGradient id="linear-gradient-21" x1="-833.71" y1="2135.99" x2="-788.76" y2="2088.51" gradientTransform="matrix(-0.94, 0.33, 0.33, 0.94, -906.21, -937.56)" xlink:href="#linear-gradient-6"/><linearGradient id="linear-gradient-22" x1="-828.1" y1="2173.21" x2="-809.17" y2="2173.21" gradientTransform="matrix(-0.94, 0.33, 0.33, 0.94, -906.21, -937.56)" xlink:href="#linear-gradient-6"/><linearGradient id="linear-gradient-23" x1="-824.64" y1="2105.51" x2="-805.02" y2="2065.62" gradientTransform="matrix(-0.94, 0.33, 0.33, 0.94, -906.21, -937.56)" xlink:href="#linear-gradient-6"/><linearGradient id="linear-gradient-24" x1="-12971.09" y1="-129.18" x2="-12569.13" y2="-652.18" gradientTransform="matrix(0.91, -0.17, 0.56, 0.89, 12093.21, -1186.92)" xlink:href="#linear-gradient-6"/><linearGradient id="linear-gradient-25" x1="-12747.52" y1="-411.76" x2="-12475.8" y2="-757.72" gradientTransform="matrix(0.91, -0.17, 0.56, 0.89, 12093.21, -1186.92)" gradientUnits="userSpaceOnUse"><stop offset="0" stop-color="#009bb3"/><stop offset="1" stop-color="#00b5d1"/></linearGradient><linearGradient id="linear-gradient-26" x1="-12665.83" y1="-344.17" x2="-12387.18" y2="-698.96" xlink:href="#linear-gradient-25"/><linearGradient id="linear-gradient-27" x1="-12690.19" y1="-387.9" x2="-12846.64" y2="-270.28" gradientTransform="matrix(0.91, -0.17, 0.56, 0.89, 12093.21, -1186.92)" gradientUnits="userSpaceOnUse"><stop offset="0" stop-color="#4afff8"/><stop offset="1" stop-color="#00d1c8"/></linearGradient><linearGradient id="linear-gradient-28" x1="-12566.27" y1="-522.94" x2="-12734.14" y2="-404.18" xlink:href="#linear-gradient-27"/><linearGradient id="linear-gradient-29" x1="-13009.34" y1="-374.9" x2="-12919.13" y2="-210.47" xlink:href="#linear-gradient-27"/><linearGradient id="linear-gradient-30" x1="-12748.44" y1="-560.96" x2="-12901.46" y2="-308.21" gradientTransform="matrix(0.91, -0.17, 0.56, 0.89, 12093.21, -1186.92)" xlink:href="#linear-gradient-6"/><linearGradient id="linear-gradient-31" x1="-12706.61" y1="-319.88" x2="-12753.05" y2="-310.74" xlink:href="#linear-gradient-25"/><linearGradient id="linear-gradient-32" x1="-12811.21" y1="-461.44" x2="-12833.29" y2="-440.89" gradientTransform="matrix(0.91, -0.17, 0.56, 0.89, 12093.21, -1186.92)" xlink:href="#linear-gradient-6"/><linearGradient id="linear-gradient-33" x1="-12777.18" y1="-578.34" x2="-12930.19" y2="-325.6" gradientTransform="matrix(0.91, -0.17, 0.56, 0.89, 12093.21, -1186.92)" xlink:href="#linear-gradient-6"/><linearGradient id="linear-gradient-34" x1="-12978.56" y1="-274.73" x2="-12881.88" y2="-433.84" xlink:href="#linear-gradient-25"/><linearGradient id="linear-gradient-35" x1="-12593.67" y1="-467.26" x2="-12746.68" y2="-214.52" gradientTransform="matrix(0.91, -0.17, 0.56, 0.89, 12093.21, -1186.92)" xlink:href="#linear-gradient-6"/><linearGradient id="linear-gradient-36" x1="-12642.22" y1="-628.12" x2="-12807.81" y2="-471.67" xlink:href="#linear-gradient-27"/><linearGradient id="linear-gradient-37" x1="1089.92" y1="888.95" x2="991.87" y2="1017.93" gradientTransform="matrix(1, -0.02, 0.02, 1, 144.94, -227.37)" gradientUnits="userSpaceOnUse"><stop offset="0" stop-color="#008dd1"/><stop offset="1" stop-color="#00ffc8"/></linearGradient><linearGradient id="linear-gradient-38" x1="970.35" y1="854.09" x2="968.09" y2="936.31" gradientTransform="matrix(1, -0.02, 0.02, 1, 144.94, -227.37)" xlink:href="#linear-gradient-6"/><linearGradient id="linear-gradient-39" x1="997.12" y1="1040.58" x2="909.63" y2="938.01" xlink:href="#linear-gradient-37"/><linearGradient id="linear-gradient-40" x1="999.12" y1="1027.36" x2="1107.47" y2="1019.85" gradientTransform="matrix(1, -0.02, 0.02, 1, 144.94, -227.37)" xlink:href="#linear-gradient-6"/><linearGradient id="linear-gradient-41" x1="885.2" y1="1037.33" x2="923.67" y2="1017.72" gradientTransform="matrix(1, -0.02, 0.02, 1, 144.94, -227.37)" xlink:href="#linear-gradient-6"/><linearGradient id="linear-gradient-42" x1="1017.7" y1="993.37" x2="950.07" y2="1119.11" gradientTransform="translate(164.68 -245.95)" gradientUnits="userSpaceOnUse"><stop offset="0" stop-color="#ff6200"/><stop offset="1" stop-color="#ff9d00"/></linearGradient><linearGradient id="linear-gradient-43" x1="939.92" y1="1076.8" x2="1001.05" y2="1006.19" gradientTransform="translate(164.07 -245.95)" xlink:href="#linear-gradient-42"/><linearGradient id="linear-gradient-44" x1="848.16" y1="595.4" x2="389.54" y2="462.08" gradientUnits="userSpaceOnUse"><stop offset="0" stop-color="#ab1f96"/><stop offset="1" stop-color="#e62a2a"/></linearGradient><linearGradient id="linear-gradient-45" x1="2049.74" y1="2953.43" x2="1849.17" y2="3035.21" gradientTransform="translate(391.86 -2521.03) rotate(24.56)" gradientUnits="userSpaceOnUse"><stop offset="0" stop-color="#2a5de6"/><stop offset="0.3" stop-color="#3046bb"/><stop offset="1" stop-color="#9e2ae6"/></linearGradient><linearGradient id="linear-gradient-46" x1="1176.88" y1="1504.41" x2="1161" y2="1580.64" gradientTransform="translate(181.48 -1407.93) rotate(12.53)" gradientUnits="userSpaceOnUse"><stop offset="0" stop-color="#2a5de6"/><stop offset="1" stop-color="#3a2ae6"/></linearGradient><linearGradient id="linear-gradient-47" x1="821.3" y1="61.01" x2="622.68" y2="364.77" gradientUnits="userSpaceOnUse"><stop offset="0" stop-color="#3046bb"/><stop offset="1" stop-color="#4c30bb"/></linearGradient><linearGradient id="linear-gradient-48" x1="837.93" y1="71.89" x2="639.32" y2="375.65" xlink:href="#linear-gradient-47"/><linearGradient id="linear-gradient-49" x1="767.04" y1="377.74" x2="796.25" y2="294.98" gradientUnits="userSpaceOnUse"><stop offset="0" stop-color="#ff499e"/><stop offset="1" stop-color="#f99"/></linearGradient><linearGradient id="linear-gradient-50" x1="661.41" y1="572.48" x2="782.13" y2="216.15" xlink:href="#linear-gradient-49"/><linearGradient id="linear-gradient-51" x1="787.35" y1="38.81" x2="588.74" y2="342.57" xlink:href="#linear-gradient-47"/><linearGradient id="linear-gradient-52" x1="695.61" y1="-259.02" x2="573.92" y2="-368.06" gradientTransform="translate(71.02 793.24) rotate(-7.16)" xlink:href="#linear-gradient-49"/><linearGradient id="linear-gradient-53" x1="4598.52" y1="-4801.51" x2="4433.02" y2="-4869.66" gradientTransform="matrix(0.25, -0.97, 0.97, 0.25, 4702.25, 6359.9)" xlink:href="#linear-gradient-45"/><linearGradient id="linear-gradient-54" x1="4842.65" y1="-5356.31" x2="4456.42" y2="-5075.22" gradientTransform="matrix(0.25, -0.97, 0.97, 0.25, 4702.25, 6359.9)" xlink:href="#linear-gradient-46"/><linearGradient id="linear-gradient-55" x1="-4903.87" y1="-6888.32" x2="-5042.65" y2="-6693.88" gradientTransform="translate(5942 7130.51) rotate(-0.01)" gradientUnits="userSpaceOnUse"><stop offset="0" stop-color="#151875"/><stop offset="1" stop-color="#662ae6"/></linearGradient><linearGradient id="linear-gradient-56" x1="-4820.67" y1="-6974.35" x2="-5067.33" y2="-6686.07" gradientTransform="translate(5940.69 7131.17) rotate(-0.01)" gradientUnits="userSpaceOnUse"><stop offset="0" stop-color="#00dbff"/><stop offset="1" stop-color="#c2f8ff"/></linearGradient><linearGradient id="linear-gradient-57" x1="10639.6" y1="-127.17" x2="10458.89" y2="39.42" gradientTransform="matrix(-0.99, 0.11, 0.11, 0.99, 11493.95, -853.54)" gradientUnits="userSpaceOnUse"><stop offset="0"/><stop offset="1" stop-color="#6bff70"/></linearGradient><linearGradient id="linear-gradient-58" x1="591.99" y1="18.32" x2="457.35" y2="167.24" gradientUnits="userSpaceOnUse"><stop offset="0" stop-color="#ffb8b8"/><stop offset="1" stop-color="#ff9494"/></linearGradient></defs><title>Asset 2</title><g class="cls-1"><g id="Layer_2" data-name="Layer 2"><g id="SCR"><path class="cls-2" d="M228.16,851.94c-1.31-1-2.6-2-3.89-3C36.59,703.28,150.62,449.18,289,312.76c72.77-71.74,161.12-130.23,254-181C648.19,74.29,761.92,25.54,884.12,7.77c129.61-18.85,275.7-.37,378.07,76.53,26.72,20.08,51,45.64,55.57,76.24,4.88,32.68-13.75,64.81-37.69,90.21-41.5,44-100.26,78.88-117.71,137-18.19,60.6,30.07,99.94,89.26,121.25,37.29,13.42,77.83,23.91,106.05,49.16,28,25.06,39.58,63.37,29.39,97.3-8.71,29-31.52,53.21-56.43,73.78C1214.67,825,1047.1,866.3,895.11,894.82,739.64,924,577.68,944,419.07,922.26,350,912.8,281.29,891.67,228.16,851.94Z"/><path class="cls-3" d="M125.8,649.44c.33-79.59,33.34-163,80.26-234.89-3,69.43,16.37,120.15,81.94,162,52.32,33.36,115.86,47.74,180,43.76,65.05-4,134-44.36,177.88-85.89,45.14-42.74,73.56-100.66,69.26-158.81-3.41-45.93-29-91.4-70.61-119.85-46.43-31.74-113.9-43.22-142.3-92.66a39.64,39.64,0,0,1-3-6.54q21.7-12.71,43.83-24.78C648.19,74.29,761.92,25.54,884.12,7.77a650,650,0,0,1,122-6.2c10.74.48,44.07,73.74,48.64,86a151.79,151.79,0,0,1,4.34,91.06C1043.11,239.41,986.35,282.08,939,325c-40.52,36.68-72.1,87.7-34.56,135.4,35.29,44.85,117.14,60.56,131.28,118.46,8.59,35.16-16.19,69.78-43.81,96.35-80.22,77.14-184.82,110-296.17,138-85.11,21.45-165.84,14.14-253.55,2.34-53.37-6.66-101.5-15.45-147-36.3C226.94,747.71,174.32,700.53,125.8,649.44Z"/><path class="cls-4" d="M696,814.05c-87.29,22-170,13.67-254,2.37-56-7-102.52-15.86-147.33-36.4-72.56-33.46-126.52-84.48-169.72-130l-.26-.27v-.34c.16-38.13,7.8-78.71,22.7-120.6,13.68-38.44,33.1-77.05,57.7-114.76l2.17-3.32-.17,3.83c-3.2,74.5,21.17,122.69,81.5,161.16,50.42,32.16,114.1,47.64,179.31,43.6,68.52-4.25,138.29-48.8,177.17-85.6,47.92-45.37,73.06-103,69-158.11-3.48-46.95-29.72-91.5-70.18-119.17-16.12-11-35.14-19.74-53.53-28.18-34.62-15.89-70.43-32.32-89.08-64.8a40.09,40.09,0,0,1-3.1-6.68l-.25-.67.67-.4c14-8.22,28.81-16.56,43.87-24.79C669.13,61.74,777.63,22.3,884,6.84A649,649,0,0,1,1006.18.63c12.46.56,47.5,81,49.6,86.64a153.06,153.06,0,0,1,4.36,91.57c-13.88,52.8-58,91.68-100.72,129.29-6.51,5.73-13.24,11.66-19.66,17.47-30.55,27.66-75.65,81.87-34.45,134.22C919.6,478,942,491.59,963.72,504.76c31.75,19.27,64.58,39.21,73,73.85,7.19,29.45-7.64,62.14-44.07,97.18-1.59,1.53-3.17,3-4.78,4.52C905.76,756.62,798.75,788.24,696,814.05ZM938.22,324.29c6.43-5.82,13.17-11.75,19.68-17.49,42.48-37.42,86.4-76.11,100.15-128.39a151.37,151.37,0,0,0-4.31-90.55c-6.38-17.13-38.59-84.94-47.67-85.35A646.68,646.68,0,0,0,884.3,8.7C778.27,24.12,670,63.47,543.61,132.55c-14.79,8.09-29.3,16.28-43.13,24.37a38.42,38.42,0,0,0,2.73,5.72c18.34,31.94,53.83,48.23,88.15,64C609.84,235.1,629,243.87,645.21,255c40.95,28,67.5,73,71,120.53C720.35,431.15,695,489.29,646.69,535a359.52,359.52,0,0,1-81.25,57.18c-33.45,17.11-67.11,27.14-97.34,29a321.69,321.69,0,0,1-94.81-7.91,280.3,280.3,0,0,1-85.92-36c-32.1-20.47-54-43.7-67-71-11.65-24.47-16.6-52.49-15.48-87.92-49.93,77.61-77.59,159.41-78,230.77,43,45.29,96.74,96,168.83,129.25,44.54,20.42,90.83,29.24,146.64,36.21,83.81,11.27,166.22,19.58,253.1-2.32C799.87,786,908.68,753.79,991.1,674.52c35.94-34.56,50.6-66.7,43.56-95.51-8.28-33.92-40.76-53.64-72.16-72.7-21.85-13.27-44.45-27-59-45.42-41-52.08,1.36-105.68,32.24-134.37Z"/><path class="cls-5" d="M1412.62,183.57c.48-13.48-19.28-14-29.17-13.81-2.88.06-13.84,2.35-16.22.63s-3.38-8.7-3.4-12c-.08-10.47-14.55-13.17-24.64-7.44,1.84-8.92-4.44-24-18.76-13.87a329.69,329.69,0,0,0-8.9-32c-5.88-16.86-11-29.42-27.82-37-17.27-7.85-39.85-9-55.92,2.38-11.09,7.83-11,19.57-12.45,31.78-9.28-8.1-21.31-4-28.85,5.14-7.67,9.34-7.94,17.85-6.45,29.4-4.49-5.83-14.07-1.69-19,1.71-8.65,5.93-9.63,23-8.16,26.36-29.14-8.8-30.53,12.54-30.53,12.54l286.91,18.46S1412.33,191.79,1412.62,183.57Z"/><path class="cls-6" d="M485,313.15c.48-13.48-19.27-14-29.17-13.8-2.87.06-13.84,2.34-16.22.62s-3.38-8.7-3.4-12c-.08-10.47-14.55-13.17-24.64-7.44,1.84-8.92-4.44-24-18.75-13.87-2-9-5.9-23.37-8.91-32-5.87-16.86-11.05-29.42-27.81-37.05-17.28-7.85-39.85-9-55.93,2.38-11.09,7.83-11,19.57-12.44,31.78-9.29-8.1-21.31-4-28.85,5.14-7.67,9.34-7.94,17.85-6.46,29.4-4.49-5.83-14.07-1.69-19,1.71-8.66,5.93-9.63,23-8.16,26.36-29.14-8.8-30.54,12.54-30.54,12.54L481.65,325.4S484.75,321.37,485,313.15Z"/><path class="cls-7" d="M1360.87,592.8c-.55-21.22-3.38-43.33-15.76-62.19-17.36-26.29-77.6-26.44-80,7.93-1.77,24.59,42.15,64.85,61.46,79.87,6.86,5.26,26.41,19.89,34.34,14.18l.54-1c1.68-3.55,3.4-7.1,5.16-10.62C1360.77,612.75,1361.08,602.13,1360.87,592.8Z"/><path class="cls-8" d="M1280.6,659.9c3.45,12.47,44.15,28.09,57.45,29.39q1.41-4.14,2.88-8.26C1336.83,664.73,1273.51,633.8,1280.6,659.9Z"/><path class="cls-9" d="M1417.23,687c-28.41-3.57-54.59,6.8-76.55,14.42q-1.52,5.05-2.93,10.15c29.44,11.27,69.64,25.91,98.6,17.08C1468.14,718.94,1443.53,690.19,1417.23,687Z"/><path class="cls-10" d="M1469.17,599.42c19.69.16,65.2-27.16,39.65-40.08-32-16.09-80.92,10.83-108.22,9.08q-2.76,4.44-5.44,9C1416.68,594.19,1443.46,599,1469.17,599.42Z"/><path class="cls-11" d="M1407.57,659.33c10.63-4.61,13.58-16.45,3-22.19-15.64-8.45-38.3-1-49.76,8.22q-1,2.39-2,4.79C1373.78,650.26,1391.18,666.44,1407.57,659.33Z"/><path class="cls-12" d="M1412.68,540.28l2.37,1c1.45-4.58,4-7,3.11-11.63-2.7-13.58-.53-29.85-6.5-42.34-7-14.66-30.16-27.87-38.85-5.94C1362.82,508.31,1396.56,523.72,1412.68,540.28Z"/><path class="cls-13" d="M1441,512.34c5,19.71,50.07,16.47,63.89-2.45,10.65-14.38.75-11.89-14.42-12.33-19.28-.5-27.69,1.78-45,8.56-1.19,1.43-2.36,2.86-3.53,4.3Z"/><path class="cls-14" d="M1465.79,481.85a3.65,3.65,0,0,0-.14-.35A560.72,560.72,0,0,0,1366.56,621q-2.65,5.28-5.18,10.61-11.48,24.24-20.52,49.42-1.48,4.11-2.89,8.25c-5.5,16.12-11.19,35.26-14.54,48.5,2.62-.63,6.25-4.16,8.77-5.3,1.55-6.44,3.36-13.53,5.44-20.95.94-3.39,1.93-6.78,2.94-10.15q7.83-26,18.2-51.21c.66-1.6,1.32-3.2,2-4.79a553.1,553.1,0,0,1,34.43-68q2.68-4.5,5.45-9a558.74,558.74,0,0,1,41.42-57.94q1.76-2.16,3.54-4.29Q1455.91,493.84,1467,482Z"/><path class="cls-15" d="M1463.85,481.54c16.56,11,30.11-12.44,30.11-12.44s-5.26-2.4-8.37-4.23c-4.26-2.51-4.43-3.69-10.46-4.64-3.56-.55-14.15-7.06-14.15-7.06S1448.53,473,1463.85,481.54Z"/><path class="cls-16" d="M595.77,838c1.57-12.26,4.51-24.9,12.79-35.08,11.6-14.21,46.5-10.75,45.89,9.3-.42,14.35-28.23,35.07-40.3,42.63-4.28,2.65-16.46,10-20.71,6.19-.09-.2-.17-.4-.26-.61q-1.14-3.24-2.36-6.46C594.66,849.54,595.1,843.37,595.77,838Z"/><path class="cls-17" d="M638.3,881.56c-2.73,7-27.22,13.67-35,13.63q-.57-2.48-1.18-4.94C605.46,881,643.94,866.86,638.3,881.56Z"/><path class="cls-18" d="M557.59,889.19c16.66-.4,31.21,7.15,43.48,12.86.39,2,.75,4,1.1,6.05-17.71,4.79-41.85,10.9-58.1,4.08C526.22,904.7,542.17,889.5,557.59,889.19Z"/><path class="cls-19" d="M532.67,835.44c-11.41-1.07-36.15-19.58-20.6-25.55,19.5-7.43,46.22,11,62.13,11.63.9,1.83,1.77,3.66,2.63,5.5C563.37,835.5,547.58,836.7,532.67,835.44Z"/><path class="cls-20" d="M564.81,873.75c-5.88-3.29-6.89-10.32-.43-13,9.56-4,22.24,1.65,28.33,7.69.3,1,.59,1.92.88,2.89C584.91,870.49,573.88,878.83,564.81,873.75Z"/><path class="cls-21" d="M568.86,804.51l-1.43.45c-.57-2.73-1.91-4.29-1.11-6.91,2.36-7.7,2.06-17.25,6.25-24.14,4.89-8.08,19.11-14.36,22.85-1.15C599.62,788.94,579.17,795.88,568.86,804.51Z"/><path class="cls-22" d="M554.12,786.67c-4,11.12-30,6.59-36.85-5.18-5.32-9,.26-6.93,9.08-6.29,11.19.84,15.93,2.66,25.53,7.61.61.89,1.2,1.79,1.79,2.69Z"/><path class="cls-23" d="M593.59,871.31c-.29-1-.58-1.93-.88-2.89A322.81,322.81,0,0,0,576.83,827c-.86-1.84-1.73-3.67-2.63-5.5a322.9,322.9,0,0,0-20.53-36c-.59-.9-1.18-1.8-1.79-2.69Q546.66,775,541,767.53l.68,0,.11-.19A326.71,326.71,0,0,1,590.82,854q1.21,3.22,2.36,6.46,5.21,14.72,8.94,29.84.61,2.46,1.18,4.94c4.79,20.8,7.53,35.07,7.53,35.07H605c-.91-14.25.12-4.91-2.84-22.16-.35-2-.71-4-1.1-6.05Q598.09,886.49,593.59,871.31Z"/><path class="cls-24" d="M542.69,767.49c-10.24,5.42-16.7-9-16.7-9s3.19-1.08,5.1-2c2.61-1.2,2.78-1.87,6.33-2.07,2.09-.11,8.6-3.25,8.6-3.25S552.07,763.45,542.69,767.49Z"/><path class="cls-25" d="M363.49,644.66a30.15,30.15,0,0,1-7-10.07c-5.74-12.59-.05-27.26,3-37.24,5.49-18.13,20.11-61.69-26.23-73.85-17.32-4.55-28.25,6.93-43,7.72-25.14,1.35-34.88-21.21-44.1-39.56-10.73-21.36-17-52.28-43.88-68.92-32.11-19.9-72.26-4.4-85.38,11.66-15.2,18.61-16.29,39.14-8.08,66.36,4.77,15.8,15.56,36.1,3.86,46.67-10.88,9.82-38,3.67-51.79,11.1-16.31,8.76-7.44,29,1.83,47.09,13.94,27.27,64.64,67,14.56,70.68-27.94,2.05-95.7-27.07-72.4,20.7,16.88,34.59,65.4,67.87,99,93.12,34.08,25.62,70.58,57.32,111.36,70,117.19,36.43,182.81-46.69,230.7-102.06,14.87-17.19,30.69-37.47,37.15-59.81,6-20.81.75-60.17-40.05-63.52C424,633.17,384.45,663.58,363.49,644.66Z"/><path class="cls-26" d="M245.54,769.08c-12.86-42.44-25.09-89.24-35-132l78.94-57.39-81.11,48c-14.54-63.81-23.52-116.79-21.12-129.49-6.71,22.28,3.32,107.28,24.85,198.44l-74-73.82,77.72,89c8.06,32.44,17.52,65.25,28.15,95.94l-75.61-36.25,78.82,45.34c10,27.9,16.6,42,28.38,63.91L290.94,888c-10.85-20.45-27.08-59.63-42.62-109.79,10-5.17,96-49.79,111.52-57.31C343.13,727.93,245.14,767.55,245.54,769.08Z"/><path class="cls-27" d="M362.2,719.78c-.19.05-1,.42-2.36,1.08A13.19,13.19,0,0,0,362.2,719.78Z"/><path class="cls-28" d="M281.51,712.66c-1.3,4.79-8.49,5.85-8.49,5.85s-5.08-6.69-3.78-11.48,5.1-7.41,8.49-5.86S282.81,707.87,281.51,712.66Z"/><path class="cls-29" d="M314.2,570.17c-1.3,4.79-8.49,5.86-8.49,5.86s-5.08-6.7-3.78-11.49,5.1-7.41,8.49-5.85S315.5,565.38,314.2,570.17Z"/><path class="cls-30" d="M110.68,741.5A19.9,19.9,0,0,1,117,753s-8-.83-13.51-5.51-8.33-9.8-6.35-11.44S105.2,736.82,110.68,741.5Z"/><path class="cls-31" d="M178.33,476.24c1.5,5.6-3.39,9.4-3.39,9.4s-7.31-5.27-8.8-10.87,0-9.81,3.39-9.41S176.84,470.64,178.33,476.24Z"/><path class="cls-32" d="M121.11,598.87a18.4,18.4,0,0,1,5.51,11.51s-8.15-1.3-13.36-6.18-7.67-10-5.51-11.51S115.9,594,121.11,598.87Z"/><path class="cls-33" d="M369.58,684.82c-2.6,1.22-7.08-.42-7.08-.42s-.27-3.63,2.32-4.85,5.77-1,7.08.41S372.17,683.59,369.58,684.82Z"/><path class="cls-34" d="M159.7,622.07a5.58,5.58,0,0,1-.94,5.52s-4.2-2.54-5.45-5.61-.82-5.54.95-5.52S158.46,619,159.7,622.07Z"/><path class="cls-35" d="M142.8,729.16a5.55,5.55,0,0,1-1,5.51s-4.2-2.53-5.44-5.61-.82-5.54.94-5.51S141.55,726.08,142.8,729.16Z"/><path class="cls-36" d="M127,740.65a5.57,5.57,0,0,1-.95,5.52s-4.2-2.54-5.44-5.61-.82-5.54.94-5.51S125.75,737.58,127,740.65Z"/><path class="cls-32" d="M152,797.06c2.87-.9,7.28,1.12,7.28,1.12s-.23,3.48-3.09,4.38-6.12.4-7.28-1.12S149.15,798,152,797.06Z"/><path class="cls-32" d="M323.58,772a11.66,11.66,0,0,1-3.91-6.15,14.53,14.53,0,0,1,7.39,2.59c3.12,2.41,4.87,5.16,3.91,6.14S326.7,774.39,323.58,772Z"/><path class="cls-37" d="M366,697.87a11.55,11.55,0,0,1-3.91-6.15,14.64,14.64,0,0,1,7.39,2.59c3.12,2.41,4.87,5.16,3.91,6.15S369.08,700.28,366,697.87Z"/><path class="cls-32" d="M149.08,470.6a5.57,5.57,0,0,1-.94,5.52s-4.2-2.54-5.44-5.61-.83-5.54.94-5.51S147.84,467.53,149.08,470.6Z"/><path class="cls-38" d="M205.7,484.46c-.8,2.56-4.76,3.05-4.76,3.05s-2.67-3.67-1.87-6.23,2.92-3.92,4.76-3S206.5,481.9,205.7,484.46Z"/><path class="cls-39" d="M1209,721c1.36-15.43-1.39-31.85-3.06-46.21.72,6.16-2.34,12.25-6.55,16.8s-9.53,7.91-14.54,11.58c-24.63,18.05-40.19,45.11-38.06,76.21l13.53-1.69c2.35-.34,3.94-5.68,5.32-7.25,3-3.37,5.66-4,9.76-5.2,9.89-2.78,18.56-7.78,24.46-16.43C1205.55,740.46,1208.14,730.92,1209,721Z"/><path class="cls-40" d="M1158.25,699a79.67,79.67,0,0,0-4.74-8.71c-8-12.79-20.37-21.94-27.39-35.57-8.92-17.31-15.1-36.15-13.43-55.86-.54,6.36-6,14.59-8.14,20.72a199.2,199.2,0,0,0-6.32,21.38c-3.49,15.2-4.77,31.19-1.06,46.48,4.17,17.14,15.46,31.18,22.35,47.17,5.77,13.38,6.64,32.19,21.58,39.15,21.19,9.87,25.43-32.08,24.83-43.86A83.26,83.26,0,0,0,1158.25,699Z"/><path class="cls-41" d="M1140.29,737.1a72.42,72.42,0,0,0-8.3-13.41,76.73,76.73,0,0,0-21.12-18.47c-8.32-4.94-18-6.79-25.78-12.48-6.36-4.65-11.09-12.67-8.6-19.72-8.54,17.28-17.32,37.83-5.18,56.37,6.32,9.67,16.47,16,26.34,21.91,5,3,10.42,5.8,15.11,9.32a30,30,0,0,1,5.37,4.88c1,1.23,7.49,17.91,8.54,18.39,0,0,18.7-.77,18.74-.76.63.29,1.22-25.19.72-28A70.67,70.67,0,0,0,1140.29,737.1Z"/><path class="cls-42" d="M1235.25,765l-.12-.14c-15-17.37-45.68-16.36-64.19-5.6a97.88,97.88,0,0,0-23.16,18.62c10.71-2.86-30.39,21.13,33.23-3.34,4.34-1.67,17.26-2.46,22-.69,8.14,3,15.75,7.35,23.15,11.84,2.44,1.48,17.9,11.19,15.95,14.95C1247.71,789.94,1242.64,773.72,1235.25,765Z"/><path class="cls-43" d="M1073.51,751.72c29.52-8.6,38.18,8.1,52,19.15,2,1.62,5.75,6.6,8.23,7.3-14.84-4.21-16,7.66-30,.11-42.54-23.1-65.33,12-65.33,12S1044.77,760.1,1073.51,751.72Z"/><rect class="cls-44" x="1106.95" y="772.92" width="77.37" height="86.19" rx="22.4" transform="translate(-15.1 21.62) rotate(-1.07)"/><rect class="cls-45" x="1100.29" y="772.93" width="89.46" height="21.42" rx="9.63" transform="translate(-14.49 21.61) rotate(-1.07)"/><path class="cls-46" d="M870.35,638.12c-8.54-20.25-26.38-32.55-44.12-41S783.13,555,769,539.78c-51.46-55.15-7.55-188.61-76.08-228.12-48.09-27.72-89.47-37.83-138.38-19.52-36.4,13.62-60.69,45.46-69.86,86.65-16.93,76,2.53,153.52,47.74,222.22,5.32,8.09,23.93,31.61,28,40.83,3.21,7.31,4.62,15.5,6.36,23.48,9.4,43.26,30.45,84.6,63.09,107.07,20.5,14.12,44.31,20.09,67.92,22.91,40.73,4.86,82.85.68,120.53-18.24,18.26-9.17,36.07-22.67,45.35-43.41,3.66-8.2,5.84-17.19,7.75-26.18C876.21,684.55,879.26,659.27,870.35,638.12Z"/><path class="cls-47" d="M870.35,638.12c-8.54-20.25-26.38-32.55-44.12-41S783.13,555,769,539.78c-50.94-54.59-8.45-185.88-74-226.87-32.59-6.73-66.47-5.6-97.65,9.07A101.8,101.8,0,0,0,555,359.26C526.84,401.51,526.84,450.39,540.1,496c9.11,31.48,32.31,51.36,51.36,77.87,24,33.14,17.4,71.25,24.85,109.36,10.77,50.53,68.76,55.5,111,70.41,17.18,6.25,27,23.53,32.23,41.45a188.33,188.33,0,0,0,58.7-18c18.26-9.17,36.07-22.67,45.35-43.41,3.66-8.2,5.84-17.19,7.75-26.18C876.21,684.55,879.26,659.27,870.35,638.12Z"/><path class="cls-48" d="M880.6,1006.84c4.18-.49,6.62-5.85,10.95-6.56-10.09-10.63-22-21.27-16.93-37-7.87-2.72-15.77-5.11-23.78-7.36-5,9.16-9.79,18.4-14.47,27.76a69.1,69.1,0,0,1,7,6.49C853.72,1000.62,865.36,1008.65,880.6,1006.84Z"/><path class="cls-49" d="M891.55,1000.28c-4.32.71-6.78,6.07-10.95,6.56-15.23,1.81-26.87-6.22-37.29-16.67a69.06,69.06,0,0,0-6.94-6.49c-2.52,5-5,10.07-7.58,15.1,26.55,13.78,54,25.93,81.12,38.61C925.7,1026.46,900.2,1009,891.55,1000.28Z"/><path class="cls-50" d="M745.74,489.31c-24.84,58-38,172.11,22.41,180.57,71.43,10,123.71,42.74,132.47,70.62s-.42,100.79-54.77,213.14c5.17,1,36,12.92,36,12.92s113.46-178,89.76-271.66c-12.31-48.63-61.57-81.93-125-112C672.74,500.59,857.43,546.31,745.74,489.31Z"/><g class="cls-51"><path d="M921.71,756.18C920.12,727,911.72,670.37,845,643c-26.4-10.84-31.47-40.09-25.46-73.29-126.09-64.08,31.33-26.74-73.79-80.39-24.84,58-38,172.11,22.41,180.57,71.43,10,123.71,42.74,132.47,70.62,7.53,24,4.13,69.7-34,165.82C928.91,821.51,923.1,781.6,921.71,756.18Z"/></g><path class="cls-48" d="M949.56,348.35,820,459.08l9.19,13.74a18.06,18.06,0,0,0,27.92,2.57L965.08,364.86Z"/><path class="cls-48" d="M961.94,317.18c-2.29,5.09-6,11.67-10,3.19-1-2.05-.63-7.44-2.56-8.74-3.35-2.25-4.25,4.05-4.77,6.45-3.7,16.95-.51,39.45,18.13,45.38,14,4.46,26.07-7.85,31.49-19.3,5.33-11.24,5.91-23.77-1.67-33.88-2-2.68-4.23-4.7-5.74-7.48s-2.26-5.46-4-8c-1-1.48-5.43-6.39-7.27-6-2.31.52-4.15,6-5,7.77-2.8,6.27-5.28,12.8-8,19.13Z"/><path class="cls-48" d="M802.88,343.19,861,445.64l-41,13.44s-54.35-77.57-68.87-82.64C707.89,342.73,754,270.84,802.88,343.19Z"/><g class="cls-52"><path d="M997.94,323.5a43.32,43.32,0,0,1-3.17,9.21c-5.24,11.06-16.66,22.92-30.08,19.68l.95,1L857.71,463.93a18,18,0,0,1-27.92-2.57l-9.2-13.74s-10.5-15-23.5-32.22l32.28-25.54-40.33,15C774.33,386,758.58,367.38,751.72,365c-10.74-8.37-16-19.09-17-29.37-2.7,13.19,1.62,29.26,16.48,40.83,14.52,5.07,68.87,82.64,68.87,82.64l9.19,13.74a18.06,18.06,0,0,0,27.92,2.57L965.08,364.86l-1-1c13.42,3.24,24.85-8.63,30.08-19.69A37.12,37.12,0,0,0,997.94,323.5Z"/></g><path class="cls-53" d="M799.09,256.62c-10.36-11.36-23.68-14.34-37.34-21.93-8.5-4.72-3.58-8.66-.81-15.62,4.26-10.71,5.18-23.72,4.12-35-1.32-14.12-15.27-32.7-28.93-39.61-6.36-3.21-14.75-5.84-21.7-8-15.6-4.8-27.19-4.3-42.89-.85l.35.32c-10.57-5.48-29.4-.31-39.28,4.38-11.49,5.46-18.21,15.16-20.51,26.73a96.65,96.65,0,0,0-.33,33.88c1.53,9.51.08,16.08,5.75,24.35-42.84-4.76-95.59,23.11-96.9,69-.78,27.39,13.86,54.23,35.74,72.31,24.28,20.05,50.74,33,83.54,35.48,35.79,2.7,74.51-3.49,105.57-20.28,32.2-17.41,63.88-43.67,67.21-80,1.35-14.69-1.76-30-11.11-42.19C800.77,258.53,799.94,257.55,799.09,256.62Z"/><path class="cls-54" d="M796.86,280.16c-2.73-20-22.71-33.59-42.68-31.78a66.46,66.46,0,0,0,8.49-13.19l-.92-.5c-8.5-4.72-3.58-8.66-.81-15.62,4.26-10.71,5.18-23.72,4.12-35-1.32-14.12-15.27-32.7-28.93-39.61-6-3-13.8-5.54-20.5-7.61-22.54,2.84-43.63,16-57.71,36.2-19.07,26.34-22.7,57.21-11.8,86.27-32.69,3.63-67.2,10-89,37.23-13,15.9-17.58,37.18-14,57a106.22,106.22,0,0,0,13.21,13c24.28,20.05,50.74,33,83.54,35.48,35.79,2.7,74.51-3.49,105.57-20.28,18.56-10,36.94-23,49.82-39.16C800.48,322.31,800.54,301,796.86,280.16Z"/><path class="cls-55" d="M721.63,355.28A126.7,126.7,0,0,1,718.2,329c-.52-15.76,4.46-48.29,21-55.62L740,273c6.67-3,21.62,4.13,27.1,7.68,7.84,5.08,14.73,12.17,20.6,19.36,12.1,14.81,49,87.07,49,87.07L775.33,410s-13.5-14.34-22.47-19.32c-12-6.67-21-8.19-26.76-21.84A91.85,91.85,0,0,1,721.63,355.28Z"/><path class="cls-47" d="M718.45,319.61a89,89,0,0,0-.25,9.39,126.7,126.7,0,0,0,3.43,26.28,91.85,91.85,0,0,0,4.47,13.55c5.77,13.65,14.76,15.17,26.76,21.84,9,5,22.47,19.32,22.47,19.32l14-5.2a249,249,0,0,0-2.2-29.82C781.61,340.5,750.77,320.73,718.45,319.61Z"/><path class="cls-56" d="M781.47,460c-7-21.84-8.17-44.18-3.28-64.17,3-12.42,9.27-23.36,11.26-35.57,2-12.45-3.51-21.78-12.06-30.22-13.88-13.72-27.88-26.8-34.9-44.36-2.69-6.72-2-11.56-9.64-12.68-10.49-1.53-24.8,2.31-35.26,3.56-29.94,3.58-111.05,23.76-94.72,73.54,3.91,11.89,12.21,20.47,19.55,30.27,12,16,23.37,28.79,31.29,50,7.38,19.8,13.49,42.7,13.21,66.61-.35,29.69-50.7,45.09-25.91,57.84,29.21,15,76,21.48,109.5,16.83,28.8-4,33.28.65,59.33-17.5.85-.6-21.07-74.61-25.63-86.42C783.22,465.21,782.3,462.63,781.47,460Z"/><path class="cls-47" d="M784.21,467.78c-1-2.57-1.91-5.15-2.74-7.74a133.08,133.08,0,0,1-4.69-19.65,83.62,83.62,0,0,1-25.55,39.4c-24.35,19.84-54.9,28.18-85.57,25-7.66,24.7-47.18,38.48-24.65,50.06,29.21,15,76,21.48,109.5,16.83,28.8-4,33.28.65,59.33-17.5C810.69,553.6,788.77,479.59,784.21,467.78Z"/><path class="cls-47" d="M656.89,439.45c10.72-32.54,10.58-66-12.23-86.31-3.49,13.36-7.09,27.4-11.73,41.07,8,10.61,15.21,21.3,20.78,36.21C654.81,433.36,655.87,436.38,656.89,439.45Z"/><path class="cls-48" d="M733.6,226.86l-32.82-3.93L668,226.86s18.88,43.51,13.41,52.48c-12,19.74,37.89,37.48,37.89,37.48s18.17-17.31,5.89-41.71C720.39,265.63,733.6,226.86,733.6,226.86Z"/><path class="cls-57" d="M692.2,279.34c5.47-9-13.41-52.48-13.41-52.48l27.4-3.28-5.41-.65L668,226.86s18.88,43.51,13.41,52.48c-12,19.74,37.89,37.48,37.89,37.48a28.59,28.59,0,0,0,2.78-3.27C708.46,307.54,683.25,294,692.2,279.34Z"/><path class="cls-48" d="M715.86,130.21c-8.71-2.2-37.08-4.45-50.79,17.21-10,15.72-11,31-9.83,48.07,1.31,19.59,5.26,41.5,20.87,55,9.16,7.93,21.78,11.35,33.75,11.09,10.1-.23,26.09-1.54,32.76-10.47,6.16-8.24,3.2-19.33,3.2-28.89,0-10.57-1.86-21.68.56-32,1.21-5.1,7.16-21,12.75-26.11C756,151,732,134.25,715.86,130.21Z"/><path class="cls-57" d="M696.23,250.5c-15.61-13.51-19.56-35.42-20.87-55-1.14-17.05-.12-32.35,9.84-48.07,7.08-11.19,18.07-16,28.24-17.72-10.68-1.89-35.73-2.24-48.37,17.72-10,15.72-11,31-9.83,48.07,1.31,19.59,5.26,41.5,20.87,55,9.16,7.93,21.78,11.35,33.75,11.09,3-.07,6.49-.23,10.11-.66C711.29,259.6,702.85,256.23,696.23,250.5Z"/><path class="cls-58" d="M801.21,98.54a53,53,0,0,0-9.68-6C780,87,744.94,74.71,743.7,98.86c-6.23-11-25.43-12.25-36.41-13.64a89.89,89.89,0,0,0-50.35,8.7c-11.46,5.61-23.84,13.2-28.29,25.66-4.17,11.68-2,22.88,2.9,33.83-6.37,4.1-12.4,3.7-15.18,12.54-4.19,13.39,7.66,31.1,13.87,42.24,4,7.2,8.33,14.22,12.49,21.33,3.8,6.49,5.82,16.24,12.22,20.84,10.13-9.27,13.4-27.78,16.72-40.55,3.77-14.49,4.67-27.94,4.44-43,3.68,3.37,5.55,7.92,9.26,11.06,6.24,5.28,13.56,8.23,21.22,11.05,12.23,4.51,21.61,9.32,35.09,9.44,36.26.31,72.57-15.83,76.37-55.88C819.77,124.47,814.36,108.92,801.21,98.54Z"/><path class="cls-59" d="M816,120c-.71,18.51-11.48,36.88-29.14,45.71-35.42,18.16-75.37,5.45-105.34-20-5.45-4.54-16.34-1.82-21.79,5.45-1.82,3.63-3.63,7.26-2.73,10.9a29,29,0,0,0-7,2c6.15,22.22,7,47-7.48,65l.24.41c3.8,6.49,5.82,16.24,12.22,20.84,10.13-9.27,13.4-27.78,16.72-40.55,3.77-14.49,4.67-27.94,4.44-43,3.68,3.37,5.55,7.92,9.26,11.06,6.24,5.28,13.56,8.23,21.22,11.05,12.23,4.51,21.61,9.32,35.09,9.44,36.26.31,72.57-15.83,76.37-55.88A56.91,56.91,0,0,0,816,120Z"/><path class="cls-48" d="M588.8,391.41l3.11,112.21L635.16,499s5.42-94.55,15.11-106.51C669.34,341.05,592.32,304.16,588.8,391.41Z"/><path class="cls-48" d="M759.05,524.83l-145.56,8a21.07,21.07,0,0,1-22.22-21.46l.47-24.06,167.89,14.87Z"/><path class="cls-48" d="M791.06,499.31c-5.58.11-13.13-.46-7.17-7.69,1.44-1.74,6.46-3.74,6.81-6,.61-4-5.47-2.12-7.87-1.57-16.9,3.9-35.89,16.39-33.29,35.78,2,14.59,18.24,20.22,30.9,20.24,12.44,0,24-4.82,29.92-16,1.57-3,2.45-5.83,4.31-8.39s4-4.37,5.51-7c.9-1.57,3.46-7.64,2.3-9.13-1.45-1.87-7.16-1.2-9.13-1.16-6.86.15-13.83.7-20.71.95Z"/><path class="cls-57" d="M787.23,531.27c-10.94,0-24.56-4.22-29.34-14.77l-137.61,7.56a21.08,21.08,0,0,1-22.23-21.46l.36-18.06-2.1-75.7-7.51-17.43,2.82,101.89-.35,18.06a21.07,21.07,0,0,0,22.22,21.46l137.62-7.55c4.78,10.54,18.4,14.75,29.33,14.76,12.44,0,24-4.82,29.92-16,.11-.2.2-.4.3-.6C804.43,528.83,796.05,531.27,787.23,531.27Z"/><path class="cls-60" d="M676.76,366.9A126.94,126.94,0,0,0,671,341c-4.92-15-20.77-43.82-38.8-45l-.91-.06c-7.27-.49-18.89,11.3-22.82,16.52-5.61,7.45-9.65,16.48-12.7,25.25-6.28,18.07-16.14,98.6-16.14,98.6l65.5.42s7.75-18.11,14.47-25.87c9-10.37,16.91-14.89,17.64-29.69A91.8,91.8,0,0,0,676.76,366.9Z"/><path class="cls-47" d="M853.71,999.3a14.16,14.16,0,0,1-6.38-19l1.26-2.51.33.26-.33-.26q4.93-9.87,10.06-19.58c-2.59-.77-5.2-1.53-7.81-2.26-5,9.16-9.79,18.4-14.47,27.76l.33.26-.33-.26c-2.52,5-5,10.07-7.58,15.1,26.55,13.78,54,25.93,81.12,38.61,4-2.76,5.34-5.94,5-9.28C894.48,1018.62,873.89,1009.33,853.71,999.3Z"/><path class="cls-32" d="M599.36,335.25c3-8.78,7.08-17.8,12.7-25.26a67.86,67.86,0,0,1,11.75-11.66c-6.14,3.64-12.62,10.47-15.37,14.12-5.61,7.45-9.65,16.48-12.7,25.25s-6.86,31.78-10,53.45C587.23,387.51,596.73,342.82,599.36,335.25Z"/><path class="cls-32" d="M770.74,283.25a110.07,110.07,0,0,1,13.08,13.66c11,13.54,49.85,85.7,50.68,85.9-8.14-15.76-36.48-70.13-46.79-82.76A100.31,100.31,0,0,0,770.74,283.25Z"/><path class="cls-32" d="M778.19,395.87c3-12.42,9.27-23.36,11.26-35.57,2-12.45-3.51-21.78-12.06-30.22-5.26-5.2-10.53-10.31-15.44-15.6.7,1.92,10.58,12.25,14,15.59,8.55,8.45,12.65,17.78,10.62,30.23-2,12.21-9.15,23-11.26,35.57C770.74,422.93,778,451.44,780,455,774.35,434.81,773.67,414.34,778.19,395.87Z"/><path class="cls-32" d="M615.23,221.2c-1.55-5.3-1.19-10.47-2.25-17a96.7,96.7,0,0,1,.33-33.89c2-9.86,7.15-18.35,15.76-24a39.19,39.19,0,0,1,.8-23.41c4.45-12.45,16.82-20,28.28-25.65a89.82,89.82,0,0,1,50.35-8.7c11,1.39,30.19,2.62,36.41,13.63,1.24-24.15,36.34-11.89,47.83-6.32a52.13,52.13,0,0,1,9.68,6,43.37,43.37,0,0,1,13.34,17.5,43.54,43.54,0,0,0-14.55-20.75,53,53,0,0,0-9.68-6C780,87,744.94,74.71,743.7,98.86c-6.23-11-25.43-12.25-36.41-13.64a89.89,89.89,0,0,0-50.35,8.7c-11.46,5.61-23.84,13.2-28.29,25.66a39.16,39.16,0,0,0-.79,23.4c-8.61,5.68-13.8,14.17-15.76,24a96.65,96.65,0,0,0-.33,33.88C613,208.81,612.27,214.69,615.23,221.2Z"/><path class="cls-32" d="M799.09,256.62C789,245.52,776,242.41,762.67,235.19h0l-.92-.5a12.56,12.56,0,0,1-3.54-2.68c-.06,2,1.11,3.91,4.75,5.93l.92.49h0c13.34,7.22,26.3,10.33,36.43,21.43.84.93,1.67,1.92,2.48,3a52.81,52.81,0,0,1,6.92,12.05,53.2,53.2,0,0,0-8.14-15.29C800.77,258.53,799.94,257.55,799.09,256.62Z"/><path class="cls-32" d="M521.84,297.51c1.3-45.9,54.06-73.77,96.9-69a27.13,27.13,0,0,1-2-3.31c-42.71-4.37-94.87,23.44-96.17,69.08a80.1,80.1,0,0,0,5.87,31.86A79.2,79.2,0,0,1,521.84,297.51Z"/><path class="cls-48" d="M1135,787.53c1.61-3.88-1.88-8.63-.38-12.75-14.2,3.61-29.33,8.83-40.56-3.31-6.21,5.54-12.16,11.27-18,17.16,5.54,8.86,11.28,17.53,17.16,26.19a68.11,68.11,0,0,1,9.06-2.9C1116.42,808,1129.11,801.72,1135,787.53Z"/><path class="cls-61" d="M1134.6,774.78c-1.49,4.11,2,8.88.37,12.76-5.86,14.16-18.55,20.4-32.75,24.39a67.07,67.07,0,0,0-9.06,2.89l9.47,14c25-16.43,49-34.48,73.32-51.93C1174.12,757.76,1146.4,771.47,1134.6,774.78Z"/><path class="cls-62" d="M641,554.87c-28.47,150.35,58.56,160,129.73,132,59.25-23.3,84.73-75.17,113.9-77s96.12,111,192.73,180.89c1.16-5.14,16.43-18.37,23.65-27.43C1005.51,671.17,969.5,504.63,872.89,505.1c-50.16.24-98.39,57.55-141.34,65.16C685.75,578.37,641,554.87,641,554.87Z"/><path class="cls-47" d="M1100.29,762.64c-8.32,8.19-21,18.21-22.34,22.67-91.83-76.06-151.25-193-180.48-193.12s-58,50-118.68,69.35C722,679.69,657.06,674.37,649.34,600.91c13-14.67,29.8-23.93,48.09-29.75a173.53,173.53,0,0,1-56-16.29,1.55,1.55,0,0,0,0,.21l-.39-.21c-28.47,150.35,58.56,160,129.73,132,59.25-23.3,84.73-75.17,113.9-77s96.12,111,192.73,180.89c1.16-5.14,16.43-18.37,23.65-27.43Z"/><path class="cls-47" d="M1110.07,813a4.93,4.93,0,0,1-6.8-1.35l0,0-1,.3c-1.66.46-3.42.93-5.17,1.47,2.11-.66,4.25-1.22,6.18-1.77h0l-6.7-9.89c.22-.1.45-.18.68-.27-.23.09-.46.17-.68.27-4.54-6.69-9-13.38-13.34-20.17q-3.62,3.5-7.19,7.07c5.54,8.86,11.28,17.53,17.16,26.19.22-.1.45-.18.67-.27-.22.09-.45.17-.67.27l9.47,14c25-16.43,49-34.48,73.32-51.93-.37-3.82-1.77-6.32-3.87-7.86C1151.56,783.85,1131.14,799,1110.07,813Z"/><path class="cls-32" d="M872.89,505.1c-36.36.18-100.74,46.41-133.41,71.83,3.43-1.47,99.75-67.74,132.18-67,68.85,1.5,129.81,115.74,134,119.83C966,563,930.07,504.82,872.89,505.1Z"/><rect class="cls-63" x="933.12" y="300.83" width="97.95" height="38.64" rx="6.89" transform="translate(138.14 915.75) rotate(-53.27)"/><rect class="cls-64" x="934.41" y="303.11" width="92.76" height="32.13" rx="6.89" transform="translate(138.4 914.32) rotate(-53.27)"/><polygon class="cls-65" points="966.12 368.82 1021.35 288.33 982.09 128.86 798.33 281.15 966.12 368.82"/><g class="cls-66"><path class="cls-67" d="M420.51,613.49c-13.28-7.55-21.7-15.4-25.59-23.27L394.46,833c3.89,7.88,12.31,15.73,25.59,23.27,58.64,33.31,192.56,49.65,316.56,40.78l.46-242.74C613.07,663.14,479.14,646.8,420.51,613.49ZM561.75,776.81l2.84-5.75,2.82,6.39,6.38,1.65-4.63,4.24,1.08,6.79-5.68-3.78-5.64,2.5L560,782.3,555.48,777ZM504.83,675.17c23.95-10.78,57.84,21.9,45.61,53.69-6,15.53-21.6,22.88-36.35,17.1h0C484,732.36,482,685.46,504.83,675.17ZM547,787.32l-5.46-3.91-5.41,2.35h0l1-6.52-4.34-5.39,6-.06,2.72-5.68,2.71,6.46,6.15,1.81L546,780.5Zm-22.25-3.39-5.21-4-5.15,2.21h0l1-6.49-4.12-5.5,5.71.09,2.59-5.61,2.59,6.53,5.86,2-4.26,4Zm-21.13-4-4.91-4.19-4.84,2.08.93-6.47-3.86-5.6,5.36.24,2.44-5.54,2.44,6.59,5.53,2.12-4,3.9ZM477,761.32l2.27-5.47,2.27,6.66,5.17,2.26-3.76,3.8.86,6.89-4.57-4.32-4.5,2h0l.87-6.44L472,760.93Zm78.8,83.56a3.27,3.27,0,0,1-3.59,3.41,620.75,620.75,0,0,1-63-11.21,4.76,4.76,0,0,1-3-4.6v-.91c.09-2.21,1.28-3.44,3-3.13a621,621,0,0,0,63,11.21,4.37,4.37,0,0,1,3.58,4.32Zm32.15-22.17c-.24,2.34-1.47,3.49-3.77,3.53-45.4-4.06-87-11.37-120-21.46-.64-.33-2.58-1.35-2.69-4.69v-.92c.24-3.25,1.91-3.1,2.71-3,33,10.09,74.64,17.39,120,21.46a4.25,4.25,0,0,1,3.75,4.19Zm81.66-14v.92c-.57,2.67-1.23,3.32-4,3.86-101-.34-197.89-16.18-245.39-43.16-1.23-.7-2.42-1.41-3.57-2.11-.94-1.12-1.51-1.8-1.7-4.94v-.91a9.23,9.23,0,0,1,.75-2.73l1-.06c1.15.7,2.34,1.41,3.57,2.11,47.49,27,144.39,42.82,245.39,43.16C668.37,805.41,669,806.06,669.59,808.73Z"/><path class="cls-32" d="M518.93,747.39l.15,0-.15,0Z"/><path class="cls-32" d="M519.85,747.57h0l-.46-.08Z"/><path class="cls-32" d="M520.57,747.68h0l-.17,0Z"/><path class="cls-32" d="M518.39,747.28l.23.05-.22-.05Z"/><path class="cls-32" d="M514.33,746.05l.92.34-.92-.34Z"/><path class="cls-32" d="M516.49,746.78l.17.05-.17-.05Z"/><path class="cls-32" d="M516.23,746.71l.19,0-.19,0Z"/><path class="cls-32" d="M494.78,727.44v0h0Z"/><path class="cls-32" d="M510.93,744.44c1,.54,2.07,1,3.16,1.52C513.16,745.53,512.09,745.05,510.93,744.44Z"/><path class="cls-32" d="M510.93,744.44c-6.71-3.6-11.78-9-16.15-17a45.77,45.77,0,0,0,4.91,7.56A34.75,34.75,0,0,0,510.93,744.44Z"/><path class="cls-32" d="M519.76,673.56c-30.42-3.71-37.19,30.33-25,53.85,1.79-4,4.45-4.77,6.29-5l7.11-.71c6.94,7.16,15.89,8.75,23.34,4.15,11.66,5.09,12.35,5.39,14.64,10.56a25.57,25.57,0,0,1-4.41,5c14.52-12.33,14.57-39.38-1.17-56C534.72,679.16,527.13,674.86,519.76,673.56Zm16.51,38.61c-1.84,8.44-8.82,13.57-16.6,12.18h0c-17.39-3.41-21.47-29-9.55-36.78C522.48,679.48,539.83,695.8,536.27,712.17Z"/><path class="cls-32" d="M522.8,747.9Z"/><path class="cls-32" d="M541.74,741.41c-4.76,4.05-11.07,6.51-18.9,6.5A26.74,26.74,0,0,0,541.74,741.41Z"/><path class="cls-32" d="M521.09,747.75h0l-.47-.06Z"/><path class="cls-68" d="M539.19,729.21l-7.68-3.35c-7.45,4.6-16.4,3-23.34-4.15-10.76,1.08-11.41,1.15-13.4,5.7,5,9.28,11,15,19.32,18.55h0c4.45,1.72,19.9,6.15,32.12-9.39A13.42,13.42,0,0,0,539.19,729.21Z"/><path class="cls-68" d="M519.74,685.72c-15.7-2.51-21,17.76-11.68,30.79,10.05,14,26.28,8.64,28.43-5.54C538.21,699.62,530.23,687.59,519.74,685.72Z"/><path class="cls-32" d="M552.2,839.65a621,621,0,0,1-63-11.21c-2.51-.28-3,1.84-3,3.13v.91c.08,2.27,1.26,4.07,3,4.6a620.75,620.75,0,0,0,63,11.21c2.07.15,3.48-1.18,3.59-3.41V844A4.32,4.32,0,0,0,552.2,839.65Z"/><path class="cls-32" d="M665.62,804.87c-101-.34-197.9-16.18-245.39-43.16-1.23-.7-2.42-1.41-3.57-2.11l-1.22.37a11.07,11.07,0,0,0-.5,2.42v.91c.24,3,.58,3.74,1.7,4.94,1.15.7,2.34,1.41,3.57,2.11,47.5,27,144.39,42.82,245.39,43.16,2.76-.54,3.42-1.19,4-3.86v-.92C669.32,807.41,668.81,805,665.62,804.87Z"/><path class="cls-32" d="M584.18,817.6c-45.4-4.07-87-11.37-120-21.46-.8-.07-2.47-.22-2.71,3v.92c.16,2.41,1,3.95,2.69,4.69,33,10.09,74.64,17.4,120,21.46,2.3,0,3.53-1.19,3.77-3.53v-.92A4.22,4.22,0,0,0,584.18,817.6Z"/><polygon class="cls-32" points="481.52 762.5 479.25 755.85 476.98 761.32 472.01 760.93 475.59 766.65 474.72 773.09 479.22 771.14 483.8 775.46 482.93 768.57 486.69 764.77 481.52 762.5"/><polygon class="cls-32" points="501.19 767.08 498.76 760.49 496.32 766.03 490.96 765.79 494.82 771.39 493.89 777.86 498.73 775.78 503.64 779.97 502.71 773.1 506.73 769.2 501.19 767.08"/><polygon class="cls-32" points="522.18 771.11 519.59 764.58 517 770.19 511.29 770.1 515.4 775.6 514.41 782.09 519.56 779.88 524.76 783.93 523.78 777.09 528.04 773.08 522.18 771.11"/><polygon class="cls-32" points="544.3 774.57 541.59 768.11 538.87 773.79 532.86 773.85 537.19 779.24 536.15 785.76 541.56 783.4 547.02 787.32 545.98 780.5 550.45 776.38 544.3 774.57"/><polygon class="cls-32" points="567.41 777.45 564.59 771.06 561.75 776.81 555.49 777.03 560 782.3 558.92 788.85 564.56 786.35 570.24 790.13 569.16 783.34 573.79 779.1 567.41 777.45"/></g><circle class="cls-32" cx="1093.16" cy="84.44" r="52.36" transform="translate(596.81 1062.08) rotate(-67.5)"/><path id="circle" class="cls-69" d="M1082.43,101.39a6.2,6.2,0,1,1-6.21-6.21A6.2,6.2,0,0,1,1082.43,101.39Z"/><path class="cls-69" d="M1100.42,107.23h-8.16a22.27,22.27,0,0,0-21.83-21.9V77.2a30.47,30.47,0,0,1,30,30Z"/><path class="cls-69" d="M1116.29,107.23h-8.14a38.21,38.21,0,0,0-37.7-37.79V61.31a46.37,46.37,0,0,1,45.84,45.92Z"/><g class="cls-66"><circle class="cls-67" cx="480.61" cy="600.26" r="79.27"/><path class="cls-68" d="M461.21,633.82H446a4.39,4.39,0,0,1-4.39-4.38V618.8a4.36,4.36,0,0,1,1.29-3.1l21.57-21.58a25.12,25.12,0,1,1,20,17.57l-2.86,3.22a4.82,4.82,0,0,1-3.28,1.47h-4v4.34a4.39,4.39,0,0,1-4.38,4.38H465.6v4.34A4.39,4.39,0,0,1,461.21,633.82ZM488.47,564a22.88,22.88,0,0,0-21.72,30l.21.66-22.53,22.53a2.17,2.17,0,0,0-.64,1.53v10.64a2.16,2.16,0,0,0,2.16,2.15h15.26a2.16,2.16,0,0,0,2.16-2.15v-6.57h6.57a2.15,2.15,0,0,0,2.15-2.15v-6.57h6.19a2.63,2.63,0,0,0,1.61-.73l3.7-4.15.62.12a23.45,23.45,0,0,0,4.26.4,22.88,22.88,0,1,0,0-45.75ZM495,588a7.66,7.66,0,1,1,7.65-7.66A7.67,7.67,0,0,1,495,588Zm0-13.09a5.43,5.43,0,1,0,5.42,5.43A5.44,5.44,0,0,0,495,574.94Z"/><circle class="cls-67" cx="929.75" cy="57.36" r="50.52"/><path class="cls-68" d="M950.6,79.11h-3.48a4.37,4.37,0,0,1-4.36-4.37V72.16h-26v2.58a4.37,4.37,0,0,1-4.36,4.37h-3.48a4.37,4.37,0,0,1-4.36-4.37V69.19a7.82,7.82,0,0,1-1.74-4.87V59.1a7.72,7.72,0,0,1,1.33-4.32h-.22a2.2,2.2,0,0,1-2.13-1.66l-.65-2.61a2.19,2.19,0,0,1,2.13-2.72h5.89l1.59-4a13,13,0,0,1,12.12-8.21h13.79a13,13,0,0,1,12.12,8.21l1.58,4h5.9a2.19,2.19,0,0,1,2.13,2.72h0l-.65,2.61a2.2,2.2,0,0,1-2.13,1.66h-.22a7.72,7.72,0,0,1,1.33,4.32v5.22A7.82,7.82,0,0,1,955,69.19v5.55A4.37,4.37,0,0,1,950.6,79.11Zm-34.76-8.73h27.81a.89.89,0,0,1,.89.89v3.47a2.59,2.59,0,0,0,2.58,2.59h3.48a2.59,2.59,0,0,0,2.58-2.59V68.87a.92.92,0,0,1,.22-.59,5.9,5.9,0,0,0,1.52-4V59.1a6,6,0,0,0-2.09-4.54.89.89,0,0,1,.58-1.56h2.18a.41.41,0,0,0,.4-.31l.66-2.61a.42.42,0,0,0-.41-.52h-6.5a.88.88,0,0,1-.82-.55l-1.81-4.52a11.21,11.21,0,0,0-10.47-7.09H922.85a11.21,11.21,0,0,0-10.47,7.09L910.57,49a.88.88,0,0,1-.82.55h-6.5a.42.42,0,0,0-.41.52l.66,2.61a.41.41,0,0,0,.4.31h2.18a.89.89,0,0,1,.58,1.56,6,6,0,0,0-2.09,4.54v5.22a5.9,5.9,0,0,0,1.52,4,.92.92,0,0,1,.22.59v5.87a2.59,2.59,0,0,0,2.58,2.59h3.48A2.59,2.59,0,0,0,915,74.74V71.27A.89.89,0,0,1,915.84,70.38ZM957.51,50.3Z"/><path class="cls-68" d="M914.07,65.2h-1.7A4.17,4.17,0,0,1,908,60.83a.89.89,0,0,1,1.78,0,2.39,2.39,0,0,0,2.59,2.57l.81,0c1.14,0,2.87,0,3.37-.45a.5.5,0,0,0,.14-.41.89.89,0,0,1,1.78,0,2.28,2.28,0,0,1-.67,1.68C916.94,65.08,915.5,65.2,914.07,65.2Z"/><path class="cls-68" d="M943.65,53H915.84a.88.88,0,0,1-.49-.15l-6.1-4.07a.88.88,0,0,1-.24-1.23.89.89,0,0,1,1.23-.25l5.87,3.92h27.3l5.89-3.36a.89.89,0,0,1,.88,1.55l-6.09,3.47A.88.88,0,0,1,943.65,53Z"/><path class="cls-68" d="M945.42,65.2c-1.43,0-2.87-.12-3.73-1a2.28,2.28,0,0,1-.67-1.68.89.89,0,0,1,1.78,0,.5.5,0,0,0,.14.41c.5.5,2.23.47,3.37.45l.81,0a2.39,2.39,0,0,0,2.59-2.57.89.89,0,0,1,1.78,0,4.17,4.17,0,0,1-4.37,4.35h-1.7Z"/><circle class="cls-67" cx="502.67" cy="364.23" r="58.99"/><path class="cls-68" d="M533,386.56h-7.14a2.7,2.7,0,0,1-2.69-2.7V383h-41v.87a2.7,2.7,0,0,1-2.69,2.7h-7.14a2.7,2.7,0,0,1-2.7-2.7v-13a8,8,0,0,1,4.48-14.7h3.57a4.49,4.49,0,0,1,4.48,4.48v10.71h-1.82V360.66a2.67,2.67,0,0,0-2.66-2.66h-3.57A6.21,6.21,0,0,0,471,369.59l.46.26v14a.87.87,0,0,0,.87.87h7.14a.87.87,0,0,0,.87-.87v-2.7H525v2.7a.87.87,0,0,0,.87.87H533a.87.87,0,0,0,.87-.87v-14l.45-.26a6.16,6.16,0,0,0,3.12-5.36,6.24,6.24,0,0,0-6.22-6.23h-3.57a2.67,2.67,0,0,0-2.66,2.66v10.71h-1.82V360.66a4.49,4.49,0,0,1,4.48-4.48h3.57a8,8,0,0,1,4.48,14.7v13A2.7,2.7,0,0,1,533,386.56Zm-12.49-17.85H484.83v-1.82h35.69Zm11.62-14.28h-4.48v-1.82h2.61a9.8,9.8,0,0,0-9.75-8.88H484.83a9.8,9.8,0,0,0-9.75,8.88h2.61v1.82h-4.48v-.91a11.63,11.63,0,0,1,11.62-11.62h35.69a11.63,11.63,0,0,1,11.62,11.62Z"/><circle class="cls-67" cx="841.74" cy="685.02" r="79.27"/><path class="cls-70" d="M874,695.06a33.67,33.67,0,0,1-7.46,12.9,1.61,1.61,0,0,1-2,.31l-5.81-3.35a26.43,26.43,0,0,1-8.29,4.78v6.71a1.63,1.63,0,0,1-1.28,1.59,34.11,34.11,0,0,1-14.88,0,1.63,1.63,0,0,1-1.28-1.59V709.7a25.65,25.65,0,0,1-8.29-4.78l-5.81,3.35a1.63,1.63,0,0,1-2-.31,33.82,33.82,0,0,1-7.46-12.9,1.63,1.63,0,0,1,.75-1.9L816,689.8a26,26,0,0,1,0-9.56l-5.81-3.36a1.63,1.63,0,0,1-.75-1.91,33.7,33.7,0,0,1,7.46-12.89,1.61,1.61,0,0,1,2-.31l5.8,3.35a26.49,26.49,0,0,1,8.28-4.78v-6.71a1.63,1.63,0,0,1,1.28-1.59,34.15,34.15,0,0,1,14.89,0,1.63,1.63,0,0,1,1.28,1.59v6.69a25.86,25.86,0,0,1,8.29,4.79l5.8-3.36a1.65,1.65,0,0,1,2,.32A34,34,0,0,1,874,675a1.67,1.67,0,0,1-.75,1.91l-5.81,3.35a26.09,26.09,0,0,1,0,9.57l5.81,3.35A1.7,1.7,0,0,1,874,695.06Zm-21.4-10a10.91,10.91,0,1,0-10.9,10.9A10.92,10.92,0,0,0,852.64,685Z"/><circle class="cls-67" cx="1188.37" cy="248.78" r="57.68" transform="matrix(0.05, -1, 1, 0.05, 886.28, 1424.73)"/><path class="cls-68" d="M1203.8,278.77h-30.87a3.66,3.66,0,0,1,0-7.31h7.5l1.2-3.59h-20.51a6.38,6.38,0,0,1-6.37-6.37V225.17a6.38,6.38,0,0,1,6.37-6.37h54.49a6.38,6.38,0,0,1,6.37,6.37V261.5a6.38,6.38,0,0,1-6.37,6.37H1195.1l1.2,3.59h7.5a3.66,3.66,0,1,1,0,7.31Zm-30.87-5.45a1.8,1.8,0,1,0,0,3.59h30.87a1.8,1.8,0,1,0,0-3.59H1195l-2.43-7.31h23.08a4.52,4.52,0,0,0,4.52-4.51V225.17a4.53,4.53,0,0,0-4.52-4.52h-54.49a4.52,4.52,0,0,0-4.51,4.52V261.5a4.51,4.51,0,0,0,4.51,4.51h23.09l-2.44,7.31Zm40.86-12.71h-50.85v-1.86h50.85Z"/><circle class="cls-67" cx="1121.93" cy="595.78" r="53.74"/><path class="cls-68" d="M1143.45,625.23h-2a3.84,3.84,0,0,1-3.83-3.83v-.27h-31.28v.27a3.83,3.83,0,0,1-3.83,3.83h-2a3.84,3.84,0,0,1-3.83-3.83v-3.83a13.09,13.09,0,0,1-4.09-9.49v-3.35h-.27a3.84,3.84,0,0,1-3.83-3.83v-2a3.84,3.84,0,0,1,3.83-3.83h.27V577.34a11,11,0,0,1,19.73-6.69,9.4,9.4,0,0,1,8,1.89,2.29,2.29,0,0,1,2.57.46l1.45,1.45a2.31,2.31,0,0,1,0,3.25L1112,589.87a2.3,2.3,0,0,1-3.24,0l-1.45-1.45a2.29,2.29,0,0,1-.46-2.57,9.43,9.43,0,0,1-.85-10.67,3.34,3.34,0,0,0-5.89,2.16V595h51.5a3.84,3.84,0,0,1,3.83,3.83v2a3.84,3.84,0,0,1-3.83,3.83h-.27v3.35a13.06,13.06,0,0,1-4.1,9.49v3.83A3.84,3.84,0,0,1,1143.45,625.23Zm-37.91-5.62h32.79a.76.76,0,0,1,.75.76v1a2.32,2.32,0,0,0,2.32,2.31h2a2.32,2.32,0,0,0,2.32-2.31v-4.16a.73.73,0,0,1,.25-.56,11.58,11.58,0,0,0,3.84-8.6V604a.76.76,0,0,1,.76-.76h1a2.32,2.32,0,0,0,2.31-2.32v-2a2.32,2.32,0,0,0-2.31-2.31h-52.26a.76.76,0,0,1-.76-.76V577.34a4.86,4.86,0,0,1,9-2.6.76.76,0,0,1,0,.82,7.92,7.92,0,0,0,.8,9.71.75.75,0,0,1,0,1,.79.79,0,0,0,0,1.07l1.45,1.45a.8.8,0,0,0,1.11,0l12.17-12.17a.81.81,0,0,0,0-1.11l-1.45-1.45a.79.79,0,0,0-1.07,0,.75.75,0,0,1-1,0,7.93,7.93,0,0,0-7.51-1.79.77.77,0,0,1-.82-.3,9.49,9.49,0,0,0-17.29,5.4v18.44a.76.76,0,0,1-.76.76h-1a2.32,2.32,0,0,0-2.32,2.31v2a2.32,2.32,0,0,0,2.32,2.32h1a.76.76,0,0,1,.76.76v4.1a11.56,11.56,0,0,0,3.85,8.6.73.73,0,0,1,.25.56v4.16a2.32,2.32,0,0,0,2.31,2.31h2a2.32,2.32,0,0,0,2.32-2.31v-1A.76.76,0,0,1,1105.54,619.61Z"/><path class="cls-68" d="M1118.4,592.87a.75.75,0,0,1-.49-.17l-2.53-2.14a.76.76,0,0,1-.1-1.06.77.77,0,0,1,1.07-.1l2.54,2.14a.75.75,0,0,1-.49,1.33Z"/><path class="cls-68" d="M1124.94,593.41a.73.73,0,0,1-.5-.19l-6.54-5.74a.76.76,0,0,1-.07-1.07.77.77,0,0,1,1.07-.07l6.54,5.74a.76.76,0,0,1-.5,1.33Z"/><path class="cls-68" d="M1124.27,587.4a.72.72,0,0,1-.51-.2l-2.6-2.4a.75.75,0,1,1,1-1.11l2.6,2.4a.76.76,0,0,1,0,1.07A.77.77,0,0,1,1124.27,587.4Z"/><path class="cls-68" d="M1134.55,590.54a.73.73,0,0,1-.5-.19l-10-8.74a.75.75,0,0,1,1-1.14l10,8.74a.76.76,0,0,1-.49,1.33Z"/><rect class="cls-68" x="434.06" y="467.51" width="103.5" height="4" transform="translate(-30.18 905.63) rotate(-84.23)"/><rect class="cls-68" x="928.63" y="107.88" width="4" height="83.23" transform="translate(-2.98 19.87) rotate(-1.22)"/><rect class="cls-68" x="1010.71" y="265.34" width="118.93" height="4" transform="translate(-12.19 54.69) rotate(-2.91)"/><rect class="cls-68" x="1038.01" y="319.64" width="4" height="241.19" transform="translate(-85.33 535.36) rotate(-27.77)"/><rect class="cls-68" x="767.99" y="478.82" width="266" height="4" transform="translate(278.55 1290.48) rotate(-80.54)"/><rect class="cls-68" x="657.69" y="536.3" width="4" height="219.95" transform="translate(-142.61 1103.64) rotate(-74.1)"/><circle class="cls-67" cx="931.52" cy="270.37" r="79.27"/><path class="cls-68" d="M976.24,281.17a3.38,3.38,0,0,1-1.93-.69l1.13-1.36a1.65,1.65,0,0,0,.8.29,1.58,1.58,0,0,0,1-.46l4.55-5.53a1.65,1.65,0,0,0,.29-.8,1.59,1.59,0,0,0-.47-1l-15.25-12.57V233.93a1.25,1.25,0,0,0-1.25-1.25h-10a1.26,1.26,0,0,0-1.26,1.25v14.84L936.4,234.43a7.69,7.69,0,0,0-9.77,0l-45.18,37.21a1.55,1.55,0,0,0-.46,1,1.65,1.65,0,0,0,.29.8l4.56,5.54a1.57,1.57,0,0,0,1,.45,1.64,1.64,0,0,0,.8-.28l1.12,1.36a3.33,3.33,0,0,1-1.92.69,3.29,3.29,0,0,1-2.34-1.1l-4.55-5.53a3.38,3.38,0,0,1-.69-1.93,3.27,3.27,0,0,1,1.09-2.33l45.19-37.22a9.46,9.46,0,0,1,12,0l14.54,12V233.93a3,3,0,0,1,3-3h10a3,3,0,0,1,3,3v24.31l14.6,12a3.25,3.25,0,0,1,1.12,2.34,3.35,3.35,0,0,1-.69,1.92l-4.55,5.53A3.29,3.29,0,0,1,976.24,281.17Z"/><path class="cls-68" d="M966.87,309.82l-22.7-.06a4.13,4.13,0,0,1-4.12-4.12V286.25a2.36,2.36,0,0,0-2.36-2.36h-13a2.36,2.36,0,0,0-2.36,2.36v19.39a4.15,4.15,0,0,1-4.11,4.13l-22.7.05a4.13,4.13,0,0,1-4.13-4.12V272.08l37.67-31a3.36,3.36,0,0,1,4.22,0l37.67,31V305.7A4.13,4.13,0,0,1,966.87,309.82Zm-42.14-27.7h13a4.14,4.14,0,0,1,4.13,4.13v19.38a2.35,2.35,0,0,0,2.35,2.36l22.7.07a2.36,2.36,0,0,0,2.36-2.36V272.89l-37-30.48a1.59,1.59,0,0,0-2,0l-37,30.49V305.7a2.36,2.36,0,0,0,2.36,2.36l22.7-.06a2.37,2.37,0,0,0,2.34-2.36V286.25A4.14,4.14,0,0,1,924.73,282.12Z"/></g><path class="cls-71" d="M545.84,63.84c-8.48-18.25-24.91-12.53-30,.34-5.16,13,13.33,41.8,13.33,41.8s33.16-8.32,38.32-21.38C572.58,71.73,564.51,56.33,545.84,63.84Z"/><g class="cls-66"><path class="cls-67" d="M993.54,341.5c-50.82,6.84-105.18,9.4-157.83,8.21l-.47,255.06c52.64,1.19,107-1.37,157.83-8.21,95.55-12.85,155.87-37.72,169-64.95l.48-255.06C1149.41,303.78,1089.09,328.65,993.54,341.5ZM952.79,555.66c-18.5-11.78-45-31.41-66.1-58.07q8.92-.22,17.83-.58a1.77,1.77,0,0,0,1.49-1.28c2-11.24,4.68-26.22,6.68-37.46,10.94,35.93,10.94,35.93,12.75,33,0-.05,6.32-16.29,10.79-32.88,8.1,59.76,8.1,59.76,8.51,59.81h0c.83-.28,1.08-.37,1.45-1.25,6.37-26.36,7.52-31.11,12.3-51.06,8.24,24.17,8.24,24.17,10.12,21.4,3.72-9,8.69-21.08,12.39-30.12,1.58,14.92,2.27,29.93,4.72,44.75.24,1.48,2.08,1.42,2.72.22,5.37-10.15,6.31-21.64,9.68-32.39,2.75,17,2.75,17,4,17.09l7.35-1c2.61-.4,5.19-.82,7.74-1.24C997.66,516.26,971.39,540.72,952.79,555.66Zm66.27-74.32c-3.14.53-6.33,1-9.55,1.54l-6.15.82c-3.81-23.86-3.81-23.86-5.83-20.84-.3.43-6.31,19.58-9.64,30.95-4.85-46.18-4.85-46.18-7.14-43.27a2.38,2.38,0,0,0-.17.31c-3.92,9.54-9.15,22.26-13.09,31.79C958.75,457,958.75,457,957,459.93a2.48,2.48,0,0,0-.13.35c-6.65,27.7-11.72,48.64-11.77,48.83-8.36-61.35-8.36-61.35-9.76-59.59a6.76,6.76,0,0,0-.71,2.71c-.47,2.44-2.59,12.09-10.35,33.64C912.92,448.5,912.92,448.5,911.07,451a3,3,0,0,0-.24.58c-2.28,12.75-5.31,29.75-7.58,42.5q-9.33.38-18.67.58c-32.77-47.6,7-87.42,39.13-82.16,14.19,2.32,24.79,11,29.32,14.67,43.35-43,76.17-16.32,76.29,22C1029.36,462.1,1021.61,476.58,1019.06,481.34ZM1079,523.2l-.89.27c-18.93,5-19.25-14.5-13.5-24.35a34.66,34.66,0,0,1,6.12-7.41c-13.84-8.24-8.64-29,8.31-33.16,15.08-3.7,15.76,13.78,9.68,23.6a31.47,31.47,0,0,1-4.26,5.34C1101,495.52,1092.65,518.7,1079,523.2Zm44.19-17a249.5,249.5,0,0,1-25.49,10.3l0-9.27c12.25-24.39,14.8-29.47,16.48-35.54,1.49-5.39,2.12-14.73-3.07-13-2.67.91-5.24,3.76-8.87,9.85-1.37-2.09-3.2-4.87-4.56-7,11.56-19.18,21.8-17.52,24.06-7.9,3.09,13.21-4.8,29.13-9,37.69l-4.74,9.51v.6q8.16-3.17,15.22-6.53Zm-52.44-63.93c-4.53.89-6-5.33-3.25-9.56a5.73,5.73,0,0,1,3.27-2.63c22.75-6,41.72-12.93,56.54-20.43,3-1.21,3.79,5.5,1.85,9.84a4.58,4.58,0,0,1-1.87,2.35C1112.44,429.31,1093.47,436.22,1070.72,442.24Zm59.47,61.08a2.2,2.2,0,0,1-1.25-1.37l-.09.05-.26,2.32-.89.46,0-24.12L1129,480v5.85c0,1.38,0,2.45-.06,3.58l.06,0c1.24-4.09,3.69-5.15,4.76-3.13C1136.16,490.9,1134.14,504.45,1130.19,503.32Zm7.26-4.13c-.65-.2-1-.95-1.13-1.35l-.07.05c0,1,.07,1.82.07,2.78v7l-1.12.66,0-24.62.9-.54.16,2.23,0,0c1.15-4.34,3.28-5.08,4.16-3.46C1142.73,486,1141,500.27,1137.45,499.19Zm12.88-9.13c-.26.24-.53.47-.81.7l0-11.06c0-3-.41-3.89-1.34-2.93-1.21,1.25-1.38,4.24-1.4,6.7l0,9.49-.89.68,0-11.06c0-1.93-.18-4.32-1.59-2.83-1.23,1.3-1.41,4.34-1.43,7.15v8.91l-1,.67,0-17,.81-.55.15,2.21,0,0c.79-4,2.58-4.87,3.25-3.86a4.13,4.13,0,0,1,.45,1.41l0,0c.76-4.23,2.47-5.3,3.12-4.27s.55,3.59.55,4.6Zm2.09-107.42c-15,14-42.78,26.86-81.66,37.15-4.53.9-6-5.33-3.25-9.55a5.77,5.77,0,0,1,3.27-2.64c38.89-10.29,66.71-23.17,81.67-37.15l.51-.22C1155,371.78,1154,380.88,1152.42,382.64Z"/><path class="cls-67" d="M1131.3,487.79c-1.6.92-2.06,2.83-2.26,5.41,0,.3-.57,7.45,1.21,8,3.09,1,4.11-9.71,2.63-12.89A1,1,0,0,0,1131.3,487.79Z"/><path class="cls-67" d="M1139,483.46a1,1,0,0,0-.54.18c-1.47,1-2.06,3-2.1,7.3v.58c0,5,.83,6.76,2.42,5.11C1140.73,494.6,1140.91,483.53,1139,483.46Z"/><path class="cls-67" d="M1076.37,482.93a17.84,17.84,0,0,0,1.79.84c8.4-7.95,5.68-15.39,1.65-15.49a5.93,5.93,0,0,0-1.69.24C1072.07,470.37,1070,479.44,1076.37,482.93Z"/><path class="cls-67" d="M1077.67,495.28c-10.24,9.66-7.53,18.76-2,18.78,7.68,0,12.41-10.29,7.13-15.56A18,18,0,0,0,1077.67,495.28Z"/><path class="cls-68" d="M990.68,405.24c-12.94,2.06-24.2,8.63-37.65,22-49.52-40.43-84.52,7.1-80.68,39.85,1.4,11.9,9.27,23.33,12.23,27.64q9.34-.21,18.67-.58c8.12-45.53,8.12-45.53,10.24-43.31a2.51,2.51,0,0,1,.29.51c3.15,10.36,7.36,24.18,10.51,34.55,4.21-11.69,6.3-24,10.73-35.63.68-1.77,2.44-1.67,3-.23.35,1,1.38,6.81,4.34,35,1.25,11.92,2,18,2.79,24.12,12.53-51.85,12.53-51.85,14.48-49.52a2.8,2.8,0,0,1,.15.3l7.75,22.75c14.28-34.59,14.28-34.59,15.77-32.15a1.66,1.66,0,0,1,.12.45c1.36,12.86,3.16,30,4.51,42.87,10-34.05,10-34,12-31.11a2.18,2.18,0,0,1,.16.45l3.28,20.55,6.15-.82c3.22-.5,6.41-1,9.55-1.54C1043.64,435.46,1019.11,402,990.68,405.24Z"/><path class="cls-68" d="M1000.76,485.76l-2.59-16.06c-11,35.14-11,35.14-12.31,32.54a2.49,2.49,0,0,1-.09-.37c-2.91-27.71-2.91-27.71-4.72-44.75-13.43,32.71-13.43,32.71-15.16,30.28-2.21-6.46-5.14-15.09-7.35-21.56-12.49,52-12.49,52-13.75,52.31h0c-.42-.09-.42-.09-8.51-59.81-6.6,24.52-11.06,35.7-13.28,33.23a2.57,2.57,0,0,1-.27-.49c-3-9.85-7-23-10-32.81-6.84,38.4-6.84,38.4-8.17,38.74q-8.91.36-17.83.58c28.65,36.19,65.7,57.76,66.6,57.67.21,0,38.11-28.87,63.93-70.67-2.55.42-5.13.84-7.74,1.24C1001.17,486.92,1001.17,486.92,1000.76,485.76Z"/><path class="cls-72" d="M1152.8,370.24a2,2,0,0,0-.35.21c-15,14-42.78,26.86-81.67,37.15-5.39,1.78-5.75,10-2.6,11.83a3.56,3.56,0,0,0,2.58.36c38.88-10.29,66.71-23.16,81.66-37.15C1154.31,380.21,1155,371,1152.8,370.24Z"/><path class="cls-68" d="M1128.43,409.51a1.76,1.76,0,0,0-1.15.11c-14.82,7.5-33.79,14.4-56.54,20.43-5.23,1.73-6,10.31-2.22,12a3.47,3.47,0,0,0,2.2.16c22.75-6,41.72-12.93,56.54-20.43C1130.79,419.65,1131,410.43,1128.43,409.51Z"/><path class="cls-72" d="M1084.43,487.49c12.14-12.6,9.32-29.6-1.73-29.45a17.82,17.82,0,0,0-4.5.72c-16.35,5-20.9,25-7.5,32.95-14.2,13.49-11.36,32.09,1.35,32.58,18.81.73,26.48-23.9,17.76-33.1A18.18,18.18,0,0,0,1084.43,487.49Zm-7.2-18.65c5.84-2.48,7.57,3.6,5.56,8.73a17.29,17.29,0,0,1-4.63,6.2c-3.29-1.36-5.38-2.94-5.61-6.65A8.13,8.13,0,0,1,1077.23,468.84Zm1.61,44.6-.86.28c-7.82,2-8.8-6.76-4.93-13a27.24,27.24,0,0,1,4.62-5.4c3.63,1.61,7,3.69,7.31,7.91C1085.06,504.49,1085.16,511.12,1078.84,513.44Z"/><path class="cls-72" d="M1108,500.89c9.73-19.56,13.38-26.87,14.22-37.36,1.18-14.86-4.35-18.21-9.92-16.39-.26.08-.59.21-.84.31h0c-7,3-10.3,8.4-13.75,14.14,1.36,2.09,3.19,4.87,4.56,7,8.47-14.19,12.09-9.88,12.69-7.25,1.66,7.28-2.74,16.53-7.4,26.32l-9.83,19.58,0,9.27a249.5,249.5,0,0,0,25.49-10.3l0-11.21q-7,3.36-15.22,6.53Z"/><path class="cls-72" d="M1131.67,485.44c-1.73.77-2.44,3.1-2.7,4l-.06,0c0-1.13.06-2.2.06-3.58V480l-1.24.64,0,24.12.89-.46.26-2.32.09-.05c1.15,2.59,3.42,1.31,4.53-1.48C1135.26,496,1135.39,483.77,1131.67,485.44Zm-.37,15.6c-3.52,1.77-2.24-9.49-1.71-11,.65-1.89,2.49-3.4,3.29-1.69S1134,499.56,1131.3,501Z"/><path class="cls-72" d="M1138.93,481.18a2.11,2.11,0,0,0-.33.18c-1,.7-1.68,1.86-2.25,4l0,0-.16-2.23-.9.54,0,24.62,1.12-.66v-7c0-1,0-1.76-.07-2.78l.07-.05c1.18,2.83,3.1.73,3.82-1C1142.05,492.38,1142.05,479.91,1138.93,481.18Zm-.49,15.72c-1.5.86-2.09-.64-2.1-5.38v-.58c.09-8.75,3.06-7.3,3.09-7.27C1140.76,485,1140.88,495.35,1138.44,496.9Z"/><path class="cls-72" d="M1148.53,474.31c-1,.94-1.59,2.88-1.85,4.34l0,0c-.62-3.38-2.29-1.09-2.48-.82a8.92,8.92,0,0,0-1.22,3.27l0,0-.15-2.21-.81.55,0,17,1-.67V486.9c0-8.89,2.52-7.47,2.54-7.44.47.54.48,2.48.48,3.12l0,11.06.89-.68,0-9.49c0-7.7,2.19-7,2.21-7,.52.39.52,2.45.53,3.22l0,11.06c.28-.23.55-.46.81-.7l0-11.08C1150.34,475.8,1150.12,473,1148.53,474.31Z"/></g><g class="cls-66"><path class="cls-73" d="M282.3,242.63l.06-28-.41,218a73.53,73.53,0,0,0,11.13,7.6c32.56,18.5,95.4,30.18,163.71,32.63l.35-190C388.83,280.4,326,268.73,293.43,250.23A73.53,73.53,0,0,1,282.3,242.63ZM432.71,446.36c-.5,9.73-6.94,15.78-16.4,15.4a539.23,539.23,0,0,1-62.58-9.3c-7.78-2.17-12.84-9.77-13.2-19.84v-8.44c.4-9.76,5.36-14.86,13.27-13.64a537,537,0,0,0,62.58,9.31c9.47,1.37,15.88,8.46,16.34,18.06Zm-92-135.06c.4-9.76,5.36-14.86,13.27-13.64A538.83,538.83,0,0,0,416.6,307c9.47,1.37,15.88,8.46,16.34,18.06l0,8.45c-.5,9.74-6.94,15.78-16.4,15.4a539.23,539.23,0,0,1-62.58-9.3c-7.78-2.17-12.84-9.77-13.2-19.83Zm-2.09,31.56c7.57,2.46,12.7,10.26,13.07,19.88v8.44c-.41,9.56-5.69,15-13.14,13.59-17.59-4.59-32.65-10.1-44.13-16.42-6.69-4.4-7.44-17.46-7.51-21.36v-8.44c.13-5.75,1.29-15,7.57-12.11C306,332.76,321.06,338.26,338.66,342.86Z"/><path class="cls-74" d="M416.6,307A538.83,538.83,0,0,1,354,297.66c-7.91-1.22-12.87,3.88-13.27,13.64v8.45c.36,10.06,5.42,17.66,13.2,19.83a539.23,539.23,0,0,0,62.58,9.3c9.46.38,15.9-5.66,16.4-15.4l0-8.45C432.4,313.83,424.35,307.89,416.6,307Zm-67.41-.61a1.46,1.46,0,0,1,1.12-.17c6.62,1.49,13.54,2.86,20.7,4.11,2.34.55,2.82,3.82,1.21,4.79a1.79,1.79,0,0,1-1.22.22c-7.16-1.25-14.08-2.63-20.7-4.12C348.14,310.57,347.7,307.28,349.19,306.36Zm58.24,31.84a2.39,2.39,0,0,1-1.33.29,511.34,511.34,0,0,1-55.83-9.06c-2.48-.87-2.35-4.08-1.11-4.83a1.67,1.67,0,0,1,1.12-.18,508.93,508.93,0,0,0,55.83,9.06A2.66,2.66,0,0,1,407.43,338.2Zm8.32-7.44a2.45,2.45,0,0,1-1.35.3,526.41,526.41,0,0,1-64.12-9.92c-2.47-.87-2.34-4.07-1.11-4.83a1.72,1.72,0,0,1,1.12-.17,524.55,524.55,0,0,0,64.12,9.91A2.64,2.64,0,0,1,415.75,330.76Z"/><path class="cls-72" d="M371,310.3c-7.16-1.25-14.08-2.62-20.7-4.11-2-.32-2.6,2.21-1.42,3.95a2.36,2.36,0,0,0,1.41,1.05c6.62,1.49,13.54,2.87,20.7,4.12,2.12.25,2.81-2.34,1.55-4A2.61,2.61,0,0,0,371,310.3Z"/><path class="cls-72" d="M414.41,326.05a524.55,524.55,0,0,1-64.12-9.91c-2.47-.25-2.35,3-1.13,4.32a2.47,2.47,0,0,0,1.12.68,526.41,526.41,0,0,0,64.12,9.92c2.75,0,2.84-2.84,1.72-4.11A2.69,2.69,0,0,0,414.41,326.05Z"/><path class="cls-72" d="M406.11,333.48a508.93,508.93,0,0,1-55.83-9.06c-2.47-.24-2.36,3-1.13,4.33a2.47,2.47,0,0,0,1.12.68,511.34,511.34,0,0,0,55.83,9.06c2.7,0,2.79-2.81,1.69-4.09A2.62,2.62,0,0,0,406.11,333.48Z"/><path class="cls-74" d="M416.39,419.85a537,537,0,0,1-62.58-9.31c-7.91-1.22-12.87,3.88-13.27,13.64v8.44c.36,10.07,5.42,17.67,13.2,19.84a539.23,539.23,0,0,0,62.58,9.3c9.46.38,15.9-5.67,16.4-15.4l0-8.45C432.19,426.71,424.14,420.77,416.39,419.85ZM349,419.24a1.46,1.46,0,0,1,1.12-.17c6.62,1.49,13.54,2.86,20.7,4.11,2.34.55,2.82,3.82,1.21,4.79a1.79,1.79,0,0,1-1.22.22c-7.16-1.25-14.08-2.62-20.7-4.12C347.93,423.45,347.49,420.16,349,419.24Zm58.24,31.85a2.46,2.46,0,0,1-1.33.28,508.93,508.93,0,0,1-55.83-9.06c-2.48-.87-2.35-4.08-1.11-4.83a1.67,1.67,0,0,1,1.12-.18,508.93,508.93,0,0,0,55.83,9.06A2.67,2.67,0,0,1,407.22,451.09Zm8.32-7.45a2.54,2.54,0,0,1-1.35.3A526.41,526.41,0,0,1,350.07,434c-2.47-.87-2.34-4.07-1.11-4.83a1.72,1.72,0,0,1,1.12-.17,524.55,524.55,0,0,0,64.12,9.91A2.64,2.64,0,0,1,415.54,443.64Z"/><path class="cls-72" d="M370.8,423.18c-7.16-1.25-14.08-2.62-20.7-4.11-2-.33-2.6,2.21-1.42,3.95a2.36,2.36,0,0,0,1.41,1.05c6.62,1.5,13.54,2.87,20.7,4.12,2.12.25,2.81-2.34,1.55-4A2.57,2.57,0,0,0,370.8,423.18Z"/><path class="cls-72" d="M414.2,438.93A524.55,524.55,0,0,1,350.08,429c-2.47-.25-2.35,3-1.13,4.32a2.47,2.47,0,0,0,1.12.68,526.41,526.41,0,0,0,64.12,9.92c2.75,0,2.84-2.84,1.72-4.11A2.69,2.69,0,0,0,414.2,438.93Z"/><path class="cls-72" d="M405.9,446.36a508.93,508.93,0,0,1-55.83-9.06c-2.47-.24-2.35,3-1.13,4.33a2.47,2.47,0,0,0,1.12.68,508.93,508.93,0,0,0,55.83,9.06c2.7,0,2.79-2.81,1.69-4.09A2.62,2.62,0,0,0,405.9,446.36Z"/><path class="cls-68" d="M338.66,342.86c-17.6-4.6-32.65-10.1-44.14-16.42-6.28-2.85-7.44,6.36-7.57,12.11V347c.07,3.9.82,17,7.51,21.36,11.48,6.32,26.54,11.83,44.13,16.42,7.45,1.43,12.73-4,13.14-13.59v-8.44C351.3,351.58,344.66,344.61,338.66,342.86ZM292,334.43a.68.68,0,0,1,.35.1l1,.56a125.23,125.23,0,0,0,12.1,6c1.78.93,1.87,4.67.56,5.06a.89.89,0,0,1-.57-.05,127.57,127.57,0,0,1-12.1-6l-1-.56C290.8,338.5,290.88,334.51,292,334.43Zm39.45,38.73a1.28,1.28,0,0,1-.87,0c-14.76-4.29-27.42-9.27-37.3-14.88l-1-.56c-1.52-1.21-1.38-4.8-.45-5.08a.84.84,0,0,1,.46.07l1,.56c9.88,5.61,22.54,10.59,37.3,14.88C332.77,369.16,332.76,372.54,331.4,373.16Zm6.27-6.46a2,2,0,0,1-.74,0c-17.5-4.67-32.41-10.25-43.69-16.66l-1-.56c-1.63-1.31-1.35-5-.34-5.1a1.39,1.39,0,0,1,.35.09c.32.19.64.38,1,.56,11.28,6.41,26.19,12,43.69,16.67C339.4,362.68,339.22,366.24,337.67,366.7Z"/><path class="cls-72" d="M305.37,341.06a125.23,125.23,0,0,1-12.1-6l-1-.56c-1.23-.59-1.45,2.07-.84,3.78a2.15,2.15,0,0,0,.83,1.22l1,.56a127.57,127.57,0,0,0,12.1,6c1.43.49,1.89-2,1-3.83A2.35,2.35,0,0,0,305.37,341.06Z"/><path class="cls-72" d="M336.94,361.7c-17.5-4.67-32.41-10.26-43.69-16.67-.33-.18-.65-.37-1-.56-1.38-.51-1.39,2.49-.75,4a2,2,0,0,0,.74,1l1,.56c11.28,6.41,26.19,12,43.69,16.66,2.21.29,2.36-2.8,1.07-4.3A2.6,2.6,0,0,0,336.94,361.7Z"/><path class="cls-72" d="M330.54,368.2c-14.76-4.29-27.42-9.27-37.3-14.88l-1-.56c-1.46-.54-1.39,2.77-.67,4.19a2.13,2.13,0,0,0,.66.82l1,.56c9.88,5.61,22.54,10.59,37.3,14.88,2.16.33,2.17-2.67,1.16-4.1A2.27,2.27,0,0,0,330.54,368.2Z"/><path class="cls-68" d="M441.11,209.61c-61.94-3.59-117.57-14.84-147.55-31.87-1.81-1-3.5-2.06-5.07-3.1-1.59-.69-5.81-2.51-6.08,11.55l-.05,28.4-.06,28a73.53,73.53,0,0,0,11.13,7.6c32.56,18.5,95.4,30.17,163.71,32.63l.1-56.44C456.72,215.69,448.76,210.24,441.11,209.61Zm-114.84,8.26a2.26,2.26,0,0,1,1.54-.08,375.58,375.58,0,0,0,45.38,10.39c4.42,1,5.32,6.91,2.23,8.77a3.31,3.31,0,0,1-2.25.41A375.58,375.58,0,0,1,327.79,227C324.11,225.59,323.59,219.12,326.27,217.87Zm-14.34,24.21c-2.69,5.33-7,7.39-11.2,5.39-13.7-7.92-14.52-43.82-4.65-46.8C306.68,197.47,320.09,225.92,311.93,242.08Zm119.13,18.5a4.68,4.68,0,0,1-2.53.59c-38.15-2.88-73.32-8.72-100.77-17-4.23-1.89-3.93-8.41-1.25-9.2a3.34,3.34,0,0,1,1.26,0c27.46,8.32,62.63,14.15,100.78,17C434.1,253,433.82,258.89,431.06,260.58Z"/><path class="cls-32" d="M300.81,201.24c-13.36-5.23-13.72,23-7.62,37,5.92,13.56,15.49,12.29,19.47,2.19C318.19,226.41,310.43,205.8,300.81,201.24Z"/><path class="cls-32" d="M373.19,228.18a375.58,375.58,0,0,1-45.38-10.39c-3.29-.76-4.19,4.33-2.07,7.5a4,4,0,0,0,2.05,1.68,375.58,375.58,0,0,0,45.38,10.39c3.93.44,5.2-4.32,2.86-7.36A4.69,4.69,0,0,0,373.19,228.18Z"/><path class="cls-32" d="M428.55,252c-38.15-2.89-73.32-8.72-100.78-17-4-.64-3.78,5.34-1.82,7.83a4.24,4.24,0,0,0,1.81,1.34c27.45,8.32,62.62,14.16,100.77,17,5.15-.14,5.32-5.3,3.21-7.59A4.87,4.87,0,0,0,428.55,252Z"/></g></g></g></g></svg>