<svg xmlns="http://www.w3.org/2000/svg" height="512" viewBox="0 0 64 64" width="512"><g id="protect-protection-stay_home-safty-home" data-name="protect-protection-stay home-safty-home"><path d="m55 8h6v12h-6z" fill="#2488ff"></path><path d="m58 8h3v12h-3z" fill="#006df0"></path><path d="m55 8v12h-9.93a3.925 3.925 0 0 1 -2-.54l-10.33-5.96a3.014 3.014 0 0 1 -1.1-4.1 2.858 2.858 0 0 1 .28-.4h-19.92a3 3 0 0 1 0-6h33.52a3.976 3.976 0 0 1 2.6.96l3.59 3.08a4 4 0 0 0 2.6.96z" fill="#ffc477"></path><path d="m55 8v2h-2.69a4 4 0 0 1 -2.6-.96l-3.59-3.08a3.976 3.976 0 0 0 -2.6-.96h-33.52a3.1 3.1 0 0 0 -.87.13 3.058 3.058 0 0 1 .75-1.25 2.993 2.993 0 0 1 2.12-.88h33.52a3.976 3.976 0 0 1 2.6.96l3.59 3.08a4 4 0 0 0 2.6.96z" fill="#ffa733"></path><path d="m55 58a3 3 0 0 1 -3 3h-33.52a3.976 3.976 0 0 1 -2.6-.96l-3.59-3.08a4 4 0 0 0 -2.6-.96h-.69v-12h9.93a3.925 3.925 0 0 1 2 .54l.07.04 10.26 5.92a3.146 3.146 0 0 1 .64.5 3 3 0 0 1 .46 3.6 2.858 2.858 0 0 1 -.28.4h19.92a3 3 0 0 1 3 3z" fill="#ffc477"></path><path d="m46 31v5l-3-3-11-11-11 11-3 3v-5l14-14z" fill="#806749"></path><path d="m46 31v5l-2-2v-3l-13-13 1-1z" fill="#6a563d"></path><path d="m43 33v18h-11.1a3.146 3.146 0 0 0 -.64-.5l-10.26-5.92v-11.58l11-11z" fill="#fee9ab"></path><path d="m43 33v18h-2v-18l-10-10 1-1z" fill="#ffd422"></path><path d="m40 34v1a2.006 2.006 0 0 1 -2 2h-4v-3z" fill="#ffcd00"></path><path d="m39 43v4h-6v-4a2.006 2.006 0 0 1 2-2h2a2.006 2.006 0 0 1 2 2z" fill="#ff3051"></path><path d="m38 37v2a2 2 0 0 1 -4 0v-2z" fill="#ffc477"></path><path d="m31 43v4h-5.81l-.19-.11v-3.89a2.006 2.006 0 0 1 2-2h2a2.006 2.006 0 0 1 2 2z" fill="#b2fa09"></path><path d="m30 37v2a2 2 0 0 1 -4 0v-2z" fill="#ffc477"></path><path d="m30 34v3h-4a2.006 2.006 0 0 1 -2-2v-1z" fill="#ffcd00"></path><path d="m3 44h6v12h-6z" fill="#2488ff"></path><path d="m52 54h-18.34a3.98 3.98 0 0 0 -.07-2h9.41a1 1 0 0 0 1-1v-15.59l1.29 1.3a1.007 1.007 0 0 0 .71.29.838.838 0 0 0 .38-.08.987.987 0 0 0 .62-.92v-5a1.033 1.033 0 0 0 -.29-.71l-14-14a1.008 1.008 0 0 0 -1.42 0l-14 14a1.033 1.033 0 0 0 -.29.71v5a.987.987 0 0 0 .62.92 1 1 0 0 0 1.09-.21l1.29-1.3v7.72a4.819 4.819 0 0 0 -1.07-.13h-15.93a1 1 0 0 0 -1 1v12a1 1 0 0 0 1 1h6.69a3.029 3.029 0 0 1 1.95.72l3.59 3.08a5.017 5.017 0 0 0 3.25 1.2h33.52a4 4 0 0 0 0-8zm-44 1h-4v-10h4zm34-5h-9.71a5.006 5.006 0 0 0 -.53-.37l-2.83-1.63h2.07a1 1 0 0 0 1-1 1 1 0 0 0 1 1h6a1 1 0 0 0 1-1v-4a2.983 2.983 0 0 0 -1.4-2.53 2.942 2.942 0 0 0 .4-1.47v-1.18a3.01 3.01 0 0 0 2-2.82v-1a1 1 0 0 0 -1-1h-6a1 1 0 0 0 -1 1v5a2.942 2.942 0 0 0 .4 1.47 2.983 2.983 0 0 0 -1.4 2.53 2.983 2.983 0 0 0 -1.4-2.53 2.942 2.942 0 0 0 .4-1.47v-5a1 1 0 0 0 -1-1h-6a1 1 0 0 0 -1 1v1a3.01 3.01 0 0 0 2 2.82v1.18a2.942 2.942 0 0 0 .4 1.47 2.983 2.983 0 0 0 -1.4 2.53v2.16l-2-1.16v-10.59l10-10 10 10zm-16-14a1 1 0 0 1 -1-1h4v1zm3 2v1a1 1 0 0 1 -2 0v-1zm-3 5a1 1 0 0 1 1-1h2a1 1 0 0 1 1 1v3h-4zm11-5v1a1 1 0 0 1 -2 0v-1zm-2-2v-1h4a1 1 0 0 1 -1 1zm2 6a1 1 0 0 1 1 1v3h-4v-3a1 1 0 0 1 1-1zm-18-8.41v-2.18l13-13 13 13v2.18l-12.29-12.3a1.014 1.014 0 0 0 -1.42 0zm33 26.41h-33.52a3.009 3.009 0 0 1 -1.95-.72l-3.59-3.08a5.051 5.051 0 0 0 -2.94-1.17v-10.03h8.93a3.062 3.062 0 0 1 1.5.4l3.78 2.19a1.027 1.027 0 0 0 .68.39l5.87 3.39a2 2 0 0 1 .73 2.73 2.006 2.006 0 0 1 -2.73.73l-11.26-6.5-1 1.73 11.26 6.5a3.989 3.989 0 0 0 4.75-.56h19.49a2 2 0 0 1 0 4z"></path><path d="m61 7h-6.69a3.029 3.029 0 0 1 -1.95-.72l-3.59-3.08a5.017 5.017 0 0 0 -3.25-1.2h-33.52a4 4 0 0 0 0 8h18.34a4.019 4.019 0 0 0 1.9 4.37l10.33 5.96a5.009 5.009 0 0 0 2.5.67h15.93a1 1 0 0 0 1-1v-12a1 1 0 0 0 -1-1zm-7 12h-8.93a3.062 3.062 0 0 1 -1.5-.4l-10.33-5.97a2 2 0 0 1 -.73-2.73 1.993 1.993 0 0 1 2.73-.73l11.26 6.5 1-1.73-11.26-6.5a3.989 3.989 0 0 0 -4.75.56h-19.49a2 2 0 0 1 0-4h33.52a3.009 3.009 0 0 1 1.95.72l3.59 3.08a5.051 5.051 0 0 0 2.94 1.17zm6 0h-4v-10h4z"></path></g></svg>