<svg xmlns="http://www.w3.org/2000/svg" xmlns:xlink="http://www.w3.org/1999/xlink" id="Layer_1" x="0px" y="0px" viewBox="0 0 636 300" style="enable-background:new 0 0 636 300;" xml:space="preserve">
<style type="text/css">
	.st0{fill:#C8C8C8;}
	.st1{fill:#409AE1;}
	.st2{fill:#69AFE5;}
	.st3{fill:#B6B6B7;}
	.st4{fill:#D2D2D2;}
	.st5{fill:#E58B39;}
	.st6{fill:#FDA84C;}
	.st7{fill:#5F5F5F;}
	.st8{fill:#505050;}
	.st9{fill:#737373;}
	.st10{fill:#C2C2C2;}
	.st11{fill:#F3F3F3;}
	.st12{fill:#939393;}
	.st13{fill:#B2B2B2;}
	.st14{fill:#FFFFFF;}
	.st15{fill:#1070C4;}
	.st16{fill:#09538F;}
	.st17{fill:#676767;}
	
		.st18{fill:none;stroke:#E58B39;stroke-width:1.5;stroke-linecap:round;stroke-linejoin:round;stroke-miterlimit:10;stroke-dasharray:3,5;}
	
		.st19{fill:none;stroke:#939393;stroke-width:1.5;stroke-linecap:round;stroke-linejoin:round;stroke-miterlimit:10;stroke-dasharray:3,5;}
	
		.st20{fill:none;stroke:#409AE1;stroke-width:1.5;stroke-linecap:round;stroke-linejoin:round;stroke-miterlimit:10;stroke-dasharray:3,5;}
	.st21{fill:#444444;}
	.st22{fill:#E6E6E6;}
	.st23{fill:url(#SVGID_1_);}
</style>
<g>
	<path class="st0" d="M156.42,295.06c-30.6,0-72.54,0-72.54,0c-1.53,0-2.86-1.39-2.86-2.97c0-1.68,1.34-2.97,2.86-2.97   c50.45,0,72.54,0,72.54,0c1.62,0,2.86,1.29,2.86,2.97C159.29,293.67,158.05,295.06,156.42,295.06z"></path>
	<path class="st0" d="M551.24,296.46c-30.6,0-77.54,0-77.54,0c-1.53,0-2.86-1.39-2.86-2.97c0-1.68,1.34-2.97,2.86-2.97   c50.45,0,77.54,0,77.54,0c1.62,0,2.86,1.29,2.86,2.97C554.1,295.07,552.86,296.46,551.24,296.46z"></path>
	<path class="st0" d="M548.04,132.16c-30.6,0-83.54,0-83.54,0c-1.53,0-2.86-1.39-2.86-2.97c0-1.68,1.34-2.97,2.86-2.97   c50.45,0,83.54,0,83.54,0c1.62,0,2.86,1.29,2.86,2.97C550.9,130.77,549.66,132.16,548.04,132.16z"></path>
	<path class="st1" d="M403.05,216.32v-6.76H233.71v6.76c0,0.66,0.33,1.24,0.91,1.48l80.82,33.61c2.08,0.67,4.08,0.75,5.83,0.08   l80.95-33.7C402.8,217.64,403.05,216.98,403.05,216.32z"></path>
	<path class="st2" d="M402.22,211.13l-81.03,33.79c-1.75,0.83-3.08,1.17-5.33,0.17l-81.24-33.96c-1.15-0.5-1.15-2.47,0-2.97   l83.35-34.63c0.25-0.08,0.58-0.08,0.91,0l83.35,34.63C403.38,208.57,403.38,210.63,402.22,211.13z"></path>
	<path class="st3" d="M404.04,182.6v-6.76H234.62v6.76c0,0.66,0.33,1.24,0.91,1.48l81.25,33.83c2.75,1.08,4,0.5,5.92-0.33   l80.44-33.5C403.71,183.84,404.04,183.18,404.04,182.6z"></path>
	<path class="st4" d="M403.13,177.33l-80.85,33.76c-1.58,0.75-3.17,1-5.42,0.17l-81.33-33.92c-1.15-0.5-1.15-2.47,0-2.97   l83.35-34.63c0.25-0.08,0.58-0.08,0.91,0l83.35,34.63C404.37,174.85,404.37,176.83,403.13,177.33z"></path>
	<path class="st5" d="M404.04,148.8v-6.76H234.62v6.76c0,0.66,0.33,1.24,0.91,1.48l81.33,33.88c2.42,0.75,4,0.33,5.75-0.33   l80.52-33.55C403.71,150.04,404.04,149.46,404.04,148.8z"></path>
	<path class="st6" d="M403.13,143.52l-80.77,33.73c-1.99,1.06-4.08,0.83-5.42,0.17l-81.42-33.89c-1.15-0.5-1.15-2.47,0-2.97   l81.42-33.85c1.5-0.67,3.29-0.62,4.5-0.08l81.69,33.93C404.37,141.05,404.37,143.03,403.13,143.52z"></path>
	<path class="st7" d="M538.86,246.56c0.59,0,1.1-0.07,1.68-0.29c0.51-0.22,1.03-0.52,1.39-0.96c0.37-0.44,0.73-0.88,0.95-1.48   c0.22-0.52,0.29-1.11,0.29-1.7V231.8c0-1.18-0.44-2.29-1.24-3.17c-0.81-0.81-1.9-1.33-3-1.33h-58.51c-0.59,0-1.1,0.07-1.68,0.29   c-0.51,0.22-1.03,0.52-1.39,0.96s-0.73,0.89-0.95,1.48c-0.22,0.52-0.29,1.11-0.29,1.7v10.33c0,0.59,0.07,1.18,0.29,1.7   c0.22,0.52,0.51,1.03,0.95,1.48c0.37,0.44,0.88,0.74,1.39,0.96s1.02,0.29,1.54,0.29v4.43c-0.51,0-1.02,0.07-1.54,0.29   c-0.51,0.22-1.03,0.52-1.39,0.96c-0.37,0.44-0.73,0.89-0.95,1.48c-0.22,0.52-0.29,1.11-0.29,1.7v10.33c0,0.59,0.07,1.18,0.29,1.7   c0.22,0.52,0.51,1.03,0.95,1.48c0.37,0.44,0.88,0.74,1.39,0.96c0.51,0.22,1.02,0.29,1.54,0.29v4.21c-0.51,0-1.02,0.07-1.54,0.29   c-0.51,0.22-1.03,0.52-1.39,0.96c-0.37,0.44-0.73,0.89-0.95,1.48c-0.22,0.52-0.29,1.11-0.29,1.7v10.33c0,0.59,0.07,1.18,0.29,1.7   c0.22,0.52,0.51,1.03,0.95,1.48c0.37,0.44,0.88,0.74,1.39,0.96c0.51,0.22,1.1,0.3,1.68,0.3h58.51c0.59,0,1.1-0.07,1.68-0.3   c0.51-0.22,1.03-0.52,1.39-0.96c0.37-0.44,0.73-0.89,0.95-1.48c0.22-0.52,0.29-1.11,0.29-1.7v-10.33c0-0.59-0.07-1.18-0.29-1.7   c-0.22-0.52-0.51-1.03-0.95-1.48c-0.37-0.44-0.88-0.74-1.39-0.96c-0.51-0.22-1.1-0.29-1.68-0.29h-1.32v-4.21h1.32   c0.59,0,1.1-0.07,1.68-0.29c0.51-0.22,1.03-0.52,1.39-0.96c0.37-0.44,0.73-0.89,0.95-1.48c0.22-0.52,0.29-1.11,0.29-1.7v-10.33   c0-1.18-0.44-2.29-1.24-3.17c-0.81-0.81-1.9-1.33-3-1.33h-1.32v-4.43h1.17V246.56z"></path>
	<path class="st8" d="M542.28,244.82h-57.42v32.12h57.42V244.82z"></path>
	<path class="st9" d="M543.8,227.3h-58.51c-0.59,0-1.1,0.07-1.68,0.3c-0.51,0.22-1.03,0.52-1.39,0.97c-0.37,0.45-0.73,0.9-0.95,1.5   c-0.22,0.52-0.29,1.12-0.29,1.72v10.48c0,0.6,0.07,1.2,0.29,1.72c0.22,0.52,0.51,1.05,0.95,1.5c0.37,0.45,0.88,0.75,1.39,0.97   c0.51,0.22,1.1,0.3,1.68,0.3h58.51c0.59,0,1.1-0.08,1.68-0.3c0.51-0.22,1.03-0.52,1.39-0.97c0.37-0.45,0.73-0.9,0.95-1.5   c0.22-0.52,0.29-1.12,0.29-1.72v-10.48c0-1.2-0.44-2.32-1.25-3.22C546.07,227.83,544.97,227.3,543.8,227.3z"></path>
	<path class="st2" d="M541.31,232.17h-12.65v2.92h12.65V232.17z"></path>
	<path class="st9" d="M543.8,250.66h-58.51c-0.59,0-1.1,0.07-1.68,0.3c-0.51,0.22-1.03,0.52-1.39,0.97c-0.37,0.45-0.73,0.9-0.95,1.5   c-0.22,0.52-0.29,1.12-0.29,1.72v10.48c0,0.6,0.07,1.2,0.29,1.72c0.22,0.52,0.51,1.05,0.95,1.5c0.37,0.45,0.88,0.75,1.39,0.97   c0.51,0.22,1.1,0.3,1.68,0.3h58.51c0.59,0,1.1-0.07,1.68-0.3c0.51-0.22,1.03-0.52,1.39-0.97c0.37-0.45,0.73-0.9,0.95-1.5   c0.22-0.52,0.29-1.12,0.29-1.72v-10.48c0-1.2-0.44-2.32-1.25-3.22C546.07,251.18,544.97,250.66,543.8,250.66z"></path>
	<path class="st2" d="M541.31,255.53h-12.65v2.92h12.65V255.53z"></path>
	<path class="st9" d="M543.8,274.02h-58.51c-0.59,0-1.1,0.08-1.68,0.3c-0.51,0.22-1.03,0.52-1.39,0.97c-0.37,0.45-0.73,0.9-0.95,1.5   c-0.22,0.52-0.29,1.12-0.29,1.72v10.48c0,0.6,0.07,1.2,0.29,1.72c0.22,0.52,0.51,1.05,0.95,1.5c0.37,0.45,0.88,0.75,1.39,0.97   c0.51,0.22,1.1,0.3,1.68,0.3h58.51c0.59,0,1.1-0.08,1.68-0.3c0.51-0.22,1.03-0.52,1.39-0.97c0.37-0.45,0.73-0.9,0.95-1.5   c0.22-0.52,0.29-1.12,0.29-1.72v-10.48c0-0.6-0.07-1.2-0.29-1.72c-0.22-0.52-0.51-1.05-0.95-1.5c-0.37-0.45-0.88-0.75-1.39-0.97   C544.97,274.17,544.38,274.02,543.8,274.02z"></path>
	<path class="st2" d="M541.31,278.88h-12.65v2.92h12.65V278.88z"></path>
	<path class="st4" d="M542.18,66.44h-55.16v59.43h55.16V66.44z"></path>
	<path class="st10" d="M542.18,66.44h-4.72v59.43h4.72V66.44z"></path>
	<path class="st11" d="M503.39,66.44h-10.5v59.43h10.5V66.44z"></path>
	<path class="st12" d="M542.8,128.63h-56.32c-0.27,0-0.53-0.09-0.8-0.18c-0.27-0.09-0.45-0.27-0.71-0.45   c-0.18-0.18-0.36-0.44-0.44-0.71c-0.09-0.27-0.18-0.53-0.18-0.8v-0.09c0-0.27,0.09-0.53,0.18-0.8c0.09-0.27,0.27-0.53,0.44-0.71   c0.18-0.18,0.45-0.36,0.71-0.45c0.27-0.09,0.53-0.18,0.8-0.18h56.32c0.27,0,0.53,0.09,0.8,0.18c0.27,0.09,0.44,0.27,0.71,0.45   c0.18,0.18,0.36,0.44,0.45,0.71c0.09,0.27,0.18,0.53,0.18,0.8v0.09c0,0.27-0.09,0.53-0.18,0.8c-0.09,0.27-0.27,0.53-0.45,0.71   c-0.18,0.18-0.44,0.36-0.71,0.45C543.33,128.54,543.07,128.63,542.8,128.63z"></path>
	<path class="st9" d="M542.18,68.04h-55.16v3.29h55.16V68.04z"></path>
	<path class="st13" d="M503.39,68.04h-10.5v3.29h10.5V68.04z"></path>
	<path class="st12" d="M542.8,68.04h-56.32c-0.27,0-0.53-0.09-0.8-0.18c-0.27-0.09-0.45-0.27-0.71-0.44   c-0.18-0.18-0.36-0.44-0.44-0.71c-0.09-0.27-0.18-0.53-0.18-0.8v-0.09c0-0.53,0.18-1.16,0.62-1.51c0.36-0.44,0.89-0.62,1.42-0.62   h56.32c0.53,0,1.07,0.27,1.42,0.62c0.36,0.36,0.62,0.98,0.62,1.51v0.09c0,0.27-0.09,0.53-0.18,0.8c-0.09,0.27-0.27,0.53-0.45,0.71   c-0.18,0.18-0.44,0.36-0.71,0.44C543.33,68.04,543.07,68.04,542.8,68.04z"></path>
	<path class="st6" d="M504.63,63.68c0,0,6.23,1.07,6.23,7.74v8.45c0,4.09,4.89,5.52,9.43,5.52c4.45,0,8.27,2.85,8.27,6.76v10.41   c0,4.09,6.32,4.36,6.32,0V71.78c0-7.74-6.85-8.01-6.85-8.01L504.63,63.68z"></path>
	<path class="st12" d="M487.55,70.45l-3.38-1.07l-4.98,18.06c-1.16,3.38-2.31,7.21-3.38,11.21c-1.07,4-2.05,7.83-2.85,11.39   l-5.07,18.06l3.38,1.07c2.05,0.62,7.38-12.01,11.83-28.2C487.64,84.68,489.69,71.07,487.55,70.45z"></path>
	<path class="st10" d="M479.72,99.72c4.45-16.28,6.49-29.98,4.45-30.6c-2.05-0.62-7.3,12.1-11.83,28.38   c-4.45,16.28-6.49,29.98-4.45,30.52C469.94,128.72,475.27,116,479.72,99.72z"></path>
	<path class="st14" d="M470.91,121.6l-1.42,1.51c-0.09,0.18-0.18,0.27-0.36,0.36c-0.53-0.98,0.98-10.14,5.07-25.18   c4.18-15.04,7.65-23.58,8.63-24.2c0.09,0.27,0.09,0.53,0.09,0.8l0.53,1.07c0.18-2.22-0.18-2.4-0.44-2.49   c-0.36-0.09-1.07-0.36-3.83,7.12c-1.69,4.63-3.65,10.85-5.52,17.53c-1.87,6.67-3.38,13.08-4.27,17.88   c-1.42,7.83-0.71,8.01-0.36,8.1C469.22,124.18,469.67,124.27,470.91,121.6z"></path>
	<path class="st12" d="M476.43,90.55c3.11-10.32,5.61-16.01,6.32-16.55c0.09,0.27,0.09,0.53,0.09,0.8l0.53,1.07   c0.18-2.22-0.18-2.4-0.45-2.49c-0.36-0.09-1.07-0.36-3.83,7.12c-0.98,2.67-1.96,5.78-3.11,9.25L476.43,90.55z"></path>
	<path class="st5" d="M530.34,102.03v-9.16c0-6.14-3.56-7.74-11.83-8.36c-6.05-0.44-5.25-4.09-5.25-8.72c0-5.87-1.07-12.1-9.34-12.1   c0.98,0.18,6.23,2.14,6.23,8.27v7.83c0,4.18,5.07,5.6,9.7,5.87c5.25,0.36,8.54,2.76,8.54,6.67v10.32c0,3.83,6.41,4,6.41-0.09   C533.81,104.7,530.34,103.81,530.34,102.03z"></path>
	<path class="st4" d="M504.72,27.74l21.62,6.58l1.87-5.43l-20.82-9.34L504.72,27.74z"></path>
	<path class="st15" d="M504.72,27.74l-49.2-21.17c-0.36-0.18-0.62-0.44-0.8-0.8c-0.18-0.36-0.18-0.8,0-1.25   c0.18-0.36,0.44-0.71,0.8-0.89c0.36-0.18,0.71-0.18,1.16-0.09l50.89,16.1L504.72,27.74z"></path>
	<path class="st13" d="M505.88,24.18l-1.25,3.56l21.62,6.58l0.71-2.22L505.88,24.18z"></path>
	<path class="st16" d="M454.54,5.06c0,0.36,0.09,0.62,0.27,0.89c0.18,0.27,0.44,0.44,0.71,0.62l49.2,21.09l1.25-3.56L454.54,5.06z"></path>
	<path class="st17" d="M545.65,41.89c0,0-1.87-8.45-7.12-13.17c-1.07-1.07-2.31-1.87-3.74-2.4c-0.09-0.09-0.18-0.09-0.36-0.09   c-4.54-1.51-8.99,0.09-10.23,3.65c-1.25,3.65,1.51,8.1,6.05,9.79c2.14,0.8,4.45,0.89,6.58,0.18   C541.55,39.57,545.65,41.89,545.65,41.89z"></path>
	<path class="st6" d="M546.09,42.6c-0.09-5.25-6.14-14.95-11.65-16.28c0,0,3.29,2.22,3.83,4.27c0.45,1.69-1.33,0.8-2.67,0.8   c-1.33-0.09-1.51,0.98,0.44,2.58c1.96,1.51-0.09,1.69-1.96,1.33c-1.69-0.36-1.6,1.33,0.36,2.58c1.96,1.33-2.22,2.67-4,2.14   c1.42,0.53,2.94,0.89,4.54,0.89h0.27C544.13,41.62,546.18,49.09,546.09,42.6z"></path>
	<path class="st5" d="M532.84,35.75c0,0.53,0.53,1.33,1.6,1.96c1.96,1.33-2.22,2.67-4,2.14c1.42,0.53,2.94,0.89,4.54,0.89h0.27   c6.23,0.62,9.16,4.36,10.32,4.45C545.02,43.67,542.27,38.6,532.84,35.75z"></path>
	<path class="st6" d="M551.79,58.7c-0.8-2.31-3.29-5.78-4.8-7.38c-0.53-0.53-0.98-0.44-0.8,0.27c0.18,1.33-0.36,3.11-1.87,6.05   c-0.62,1.07-0.89,2.31-0.8,3.56c0.18,3.02,2.22,5.34,4.63,5.25s4.27-2.67,4.09-5.69c0-0.44-0.09-0.89-0.18-1.33   C551.96,59.15,551.88,58.88,551.79,58.7z"></path>
	<path class="st5" d="M543.42,61.02v0.18c0.18,3.02,2.22,5.34,4.63,5.25c2.4-0.09,4.18-2.58,4.09-5.52   c-0.36,0.89-0.98,1.6-1.78,2.05c-0.8,0.53-1.6,0.8-2.58,0.8c-0.89,0-1.78-0.27-2.58-0.71C544.49,62.53,543.87,61.82,543.42,61.02z"></path>
	<path class="st10" d="M154.24,251.36l-0.41-3.63c0-0.66-0.66-1.24-1.57-1.07l-5.61-0.33c-0.33-1.15-0.58-2.23-0.91-3.38l4.2-3.38   c0.74-0.41,0.82-1.4,0.5-1.9l0.08-3.79c-0.25-0.49-3.05-0.41-3.87-0.17l-5.03,1.9c-0.82-0.82-1.73-1.9-2.47-2.8l2.56-5.11   c0.33-0.49,0.17-1.4-0.33-1.73l-1.15-2.56c-1.98-0.08-3.38,0.17-3.87,0.74l-3.79,3.79c-1.07-0.66-2.06-1.4-3.22-1.73l0.66-5.61   c0.25-0.74-1.73-2.39-2.47-2.56l-2.14,0.08c-0.58,0-1.32,0.33-1.73,0.82l-2.31,5.11c-1.15-0.33-2.39-0.25-3.63-0.17l-0.41-6.6   c-0.74,0-2.06-0.08-2.72,0l-3.79,0.58c-0.58,0-1.24,0.66-1.15,1.32l-0.08,5.61c-1.07,0.33-2.31,0.99-3.38,1.32l-1.9-4.95   c-0.5,0-2.14,0-2.56,0c-0.25,0-0.5,0.08-0.83,0.25l-3.13,1.81c-0.74,0.41-0.91,1.15-0.66,1.65l2.06,5.36   c-1.07,0.91-2.31,1.65-2.97,2.72l-2.89-3.13c-0.16-0.08-2.39,0-2.56,0c-0.49-0.08-0.99,0.08-1.4,0.58l-2.23,2.89   c-0.33,0.5-0.41,1.57,0.25,2.14l3.79,3.96c-0.66,1.07-0.99,2.23-1.65,3.3l-3.05-0.66H84c-0.66,0-1.32,0.5-1.57,1.24l-0.91,3.46   c-0.25,0.74,0.08,1.57,0.74,1.9l5.36,2.06c-0.17,1.4-0.33,2.8-0.25,4.04l-5.52,1.57c-0.66,0.16-1.24,0.74-1.07,1.57l0.41,3.63   c0,0.66,0.66,1.4,1.48,1.4h5.69c0.33,1.15,0.58,2.14,0.91,3.3l-4.37,3.54c-0.49,0.41-0.58,1.32-0.25,1.81l1.9,3.3   c0.58,0.74,1.07,0.82,1.73,0.82h2.31l2.89-2.06c0.82,0.82,1.73,1.9,2.47,2.8l-2.56,5.11c-0.33,0.49-0.17,1.4,0.33,1.73l2.97,2.47   c1.48,0.99,2.47,0.58,4.04,0.25l1.73-4.2c1.15,0.33,2.14,0.99,3.3,1.32l-0.91,5.77c0,0.66,0.41,1.4,1.24,1.57l3.54,1.15   c0.58,0.08,2.89,0.25,3.22-0.25l0.66-5.94c1.4,0.17,2.64,0.08,3.96,0.25l1.4,5.36c0.17,0.91,0.91,1.07,1.57,1.07h2.39   c0.83-0.17,2.64-1.32,2.64-1.98l0.08-5.61c1.07-0.33,2.23-0.66,3.38-1.32l3.96,4.86c0.5,0.66,2.89,0.74,3.63,0.33l0.99-1.98   c0.74-0.41,0.91-1.15,0.5-1.9l-2.06-5.36c1.24-0.74,2.06-1.48,2.97-2.72l4.86,2.97c0.5,0.33,3.55,0.5,3.87-0.08l0.33-3.38   c0.33-0.5,0.17-1.4-0.08-1.9l-3.96-4.2c0.66-1.07,1.32-2.8,1.57-3.96l5.77,0.58c0.66,0,1.15,0.33,1.32,0l1.07-3.87   c0.25-0.74-0.25-1.48-0.99-1.73l-5.11-2.23c0.17-1.4,0.49-2.56,0.41-3.79l5.11-1.65C153.83,252.84,154.41,252.18,154.24,251.36z    M117.47,266.12c-6.35,0-11.54-5.28-11.54-11.71c0-6.43,5.19-11.71,11.54-11.71c6.35,0,11.54,5.28,11.54,11.71   C129.02,260.92,123.82,266.12,117.47,266.12z"></path>
	<path class="st12" d="M156.88,251.36l-0.41-3.63c0-0.66-0.74-0.99-1.57-1.07l-5.61-0.33c-0.33-1.15-0.58-2.23-0.91-3.38l4.2-3.38   c0.74-0.41,0.82-1.4,0.49-1.9l-1.9-3.46c-0.25-0.5-0.74-0.74-1.65-0.58l-5.28,1.98c-0.83-0.82-1.73-1.9-2.47-2.8l2.56-5.11   c0.33-0.49,0.17-1.4-0.33-1.73l-2.88-2.23c-0.66-0.58-1.48-0.41-1.9,0.08l-4.12,4.04c-1.07-0.66-2.06-1.4-3.22-1.73l0.66-5.61   c0.25-0.74-0.17-1.48-0.99-1.73l-3.63-0.82c-0.74-0.17-1.24,0.08-1.57,0.58l-2.47,5.36c-1.15-0.33-2.39-0.25-3.63-0.17l-1.57-5.61   c-0.25-0.66-0.91-1.07-1.57-1.07l-3.79,0.58c-0.58,0-1.24,0.66-1.15,1.32l-0.08,5.61c-1.07,0.33-2.31,0.99-3.38,1.32l-3.46-4.45   c-0.25-0.5-1.07-0.66-1.73-0.25l-3.13,1.81c-0.74,0.41-0.91,1.15-0.66,1.65l2.06,5.36c-1.07,0.91-2.31,1.65-2.97,2.72l-4.86-2.97   c-0.74-0.25-1.4-0.17-1.98,0.49l-2.23,2.89c-0.33,0.5-0.41,1.57,0.25,2.14l3.79,3.96c-0.66,1.07-0.99,2.23-1.65,3.3l-5.52-0.66   c-0.66,0-1.32,0.5-1.57,1.24l-0.91,3.46c-0.25,0.74,0.08,1.57,0.74,1.9l5.36,2.06c-0.16,1.4-0.33,2.8-0.25,4.04l-5.52,1.57   c-0.74,0.25-1.24,0.74-1.07,1.57l0.41,3.63c0,0.66,0.66,1.4,1.48,1.4l5.69-0.08c0.33,1.15,0.58,2.23,0.91,3.38l-4.37,3.54   c-0.58,0.5-0.58,1.32-0.25,1.81l1.9,3.46c0.25,0.5,1.15,0.91,2.14,0.5l4.78-1.9c0.82,0.82,1.73,1.9,2.47,2.8l-2.56,5.11   c-0.33,0.49-0.17,1.4,0.33,1.73l2.97,2.47c0.5,0.33,1.24,0.5,1.9-0.08l3.87-3.87c1.15,0.33,2.14,0.99,3.3,1.32l-0.91,5.77   c0,0.66,0.41,1.4,1.24,1.57l3.54,1.15c0.66,0.08,1.24-0.17,1.65-0.99l2.23-5.19c1.4,0.17,2.64,0.08,3.96,0.25l1.4,5.36   c0.17,0.91,0.91,1.07,1.57,1.07l3.54-0.49c0.82-0.17,1.48-0.83,1.4-1.48l0.08-5.61c1.07-0.33,2.23-0.66,3.38-1.32l3.46,4.45   c0.41,0.74,1.15,0.91,1.9,0.5l3.13-1.81c0.74-0.41,0.91-1.15,0.49-1.9l-2.06-5.36c1.24-0.74,2.06-1.48,2.97-2.72l4.86,2.97   c0.49,0.33,1.4,0.17,1.73-0.33l2.47-3.05c0.33-0.5,0.16-1.4-0.08-1.9l-3.96-4.2c0.66-1.07,1.15-1.98,1.48-3.13l5.77,0.58   c0.66,0,1.32-0.49,1.48-0.82l1.07-3.87c0.25-0.74-0.25-1.48-0.99-1.73l-5.11-2.23c0.17-1.4,0.49-2.56,0.41-3.79l5.11-1.65   C156.47,252.93,157.05,252.27,156.88,251.36z M120.11,266.2c-6.35,0-11.54-5.28-11.54-11.71c0-6.43,5.19-11.71,11.54-11.71   c6.35,0,11.54,5.28,11.54,11.71C131.57,260.92,126.46,266.2,120.11,266.2z"></path>
	<path class="st10" d="M138.58,237.51l-0.91-0.91c-0.25-0.33-0.58-0.58-0.91-0.82c-3.96-3.63-8.82-5.85-14.18-6.43h-0.08   c-0.33,0-0.66-0.08-1.07-0.08h-0.17c-0.41,0-0.82,0-1.24,0c-13.77,0-24.9,11.38-24.9,25.31c0,0.41,0,0.82,0,1.32v0.25   c0,0.33,0.08,0.66,0.08,1.07v0.17c0,0.41,0.08,0.74,0.17,1.15c0.74,5.03,2.97,9.65,6.43,13.44c0.17,0.25,0.41,0.41,0.58,0.66   l0.91,0.91c4.62,4.2,10.47,6.51,16.65,6.51c13.77,0,24.9-11.38,24.9-25.31C145.01,248.15,142.78,242.21,138.58,237.51z    M97.85,256.88l0.83-0.17c0-0.33-0.08-0.58-0.08-0.91v-0.25c0-0.41,0-0.74,0-1.15c0-12.12,9.65-22.01,21.6-22.01   c0.33,0,0.74,0,1.07,0h0.25c0.33,0,0.58,0,0.91,0.08h0.08c0.33,0,0.66,0.08,0.99,0.17c4.2,0.66,8,2.56,11.21,5.44   c0.25,0.25,0.5,0.49,0.74,0.74c4.04,4.12,6.35,9.65,6.35,15.5c0,12.12-9.65,22.01-21.6,22.01c-5.69,0-11.13-2.31-15.17-6.43   c-0.49-0.5-0.99-1.07-1.4-1.57c-2.47-3.05-4.12-6.68-4.7-10.64c-0.08-0.33-0.08-0.66-0.08-0.99L97.85,256.88z"></path>
	<path class="st18" d="M345.72,142.15l123.14-49.9"></path>
	<path class="st19" d="M361.57,182.95l127.29,39.3"></path>
	<path class="st19" d="M282.13,180.65L147.61,125.5"></path>
	<path class="st20" d="M273.53,216.95L161.11,252"></path>
	<g>
		<path class="st21" d="M138.93,126.56h-39.9c-3.09,0-5.59-2.5-5.59-5.59V24.92c0-3.09,2.5-5.59,5.59-5.59h39.9    c3.09,0,5.59,2.5,5.59,5.59v96.05C144.52,124.05,142.01,126.56,138.93,126.56z"></path>
		<path class="st22" d="M140.34,122H97.69c-1,0-1.81-0.81-1.81-1.81v-92.8c0-1,0.81-1.81,1.81-1.81h42.65c1,0,1.81,0.81,1.81,1.81    v92.8C142.15,121.19,141.34,122,140.34,122z"></path>
		<linearGradient id="SVGID_1_" gradientUnits="userSpaceOnUse" x1="125.2912" y1="59.2995" x2="125.2912" y2="25.5782">
			<stop offset="0.0994" style="stop-color:#E6E6E6"></stop>
			<stop offset="0.9511" style="stop-color:#FFFFFF"></stop>
		</linearGradient>
		<path class="st23" d="M142.15,59.3V27.39c0-1-0.81-1.81-1.81-1.81h-31.91L142.15,59.3z"></path>
	</g>
</g>
</svg>