<svg xmlns="http://www.w3.org/2000/svg" id="Layer_5" height="512" viewBox="0 0 64 64" width="512"><g><g><g><path d="m39 56v-2c-1.1 0-2-.9-2-2 0-.55.22-1.05.59-1.41.36-.37.86-.59 1.41-.59h-1c-1.1 0-2-.9-2-2 0-.55.22-1.05.59-1.41.13-.14.29-.26.46-.35l-.05-.24c0-1.27-.54-2.48-1.49-3.33l-1.95-1.73c-.56-.49-1.08-1.02-1.56-1.58-1.04-1.21-1.9-2.56-2.55-4.01-.08-.18-.16-.37-.24-.56l-3.21 3.21-6 6-3 3-3-2.5-3-2.5-3 3-6 6v7h6 6 6 6 6 7.34c-.22-.63-.34-1.3-.34-2z" fill="#b4dd7f"></path></g><g><path d="m19.78 21.63c.14.24.22.52.22.8 0 .87-.7 1.57-1.57 1.57h-2.43v14h-6v-14h-2.43c-.87 0-1.57-.7-1.57-1.57 0-.28.08-.56.22-.8l5.27-8.77c.31-.53.89-.86 1.51-.86s1.2.33 1.51.86z" fill="#ff826e"></path></g><g><path d="m33.78 11.63c.14.24.22.52.22.8 0 .87-.7 1.57-1.57 1.57h-2.43v6.67c-1.19 2.19-1.9 4.68-1.99 7.33h-4.01v-14h-2.43c-.87 0-1.57-.7-1.57-1.57 0-.28.08-.56.22-.8l5.27-8.77c.31-.53.89-.86 1.51-.86s1.2.33 1.51.86z" fill="#ff826e"></path></g><g><path d="m51 56c0 3.31-2.69 6-6 6-1.66 0-3.16-.67-4.24-1.76-.63-.63-1.12-1.39-1.42-2.24-.22-.63-.34-1.3-.34-2v-2h12z" fill="#aab2bd"></path></g><g><path d="m52.2 46.01c1.01.1 1.8.96 1.8 1.99 0 .55-.22 1.05-.59 1.41-.36.37-.86.59-1.41.59h-1-12-1c-1.1 0-2-.9-2-2 0-.55.22-1.05.59-1.41.13-.14.29-.26.46-.35.28-.15.61-.24.95-.24h14c.07 0 .14 0 .2.01z" fill="#ccd1d9"></path></g><g><path d="m51 50c1.1 0 2 .9 2 2 0 .55-.22 1.05-.59 1.41-.36.37-.86.59-1.41.59h-12c-1.1 0-2-.9-2-2 0-.55.22-1.05.59-1.41.36-.37.86-.59 1.41-.59z" fill="#ccd1d9"></path></g><g><path d="m52 46h-14c-.34 0-.67.09-.95.24l-.05-.24c0-1.27-.54-2.48-1.49-3.33l-1.95-1.73c-.56-.49-1.08-1.02-1.56-1.58-1.04-1.21-1.9-2.56-2.55-4.01-.08-.18-.16-.37-.24-.56-.79-1.96-1.21-4.08-1.21-6.23 0-.19 0-.38.01-.56.09-2.65.8-5.14 1.99-7.33 2.81-5.16 8.28-8.67 14.56-8.67h.88c4.57 0 8.71 1.86 11.71 4.85 2.99 3 4.85 7.14 4.85 11.71 0 4.73-2.02 9.24-5.56 12.38l-1.95 1.73c-.95.85-1.49 2.06-1.49 3.33l-.8.01c-.06-.01-.13-.01-.2-.01z" fill="#ffeaa7"></path></g></g><g><path d="m45.438 11h-.875c-5.457 0-10.339 2.502-13.563 6.418v-2.418h1.434c1.415 0 2.566-1.151 2.566-2.566 0-.465-.127-.922-.366-1.32l-5.262-8.771c-.497-.828-1.406-1.343-2.372-1.343s-1.875.515-2.372 1.343l-5.262 8.77c-.239.399-.366.855-.366 1.321 0 1.415 1.151 2.566 2.566 2.566h1.434v14h4.023c.048 1.903.405 3.763 1.041 5.522l-11.126 11.125-6-5-9.938 9.939v8.414h37.685c1.126 2.361 3.53 4 6.315 4 3.859 0 7-3.141 7-7v-1.184c1.161-.414 2-1.514 2-2.816 0-.537-.153-1.034-.401-1.471.839-.532 1.401-1.464 1.401-2.529 0-.873-.381-1.653-.978-2.202.054-.91.452-1.77 1.138-2.38l1.946-1.729c3.746-3.332 5.894-8.116 5.894-13.126 0-9.685-7.879-17.563-17.562-17.563zm-23.872 2c-.312 0-.566-.254-.566-.566 0-.102.028-.203.081-.291l5.262-8.771c.275-.459 1.039-.459 1.314 0l5.262 8.771c.053.088.081.189.081.291 0 .312-.254.566-.566.566h-3.434v7.453c-1.042 1.991-1.713 4.202-1.921 6.547h-2.079v-14zm9.434 26.68v17.32h-4v-18.586l1.921-1.921c.574 1.131 1.269 2.198 2.079 3.187zm-6 17.32h-4v-12.586l4-4zm-7.938-8.647 1.938-1.939v10.586h-4v-10.365zm-6-5 1.938 1.615v12.032h-4v-11.586zm-8.062 8.061 4-4v9.586h-4zm30 5.586v-15.218l1.841 1.636c.685.61 1.083 1.47 1.138 2.38-.598.549-.979 1.329-.979 2.202 0 1.065.562 1.997 1.401 2.529-.248.437-.401.934-.401 1.471 0 1.302.839 2.402 2 2.816v1.184c0 .34.033.672.08 1zm20-9c0 .552-.448 1-1 1h-1-12-1c-.552 0-1-.448-1-1s.448-1 1-1h14c.552 0 1 .448 1 1zm-8 13c-2.757 0-5-2.243-5-5v-1h10v1c0 2.757-2.243 5-5 5zm6-8h-12c-.552 0-1-.448-1-1s.448-1 1-1h12c.552 0 1 .448 1 1s-.448 1-1 1zm4.777-12.806-1.946 1.729c-.914.812-1.515 1.902-1.734 3.086-.033 0-.064-.009-.097-.009h-14c-.033 0-.064.009-.097.01-.219-1.184-.821-2.274-1.734-3.086l-1.946-1.729c-3.32-2.953-5.223-7.192-5.223-11.632 0-8.582 6.981-15.563 15.563-15.563h.875c8.581 0 15.562 6.981 15.562 15.563 0 4.44-1.903 8.679-5.223 11.631z"></path><path d="m56.993 28.965c-.021.615-.094 1.234-.213 1.84l1.961.389c.142-.711.226-1.438.25-2.16z"></path><path d="m53.12 37.204-1.947 1.73c-.496.44-.947.937-1.342 1.474l1.613 1.184c.311-.425.667-.815 1.057-1.163l1.947-1.73c1.632-1.45 2.902-3.299 3.676-5.345l-1.871-.707c-.659 1.745-1.742 3.32-3.133 4.557z"></path><path d="m31.014 27.956 1.998.089c.027-.618.104-1.237.23-1.841l-1.959-.406c-.146.707-.237 1.434-.269 2.158z"></path><path d="m45 17v-2h-.438c-5.537 0-10.616 3.47-12.637 8.636l1.863.729c1.724-4.406 6.054-7.365 10.775-7.365z"></path><path d="m49 25.906c0-1.841-1.284-3.378-3-3.789v-2.117h-2v2.117c-1.716.411-3 1.948-3 3.789 0 1.684 1.073 3.172 2.671 3.705l2.025.676c.78.26 1.304.986 1.304 1.808 0 1.051-.854 1.905-1.905 1.905h-.189c-1.052 0-1.906-.854-1.906-1.906v-1.094h-2v1.094c0 1.841 1.284 3.378 3 3.789v2.117h2v-2.117c1.716-.411 3-1.948 3-3.789 0-1.684-1.073-3.172-2.671-3.705l-2.025-.676c-.781-.259-1.304-.986-1.304-1.807 0-1.051.854-1.906 1.905-1.906h.189c1.052 0 1.906.855 1.906 1.906v.094z"></path><path d="m7.566 25h1.434v14h8v-14h1.434c1.415 0 2.566-1.151 2.566-2.566 0-.465-.127-.922-.366-1.32l-5.262-8.771c-.497-.828-1.406-1.343-2.372-1.343s-1.875.515-2.372 1.343l-5.262 8.77c-.239.399-.366.855-.366 1.321 0 1.415 1.151 2.566 2.566 2.566zm-.485-2.857 5.262-8.771c.275-.459 1.039-.459 1.314 0l5.262 8.771c.053.088.081.189.081.291 0 .312-.254.566-.566.566h-3.434v14h-4v-14h-3.434c-.312 0-.566-.254-.566-.566 0-.102.028-.203.081-.291z"></path></g></g></svg>