<svg xmlns="http://www.w3.org/2000/svg" xmlns:xlink="http://www.w3.org/1999/xlink" id="Layer_1" x="0px" y="0px" viewBox="0 0 636 300" style="enable-background:new 0 0 636 300;" xml:space="preserve">
<style type="text/css">
	.st0{fill:#B5D5EA;}
	.st1{fill:#FFFFFF;}
	.st2{fill:#3A312E;}
	.st3{fill:#BF8F68;}
	.st4{fill:url(#SVGID_1_);}
	.st5{fill:url(#SVGID_2_);}
	.st6{fill:#9B643D;}
	.st7{fill:#F8C954;}
	.st8{fill:#8867C8;}
	.st9{fill:#8FC3EC;}
	.st10{fill:#D7EFF9;}
	.st11{fill:#4DA1DB;}
	.st12{fill:#2488D8;}
	.st13{fill:#FFB900;}
	.st14{fill:#B3DDF4;}
	.st15{fill:#E6E6E6;}
	.st16{fill:#939393;}
	.st17{fill:#737373;}
	.st18{fill:#505050;}
	.st19{fill:#B2B2B2;}
	.st20{fill:#D2D2D2;}
	.st21{fill:#D8D8D8;}
</style>
<g>
	<path class="st0" d="M558.67,291.2H411.81c-4.54,0-8.22-3.68-8.22-8.22V99.16c0-4.54,3.68-8.22,8.22-8.22h146.87   c4.54,0,8.22,3.68,8.22,8.22v183.81C566.9,287.51,563.21,291.2,558.67,291.2z"></path>
	<g>
		<ellipse class="st1" cx="485.04" cy="128.38" rx="24.39" ry="24.83"></ellipse>
		<path class="st2" d="M498.09,117.88c-4.32-14.8-22.23-14.95-26.92,0.21c-2.01,6.5-1.78,14.62-5.17,25.78    c4.47,5.69,11.33,9.34,19.04,9.34c7.47,0,14.15-3.43,18.62-8.81C499.63,132.69,500.12,124.82,498.09,117.88z"></path>
		
			<ellipse transform="matrix(5.744206e-03 -1 1 5.744206e-03 359.2976 606.5859)" class="st2" cx="484.69" cy="122.61" rx="17" ry="13.93"></ellipse>
		<path class="st3" d="M478.67,127.15h-2.04c-1.48,0-2.68-1.2-2.68-2.68v-0.05c0-1.48,1.2-2.68,2.68-2.68h2.04    c0.76,0,1.38,0.62,1.38,1.38v2.64C480.05,126.53,479.44,127.15,478.67,127.15z"></path>
		<path class="st3" d="M490.9,127.15h2.04c1.48,0,2.68-1.2,2.68-2.68v-0.05c0-1.48-1.2-2.68-2.68-2.68h-2.04    c-0.76,0-1.38,0.62-1.38,1.38v2.64C489.52,126.53,490.14,127.15,490.9,127.15z"></path>
		<path class="st3" d="M488.45,136.61l0.04-7.14h-6.91v7.03c-0.05,1.59-0.2,2.16-1.87,2.95c-2.08,0.99,2.03,3.51,5.22,3.51    c3.19,0,7.47-2.82,5.79-3.44C489.27,138.99,488.3,138.56,488.45,136.61z"></path>
		
			<radialGradient id="SVGID_1_" cx="1708.0142" cy="-105.4948" r="6.4009" gradientTransform="matrix(-1.212 0 0 1.2111 2554.4026 260.536)" gradientUnits="userSpaceOnUse">
			<stop offset="0" style="stop-color:#9B643D"></stop>
			<stop offset="0.8819" style="stop-color:#BA8A63;stop-opacity:0.1178"></stop>
			<stop offset="0.9997" style="stop-color:#BF8F68;stop-opacity:0"></stop>
		</radialGradient>
		<rect x="481.54" y="130.39" class="st4" width="6.92" height="10.72"></rect>
		<path class="st3" d="M493.67,121.68c0,6.87-4.03,12.45-9,12.45c-4.97,0-9-5.57-9-12.45c0-6.87,4.03-11.81,9-11.81    C489.64,109.86,493.67,114.8,493.67,121.68z"></path>
		
			<ellipse transform="matrix(0.0144 -0.9999 0.9999 0.0144 359.8769 608.7267)" class="st2" cx="488.71" cy="121.82" rx="1.44" ry="0.84"></ellipse>
		<g>
			
				<radialGradient id="SVGID_2_" cx="1941.8074" cy="28.6462" r="4.1456" gradientTransform="matrix(-1.0513 0.0808 0.0837 1.1283 2522.9346 -64.3786)" gradientUnits="userSpaceOnUse">
				<stop offset="3.205128e-04" style="stop-color:#9B643D"></stop>
				<stop offset="0.8822" style="stop-color:#BA8A63;stop-opacity:0.1178"></stop>
				<stop offset="1" style="stop-color:#BF8F68;stop-opacity:0"></stop>
			</radialGradient>
			<path class="st5" d="M485.28,115.99l-0.22,3.68c-0.16,1.88-1.13,3.17-1.86,3.89c-0.41,0.4-0.6,1.38-0.12,1.96     c0.26,0.32,1.42,1.02,1.42,1.89l-0.11,3.4l-6.8,0.05l0.33-15.1L485.28,115.99z"></path>
		</g>
		<g>
			<path class="st6" d="M483.36,128.81c0.29,0.17,0.61,0.23,0.94,0.24c0.33,0,0.67-0.02,0.99-0.11c0.33-0.06,0.65-0.17,0.95-0.32     c0.29-0.14,0.56-0.32,0.71-0.6l0.01-0.02c0.03-0.06,0.11-0.09,0.18-0.05c0.04,0.02,0.07,0.06,0.07,0.11     c0.02,0.47-0.31,0.85-0.64,1.09c-0.34,0.25-0.73,0.39-1.12,0.5c-0.4,0.07-0.81,0.11-1.23,0.01c-0.4-0.09-0.83-0.29-1.05-0.67     c-0.04-0.06-0.01-0.14,0.05-0.18c0.04-0.02,0.09-0.02,0.13,0L483.36,128.81z"></path>
		</g>
		<path class="st2" d="M480.68,108.82c0,0,0.85,4.58,5.91,6.69c7.31,3.05,7.11,7.45,7.11,7.45s4.13-5.16-0.8-11.99    C487.83,103.97,480.68,108.82,480.68,108.82z"></path>
		
			<ellipse transform="matrix(0.0104 -0.9999 0.9999 0.0104 360.2251 621.2997)" class="st7" cx="494.01" cy="128.65" rx="1.82" ry="1.72"></ellipse>
		
			<ellipse transform="matrix(0.0104 -0.9999 0.9999 0.0104 342.2815 603.1683)" class="st7" cx="475.88" cy="128.65" rx="1.82" ry="1.72"></ellipse>
		<path class="st8" d="M499.27,144.43c-0.42-0.49-0.9-0.9-1.41-1.26c-3.1-2.61-7.68-4.27-12.81-4.27c-4.92,0-9.34,1.53-12.43,3.96    c-0.67,0.41-1.29,0.93-1.82,1.56c-0.42,0.5-1.13,1.34-1.99,2.45c4.31,3.93,9.99,6.33,16.23,6.33c6.24,0,11.91-2.4,16.22-6.33    C500.4,145.77,499.69,144.93,499.27,144.43z"></path>
		<path class="st3" d="M484.84,142.27c3.3,0,6.37-0.6,8.93-1.63c-2.55-1.16-5.52-1.84-8.71-1.84c-3.27,0-6.32,0.71-8.91,1.93    C478.65,141.71,481.64,142.27,484.84,142.27z"></path>
		
			<ellipse transform="matrix(0.9999 -0.0144 0.0144 0.9999 -1.7024 6.9329)" class="st2" cx="481.14" cy="121.82" rx="0.84" ry="1.44"></ellipse>
	</g>
	<path class="st9" d="M403.58,286.44c1.06,3.34,4.13,5.76,7.77,5.76h147.39c4.51,0,8.16-3.72,8.16-8.31v-26.97H403.58V286.44z"></path>
	<rect x="403.58" y="180.5" class="st9" width="163.32" height="35.27"></rect>
	<rect x="403.58" y="218.8" class="st9" width="163.32" height="35.27"></rect>
	<path class="st10" d="M529.92,170.85h-89.37c-2.46,0-4.46-2-4.46-4.46v-0.08c0-2.46,2-4.46,4.46-4.46h89.37   c2.46,0,4.46,2,4.46,4.46v0.08C534.38,168.86,532.39,170.85,529.92,170.85z"></path>
	<path class="st1" d="M430.03,200.42c1.8-1.29,2.98-3.41,2.98-5.82c0-3.92-3.13-7.11-6.99-7.11c-3.85,0-6.98,3.19-6.98,7.11   c0,2.41,1.18,4.53,2.98,5.82c-3.57,1.58-6.07,5.2-6.07,9.4h2.36c0-4.33,3.46-7.85,7.71-7.85s7.71,3.52,7.71,7.85h2.36   C436.1,205.62,433.59,202,430.03,200.42z M426.02,189.9c2.55,0,4.62,2.11,4.62,4.71s-2.07,4.71-4.62,4.71   c-2.55,0-4.62-2.11-4.62-4.71S423.47,189.9,426.02,189.9z"></path>
	<g>
		<path class="st1" d="M426.52,249.12l-0.92-1.18c-0.67-0.87-6.55-8.5-7.22-11.59c-0.38-1.02-0.57-2.08-0.57-3.15    c0-4.9,3.91-8.88,8.72-8.88s8.72,3.98,8.72,8.88c0,1.07-0.19,2.12-0.57,3.13l-0.19,0.48c-1.89,4.58-6.84,10.88-7.05,11.14    L426.52,249.12z M420.72,235.97c0.48,1.77,3.48,6.15,5.81,9.26c1.52-2.04,4.5-6.24,5.8-9.39l0.11-0.27    c0.31-0.8,0.45-1.59,0.45-2.39c0-3.57-2.85-6.48-6.36-6.48c-3.51,0-6.36,2.9-6.36,6.48c0,0.81,0.15,1.61,0.45,2.38l0.12,0.31    L420.72,235.97z M432.43,235.61l1.11,0.4L432.43,235.61z"></path>
	</g>
	<ellipse class="st1" cx="426.53" cy="233.14" rx="3.2" ry="3.26"></ellipse>
	<path class="st1" d="M437.92,279.01h-3.75v-7.72c0-4.29-3.43-7.77-7.64-7.77s-7.64,3.49-7.64,7.77v7.72h-3.9v2.4h6.55   c0.16,2.63,2.29,4.73,4.91,4.73c2.62,0,4.75-2.1,4.91-4.73h6.55V279.01z M421.26,271.29c0-2.96,2.37-5.37,5.28-5.37   s5.28,2.41,5.28,5.37v7.72h-10.55V271.29z M426.45,283.74c-1.32,0-2.4-1.02-2.55-2.32H429   C428.85,282.72,427.77,283.74,426.45,283.74z"></path>
	<path class="st11" d="M502.94,203.81h-53.95c-2.46,0-4.46-2-4.46-4.46v-0.08c0-2.46,2-4.46,4.46-4.46h53.95   c2.46,0,4.46,2,4.46,4.46v0.08C507.39,201.81,505.4,203.81,502.94,203.81z"></path>
	<path class="st11" d="M502.94,241.06h-53.95c-2.46,0-4.46-2-4.46-4.46v-0.08c0-2.46,2-4.46,4.46-4.46h53.95   c2.46,0,4.46,2,4.46,4.46v0.08C507.39,239.07,505.4,241.06,502.94,241.06z"></path>
	<path class="st11" d="M502.94,278.32h-53.95c-2.46,0-4.46-2-4.46-4.46v-0.08c0-2.46,2-4.46,4.46-4.46h53.95   c2.46,0,4.46,2,4.46,4.46v0.08C507.39,276.32,505.4,278.32,502.94,278.32z"></path>
	<g>
		<path class="st11" d="M239.39,59.25H73.3c-2.43,0-4.4-1.97-4.4-4.4V29.07c0-2.43,1.97-4.4,4.4-4.4h166.09c2.43,0,4.4,1.97,4.4,4.4    v25.78C243.79,57.28,241.82,59.25,239.39,59.25z"></path>
		<path class="st12" d="M186.53,47.13h-60.94c-2.83,0-5.13-2.3-5.13-5.13v-0.09c0-2.83,2.3-5.13,5.13-5.13h60.94    c2.83,0,5.13,2.3,5.13,5.13V42C191.66,44.83,189.36,47.13,186.53,47.13z"></path>
		<path class="st13" d="M107.34,43.2v-2.4h-6.21c-0.15-0.77-0.44-1.49-0.85-2.13l4.38-4.46l-1.67-1.7l-4.37,4.45    c-0.63-0.43-1.34-0.74-2.1-0.89v-6.28h-2.36v6.28c-0.76,0.16-1.47,0.47-2.1,0.89l-4.37-4.45l-1.67,1.7l4.38,4.46    c-0.41,0.64-0.71,1.35-0.85,2.13h-6.21v2.4h6.22c0.16,0.76,0.46,1.47,0.87,2.1l-4.41,4.49l1.67,1.7l4.42-4.5    c0.61,0.41,1.3,0.71,2.05,0.86v6.37h2.36v-6.37c0.74-0.15,1.43-0.46,2.05-0.86l4.42,4.5l1.67-1.7l-4.41-4.49    c0.41-0.63,0.71-1.33,0.87-2.1H107.34z"></path>
		<g>
			<path class="st0" d="M212.78,34.53c-0.28,0.49-0.62,1.1-1.01,1.83c-0.39,0.73-0.81,1.55-1.25,2.47     c-0.44,0.91-0.89,1.89-1.34,2.94c-0.46,1.05-0.88,2.13-1.28,3.25c-0.4,1.12-0.75,2.25-1.05,3.4c-0.3,1.15-0.52,2.28-0.65,3.39     h-2.23c0.15-1.1,0.39-2.23,0.7-3.38c0.32-1.15,0.68-2.28,1.08-3.38c0.4-1.11,0.83-2.17,1.28-3.2c0.45-1.02,0.88-1.97,1.31-2.83     c0.42-0.86,0.81-1.62,1.16-2.28c0.35-0.66,0.63-1.17,0.84-1.54h-9.12V33.3h11.57V34.53z"></path>
			<path class="st0" d="M222.96,38.15c0-0.57-0.09-1.06-0.26-1.48c-0.17-0.42-0.41-0.77-0.71-1.05c-0.3-0.28-0.65-0.49-1.06-0.63     c-0.41-0.14-0.85-0.21-1.32-0.21c-0.41,0-0.8,0.06-1.19,0.17c-0.39,0.11-0.77,0.27-1.13,0.46c-0.37,0.2-0.72,0.43-1.07,0.71     c-0.34,0.28-0.66,0.58-0.96,0.92v-2.27c0.58-0.58,1.24-1.02,1.96-1.32c0.72-0.31,1.6-0.46,2.64-0.46c0.74,0,1.43,0.11,2.07,0.33     s1.18,0.54,1.65,0.96c0.46,0.42,0.83,0.94,1.1,1.56c0.27,0.62,0.4,1.33,0.4,2.13c0,0.73-0.08,1.39-0.25,1.99     c-0.16,0.59-0.41,1.15-0.75,1.68c-0.33,0.53-0.76,1.03-1.26,1.51c-0.51,0.48-1.1,0.97-1.79,1.47c-0.85,0.62-1.56,1.15-2.11,1.59     c-0.55,0.44-0.99,0.85-1.32,1.23c-0.33,0.38-0.55,0.77-0.68,1.15c-0.13,0.38-0.2,0.82-0.2,1.32h9.06v1.9h-11.22V50.9     c0-0.79,0.08-1.49,0.25-2.09c0.17-0.6,0.45-1.17,0.84-1.72c0.39-0.54,0.9-1.08,1.53-1.63c0.63-0.54,1.4-1.15,2.32-1.83     c0.66-0.48,1.21-0.94,1.66-1.38c0.44-0.44,0.8-0.88,1.07-1.32c0.27-0.44,0.46-0.88,0.58-1.34     C222.9,39.14,222.96,38.66,222.96,38.15z"></path>
		</g>
		<g>
			<path class="st0" d="M230.57,35.59c-1.55,0-2.8-1.28-2.8-2.85c0-1.57,1.26-2.85,2.8-2.85c1.55,0,2.8,1.28,2.8,2.85     C233.37,34.31,232.11,35.59,230.57,35.59z M230.57,31.08c-0.89,0-1.62,0.74-1.62,1.65c0,0.91,0.73,1.65,1.62,1.65     s1.62-0.74,1.62-1.65C232.19,31.82,231.46,31.08,230.57,31.08z"></path>
		</g>
		<path class="st11" d="M239.39,96.5H73.3c-2.43,0-4.4-1.97-4.4-4.4V66.32c0-2.43,1.97-4.4,4.4-4.4h166.09c2.43,0,4.4,1.97,4.4,4.4    V92.1C243.79,94.53,241.82,96.5,239.39,96.5z"></path>
		<path class="st12" d="M186.53,84.39h-60.94c-2.83,0-5.13-2.3-5.13-5.13v-0.09c0-2.83,2.3-5.13,5.13-5.13h60.94    c2.83,0,5.13,2.3,5.13,5.13v0.09C191.66,82.09,189.36,84.39,186.53,84.39z"></path>
		<g>
			<path class="st0" d="M212.13,83.19c0,0.9-0.16,1.73-0.47,2.49c-0.31,0.76-0.75,1.41-1.3,1.96c-0.55,0.55-1.21,0.98-1.98,1.28     c-0.76,0.31-1.59,0.46-2.49,0.46c-0.99,0-1.89-0.19-2.67-0.58c-0.79-0.39-1.46-0.94-2-1.67c-0.55-0.73-0.97-1.62-1.25-2.67     c-0.29-1.05-0.43-2.23-0.43-3.55c0-1.61,0.19-3.07,0.57-4.38c0.38-1.31,0.93-2.44,1.63-3.37c0.71-0.93,1.56-1.65,2.55-2.16     c1-0.51,2.11-0.76,3.33-0.76c1.36,0,2.46,0.18,3.29,0.53v2c-1.02-0.49-2.1-0.74-3.24-0.74c-0.88,0-1.68,0.19-2.39,0.56     c-0.71,0.37-1.32,0.89-1.83,1.57c-0.51,0.68-0.9,1.49-1.17,2.45c-0.27,0.96-0.41,2.02-0.41,3.19h0.06     c0.91-1.54,2.42-2.31,4.52-2.31c0.87,0,1.65,0.14,2.34,0.41c0.7,0.28,1.29,0.66,1.78,1.17c0.49,0.5,0.87,1.1,1.14,1.8     C212,81.57,212.13,82.34,212.13,83.19z M209.81,83.46c0-0.65-0.09-1.23-0.26-1.74c-0.18-0.52-0.43-0.96-0.75-1.32     c-0.33-0.36-0.73-0.64-1.21-0.83s-1.02-0.29-1.63-0.29c-0.56,0-1.08,0.1-1.56,0.3c-0.48,0.2-0.89,0.47-1.24,0.81     c-0.35,0.34-0.62,0.74-0.82,1.19c-0.2,0.45-0.3,0.93-0.3,1.44c0,0.64,0.1,1.23,0.29,1.79c0.19,0.56,0.46,1.04,0.82,1.45     c0.35,0.41,0.77,0.74,1.25,0.97c0.48,0.24,1.02,0.36,1.61,0.36c0.57,0,1.09-0.1,1.56-0.3c0.47-0.2,0.87-0.48,1.2-0.85     s0.59-0.79,0.77-1.3C209.72,84.63,209.81,84.08,209.81,83.46z"></path>
			<path class="st0" d="M225.56,78.7c0,1.7-0.18,3.2-0.54,4.52c-0.36,1.32-0.88,2.44-1.58,3.36c-0.69,0.92-1.53,1.61-2.53,2.09     c-0.99,0.48-2.13,0.72-3.4,0.72c-1.31,0-2.46-0.22-3.46-0.65v-2.03c1.1,0.58,2.27,0.86,3.51,0.86c0.89,0,1.69-0.17,2.4-0.52     c0.7-0.34,1.3-0.85,1.79-1.5c0.49-0.66,0.86-1.47,1.12-2.43c0.26-0.96,0.39-2.07,0.39-3.32h-0.06c-0.85,1.59-2.32,2.39-4.42,2.39     c-0.85,0-1.63-0.14-2.34-0.42c-0.71-0.28-1.32-0.68-1.84-1.19c-0.52-0.51-0.92-1.12-1.2-1.83c-0.29-0.71-0.43-1.48-0.43-2.34     c0-0.91,0.16-1.75,0.48-2.5c0.32-0.76,0.76-1.41,1.33-1.96c0.57-0.55,1.24-0.97,2.02-1.27c0.78-0.3,1.63-0.45,2.55-0.45     c1,0,1.88,0.19,2.65,0.56c0.77,0.37,1.42,0.92,1.94,1.64c0.53,0.72,0.93,1.6,1.2,2.65C225.42,76.15,225.56,77.35,225.56,78.7z      M223.11,76.8c0-0.71-0.1-1.36-0.3-1.95c-0.2-0.59-0.47-1.09-0.82-1.5c-0.35-0.42-0.77-0.74-1.25-0.97     c-0.48-0.23-1.01-0.34-1.58-0.34c-0.54,0-1.05,0.1-1.52,0.3c-0.47,0.2-0.88,0.49-1.22,0.85c-0.35,0.37-0.62,0.8-0.82,1.3     c-0.2,0.5-0.3,1.05-0.3,1.65c0,0.65,0.09,1.24,0.28,1.76c0.19,0.52,0.46,0.95,0.81,1.31c0.35,0.36,0.77,0.63,1.26,0.82     c0.49,0.19,1.04,0.28,1.64,0.28c0.53,0,1.02-0.09,1.49-0.28c0.47-0.18,0.87-0.43,1.22-0.75c0.34-0.31,0.62-0.68,0.82-1.11     C223.01,77.75,223.11,77.29,223.11,76.8z"></path>
		</g>
		<g>
			<path class="st0" d="M230.57,72.84c-1.55,0-2.8-1.28-2.8-2.85s1.26-2.85,2.8-2.85c1.55,0,2.8,1.28,2.8,2.85     S232.11,72.84,230.57,72.84z M230.57,68.34c-0.89,0-1.62,0.74-1.62,1.65s0.73,1.65,1.62,1.65s1.62-0.74,1.62-1.65     S231.46,68.34,230.57,68.34z"></path>
		</g>
		<path class="st11" d="M239.39,133.76H73.3c-2.43,0-4.4-1.97-4.4-4.4v-25.78c0-2.43,1.97-4.4,4.4-4.4h166.09    c2.43,0,4.4,1.97,4.4,4.4v25.78C243.79,131.79,241.82,133.76,239.39,133.76z"></path>
		<path class="st12" d="M186.53,121.64h-60.94c-2.83,0-5.13-2.3-5.13-5.13v-0.09c0-2.83,2.3-5.13,5.13-5.13h60.94    c2.83,0,5.13,2.3,5.13,5.13v0.09C191.66,119.34,189.36,121.64,186.53,121.64z"></path>
		<g>
			<path class="st0" d="M230.57,110.1c-1.55,0-2.8-1.28-2.8-2.85s1.26-2.85,2.8-2.85c1.55,0,2.8,1.28,2.8,2.85     S232.11,110.1,230.57,110.1z M230.57,105.59c-0.89,0-1.62,0.74-1.62,1.65s0.73,1.65,1.62,1.65s1.62-0.74,1.62-1.65     S231.46,105.59,230.57,105.59z"></path>
		</g>
		<path class="st11" d="M239.39,171.01H73.3c-2.43,0-4.4-1.97-4.4-4.4v-25.78c0-2.43,1.97-4.4,4.4-4.4h166.09    c2.43,0,4.4,1.97,4.4,4.4v25.78C243.79,169.04,241.82,171.01,239.39,171.01z"></path>
		<path class="st12" d="M186.53,158.89h-60.94c-2.83,0-5.13-2.3-5.13-5.13v-0.09c0-2.83,2.3-5.13,5.13-5.13h60.94    c2.83,0,5.13,2.3,5.13,5.13v0.09C191.66,156.6,189.36,158.89,186.53,158.89z"></path>
		<path class="st13" d="M107.34,154.96v-2.4h-6.21c-0.15-0.77-0.44-1.49-0.85-2.13l4.38-4.46l-1.67-1.7l-4.37,4.45    c-0.63-0.43-1.34-0.74-2.1-0.89v-6.28h-2.36v6.28c-0.76,0.16-1.47,0.47-2.1,0.89l-4.37-4.45l-1.67,1.7l4.38,4.46    c-0.41,0.64-0.71,1.35-0.85,2.13h-6.21v2.4h6.22c0.16,0.76,0.46,1.47,0.87,2.1l-4.41,4.49l1.67,1.7l4.42-4.5    c0.61,0.41,1.3,0.71,2.05,0.86v6.37h2.36v-6.37c0.74-0.15,1.43-0.46,2.05-0.86l4.42,4.5l1.67-1.7l-4.41-4.49    c0.41-0.63,0.71-1.33,0.87-2.1H107.34z"></path>
		<g>
			<path class="st0" d="M230.57,147.35c-1.55,0-2.8-1.28-2.8-2.85c0-1.57,1.26-2.85,2.8-2.85c1.55,0,2.8,1.28,2.8,2.85     C233.37,146.07,232.11,147.35,230.57,147.35z M230.57,142.85c-0.89,0-1.62,0.74-1.62,1.65c0,0.91,0.73,1.65,1.62,1.65     s1.62-0.74,1.62-1.65C232.19,143.59,231.46,142.85,230.57,142.85z"></path>
		</g>
		<g>
			<g>
				<path class="st1" d="M106.5,87.76L106.5,87.76l-17.14,0c-1.63-0.01-3.15-0.66-4.29-1.84c-1.14-1.18-1.77-2.73-1.75-4.39      c0.01-1.65,0.65-3.2,1.8-4.36c1.16-1.16,2.65-1.83,4.31-1.79c0.47,0,0.95,0.06,1.41,0.17c0.64-1.37,1.63-2.56,2.87-3.42      c1.58-1.09,3.49-1.61,5.4-1.45c1.9,0.16,3.71,0.99,5.09,2.34c1.08,1.06,1.86,2.39,2.27,3.85c0.11-0.01,0.21-0.01,0.32-0.01      c0.69,0,1.37,0.15,2.02,0.42c0.65,0.28,1.22,0.68,1.72,1.19c0.49,0.51,0.88,1.1,1.14,1.76c0.26,0.66,0.39,1.36,0.39,2.07      c0,0.71-0.13,1.4-0.39,2.07c-0.26,0.66-0.65,1.26-1.14,1.77c-0.49,0.51-1.07,0.91-1.72,1.19c-0.34,0.14-0.68,0.25-1.04,0.32      v0.04l-0.38,0.02c-0.2,0.03-0.41,0.04-0.62,0.04L106.5,87.76z M106.17,87.61c0.01,0,0.02,0.01,0.03,0.02L106.17,87.61z       M107.17,85.43l0.03,0.02C107.2,85.45,107.19,85.44,107.17,85.43z M89.4,77.79c-0.99,0-1.91,0.39-2.61,1.09      c-0.71,0.71-1.1,1.66-1.1,2.67c-0.01,1.01,0.37,1.96,1.07,2.68c0.7,0.72,1.63,1.12,2.62,1.12l17.61-0.01      c0.31-0.02,0.62-0.1,0.92-0.23c0.36-0.15,0.68-0.38,0.95-0.66c0.27-0.28,0.49-0.61,0.63-0.98c0.15-0.37,0.22-0.76,0.22-1.15      v-0.02c0-0.4-0.07-0.78-0.22-1.15c-0.15-0.37-0.36-0.7-0.63-0.98c-0.27-0.28-0.59-0.5-0.95-0.66c-0.36-0.15-0.74-0.23-1.13-0.24      c-0.34,0-0.59,0.04-0.87,0.12l-1.35,0.43l-0.18-1.42c-0.17-1.39-0.81-2.68-1.8-3.65c-0.99-0.97-2.29-1.56-3.66-1.68      c-1.37-0.12-2.74,0.25-3.88,1.04c-1.13,0.79-1.98,1.95-2.37,3.29l-0.39,1.32l-1.23-0.58c-0.5-0.24-1.06-0.36-1.62-0.37      C89.41,77.79,89.4,77.79,89.4,77.79z"></path>
			</g>
			<path class="st1" d="M83.03,77.69c-0.17-0.51-0.28-0.98-0.28-1.31c0.01-1,0.41-1.97,1.1-2.67c0.7-0.7,1.63-1.09,2.61-1.09     c0.01,0,0.01,0,0.02,0c0.55,0,1.11,0.13,1.62,0.37l1.23,0.58l0.39-1.32c0.4-1.34,1.24-2.51,2.37-3.29     c1.14-0.79,2.51-1.15,3.88-1.04c1.13,0.1,2.21,0.54,3.11,1.23c1.14,0.05,2.5,0.31,3.86,1.03c-0.43-0.86-0.99-1.64-1.68-2.32     c-1.38-1.35-3.19-2.18-5.09-2.34c-1.91-0.16-3.82,0.35-5.4,1.44c-1.24,0.86-2.23,2.05-2.87,3.42c-0.46-0.11-0.94-0.17-1.41-0.17     c-0.01,0-0.02,0-0.04,0c-1.61,0-3.13,0.63-4.27,1.79c-1.14,1.14-1.8,2.74-1.81,4.36c-0.01,1.05,0.52,2.91,1.54,4.39     C82.04,79.7,82.4,78.64,83.03,77.69z"></path>
		</g>
		<g>
			<path class="st0" d="M211.75,120c0,0.9-0.14,1.73-0.43,2.49c-0.29,0.76-0.68,1.41-1.19,1.96c-0.51,0.55-1.11,0.98-1.81,1.28     c-0.7,0.31-1.46,0.46-2.28,0.46c-0.91,0-1.73-0.19-2.45-0.58c-0.72-0.39-1.34-0.94-1.84-1.67c-0.5-0.73-0.89-1.62-1.15-2.67     c-0.26-1.05-0.39-2.23-0.39-3.55c0-1.61,0.18-3.07,0.53-4.38c0.35-1.31,0.85-2.44,1.5-3.37c0.65-0.93,1.43-1.65,2.34-2.16     c0.91-0.51,1.93-0.76,3.06-0.76c1.25,0,2.26,0.18,3.02,0.53v2c-0.94-0.49-1.93-0.74-2.97-0.74c-0.81,0-1.54,0.19-2.19,0.56     c-0.65,0.37-1.21,0.89-1.67,1.57c-0.46,0.68-0.82,1.49-1.07,2.45c-0.25,0.96-0.37,2.02-0.37,3.19h0.05     c0.84-1.54,2.22-2.31,4.15-2.31c0.79,0,1.51,0.14,2.15,0.41c0.64,0.28,1.18,0.66,1.64,1.17c0.45,0.5,0.8,1.1,1.05,1.8     C211.63,118.37,211.75,119.15,211.75,120z M209.62,120.27c0-0.65-0.08-1.23-0.24-1.74c-0.16-0.52-0.39-0.96-0.69-1.32     c-0.3-0.36-0.67-0.64-1.11-0.83c-0.44-0.19-0.94-0.29-1.5-0.29c-0.52,0-0.99,0.1-1.43,0.3c-0.44,0.2-0.82,0.47-1.14,0.81     c-0.32,0.34-0.57,0.74-0.75,1.19c-0.18,0.45-0.27,0.93-0.27,1.44c0,0.64,0.09,1.23,0.27,1.79s0.43,1.04,0.75,1.45     c0.32,0.41,0.7,0.74,1.15,0.97c0.45,0.24,0.94,0.36,1.48,0.36c0.52,0,1-0.1,1.43-0.3c0.43-0.2,0.8-0.48,1.1-0.85     s0.54-0.79,0.71-1.3S209.62,120.88,209.62,120.27z"></path>
			<path class="st0" d="M225.37,108.59c-0.28,0.49-0.62,1.1-1.01,1.83c-0.39,0.73-0.81,1.55-1.25,2.47     c-0.44,0.91-0.89,1.89-1.34,2.94c-0.46,1.05-0.88,2.13-1.28,3.25c-0.4,1.12-0.75,2.25-1.05,3.4c-0.3,1.15-0.52,2.28-0.65,3.39     h-2.23c0.15-1.1,0.39-2.23,0.7-3.38c0.32-1.15,0.68-2.28,1.08-3.38c0.4-1.11,0.83-2.17,1.28-3.2c0.45-1.02,0.88-1.97,1.31-2.83     c0.42-0.86,0.81-1.62,1.16-2.28c0.35-0.66,0.63-1.17,0.84-1.54h-9.12v-1.91h11.57V108.59z"></path>
		</g>
		<g>
			<path class="st0" d="M211.96,145.84c-0.3,0.49-0.67,1.1-1.1,1.83c-0.43,0.73-0.88,1.55-1.36,2.47c-0.48,0.91-0.97,1.89-1.47,2.94     c-0.5,1.05-0.96,2.13-1.4,3.25c-0.43,1.12-0.81,2.25-1.14,3.4c-0.33,1.15-0.56,2.28-0.71,3.39h-2.43     c0.17-1.1,0.42-2.23,0.77-3.38c0.35-1.15,0.74-2.28,1.17-3.38c0.44-1.11,0.9-2.17,1.39-3.2c0.49-1.02,0.96-1.97,1.42-2.83     c0.46-0.86,0.88-1.62,1.26-2.28c0.38-0.66,0.69-1.17,0.92-1.54h-9.94v-1.91h12.61V145.84z"></path>
			<path class="st0" d="M225.07,157.47c0,0.9-0.17,1.72-0.5,2.45c-0.33,0.73-0.8,1.36-1.42,1.88c-0.61,0.53-1.35,0.93-2.22,1.21     c-0.87,0.28-1.83,0.43-2.89,0.43c-1.84,0-3.21-0.26-4.11-0.77v-2.25c1.35,0.81,2.72,1.21,4.13,1.21c0.72,0,1.37-0.1,1.94-0.3     c0.58-0.2,1.07-0.47,1.47-0.83c0.41-0.35,0.72-0.78,0.93-1.28c0.22-0.5,0.33-1.05,0.33-1.64c0-1.2-0.43-2.15-1.3-2.83     c-0.87-0.68-2.12-1.03-3.77-1.03c-0.27,0-0.55,0-0.84,0.01c-0.3,0.01-0.59,0.02-0.88,0.03s-0.58,0.03-0.86,0.05     c-0.28,0.02-0.54,0.04-0.77,0.06l0.68-9.28h9.16v1.91h-7.2l-0.4,5.43c0.3-0.02,0.61-0.03,0.94-0.05     c0.33-0.01,0.63-0.02,0.88-0.02c1.05,0,1.99,0.13,2.82,0.39c0.83,0.26,1.53,0.63,2.11,1.1c0.58,0.48,1.01,1.06,1.31,1.76     C224.92,155.83,225.07,156.61,225.07,157.47z"></path>
		</g>
		<g>
			<g>
				<path class="st14" d="M105.32,121.41L105.32,121.41l-17.14,0c-1.63-0.01-3.15-0.66-4.29-1.84c-1.14-1.18-1.77-2.73-1.75-4.39      c0.01-1.65,0.65-3.2,1.8-4.36c1.16-1.16,2.65-1.78,4.31-1.79c0.47,0,0.95,0.06,1.41,0.17c0.64-1.37,1.63-2.56,2.87-3.42      c1.58-1.09,3.49-1.61,5.4-1.45c1.9,0.16,3.71,0.99,5.09,2.34c1.08,1.06,1.86,2.39,2.27,3.85c0.11-0.01,0.21-0.01,0.32-0.01      c0.69,0,1.37,0.15,2.02,0.42c0.65,0.28,1.22,0.68,1.72,1.19c0.49,0.51,0.88,1.1,1.14,1.76c0.26,0.66,0.39,1.36,0.39,2.07      c0,0.71-0.13,1.4-0.39,2.07c-0.26,0.66-0.65,1.26-1.14,1.77c-0.49,0.51-1.07,0.91-1.72,1.19c-0.34,0.14-0.68,0.25-1.04,0.32      v0.04l-0.38,0.02c-0.2,0.03-0.41,0.04-0.62,0.04L105.32,121.41z M104.99,121.26c0.01,0,0.02,0.01,0.03,0.02L104.99,121.26z       M105.99,119.08l0.03,0.02C106.02,119.1,106.01,119.09,105.99,119.08z M88.22,111.44c-0.99,0-1.91,0.39-2.61,1.09      c-0.71,0.71-1.1,1.66-1.1,2.67c-0.01,1.01,0.37,1.96,1.07,2.68c0.7,0.72,1.63,1.12,2.62,1.12L105.8,119      c0.31-0.02,0.62-0.1,0.92-0.23c0.36-0.15,0.68-0.38,0.95-0.66c0.27-0.28,0.49-0.61,0.63-0.98c0.15-0.37,0.22-0.76,0.22-1.15      v-0.02c0-0.4-0.07-0.78-0.22-1.15c-0.15-0.37-0.36-0.7-0.63-0.98c-0.27-0.28-0.59-0.5-0.95-0.66s-0.74-0.23-1.13-0.24      c-0.34,0-0.59,0.04-0.87,0.12l-1.35,0.43l-0.18-1.42c-0.17-1.39-0.81-2.68-1.8-3.65c-0.99-0.97-2.29-1.56-3.66-1.68      c-1.37-0.12-2.74,0.25-3.88,1.04c-1.13,0.79-1.98,1.95-2.37,3.29l-0.39,1.32l-1.23-0.58c-0.5-0.24-1.06-0.36-1.62-0.37      C88.23,111.44,88.22,111.44,88.22,111.44z"></path>
			</g>
			<g>
				<rect x="95.33" y="123.42" class="st14" width="2.36" height="7.01"></rect>
			</g>
			<g>
				<rect x="100.05" y="123.42" class="st14" width="2.36" height="7.01"></rect>
			</g>
			<g>
				<rect x="90.61" y="123.42" class="st14" width="2.36" height="7.01"></rect>
			</g>
		</g>
	</g>
	<g>
		<path class="st15" d="M436.62,158.49h-157.4c-4.34,0-7.87-3.52-7.87-7.87V15.73c0-4.34,3.52-7.87,7.87-7.87h157.4    c4.34,0,7.87,3.52,7.87,7.87v134.89C444.49,154.96,440.97,158.49,436.62,158.49z"></path>
		<path class="st16" d="M271.35,127.44v23.11c0,4.38,3.49,7.94,7.8,7.94h157.54c4.31,0,7.8-3.55,7.8-7.94v-23.11H271.35z"></path>
		<rect x="304.31" y="127.44" class="st17" width="108.02" height="31.05"></rect>
		<g>
			<path class="st1" d="M285.72,150.97h-1.97c-0.49,0-0.89-0.4-0.89-0.89v-12.45c0-0.49,0.4-0.89,0.89-0.89h1.97     c0.49,0,0.89,0.4,0.89,0.89v12.45C286.61,150.58,286.21,150.97,285.72,150.97z"></path>
			<path class="st1" d="M293.97,150.97H292c-0.49,0-0.89-0.4-0.89-0.89v-12.45c0-0.49,0.4-0.89,0.89-0.89h1.97     c0.49,0,0.89,0.4,0.89,0.89v12.45C294.85,150.58,294.46,150.97,293.97,150.97z"></path>
		</g>
		<g>
			<path class="st1" d="M426.37,136.76l-3.59,3.73c-0.14,0.15-0.33,0.23-0.53,0.23h-2.1c-0.41,0-0.74,0.34-0.74,0.76v4     c0,0.42,0.33,0.76,0.74,0.76h2.56c0.2,0,0.4,0.08,0.54,0.23l3.12,3.31c0.46,0.49,1.28,0.16,1.28-0.52v-11.96     C427.64,136.61,426.84,136.27,426.37,136.76z"></path>
			<path class="st1" d="M429.55,139.43v7.68c1.54-0.58,2.64-2.07,2.64-3.84C432.2,141.5,431.09,140.01,429.55,139.43z"></path>
			<path class="st1" d="M429.55,135.21v1.82c2.79,0.65,4.89,3.19,4.89,6.23s-2.09,5.58-4.89,6.23v1.82     c3.77-0.67,6.65-4.02,6.65-8.05C436.2,139.24,433.32,135.89,429.55,135.21z"></path>
		</g>
		<path class="st18" d="M444.49,122.99H281.46v5.2h163.03V122.99z"></path>
		<path class="st13" d="M281.46,123.07h-10.11v5.18h10.11V123.07z"></path>
		<path class="st1" d="M359.29,102.87c20.2,0,36.58-16.67,36.58-37.23S379.49,28.4,359.29,28.4s-36.58,16.67-36.58,37.23    S339.08,102.87,359.29,102.87z"></path>
		<path class="st13" d="M348.51,79.41V51.86c0-0.39,0.1-0.76,0.29-1.1c0.19-0.33,0.46-0.61,0.79-0.81c0.33-0.19,0.7-0.29,1.08-0.29    c0.38,0,0.75,0.1,1.08,0.29l23.68,13.77c0.33,0.19,0.6,0.47,0.79,0.8c0.19,0.34,0.29,0.72,0.29,1.1s-0.1,0.77-0.29,1.1    c-0.19,0.33-0.46,0.61-0.79,0.8l-23.68,13.77c-0.33,0.19-0.7,0.29-1.08,0.29c-0.38,0-0.75-0.1-1.08-0.3    c-0.33-0.19-0.6-0.47-0.79-0.8C348.61,80.17,348.51,79.79,348.51,79.41L348.51,79.41z"></path>
		<path class="st19" d="M393.61,147.1h-68.99c-2.47,0-4.47-2-4.47-4.47v-1.42c0-2.47,2-4.47,4.47-4.47h68.99    c2.47,0,4.47,2,4.47,4.47v1.42C398.07,145.1,396.07,147.1,393.61,147.1z"></path>
	</g>
	<path class="st19" d="M273.58,218.2h-85.51c-3.81,0-6.9-3.09-6.9-6.9v-23.53c0-3.81,3.09-6.9,6.9-6.9h85.51   c3.81,0,6.9,3.09,6.9,6.9v23.53C280.48,215.12,277.39,218.2,273.58,218.2z"></path>
	<path class="st16" d="M216.67,180.88h-28.66c-3.78,0-6.84,3.12-6.84,6.96v23.41c0,3.84,3.06,6.96,6.84,6.96h28.66V180.88z"></path>
	<path class="st20" d="M264.65,203.67h-34.77c-2.11,0-3.82-1.71-3.82-3.82v-0.07c0-2.11,1.71-3.82,3.82-3.82h34.77   c2.11,0,3.82,1.71,3.82,3.82v0.07C268.47,201.96,266.76,203.67,264.65,203.67z"></path>
	<path class="st13" d="M200.09,189.19l2.41,4.97c0.14,0.29,0.42,0.5,0.73,0.54l5.39,0.8c0.8,0.12,1.12,1.12,0.54,1.69l-3.9,3.87   c-0.23,0.23-0.33,0.56-0.28,0.88l0.92,5.47c0.14,0.81-0.7,1.43-1.41,1.05l-4.82-2.58c-0.28-0.15-0.62-0.15-0.91,0l-4.82,2.58   c-0.72,0.38-1.55-0.24-1.41-1.05l0.92-5.47c0.05-0.32-0.05-0.65-0.28-0.88l-3.9-3.87c-0.58-0.57-0.26-1.57,0.54-1.69l5.39-0.8   c0.32-0.05,0.59-0.25,0.73-0.54l2.41-4.97C198.7,188.45,199.74,188.45,200.09,189.19z"></path>
	<path class="st19" d="M380.43,218.2h-85.51c-3.81,0-6.9-3.09-6.9-6.9v-23.53c0-3.81,3.09-6.9,6.9-6.9h85.51   c3.81,0,6.9,3.09,6.9,6.9v23.53C387.33,215.12,384.24,218.2,380.43,218.2z"></path>
	<path class="st16" d="M323.52,180.88h-28.66c-3.78,0-6.84,3.12-6.84,6.96v23.41c0,3.84,3.06,6.96,6.84,6.96h28.66V180.88z"></path>
	<path class="st20" d="M371.5,203.67h-34.77c-2.11,0-3.82-1.71-3.82-3.82v-0.07c0-2.11,1.71-3.82,3.82-3.82h34.77   c2.11,0,3.82,1.71,3.82,3.82v0.07C375.32,201.96,373.61,203.67,371.5,203.67z"></path>
	<path class="st19" d="M273.58,261.9h-85.51c-3.81,0-6.9-3.09-6.9-6.9v-23.53c0-3.81,3.09-6.9,6.9-6.9h85.51   c3.81,0,6.9,3.09,6.9,6.9V255C280.48,258.81,277.39,261.9,273.58,261.9z"></path>
	<path class="st16" d="M216.67,224.57h-28.66c-3.78,0-6.84,3.12-6.84,6.96v23.41c0,3.84,3.06,6.96,6.84,6.96h28.66V224.57z"></path>
	<path class="st20" d="M264.65,247.36h-34.77c-2.11,0-3.82-1.71-3.82-3.82v-0.07c0-2.11,1.71-3.82,3.82-3.82h34.77   c2.11,0,3.82,1.71,3.82,3.82v0.07C268.47,245.65,266.76,247.36,264.65,247.36z"></path>
	<path class="st19" d="M380.43,261.9h-85.51c-3.81,0-6.9-3.09-6.9-6.9v-23.53c0-3.81,3.09-6.9,6.9-6.9h85.51   c3.81,0,6.9,3.09,6.9,6.9V255C387.33,258.81,384.24,261.9,380.43,261.9z"></path>
	<path class="st16" d="M323.52,224.57h-28.66c-3.78,0-6.84,3.12-6.84,6.96v23.41c0,3.84,3.06,6.96,6.84,6.96h28.66V224.57z"></path>
	<path class="st20" d="M371.5,247.36h-34.77c-2.11,0-3.82-1.71-3.82-3.82v-0.07c0-2.11,1.71-3.82,3.82-3.82h34.77   c2.11,0,3.82,1.71,3.82,3.82v0.07C375.32,245.65,373.61,247.36,371.5,247.36z"></path>
	<path class="st13" d="M316.24,195.71c-0.03-3.22-2.6-6.03-5.76-6.01c-1.71,0.01-3.24,0.78-4.28,2c0,0,0,0,0,0c0,0,0,0,0,0   c-1.04-1.22-2.57-1.99-4.28-2c-3.16-0.02-5.73,2.79-5.76,6.01c-0.01,0.85-0.03,1.81,0.91,4.25c1.61,4.18,6.74,8.71,8.52,10.19   c0.36,0.3,0.87,0.3,1.23,0c1.78-1.48,6.91-6.01,8.52-10.19C316.26,197.52,316.24,196.56,316.24,195.71z"></path>
	<path class="st13" d="M209.35,242.36v-0.55c0-4.52-3.6-8.18-8.04-8.18h-4.26c-4.44,0-8.04,3.66-8.04,8.18v0.55   c0,4.52,3.6,8.18,8.04,8.18h4.26c0,0,0.01,0,0.01,0l4.81,3.84c0.51,0.41,1.24-0.01,1.18-0.66l-0.55-5.36   C208.35,246.86,209.35,244.73,209.35,242.36z"></path>
	<path class="st13" d="M316.75,241.65l-3.46-3.52v-4.68c0-0.23-0.18-0.41-0.41-0.41h-1.66c-0.22,0-0.41,0.19-0.41,0.41v2.15   l-3.77-3.84c-0.44-0.45-1.16-0.45-1.6,0l-9.71,9.88c-0.71,0.72-0.21,1.96,0.8,1.96h1.98v8.3c0,0.53,0.43,0.97,0.95,0.97h3.29   c0.46,0,0.82-0.38,0.82-0.84v-6.05c0-0.35,0.28-0.64,0.63-0.64h4.31c0.35,0,0.63,0.29,0.63,0.64v5.78c0,0.61,0.49,1.11,1.09,1.11   h2.9c0.52,0,0.95-0.43,0.95-0.97v-8.3h1.86C316.96,243.61,317.46,242.38,316.75,241.65z"></path>
	<path class="st21" d="M444.59,90.94h-32.86c-4.5,0-8.15,3.71-8.15,8.3v23.75h41.01V90.94z"></path>
</g>
</svg>